<svg width="87" height="87" viewBox="0 0 87 87" fill="none" xmlns="http://www.w3.org/2000/svg">
<path d="M69.7262 3.11684L66.0462 6.79688H61.1719C60.8114 6.79689 60.4656 6.94012 60.2107 7.19505C59.9557 7.44998 59.8125 7.79573 59.8125 8.15625V13.0306L55.1712 17.6719H50.2969C49.9364 17.6719 49.5906 17.8151 49.3357 18.07C49.0807 18.325 48.9375 18.6707 48.9375 19.0312V23.9056L44.2962 28.5469H39.4219C39.0614 28.5469 38.7156 28.6901 38.4607 28.945C38.2057 29.2 38.0625 29.5457 38.0625 29.9062V34.7806L32.062 40.7812H27.4142C27.7901 38.5334 28.6346 36.3898 29.8927 34.4895C31.1509 32.5892 32.7947 30.9748 34.7173 29.7511L33.2514 27.4615C29.7832 29.6782 27.127 32.9596 25.6813 36.8136C24.2356 40.6675 24.0783 44.8862 25.2328 48.8371C26.3874 52.7881 28.7918 56.2582 32.0852 58.7272C35.3787 61.1962 39.3838 62.5309 43.5 62.5312H60.96C56.1948 66.9007 49.9652 69.3258 43.5 69.3281C29.2583 69.3281 17.6719 57.7417 17.6719 43.5H14.9531C14.9524 45.7903 15.2276 48.0724 15.7729 50.2969H5.4375V36.7031H16.3125C16.5813 36.7031 16.8442 36.6234 17.0677 36.474C17.2912 36.3246 17.4654 36.1124 17.5683 35.864L19.764 30.563C19.867 30.3146 19.8939 30.0413 19.8415 29.7776C19.789 29.5139 19.6596 29.2717 19.4695 29.0815L11.7795 21.3919L21.3919 11.7795L29.0815 19.4695C29.2716 19.6596 29.5139 19.7891 29.7776 19.8416C30.0413 19.894 30.3147 19.867 30.563 19.764L35.864 17.5683C36.1124 17.4654 36.3246 17.2912 36.474 17.0677C36.6234 16.8442 36.7031 16.5813 36.7031 16.3125V5.4375H50.2969V13.5938H53.0156V4.07812C53.0156 3.7176 52.8724 3.37185 52.6175 3.11692C52.3625 2.86199 52.0168 2.71877 51.6562 2.71875H35.3438C34.9832 2.71877 34.6375 2.86199 34.3825 3.11692C34.1276 3.37185 33.9844 3.7176 33.9844 4.07812V15.4041L30.3618 16.9047L22.3532 8.89584C22.0982 8.64095 21.7524 8.49775 21.3919 8.49775C21.0314 8.49775 20.6856 8.64095 20.4306 8.89584L8.89584 20.4306C8.64095 20.6856 8.49775 21.0314 8.49775 21.3919C8.49775 21.7524 8.64095 22.0982 8.89584 22.3532L16.9047 30.3618L15.4041 33.9844H4.07812C3.7176 33.9844 3.37185 34.1276 3.11692 34.3825C2.86199 34.6375 2.71877 34.9832 2.71875 35.3438V51.6562C2.71877 52.0168 2.86199 52.3625 3.11692 52.6175C3.37185 52.8724 3.7176 53.0156 4.07812 53.0156H15.4041L16.9047 56.6382L8.89584 64.6468C8.64095 64.9018 8.49775 65.2476 8.49775 65.6081C8.49775 65.9686 8.64095 66.3144 8.89584 66.5694L20.4306 78.1042C20.6856 78.3591 21.0314 78.5022 21.3919 78.5022C21.7524 78.5022 22.0982 78.3591 22.3532 78.1042L30.3618 70.0953L33.9844 71.5959V82.9219C33.9844 83.2824 34.1276 83.6282 34.3825 83.8831C34.6375 84.138 34.9832 84.2812 35.3438 84.2812H51.6562C52.0168 84.2812 52.3625 84.138 52.6175 83.8831C52.8724 83.6282 53.0156 83.2824 53.0156 82.9219V71.5959L56.6382 70.0953L64.6468 78.1042C64.9018 78.3591 65.2476 78.5022 65.6081 78.5022C65.9686 78.5022 66.3144 78.3591 66.5694 78.1042L78.1042 66.5694C78.3591 66.3144 78.5023 65.9686 78.5022 65.6081C78.5022 65.2475 78.359 64.9017 78.104 64.6468L75.9884 62.5312H82.9219C83.2824 62.5312 83.6282 62.388 83.8831 62.1331C84.138 61.8782 84.2812 61.5324 84.2812 61.1719V14.9531C84.2812 14.5926 84.138 14.2469 83.8831 13.9919C83.6282 13.737 83.2824 13.5938 82.9219 13.5938H72.0469C71.6863 13.5938 71.3406 13.737 71.0857 13.9919C70.8307 14.2469 70.6875 14.5926 70.6875 14.9531V24.4688H61.1719C60.8114 24.4688 60.4656 24.612 60.2107 24.8669C59.9557 25.1218 59.8125 25.4676 59.8125 25.8281V32.625H50.2969C49.9364 32.625 49.5906 32.7682 49.3357 33.0232C49.0807 33.2781 48.9375 33.6239 48.9375 33.9844V42.1406H39.4219C39.0614 42.1406 38.7156 42.2839 38.4607 42.5388C38.2057 42.7937 38.0625 43.1395 38.0625 43.5V48.9375H28.1205C27.5017 47.1915 27.1861 45.3525 27.1875 43.5H32.625C32.9855 43.5 33.3313 43.3568 33.5863 43.1019L39.9851 36.7031H44.8594C45.2199 36.7031 45.5657 36.5599 45.8206 36.305C46.0755 36.05 46.2187 35.7043 46.2188 35.3438V30.4694L50.8601 25.8281H55.7344C56.0949 25.8281 56.4407 25.6849 56.6956 25.43C56.9505 25.175 57.0937 24.8293 57.0938 24.4688V19.5944L61.7351 14.9531H66.6094C66.9699 14.9531 67.3157 14.8099 67.5706 14.555C67.8255 14.3 67.9687 13.9543 67.9688 13.5938V8.71945L71.2505 5.4375H84.2812V2.71875H70.6875C70.327 2.71876 69.9812 2.86195 69.7262 3.11684ZM21.3919 75.2205L11.7795 65.6081L19.0936 58.2943C21.4838 62.2202 24.7798 65.5162 28.7057 67.9064L21.3919 75.2205ZM36.7031 81.5625V71.2271C41.1685 72.321 45.832 72.3201 50.2969 71.2245V81.5625H36.7031ZM75.2205 65.6081L65.6081 75.2205L58.296 67.9081C60.7096 66.4458 62.8931 64.6338 64.7753 62.5312H72.1434L75.2205 65.6081ZM73.4062 16.3125H81.5625V59.8125H73.4062V16.3125ZM62.5312 27.1875H70.6875V59.8125H62.5312V27.1875ZM51.6562 35.3438H59.8125V59.8125H51.6562V35.3438ZM40.7812 44.8594H48.9375V59.8125H43.5C42.589 59.8124 41.6796 59.7362 40.7812 59.5847V44.8594ZM38.0625 51.6562V58.8795C34.4034 57.5762 31.3257 55.0165 29.3773 51.6562H38.0625ZM43.5 33.9844H40.7812V31.2656H43.5V33.9844ZM54.375 23.1094H51.6562V20.3906H54.375V23.1094ZM65.25 12.2344H62.5312V9.51562H65.25V12.2344Z" fill="#203B54"/>
</svg>
