<svg width="32" height="32" viewBox="0 0 32 32" fill="none" xmlns="http://www.w3.org/2000/svg">
<g id="customer-support 1" clip-path="url(#clip0_144_2127)">
<path id="Vector" d="M0.10136 2.93538L2.2355 6.66992C2.30749 6.79611 2.42798 6.88741 2.56888 6.92275L4.55993 7.42051L11.3888 14.2494L12.1433 13.4951L5.20759 6.55952C5.13934 6.49105 5.05374 6.44254 4.96003 6.41906L3.04689 5.93907L1.22988 2.75761L2.7877 1.1998L5.97048 3.01856L6.45068 4.9317C6.47395 5.02563 6.52267 5.11145 6.59092 5.1797L13.5267 12.1155L14.281 11.3609L7.45213 4.53204L6.95437 2.54209C6.91903 2.40097 6.82773 2.28026 6.70154 2.20805L2.96678 0.074128C2.75851 -0.0443867 2.49646 -0.00927121 2.32658 0.159942L0.19266 2.29409C0.021033 2.46286 -0.0162772 2.72535 0.10136 2.93538Z" fill="#203B54"/>
<path id="Vector_2" d="M22.2822 10.5147L10.5451 22.2521L9.79053 21.4975L21.5279 9.76038L22.2822 10.5147Z" fill="#203B54"/>
<path id="Vector_3" d="M8.49084 22.6673C8.39428 22.5067 8.22089 22.4086 8.03346 22.4086H4.83247C4.64526 22.4086 4.47165 22.5067 4.37531 22.6673L2.7747 25.3348C2.67308 25.5038 2.67308 25.7151 2.7747 25.8843L4.37531 28.5518C4.47165 28.7122 4.64526 28.8106 4.83247 28.8106H8.03346C8.22089 28.8106 8.39428 28.7122 8.49084 28.5518L10.0912 25.8843C10.1928 25.7151 10.1928 25.5038 10.0912 25.3348L8.49084 22.6673ZM7.73169 27.7435H5.13446L3.85406 25.6096L5.13446 23.4754H7.73169L9.01209 25.6096L7.73169 27.7435Z" fill="#203B54"/>
<path id="Vector_4" d="M25.6392 12.8053C29.1628 12.8171 32.0291 9.97015 32.041 6.44653C32.0427 5.91015 31.9769 5.37595 31.845 4.85602C31.7739 4.57005 31.4844 4.39601 31.1984 4.46712C31.1045 4.4906 31.0189 4.5391 30.9504 4.60736L27.6293 7.92621L24.9944 7.04811L24.1156 4.41379L27.4367 1.09208C27.6449 0.883581 27.6447 0.545814 27.4362 0.337535C27.3675 0.268841 27.281 0.220118 27.1865 0.196854C23.7693 -0.668524 20.2979 1.4 19.4325 4.81696C19.3011 5.33535 19.2354 5.86823 19.2372 6.40308C19.2385 6.82315 19.2817 7.2419 19.3669 7.65319L7.68287 19.337C7.27158 19.2521 6.85283 19.2088 6.43298 19.2073C2.89706 19.2073 0.0307617 22.0736 0.0307617 25.6095C0.0307617 29.1452 2.89706 32.0115 6.43298 32.0115C9.96867 32.0115 12.835 29.1452 12.835 25.6095C12.8337 25.1894 12.7902 24.7707 12.7053 24.3594L15.5024 21.5622L16.7258 22.7856C16.9343 22.9938 17.2718 22.9938 17.4803 22.7856L17.747 22.5187C17.9809 22.2863 18.3591 22.2863 18.593 22.5187C18.8268 22.7518 18.8272 23.1301 18.5941 23.3639C18.5939 23.3641 18.5935 23.3645 18.593 23.365L18.3264 23.6316C18.1181 23.8399 18.1181 24.1777 18.3264 24.3859L24.6906 30.7502C26.3645 32.4395 29.0908 32.4518 30.7801 30.7778C32.4691 29.1039 32.4814 26.3774 30.8075 24.6884C30.7985 24.6792 30.7893 24.6699 30.7801 24.6607L24.4158 18.2967C24.2076 18.0884 23.8698 18.0884 23.6615 18.2967L23.3949 18.5634C23.1607 18.796 22.7828 18.796 22.5486 18.5634C22.3151 18.3303 22.3144 17.9519 22.5475 17.7184C22.5479 17.718 22.5484 17.7177 22.5486 17.7173L22.8155 17.4504C23.0237 17.2421 23.0237 16.9044 22.8155 16.6961L21.5921 15.4728L24.3893 12.6756C24.8006 12.7605 25.2193 12.804 25.6392 12.8053ZM27.7354 30.9446C27.3478 30.944 26.9635 30.874 26.6007 30.7377L30.7674 26.5708C31.3961 28.2434 30.5501 30.1089 28.8775 30.7377C28.5125 30.8748 28.1256 30.9451 27.7354 30.9446ZM21.6913 17.0786C21.1005 17.7834 21.1931 18.8337 21.8978 19.4243C22.5172 19.9434 23.4199 19.943 24.0386 19.4228L30.0258 25.4153C30.0907 25.4805 30.1515 25.5491 30.2103 25.6189L25.6488 30.1804C25.5788 30.1218 25.5101 30.061 25.4449 29.9959L19.4531 24.0036C20.044 23.2989 19.9513 22.2485 19.2466 21.6579C18.6273 21.1386 17.7244 21.1393 17.1057 21.6592L16.2521 20.8057L20.8376 16.2271L21.6913 17.0786ZM23.8457 11.7128L11.7429 23.8131C11.6101 23.9457 11.5568 24.1382 11.602 24.3201C12.3339 27.1945 10.597 30.1181 7.72237 30.8498C4.84795 31.5818 1.92436 29.8449 1.19243 26.9702C0.460707 24.0958 2.19761 21.1722 5.07225 20.4403C5.9418 20.2191 6.85283 20.2191 7.72237 20.4403C7.90431 20.4848 8.09635 20.4315 8.22935 20.2996L20.3293 8.19902C20.4618 8.06646 20.5152 7.87398 20.4695 7.69226C19.7426 4.85141 21.4563 1.95921 24.2971 1.2321C24.8339 1.09493 25.3892 1.04226 25.9423 1.07672L23.128 3.8921C22.9851 4.03476 22.9351 4.24611 22.9989 4.43771L24.0658 7.63893C24.1191 7.79804 24.2442 7.92314 24.4036 7.97603L27.6048 9.04311C27.7961 9.10697 28.0075 9.05715 28.1504 8.9145L30.9647 6.10021C30.971 6.20204 30.9743 6.30278 30.9743 6.40308C30.9892 9.33456 28.6251 11.7231 25.6936 11.7382C25.2404 11.7404 24.7887 11.6847 24.3498 11.5723C24.1678 11.5269 23.9754 11.58 23.8428 11.7125H23.8457V11.7128Z" fill="#203B54"/>
<path id="Vector_5" d="M27.6175 26.8326L26.863 27.5871L21.5281 22.2522L22.2824 21.4977L27.6175 26.8326Z" fill="#203B54"/>
</g>
<defs>
<clipPath id="clip0_144_2127">
<rect width="32" height="32" fill="white"/>
</clipPath>
</defs>
</svg>
