<svg width="32" height="32" viewBox="0 0 32 32" fill="none" xmlns="http://www.w3.org/2000/svg">
<g id="revision 1">
<path id="Vector" d="M6.35017 20.5387C6.41582 20.5387 6.48083 20.5258 6.54149 20.5007C6.60215 20.4756 6.65727 20.4388 6.70369 20.3924C6.75011 20.346 6.78693 20.2909 6.81203 20.2302C6.83714 20.1695 6.85004 20.1045 6.85001 20.0389V4.49918C6.85044 4.10162 7.00856 3.72047 7.28968 3.43936C7.5708 3.15824 7.95195 3.00012 8.34951 2.99968H15.7572C16.9892 3.00599 18.2082 3.25253 19.3458 3.7255V6.28376C19.3466 6.94634 19.6101 7.58156 20.0786 8.05007C20.5472 8.51859 21.1824 8.78214 21.845 8.78292H24.4129C24.814 9.73817 25.0513 10.7542 25.1149 11.7883C25.1252 11.9198 25.1864 12.0422 25.2854 12.1294C25.3845 12.2166 25.5136 12.2618 25.6454 12.2554C25.711 12.2512 25.775 12.2342 25.8339 12.2053C25.8929 12.1764 25.9455 12.1361 25.9889 12.0869C26.0323 12.0376 26.0655 11.9803 26.0868 11.9181C26.108 11.856 26.1167 11.7903 26.1126 11.7248C26.0567 10.8265 25.8827 9.93941 25.5952 9.0865C24.9076 7.02158 23.5872 5.22565 21.8212 3.9536C20.0553 2.68156 17.9336 1.99802 15.7572 2H8.3495C7.68692 2.00078 7.0517 2.26434 6.58319 2.73285C6.11467 3.20137 5.85112 3.83658 5.85034 4.49916V20.0389C5.8503 20.1045 5.86321 20.1695 5.88831 20.2302C5.91342 20.2909 5.95023 20.346 5.99666 20.3924C6.04308 20.4388 6.09819 20.4756 6.15885 20.5007C6.21951 20.5258 6.28452 20.5387 6.35017 20.5387ZM20.3455 4.19826C21.8469 5.04069 23.0866 6.28126 23.928 7.78326H21.845C21.4474 7.78283 21.0663 7.6247 20.7851 7.34359C20.504 7.06247 20.3459 6.68132 20.3455 6.28376L20.3455 4.19826Z" fill="#203B54"/>
<path id="Vector_2" d="M25.6337 18.2197C25.5681 18.2197 25.5031 18.2326 25.4424 18.2577C25.3818 18.2828 25.3266 18.3196 25.2802 18.366C25.2338 18.4125 25.197 18.4676 25.1719 18.5282C25.1468 18.5889 25.1339 18.6539 25.1339 18.7196V27.4915C25.1335 27.8891 24.9753 28.2702 24.6942 28.5513C24.4131 28.8325 24.032 28.9906 23.6344 28.991H8.34951C7.95303 28.9871 7.57391 28.8278 7.29355 28.5475C7.01319 28.2671 6.85394 27.888 6.85001 27.4915V27.0015C6.84959 26.8692 6.79674 26.7425 6.70305 26.6491C6.60936 26.5557 6.48247 26.5032 6.35017 26.5032C6.21788 26.5032 6.09099 26.5557 5.9973 26.6491C5.90361 26.7425 5.85076 26.8692 5.85034 27.0015V27.4915C5.85497 28.1215 6.09571 28.7268 6.52499 29.1879C6.95428 29.649 7.54089 29.9323 8.16893 29.9819C8.47263 30.0293 23.3568 29.9662 23.6346 29.9908C24.2971 29.9899 24.9323 29.7263 25.4008 29.2578C25.8693 28.7893 26.1328 28.1541 26.1336 27.4915V18.7196C26.1336 18.6539 26.1207 18.5889 26.0956 18.5282C26.0705 18.4676 26.0337 18.4125 25.9872 18.366C25.9408 18.3196 25.8857 18.2828 25.8251 18.2577C25.7644 18.2326 25.6994 18.2197 25.6337 18.2197Z" fill="#203B54"/>
<path id="Vector_3" d="M21.6701 10.9969C21.6702 10.9313 21.6573 10.8662 21.6322 10.8056C21.6071 10.7449 21.5702 10.6898 21.5238 10.6434C21.4774 10.597 21.4223 10.5602 21.3616 10.535C21.301 10.5099 21.2359 10.497 21.1703 10.4971H9.37886C9.31309 10.4969 9.24792 10.5096 9.18709 10.5347C9.12627 10.5597 9.07098 10.5965 9.0244 10.6429C8.97782 10.6893 8.94086 10.7445 8.91564 10.8053C8.89042 10.866 8.87744 10.9311 8.87744 10.9969C8.87744 11.0627 8.89042 11.1278 8.91564 11.1885C8.94086 11.2493 8.97782 11.3045 9.0244 11.3509C9.07098 11.3973 9.12627 11.4341 9.18709 11.4591C9.24792 11.4842 9.31309 11.4969 9.37886 11.4967H21.1703C21.2359 11.4968 21.301 11.4839 21.3616 11.4588C21.4223 11.4337 21.4774 11.3968 21.5238 11.3504C21.5702 11.304 21.6071 11.2489 21.6322 11.1882C21.6573 11.1276 21.6702 11.0626 21.6701 10.9969Z" fill="#203B54"/>
<path id="Vector_4" d="M17.2167 15.1606H9.37896C9.2481 15.1632 9.12348 15.217 9.03186 15.3105C8.94023 15.4039 8.88891 15.5296 8.88892 15.6605C8.88892 15.7914 8.94025 15.917 9.03188 16.0105C9.12351 16.1039 9.24813 16.1577 9.37899 16.1603H17.2167C17.3475 16.1577 17.4721 16.1039 17.5638 16.0105C17.6554 15.917 17.7067 15.7914 17.7067 15.6605C17.7067 15.5296 17.6554 15.4039 17.5638 15.3105C17.4721 15.217 17.3475 15.1632 17.2167 15.1606Z" fill="#203B54"/>
<path id="Vector_5" d="M22.605 19.8291H10.6139C10.4831 19.8317 10.3585 19.8855 10.2669 19.979C10.1753 20.0724 10.124 20.1981 10.124 20.3289C10.124 20.4598 10.1753 20.5854 10.2669 20.6789C10.3585 20.7723 10.4831 20.8261 10.614 20.8288H22.605C22.7359 20.8261 22.8604 20.7723 22.952 20.6789C23.0436 20.5854 23.095 20.4598 23.095 20.3289C23.095 20.1981 23.0436 20.0724 22.952 19.979C22.8604 19.8855 22.7359 19.8317 22.605 19.8291Z" fill="#203B54"/>
<path id="Vector_6" d="M14.9675 24.4924C14.8366 24.495 14.7119 24.5488 14.6203 24.6422C14.5286 24.7357 14.4773 24.8614 14.4773 24.9923C14.4773 25.1232 14.5286 25.2489 14.6203 25.3423C14.712 25.4358 14.8366 25.4895 14.9675 25.4921H22.605C22.7359 25.4895 22.8606 25.4358 22.9522 25.3423C23.0439 25.2488 23.0952 25.1232 23.0952 24.9923C23.0952 24.8614 23.0439 24.7357 22.9522 24.6422C22.8606 24.5488 22.7359 24.495 22.605 24.4924H14.9675Z" fill="#203B54"/>
<path id="Vector_7" d="M8.36366 26.6602C8.3648 26.7502 8.39006 26.8383 8.43681 26.9152C8.48355 26.9921 8.55007 27.0551 8.62943 27.0976C8.70879 27.14 8.79809 27.1605 8.88802 27.1567C8.97796 27.1529 9.06523 27.1251 9.14074 27.0761L12.9612 24.5291C13.0297 24.4835 13.0859 24.4216 13.1247 24.3491C13.1635 24.2765 13.1838 24.1955 13.1838 24.1132C13.1838 24.0309 13.1635 23.9499 13.1247 23.8774C13.0859 23.8048 13.0297 23.743 12.9612 23.6974L9.14074 21.1509C9.06523 21.1019 8.97795 21.074 8.88801 21.0702C8.79807 21.0664 8.70876 21.0869 8.6294 21.1293C8.55003 21.1718 8.48351 21.2348 8.43677 21.3117C8.39003 21.3887 8.36478 21.4767 8.36366 21.5667V22.3184C7.11933 22.2101 5.9418 21.7085 5.00163 20.8862C4.06147 20.0639 3.4075 18.9636 3.13446 17.7448C3.37402 16.6638 3.91629 15.6734 4.6979 14.8893C4.78812 14.7945 4.8376 14.6682 4.83572 14.5374C4.83385 14.4066 4.78077 14.2817 4.68788 14.1896C4.59499 14.0975 4.46969 14.0455 4.33887 14.0447C4.20805 14.0439 4.08214 14.0944 3.98815 14.1854C-0.148551 18.2744 2.60465 25.505 8.36378 25.8684L8.36366 26.6602ZM3.1247 20.243C3.75126 21.1928 4.60326 21.9727 5.60464 22.513C6.60603 23.0533 7.72563 23.3373 8.86349 23.3396C8.92914 23.3396 8.99416 23.3267 9.05482 23.3016C9.11548 23.2765 9.17059 23.2397 9.21701 23.1932C9.26344 23.1468 9.30025 23.0917 9.32536 23.031C9.35046 22.9704 9.36337 22.9054 9.36333 22.8397V22.5005L11.7829 24.1132L9.36333 25.7265V25.3867C9.36337 25.3211 9.35046 25.2561 9.32536 25.1954C9.30025 25.1348 9.26344 25.0796 9.21701 25.0332C9.17059 24.9868 9.11548 24.95 9.05482 24.9249C8.99416 24.8998 8.92914 24.8869 8.86349 24.8869C7.52026 24.8852 6.21815 24.4234 5.17397 23.5784C4.12979 22.7334 3.40656 21.5563 3.1247 20.243Z" fill="#203B54"/>
<path id="Vector_8" d="M23.6201 12.8904V12.0991C23.619 12.0091 23.5937 11.9211 23.5469 11.8442C23.5002 11.7673 23.4337 11.7043 23.3543 11.6619C23.275 11.6194 23.1857 11.599 23.0958 11.6027C23.0058 11.6065 22.9186 11.6343 22.843 11.6833L19.0225 14.2298C18.9548 14.2759 18.8994 14.338 18.8611 14.4104C18.8228 14.4829 18.8027 14.5637 18.8027 14.6456C18.8027 14.7276 18.8228 14.8084 18.8611 14.8808C18.8994 14.9533 18.9548 15.0153 19.0225 15.0615L22.843 17.6085C22.9185 17.6575 23.0058 17.6854 23.0958 17.6892C23.1857 17.693 23.275 17.6726 23.3544 17.6301C23.4338 17.5876 23.5003 17.5246 23.547 17.4477C23.5938 17.3707 23.619 17.2826 23.6201 17.1926V16.4405C24.8644 16.5488 26.042 17.0504 26.9821 17.8727C27.9223 18.695 28.5763 19.7953 28.8493 21.0141C28.6102 22.0951 28.0678 23.0854 27.2859 23.8691C27.1924 23.9632 27.1402 24.0906 27.1406 24.2233C27.1411 24.3559 27.1942 24.4829 27.2883 24.5764C27.3824 24.6699 27.5098 24.7221 27.6425 24.7217C27.7751 24.7212 27.9021 24.6681 27.9956 24.574C28.9387 23.6274 29.5835 22.425 29.85 21.1157C30.0404 20.1595 30.0259 19.1738 29.8076 18.2236C29.5893 17.2734 29.1721 16.3802 28.5834 15.603C27.9948 14.8258 27.2481 14.1822 26.3926 13.7147C25.537 13.2471 24.5921 12.9661 23.6201 12.8904ZM23.1203 15.4193C23.0546 15.4193 22.9896 15.4322 22.929 15.4573C22.8683 15.4824 22.8132 15.5192 22.7668 15.5656C22.7203 15.612 22.6835 15.6672 22.6584 15.7278C22.6333 15.7885 22.6204 15.8535 22.6205 15.9191V16.2589L20.2009 14.6456L22.6205 13.0329V13.3721C22.6204 13.4378 22.6333 13.5028 22.6584 13.5635C22.6835 13.6241 22.7203 13.6792 22.7668 13.7257C22.8132 13.7721 22.8683 13.8089 22.929 13.834C22.9896 13.8591 23.0546 13.872 23.1203 13.872C24.4635 13.8737 25.7656 14.3355 26.8098 15.1805C27.854 16.0254 28.5772 17.2026 28.8591 18.5159C28.2325 17.5661 27.3805 16.7862 26.3791 16.2459C25.3778 15.7055 24.2581 15.4216 23.1203 15.4193Z" fill="#203B54"/>
</g>
</svg>
