<svg width="99" height="99" viewBox="0 0 99 99" fill="none" xmlns="http://www.w3.org/2000/svg">
<g clip-path="url(#clip0_238_2533)">
<path d="M77.335 40.6353C76.5933 40.6359 75.8528 40.6808 75.1165 40.7692C73.1177 34.2606 67.1135 29.8125 60.3052 29.7986C58.6104 29.7968 56.9277 30.0784 55.3261 30.63C51.3613 22.0566 41.9651 17.3973 32.7414 19.4306C23.5165 21.4645 16.9511 29.6418 16.9577 39.0871C16.9583 40.7195 17.1618 42.3453 17.5608 43.9269C8.7725 45.2687 2.49341 53.1451 3.14675 62.0115C3.79888 70.8785 11.1636 77.7516 20.0537 77.7909H77.335C87.5953 77.7909 95.9125 69.4731 95.9125 59.2128C95.9125 48.9526 87.5953 40.6353 77.335 40.6353ZM77.335 74.6944H20.0537C12.4213 74.7277 6.18457 68.6097 6.07074 60.9779C5.95751 53.3461 12.0083 47.0458 19.6389 46.8515C20.1342 46.8375 20.5926 46.5875 20.8723 46.1787C21.1533 45.7694 21.2205 45.2517 21.054 44.7849C17.981 35.9911 22.552 26.3612 31.3082 23.1817C40.0638 20.0022 49.7488 24.4569 53.0337 33.1737C53.1839 33.5782 53.4951 33.9009 53.8935 34.0656C54.2925 34.2303 54.7412 34.2212 55.1324 34.0408C56.7533 33.2869 58.5184 32.8964 60.3052 32.8946C66.1956 32.9055 71.2679 37.0544 72.4444 42.8261C72.6127 43.6653 73.4301 44.2078 74.2682 44.0383C75.2775 43.836 76.3045 43.7331 77.335 43.7319C85.8854 43.7319 92.8166 50.6637 92.8166 59.2128C92.8166 67.7632 85.8854 74.6944 77.335 74.6944Z" fill="#203B54"/>
<path d="M71.4773 64H64.0323V62.6115L67.9728 58.77C68.9311 57.8546 69.4102 57.0626 69.4102 56.3941C69.4102 55.8799 69.2487 55.4736 68.9257 55.1753C68.6027 54.877 68.1828 54.7279 67.666 54.7279C66.7185 54.7279 66.0187 55.1753 65.5665 56.0701L64 55.1907C64.3445 54.4811 64.8398 53.9411 65.4858 53.5708C66.1318 53.1903 66.8531 53 67.6498 53C68.6511 53 69.5017 53.2983 70.2015 53.8948C70.9121 54.5016 71.2674 55.3142 71.2674 56.3324C71.2674 57.4226 70.6268 58.5951 69.3456 59.8499L66.7939 62.2875H71.4773V64Z" fill="#203B54"/>
<path d="M79.708 60.4053H81V62.0561H79.708V64H77.8347V62.0561H72.2791V60.4053L76.1712 53.2006H78.1899L74.2979 60.4053H77.8347V57.5975H79.708V60.4053Z" fill="#203B54"/>
<g filter="url(#filter0_d_238_2533)">
<rect x="18" y="49" width="43" height="19.0328" rx="9.51639" fill="#203B54"/>
</g>
<path d="M27.1191 63.6137H25.1544L22.2295 53.4186H24.0169L26.1884 61.3853L28.5372 53.4186H30.103L32.437 61.3853L34.6085 53.4186H36.3959L33.4711 63.6137H31.5064L29.3201 56.1713L27.1191 63.6137Z" fill="white"/>
<path d="M45.8652 53.4186H47.6822V63.6137H45.9834V56.346L42.8369 61.4727H42.6301L39.4837 56.3315V63.6137H37.7849V53.4186H39.6166L42.7335 58.5161L45.8652 53.4186Z" fill="white"/>
<path d="M53.1007 63.803C52.106 63.803 51.2591 63.5846 50.5599 63.1476C49.8705 62.701 49.3879 62.0844 49.1122 61.2979L50.5746 60.4532C50.9883 61.5989 51.845 62.1718 53.145 62.1718C53.7753 62.1718 54.2529 62.0504 54.5779 61.8077C54.9029 61.565 55.0654 61.2397 55.0654 60.8319C55.0654 60.4241 54.893 60.1085 54.5483 59.8852C54.2036 59.6619 53.5931 59.4191 52.7166 59.157C51.8204 58.8948 51.0966 58.5841 50.5451 58.2248C49.8754 57.7588 49.5406 57.0743 49.5406 56.1713C49.5406 55.2683 49.8656 54.5546 50.5155 54.0303C51.1557 53.4963 51.9386 53.2292 52.8643 53.2292C53.6817 53.2292 54.4006 53.4283 55.021 53.8264C55.6513 54.2148 56.1339 54.7634 56.4687 55.4722L55.0358 56.2878C54.6025 55.3362 53.8787 54.8605 52.8643 54.8605C52.3719 54.8605 51.978 54.977 51.6825 55.21C51.3871 55.4333 51.2394 55.7392 51.2394 56.1276C51.2394 56.5062 51.3871 56.8072 51.6825 57.0306C51.978 57.2442 52.5245 57.4723 53.3222 57.7151C53.8146 57.8802 54.1002 57.9773 54.179 58.0064C54.3071 58.0452 54.5631 58.1423 54.9472 58.2977C55.2623 58.4239 55.5134 58.5598 55.7006 58.7055C56.4687 59.2978 56.8232 59.9968 56.7641 60.8027C56.7641 61.7252 56.4244 62.4582 55.7449 63.002C55.085 63.536 54.2036 63.803 53.1007 63.803Z" fill="white"/>
</g>
<defs>
<filter id="filter0_d_238_2533" x="-36" y="-1" width="151" height="127.033" filterUnits="userSpaceOnUse" color-interpolation-filters="sRGB">
<feFlood flood-opacity="0" result="BackgroundImageFix"/>
<feColorMatrix in="SourceAlpha" type="matrix" values="0 0 0 0 0 0 0 0 0 0 0 0 0 0 0 0 0 0 127 0" result="hardAlpha"/>
<feOffset dy="4"/>
<feGaussianBlur stdDeviation="27"/>
<feColorMatrix type="matrix" values="0 0 0 0 0.647059 0 0 0 0 0.666667 0 0 0 0 0.709804 0 0 0 0.1 0"/>
<feBlend mode="normal" in2="BackgroundImageFix" result="effect1_dropShadow_238_2533"/>
<feBlend mode="normal" in="SourceGraphic" in2="effect1_dropShadow_238_2533" result="shape"/>
</filter>
<clipPath id="clip0_238_2533">
<rect width="99" height="99" fill="white"/>
</clipPath>
</defs>
</svg>
