<svg width="89" height="85" viewBox="0 0 89 85" fill="none" xmlns="http://www.w3.org/2000/svg">
<g clip-path="url(#clip0_44_180)">
<path d="M34.7739 18.8582C32.7464 18.6657 30.7262 19.2936 29.1576 20.6038C27.589 21.9141 26.6006 23.7993 26.4098 25.8448C26.219 27.8902 26.8414 29.9284 28.1401 31.5108C29.4389 33.0933 31.3075 34.0905 33.335 34.283C33.5786 34.3062 33.8203 34.3177 34.0601 34.3175C36.0335 34.3158 37.9306 33.5475 39.3575 32.1722C40.7845 30.7968 41.6318 28.9201 41.7236 26.9312C41.8155 24.9424 41.1448 22.9943 39.8507 21.4911C38.5567 19.9879 36.7387 19.045 34.7739 18.8582ZM39.0777 27.0475C38.9861 28.0294 38.6137 28.9634 38.0058 29.7357C37.3979 30.5081 36.5807 31.0857 35.6535 31.3982C34.7263 31.7108 33.729 31.7449 32.783 31.4963C31.8369 31.2478 30.9828 30.7273 30.3245 29.9982C29.6662 29.2691 29.232 28.3628 29.0747 27.3894C28.9174 26.416 29.0438 25.4174 29.4385 24.5152C29.8333 23.6129 30.4793 22.8457 31.2981 22.3069C32.1169 21.7681 33.0733 21.4809 34.0508 21.4802C34.2083 21.4802 34.3675 21.4877 34.5272 21.5028C35.8588 21.6309 37.0857 22.2866 37.9387 23.3261C38.7918 24.3655 39.2014 25.7038 39.0777 27.0475ZM57.7994 12.6693H64.1299C64.4529 14.0559 65.2696 15.2744 66.425 16.0931C67.5803 16.9118 68.9936 17.2736 70.3961 17.1096C71.7985 16.9456 73.0924 16.2673 74.0315 15.2038C74.9706 14.1402 75.4895 12.7655 75.4895 11.3411C75.4895 9.91676 74.9706 8.54207 74.0315 7.4785C73.0924 6.41492 71.7985 5.73665 70.3961 5.57268C68.9936 5.40871 67.5803 5.77047 66.425 6.58917C65.2696 7.40787 64.4529 8.62639 64.1299 10.013H57.7994C57.0262 10.0139 56.285 10.3242 55.7383 10.8758C55.1915 11.4274 54.884 12.1753 54.8831 12.9553V25.2425H50.7034L50.695 24.0066C50.693 23.7045 50.5889 23.4121 50.4 23.1777C50.2111 22.9432 49.9486 22.7808 49.6558 22.7172L46.577 22.0485C46.4101 21.5791 46.2175 21.1195 45.9998 20.6719L47.6722 17.9784C47.8313 17.7224 47.899 17.4193 47.8643 17.1192C47.8295 16.8191 47.6944 16.5399 47.4812 16.3277L44.0238 12.8869C43.8106 12.6747 43.532 12.5422 43.2341 12.5112C42.9361 12.4803 42.6366 12.5528 42.385 12.7167L39.7383 14.4408C39.2917 14.2272 38.8335 14.0391 38.366 13.8772L37.6612 10.7807C37.5946 10.4876 37.4313 10.2261 37.1981 10.0388C36.965 9.85152 36.6757 9.7496 36.3777 9.74971H36.3686L31.5122 9.78291C31.2127 9.78494 30.9229 9.88994 30.6905 10.0806C30.4581 10.2712 30.2971 10.5361 30.2341 10.8315L29.5714 13.9376C29.1062 14.1058 28.6506 14.3002 28.2069 14.5198L25.5376 12.8329C25.2839 12.6726 24.9835 12.6043 24.686 12.6394C24.3886 12.6744 24.1119 12.8108 23.9016 13.0259L20.491 16.5138C20.2807 16.7289 20.1494 17.0099 20.1188 17.3105C20.0881 17.611 20.1599 17.9131 20.3223 18.1669L22.0311 20.8372C21.8195 21.2878 21.633 21.75 21.4726 22.2216L18.4031 22.9325C18.1112 23.0001 17.851 23.1661 17.6652 23.4031C17.4795 23.64 17.3793 23.9338 17.3814 24.2359L17.4143 29.1355C17.4163 29.4376 17.5204 29.73 17.7094 29.9644C17.8983 30.1988 18.1609 30.3612 18.4536 30.4248L21.5323 31.0935C21.6992 31.5628 21.8918 32.0224 22.1094 32.4701L20.4367 35.1635C20.2777 35.4196 20.2099 35.7227 20.2447 36.0228C20.2794 36.3229 20.4145 36.6021 20.6277 36.8142L24.0851 40.2551C24.2983 40.4673 24.5768 40.5998 24.8748 40.6308C25.1727 40.6617 25.4722 40.5893 25.7238 40.4254L28.3705 38.7012C28.8172 38.9147 29.2753 39.1028 29.7427 39.2648L30.4475 42.3613C30.5142 42.6544 30.6775 42.9159 30.9107 43.1032C31.1438 43.2905 31.4331 43.3924 31.7311 43.3923H31.7401L36.5967 43.3591C36.8962 43.357 37.186 43.252 37.4183 43.0614C37.6506 42.8708 37.8116 42.606 37.8747 42.3107L38.5375 39.2047C39.0027 39.0364 39.4583 38.8419 39.902 38.6223L42.571 40.3085C42.8248 40.469 43.1252 40.5373 43.4226 40.5023C43.7201 40.4672 43.9968 40.3309 44.2072 40.1158L47.6176 36.6278C47.828 36.4127 47.9593 36.1317 47.99 35.8311C48.0207 35.5306 47.9489 35.2285 47.7864 34.9746L46.0775 32.3044C46.2892 31.8539 46.4757 31.3917 46.636 30.92L49.7055 30.2091C49.9974 30.1415 50.2578 29.9755 50.4435 29.7385C50.6293 29.5016 50.7295 29.2077 50.7274 28.9056L50.7205 27.8984H54.8831V40.1857C54.884 40.9657 55.1915 41.7135 55.7383 42.2651C56.285 42.8167 57.0262 43.1269 57.7994 43.1278H64.1299C64.4529 44.5144 65.2696 45.733 66.425 46.5517C67.5803 47.3703 68.9936 47.7321 70.3961 47.5681C71.7985 47.4042 73.0924 46.7259 74.0315 45.6623C74.9706 44.5987 75.4895 43.2241 75.4895 41.7997C75.4895 40.3753 74.9706 39.0006 74.0315 37.9371C73.0924 36.8735 71.7985 36.1952 70.3961 36.0312C68.9936 35.8673 67.5803 36.229 66.425 37.0477C65.2696 37.8664 64.4529 39.0849 64.1299 40.4716H57.7994C57.7246 40.4706 57.653 40.4402 57.6001 40.3868C57.5472 40.3334 57.517 40.2612 57.5161 40.1857V27.8987H64.1299C64.4529 29.2853 65.2696 30.5038 66.425 31.3225C67.5803 32.1412 68.9936 32.503 70.3961 32.339C71.7985 32.1751 73.0924 31.4968 74.0315 30.4332C74.9706 29.3696 75.4895 27.9949 75.4895 26.5706C75.4895 25.1462 74.9706 23.7715 74.0315 22.7079C73.0924 21.6444 71.7985 20.9661 70.3961 20.8021C68.9936 20.6381 67.5803 20.9999 66.425 21.8186C65.2696 22.6373 64.4529 23.8558 64.1299 25.2425H57.5161V12.9553C57.517 12.8798 57.5471 12.8076 57.6001 12.7541C57.653 12.7007 57.7246 12.6702 57.7994 12.6693ZM69.7325 8.19032C70.3502 8.19032 70.9541 8.37513 71.4677 8.72137C71.9813 9.06761 72.3816 9.55973 72.618 10.1355C72.8544 10.7113 72.9163 11.3448 72.7957 11.9561C72.6752 12.5673 72.3777 13.1288 71.9409 13.5694C71.5041 14.0101 70.9476 14.3102 70.3417 14.4317C69.7358 14.5533 69.1078 14.4909 68.5371 14.2524C67.9664 14.0139 67.4786 13.61 67.1355 13.0918C66.7923 12.5736 66.6091 11.9643 66.6092 11.3411C66.6101 10.5057 66.9394 9.70483 67.525 9.11413C68.1105 8.52344 68.9044 8.1912 69.7325 8.19032ZM45.309 28.5027C45.0776 28.5563 44.8649 28.672 44.6934 28.8376C44.5219 29.0032 44.3979 29.2125 44.3347 29.4433C44.115 30.2436 43.8036 31.0154 43.4069 31.7431C43.2925 31.9531 43.2366 32.1903 43.245 32.4298C43.2534 32.6692 43.3258 32.9019 43.4546 33.1031L45.0015 35.521L43.0745 37.4924L40.657 35.9651C40.4557 35.8377 40.2239 35.7677 39.9864 35.7625C39.7488 35.7572 39.5143 35.817 39.3076 35.9354C38.5917 36.3454 37.831 36.6701 37.0407 36.9027C36.8127 36.9697 36.607 37.0977 36.4452 37.273C36.2834 37.4484 36.1717 37.6646 36.1218 37.8988L35.5218 40.7105L32.7768 40.7294L32.1389 37.9262C32.0858 37.6928 31.9711 37.4782 31.807 37.3052C31.6429 37.1321 31.4354 37.0071 31.2066 36.9432C30.4133 36.7215 29.6482 36.4074 28.9269 36.0072C28.7188 35.8919 28.4836 35.8354 28.2463 35.8439C28.0089 35.8524 27.7783 35.9254 27.5788 36.0554L25.182 37.6159L23.2279 35.6711L24.7427 33.2321C24.8687 33.0291 24.938 32.7955 24.9432 32.556C24.9484 32.3165 24.8893 32.08 24.7721 31.8716C24.3656 31.1493 24.0438 30.3818 23.8131 29.5844C23.7467 29.3544 23.6198 29.1468 23.446 28.9837C23.2722 28.8205 23.0579 28.7077 22.8257 28.6574L20.0386 28.0521L20.02 25.283L22.7986 24.6393C23.03 24.5857 23.2427 24.47 23.4142 24.3044C23.5857 24.1388 23.7097 23.9295 23.7729 23.6987C23.9927 22.8983 24.304 22.1264 24.7007 21.3987C24.8151 21.1887 24.871 20.9515 24.8626 20.7121C24.8542 20.4726 24.7818 20.24 24.653 20.0387L23.1061 17.6208L25.0338 15.6494L27.4513 17.1767C27.6526 17.3041 27.8843 17.3741 28.1219 17.3793C28.3595 17.3846 28.594 17.3248 28.8006 17.2065C29.5168 16.7964 30.2779 16.4718 31.0684 16.2393C31.2964 16.1722 31.5021 16.0443 31.6638 15.8689C31.8255 15.6936 31.9373 15.4773 31.9871 15.2432L32.5871 12.4315L35.3321 12.4126L35.9701 15.2158C36.0232 15.4492 36.1379 15.6638 36.302 15.8369C36.4662 16.0099 36.6736 16.1349 36.9025 16.1987C37.6958 16.4204 38.4608 16.7345 39.1821 17.1347C39.3902 17.2501 39.6254 17.3066 39.8627 17.2981C40.1 17.2896 40.3306 17.2165 40.5301 17.0866L42.9269 15.5261L44.881 17.4709L43.3671 19.9099C43.2409 20.113 43.1715 20.3468 43.1664 20.5865C43.1612 20.8261 43.2204 21.0627 43.3378 21.2712C43.7443 21.9934 44.0661 22.7609 44.2967 23.5582C44.3631 23.7882 44.49 23.9957 44.6638 24.1589C44.8376 24.3221 45.0519 24.4348 45.284 24.4851L48.0711 25.0905L48.0897 27.8599L45.309 28.5027ZM69.7325 38.6492C70.3502 38.6492 70.9541 38.834 71.4677 39.1803C71.9813 39.5265 72.3816 40.0186 72.618 40.5944C72.8544 41.1702 72.9163 41.8037 72.7957 42.415C72.6752 43.0262 72.3777 43.5877 71.9409 44.0283C71.5041 44.469 70.9476 44.7691 70.3417 44.8906C69.7358 45.0122 69.1078 44.9498 68.5371 44.7113C67.9664 44.4727 67.4786 44.0689 67.1355 43.5507C66.7923 43.0325 66.6091 42.4232 66.6092 41.8C66.6101 40.9646 66.9394 40.1637 67.525 39.573C68.1105 38.9823 68.9044 38.6501 69.7325 38.6492ZM69.7325 23.4198C70.3502 23.4198 70.9541 23.6046 71.4677 23.9508C71.9813 24.2971 72.3816 24.7892 72.618 25.365C72.8544 25.9407 72.9163 26.5743 72.7957 27.1855C72.6752 27.7968 72.3777 28.3582 71.9409 28.7989C71.5041 29.2395 70.9476 29.5396 70.3417 29.6612C69.7358 29.7828 69.1078 29.7203 68.5371 29.4818C67.9664 29.2433 67.4786 28.8394 67.1355 28.3212C66.7923 27.803 66.6091 27.1938 66.6092 26.5706C66.6101 25.7352 66.9394 24.9343 67.525 24.3436C68.1105 23.7529 68.9044 23.4206 69.7325 23.4198ZM79.1634 52.5542C79.054 52.5614 78.946 52.5824 78.8419 52.6168L57.665 59.5944C57.5654 58.6231 57.2358 57.6901 56.7041 56.8741C56.5623 56.6569 56.3604 56.4865 56.1234 56.384L34.8297 47.1773C33.9449 46.784 32.9881 46.5822 32.0212 46.5851C31.0543 46.588 30.0987 46.7953 29.2162 47.1939L20.124 51.1899V50.4149C20.1233 49.7163 19.8478 49.0465 19.3582 48.5525C18.8685 48.0585 18.2047 47.7806 17.5122 47.7797H2.61202C1.91945 47.7805 1.25548 48.0585 0.765792 48.5525C0.276104 49.0466 0.000696873 49.7165 0 50.4152L0 75.6433C0.000783974 76.3419 0.27623 77.0117 0.765908 77.5058C1.25559 77.9998 1.91951 78.2777 2.61202 78.2785H17.5124C18.2048 78.2777 18.8687 77.9998 19.3584 77.5058C19.8481 77.0117 20.1235 76.3419 20.1242 75.6433V73.4272L29.0424 71.038C29.1937 70.992 29.3533 70.9804 29.5096 71.004C29.6659 71.0276 29.8151 71.0859 29.9465 71.1747L41.4026 78.3668C42.4324 79.0303 43.6177 79.4074 44.8385 79.4599C46.0593 79.5123 47.2722 79.2383 48.3542 78.6656L82.3109 61.2057C82.4012 61.1593 82.4859 61.1024 82.5633 61.0364C83.3309 60.3816 83.874 59.4991 84.1153 58.5146C84.3565 57.5301 84.2836 56.4939 83.9069 55.5537C83.5302 54.6135 82.8689 53.8172 82.0173 53.2784C81.1657 52.7396 80.1672 52.4858 79.1642 52.553L79.1634 52.5542ZM17.4913 75.6222H2.63292V50.4363H17.4913V75.6222ZM80.9622 58.9189L47.1578 76.3007C46.48 76.6659 45.7176 76.8411 44.9499 76.808C44.1822 76.775 43.4373 76.5349 42.7928 76.1128L31.3376 68.9212C30.901 68.641 30.411 68.4564 29.8993 68.3792C29.3876 68.302 28.8655 68.3339 28.3667 68.4729L20.1242 70.6809V54.0878L30.268 49.6296C30.8203 49.3725 31.421 49.2385 32.0292 49.2367C32.6374 49.2348 33.2389 49.3652 33.7927 49.619L54.6898 58.6544C54.9659 59.1953 55.0955 59.8002 55.0654 60.4078C55.0354 61.0155 54.8468 61.6043 54.5188 62.1148C54.1907 62.6253 53.7348 63.0394 53.1972 63.315C52.6596 63.5907 52.0594 63.7182 51.4572 63.6847L40.9652 59.1485C40.6453 59.0152 40.2861 59.0143 39.9656 59.1462C39.645 59.2781 39.3889 59.532 39.2526 59.853C39.1162 60.174 39.1107 60.5363 39.2373 60.8614C39.3638 61.1865 39.6121 61.4482 39.9285 61.5899L50.6165 66.2111C50.7365 66.2629 50.8634 66.2965 50.9932 66.3107C52.1352 66.4327 53.288 66.2259 54.3184 65.7144C55.3488 65.2029 56.2146 64.4075 56.8155 63.4202C56.9889 63.1337 57.1383 62.8332 57.2623 62.5218L79.4836 55.2005C79.9105 55.2014 80.3273 55.3309 80.6806 55.5725C81.0339 55.8141 81.3076 56.1567 81.4665 56.5564C81.6254 56.956 81.6623 57.3945 81.5724 57.8154C81.4826 58.2364 81.2701 58.6207 80.9622 58.9189ZM11.0582 54.4139V54.2686C11.0582 53.9164 11.1969 53.5786 11.4438 53.3295C11.6907 53.0804 12.0256 52.9405 12.3747 52.9405C12.7239 52.9405 13.0587 53.0804 13.3056 53.3295C13.5525 53.5786 13.6912 53.9164 13.6912 54.2686V54.4139C13.6912 54.7661 13.5525 55.1039 13.3056 55.353C13.0587 55.6021 12.7239 55.742 12.3747 55.742C12.0256 55.742 11.6907 55.6021 11.4438 55.353C11.1969 55.1039 11.0582 54.7661 11.0582 54.4139Z" fill="#203B54"/>
<path d="M82.92 29.9578L81.2 24.3578H81.16C81.1667 24.4911 81.1767 24.6911 81.19 24.9578C81.2033 25.2244 81.2167 25.5111 81.23 25.8178C81.2433 26.1178 81.25 26.3911 81.25 26.6378V29.9578H79.9V22.8178H81.96L83.65 28.2778H83.68L85.47 22.8178H87.53V29.9578H86.12V26.5778C86.12 26.3511 86.1233 26.0911 86.13 25.7978C86.1433 25.5044 86.1533 25.2278 86.16 24.9678C86.1733 24.7011 86.1833 24.5011 86.19 24.3678H86.15L84.31 29.9578H82.92Z" fill="#203B54"/>
<path d="M86.11 43.5411C86.11 43.9611 86.0067 44.3278 85.8 44.6411C85.5933 44.9545 85.2933 45.1978 84.9 45.3711C84.5133 45.5378 84.04 45.6211 83.48 45.6211C83.2333 45.6211 82.99 45.6045 82.75 45.5711C82.5167 45.5378 82.29 45.4911 82.07 45.4311C81.8567 45.3645 81.6533 45.2845 81.46 45.1911V43.7811C81.8 43.9278 82.15 44.0645 82.51 44.1911C82.8767 44.3111 83.24 44.3711 83.6 44.3711C83.8467 44.3711 84.0433 44.3378 84.19 44.2711C84.3433 44.2045 84.4533 44.1145 84.52 44.0011C84.5933 43.8878 84.63 43.7578 84.63 43.6111C84.63 43.4311 84.5667 43.2778 84.44 43.1511C84.32 43.0245 84.1567 42.9078 83.95 42.8011C83.7433 42.6878 83.5067 42.5678 83.24 42.4411C83.0733 42.3611 82.8933 42.2678 82.7 42.1611C82.5067 42.0478 82.32 41.9111 82.14 41.7511C81.9667 41.5845 81.8233 41.3845 81.71 41.1511C81.5967 40.9178 81.54 40.6378 81.54 40.3111C81.54 39.8845 81.6367 39.5211 81.83 39.2211C82.03 38.9145 82.31 38.6811 82.67 38.5211C83.0367 38.3611 83.4667 38.2811 83.96 38.2811C84.3333 38.2811 84.6867 38.3245 85.02 38.4111C85.36 38.4978 85.7133 38.6211 86.08 38.7811L85.59 39.9611C85.2633 39.8278 84.97 39.7245 84.71 39.6511C84.45 39.5778 84.1833 39.5411 83.91 39.5411C83.7233 39.5411 83.5633 39.5711 83.43 39.6311C83.2967 39.6911 83.1933 39.7745 83.12 39.8811C83.0533 39.9878 83.02 40.1145 83.02 40.2611C83.02 40.4278 83.07 40.5711 83.17 40.6911C83.27 40.8045 83.42 40.9145 83.62 41.0211C83.82 41.1278 84.07 41.2545 84.37 41.4011C84.7367 41.5745 85.0467 41.7545 85.3 41.9411C85.56 42.1278 85.76 42.3478 85.9 42.6011C86.04 42.8545 86.11 43.1678 86.11 43.5411Z" fill="#203B54"/>
<path d="M88.67 7.25441L86.85 14.3944H85.13L84.16 10.6444C84.14 10.5711 84.1133 10.4611 84.08 10.3144C84.0533 10.1677 84.02 10.0077 83.98 9.83441C83.9467 9.66108 83.9167 9.49774 83.89 9.34441C83.8633 9.18441 83.8433 9.06108 83.83 8.97441C83.8233 9.06108 83.8033 9.18441 83.77 9.34441C83.7433 9.49774 83.7133 9.66108 83.68 9.83441C83.6467 10.0011 83.6133 10.1611 83.58 10.3144C83.5467 10.4611 83.52 10.5744 83.5 10.6544L82.54 14.3944H80.82L79 7.25441H80.49L81.4 11.1544C81.4267 11.2677 81.4567 11.4077 81.49 11.5744C81.5233 11.7344 81.5567 11.9044 81.59 12.0844C81.6233 12.2577 81.6533 12.4277 81.68 12.5944C81.7133 12.7611 81.7367 12.9044 81.75 13.0244C81.7633 12.8977 81.7833 12.7544 81.81 12.5944C81.8367 12.4277 81.8667 12.2611 81.9 12.0944C81.9333 11.9211 81.9633 11.7611 81.99 11.6144C82.0233 11.4611 82.0533 11.3411 82.08 11.2544L83.12 7.25441H84.55L85.59 11.2544C85.61 11.3411 85.6367 11.4611 85.67 11.6144C85.7033 11.7611 85.7367 11.9211 85.77 12.0944C85.8033 12.2677 85.8333 12.4377 85.86 12.6044C85.8867 12.7644 85.9067 12.9044 85.92 13.0244C85.94 12.8577 85.97 12.6611 86.01 12.4344C86.05 12.2011 86.0933 11.9677 86.14 11.7344C86.1933 11.5011 86.2367 11.3077 86.27 11.1544L87.18 7.25441H88.67Z" fill="#203B54"/>
</g>
<defs>
<clipPath id="clip0_44_180">
<rect width="89" height="85" fill="white"/>
</clipPath>
</defs>
</svg>
