<svg width="89" height="89" viewBox="0 0 89 89" fill="none" xmlns="http://www.w3.org/2000/svg">
<path d="M69.5312 29.2031C64.1648 29.2031 59.7969 33.5711 59.7969 38.9375C59.7969 44.3039 64.1648 48.6719 69.5312 48.6719C74.8977 48.6719 79.2656 44.3039 79.2656 38.9375C79.2656 33.5711 74.8977 29.2031 69.5312 29.2031ZM69.5312 45.8906C65.6973 45.8906 62.5781 42.7715 62.5781 38.9375C62.5781 35.1035 65.6973 31.9844 69.5312 31.9844C73.3652 31.9844 76.4844 35.1035 76.4844 38.9375C76.4844 42.7715 73.3652 45.8906 69.5312 45.8906Z" fill="#203B54"/>
<path d="M69.5312 34.7656C67.2312 34.7656 65.3594 36.6374 65.3594 38.9375C65.3594 41.2376 67.2312 43.1094 69.5312 43.1094C71.8313 43.1094 73.7031 41.2376 73.7031 38.9375C73.7031 36.6374 71.8313 34.7656 69.5312 34.7656ZM69.5312 40.3281C68.7636 40.3281 68.1406 39.7051 68.1406 38.9375C68.1406 38.1699 68.7636 37.5469 69.5312 37.5469C70.2989 37.5469 70.9219 38.1699 70.9219 38.9375C70.9219 39.7051 70.2989 40.3281 69.5312 40.3281Z" fill="#203B54"/>
<path d="M84.6682 34.183C84.2468 34.0439 83.92 33.7435 83.7685 33.3527C83.6962 33.1692 83.6238 32.9884 83.5446 32.809C83.3805 32.4308 83.4 31.9872 83.5974 31.595C84.4332 29.9429 84.1147 27.9543 82.8062 26.643L81.8258 25.6626C80.5186 24.3526 78.5272 24.0314 76.8751 24.8713C76.4844 25.0702 76.0394 25.0897 75.6583 24.9228C75.4803 24.8449 75.2996 24.7726 75.1146 24.7003C74.7266 24.5487 74.4249 24.2205 74.2858 23.8005C73.7087 22.0414 72.0761 20.8594 70.2238 20.8594H68.8387C66.9864 20.8594 65.3538 22.0428 64.7767 23.8005C64.6376 24.2219 64.3373 24.5487 63.9465 24.7003C63.7629 24.7726 63.5822 24.8449 63.4028 24.9242C63.0245 25.0855 62.5809 25.0688 62.1888 24.8713C60.5367 24.037 58.5467 24.3554 57.2367 25.6626L56.4802 26.4219H48.6719V5.5625C48.6719 3.26241 46.8001 1.39062 44.5 1.39062H5.5625C3.26241 1.39062 1.39062 3.26241 1.39062 5.5625V33.375C1.39062 35.6751 3.26241 37.5469 5.5625 37.5469H9.73438V72.3125C9.73438 76.1465 12.8535 79.2656 16.6875 79.2656H33.375V84.8281H25.0312V87.6094H61.1875V84.8281H52.8438V79.2656H69.5312C73.3652 79.2656 76.4844 76.1465 76.4844 72.3125V52.8994C76.6151 52.9258 76.7486 52.9397 76.8724 53.0023C78.5244 53.8367 80.5144 53.5182 81.8244 52.211L82.8062 51.2306C84.1133 49.9207 84.4318 47.9307 83.596 46.28C83.3972 45.8865 83.3791 45.4428 83.5446 45.0632C83.6225 44.8852 83.6948 44.7044 83.7671 44.5195C83.9187 44.1315 84.2468 43.8297 84.6668 43.6907C86.4273 43.1149 87.6094 41.4823 87.6094 39.63V38.245C87.6094 36.3927 86.4259 34.7601 84.6682 34.183ZM54.3943 43.692C54.8157 43.8311 55.1425 44.1315 55.294 44.5222C55.3663 44.7058 55.4387 44.8866 55.5179 45.066C55.682 45.4442 55.6625 45.8878 55.4651 46.28C54.6293 47.9321 54.9478 49.9207 56.2563 51.232L57.2367 52.2138C58.5439 53.521 60.5339 53.8394 62.1874 53.0037C62.5795 52.8076 63.0245 52.7867 63.4042 52.9522C63.5822 53.0301 63.7629 53.1024 63.9479 53.1747C64.3359 53.3263 64.6376 53.6545 64.7767 54.0745C65.2801 55.6097 66.5859 56.7027 68.1406 56.9586V65.3594H18.0781V37.5469H44.5C46.3106 37.5469 47.8403 36.3801 48.416 34.7656H53.2498C52.1429 35.5513 51.4531 36.8321 51.4531 38.245V39.63C51.4531 41.4823 52.6366 43.1149 54.3943 43.692ZM55.0409 29.2031C54.9533 30.0069 55.0827 30.8357 55.4665 31.595C55.529 31.7202 55.543 31.8537 55.5694 31.9844H48.6719V29.2031H55.0409ZM5.5625 4.17188H44.5C45.2676 4.17188 45.8906 4.79487 45.8906 5.5625V12.5156H4.17188V5.5625C4.17188 4.79487 4.79487 4.17188 5.5625 4.17188ZM4.17188 33.375V15.2969H45.8906V33.375C45.8906 34.1426 45.2676 34.7656 44.5 34.7656H5.5625C4.79487 34.7656 4.17188 34.1426 4.17188 33.375ZM50.0625 84.8281H36.1562V79.2656H50.0625V84.8281ZM69.5312 76.4844H43.1094H16.6875C14.3874 76.4844 12.5156 74.6126 12.5156 72.3125V37.5469H15.2969V65.3594C15.2969 66.8932 16.5443 68.1406 18.0781 68.1406H43.1094H68.1406C69.6745 68.1406 70.9219 66.8932 70.9219 65.3594V56.9572C72.0525 56.7709 73.0481 56.1395 73.7031 55.2189V72.3125C73.7031 74.6126 71.8313 76.4844 69.5312 76.4844ZM84.8281 39.63C84.8281 40.2781 84.4151 40.8482 83.7991 41.0499C82.5864 41.449 81.6297 42.3473 81.1763 43.5127C81.1179 43.6628 81.0554 43.8116 80.9928 43.9577C80.4977 45.0966 80.5422 46.401 81.1138 47.5343C81.4058 48.1115 81.2945 48.8068 80.8384 49.2643L79.858 50.2433C79.4019 50.7022 78.7066 50.812 78.1267 50.52C76.9961 49.9485 75.6903 49.904 74.5528 50.3976C74.4054 50.4616 74.2566 50.5242 74.1078 50.5826C72.9411 51.0359 72.0441 51.9941 71.645 53.2081C71.442 53.8214 70.8718 54.2344 70.2238 54.2344H68.8387C68.1907 54.2344 67.6205 53.8214 67.4189 53.2053C67.0198 51.9927 66.1214 51.0359 64.9561 50.5826C64.8059 50.5242 64.6571 50.4616 64.5111 50.399C63.9854 50.171 63.425 50.0569 62.8618 50.0569C62.204 50.0569 61.5449 50.2113 60.933 50.52C60.3573 50.812 59.662 50.7008 59.2031 50.2447L58.2241 49.2643C57.7666 48.8068 57.6553 48.1115 57.9473 47.533C58.5189 46.401 58.5634 45.0966 58.0697 43.959C58.0057 43.8116 57.9432 43.6628 57.8848 43.514C57.4314 42.3473 56.4733 41.4504 55.2593 41.0513C54.6474 40.8482 54.2344 40.2781 54.2344 39.63V38.245C54.2344 37.5969 54.6474 37.0268 55.2634 36.8251C56.4761 36.426 57.4328 35.5277 57.8862 34.3623C57.9446 34.2122 58.0071 34.0634 58.0697 33.9173C58.5648 32.7784 58.5203 31.474 57.9487 30.3407C57.6567 29.7635 57.768 29.0682 58.2241 28.6107L59.2045 27.6303C59.662 27.1742 60.3587 27.0643 60.9358 27.355C62.0678 27.9265 63.3736 27.9724 64.5097 27.4774C64.6571 27.4134 64.8059 27.3508 64.9547 27.2924C66.1214 26.8391 67.0184 25.8809 67.4175 24.6669C67.6205 24.0536 68.1907 23.6406 68.8387 23.6406H70.2238C70.8718 23.6406 71.442 24.0536 71.6436 24.6697C72.0427 25.8823 72.9411 26.8391 74.1064 27.2924C74.2566 27.3508 74.4054 27.4134 74.5514 27.476C75.6917 27.971 76.9947 27.9265 78.1281 27.355C78.7066 27.0616 79.4019 27.1756 79.858 27.6303L80.837 28.6107C81.2945 29.0682 81.4058 29.7635 81.1138 30.342C80.5422 31.474 80.4977 32.7784 80.9914 33.916C81.0554 34.0634 81.1179 34.2122 81.1763 34.361C81.6297 35.5277 82.5878 36.4246 83.8018 36.8237C84.4151 37.0268 84.8281 37.5969 84.8281 38.245V39.63Z" fill="#203B54"/>
<path d="M18.0781 6.95312H20.8594V9.73438H18.0781V6.95312Z" fill="#203B54"/>
<path d="M6.95312 6.95312H9.73438V9.73438H6.95312V6.95312Z" fill="#203B54"/>
<path d="M12.5156 6.95312H15.2969V9.73438H12.5156V6.95312Z" fill="#203B54"/>
<path d="M47.2812 72.3125C47.2812 70.0124 45.4095 68.1406 43.1094 68.1406C40.8093 68.1406 38.9375 70.0124 38.9375 72.3125C38.9375 74.6126 40.8093 76.4844 43.1094 76.4844C45.4095 76.4844 47.2812 74.6126 47.2812 72.3125ZM43.1094 73.7031C42.3417 73.7031 41.7188 73.0801 41.7188 72.3125C41.7188 71.5449 42.3417 70.9219 43.1094 70.9219C43.877 70.9219 44.5 71.5449 44.5 72.3125C44.5 73.0801 43.877 73.7031 43.1094 73.7031Z" fill="#203B54"/>
<path d="M20.8594 40.3281H48.6719V43.1094H20.8594V40.3281Z" fill="#203B54"/>
<path d="M20.8594 45.8906H48.6719V48.6719H20.8594V45.8906Z" fill="#203B54"/>
<path d="M19.8762 52.4363L24.4555 57.0156L19.8762 61.595L21.8426 63.5613L28.3882 57.0156L21.8426 50.47L19.8762 52.4363Z" fill="#203B54"/>
<path d="M29.2031 59.7969H40.3281V62.5781H29.2031V59.7969Z" fill="#203B54"/>
<path d="M6.95312 18.0781H12.5156V20.8594H6.95312V18.0781Z" fill="#203B54"/>
<path d="M15.2969 18.0781H29.2031V20.8594H15.2969V18.0781Z" fill="#203B54"/>
<path d="M31.9844 31.9844H43.1094V18.0781H31.9844V31.9844ZM34.7656 20.8594H40.3281V29.2031H34.7656V20.8594Z" fill="#203B54"/>
<path d="M6.95312 23.6406H29.2031V26.4219H6.95312V23.6406Z" fill="#203B54"/>
<path d="M23.6406 29.2031H29.2031V31.9844H23.6406V29.2031Z" fill="#203B54"/>
<path d="M18.0781 29.2031H20.8594V31.9844H18.0781V29.2031Z" fill="#203B54"/>
<path d="M6.95312 29.2031H15.2969V31.9844H6.95312V29.2031Z" fill="#203B54"/>
</svg>
