<svg width="307" height="89" viewBox="0 0 307 89" fill="none" xmlns="http://www.w3.org/2000/svg">
<path d="M298.656 34.7656H291.703V8.34373C291.703 7.97382 291.557 7.62061 291.296 7.36056L285.733 1.79806C285.189 1.25433 284.311 1.25433 283.767 1.79806L279.188 6.37739L274.608 1.79806C274.064 1.25433 273.186 1.25433 272.642 1.79806L268.062 6.37739L263.483 1.79806C262.939 1.25433 262.061 1.25433 261.517 1.79806L256.938 6.37739L252.358 1.79806C251.814 1.25433 250.936 1.25433 250.392 1.79806L245.812 6.37739L241.233 1.79806C240.689 1.25433 239.811 1.25433 239.267 1.79806L233.704 7.36056C233.443 7.62061 233.297 7.97382 233.297 8.34373V34.7656H226.344C222.51 34.7656 219.391 37.8848 219.391 41.7187V72.3125C219.391 74.575 220.493 76.5692 222.172 77.8388V83.4375C222.172 85.7376 224.044 87.6094 226.344 87.6094H298.656C300.956 87.6094 302.828 85.7376 302.828 83.4375V77.8388C304.507 76.5678 305.609 74.5736 305.609 72.3125V41.7187C305.609 37.8848 302.49 34.7656 298.656 34.7656ZM297.266 37.5469V45.8906H291.703V37.5469H297.266ZM240.25 4.74758L244.829 9.3269C245.373 9.87064 246.252 9.87064 246.796 9.3269L251.375 4.74758L255.954 9.3269C256.498 9.87064 257.377 9.87064 257.921 9.3269L262.5 4.74758L267.079 9.3269C267.623 9.87064 268.502 9.87064 269.046 9.3269L273.625 4.74758L278.204 9.3269C278.748 9.87064 279.627 9.87064 280.171 9.3269L284.75 4.74758L288.922 8.91945V45.8906H236.078V8.91945L240.25 4.74758ZM233.297 45.8906H227.734V37.5469H233.297V45.8906ZM300.047 83.4375C300.047 84.2051 299.422 84.8281 298.656 84.8281H226.344C225.578 84.8281 224.953 84.2051 224.953 83.4375V79.1252C225.402 79.2169 225.868 79.2656 226.344 79.2656H298.656C299.132 79.2656 299.598 79.2169 300.047 79.1252V83.4375ZM302.828 72.3125C302.828 74.6126 300.956 76.4844 298.656 76.4844H226.344C224.044 76.4844 222.172 74.6126 222.172 72.3125V41.7187C222.172 39.9081 223.339 38.3784 224.953 37.8027V47.2812C224.953 48.0503 225.576 48.6719 226.344 48.6719H298.656C299.424 48.6719 300.047 48.0503 300.047 47.2812V37.8027C301.661 38.3784 302.828 39.9081 302.828 41.7187V72.3125Z" fill="white"/>
<path d="M294.484 62.5781C291.417 62.5781 288.922 65.0729 288.922 68.1406C288.922 71.2083 291.417 73.7031 294.484 73.7031C297.552 73.7031 300.047 71.2083 300.047 68.1406C300.047 65.0729 297.552 62.5781 294.484 62.5781ZM294.484 70.9219C292.951 70.9219 291.703 69.6745 291.703 68.1406C291.703 66.6068 292.951 65.3594 294.484 65.3594C296.018 65.3594 297.266 66.6068 297.266 68.1406C297.266 69.6745 296.018 70.9219 294.484 70.9219Z" fill="white"/>
<path d="M280.578 62.5781C277.51 62.5781 275.016 65.0729 275.016 68.1406C275.016 71.2083 277.51 73.7031 280.578 73.7031C283.646 73.7031 286.141 71.2083 286.141 68.1406C286.141 65.0729 283.646 62.5781 280.578 62.5781ZM280.578 70.9219C279.044 70.9219 277.797 69.6745 277.797 68.1406C277.797 66.6068 279.044 65.3594 280.578 65.3594C282.112 65.3594 283.359 66.6068 283.359 68.1406C283.359 69.6745 282.112 70.9219 280.578 70.9219Z" fill="white"/>
<path d="M230.516 62.5781C227.448 62.5781 224.953 65.0729 224.953 68.1406C224.953 71.2083 227.448 73.7031 230.516 73.7031C233.583 73.7031 236.078 71.2083 236.078 68.1406C236.078 65.0729 233.583 62.5781 230.516 62.5781ZM230.516 70.9219C228.982 70.9219 227.734 69.6745 227.734 68.1406C227.734 66.6068 228.982 65.3594 230.516 65.3594C232.049 65.3594 233.297 66.6068 233.297 68.1406C233.297 69.6745 232.049 70.9219 230.516 70.9219Z" fill="white"/>
<path d="M241.641 37.5469H283.359C284.127 37.5469 284.75 36.9253 284.75 36.1562V13.9062C284.75 13.1372 284.127 12.5156 283.359 12.5156H241.641C240.873 12.5156 240.25 13.1372 240.25 13.9062V36.1562C240.25 36.9253 240.873 37.5469 241.641 37.5469ZM243.031 15.2969H281.969V34.7656H243.031V15.2969Z" fill="white"/>
<path d="M245.812 18.0781H248.594V31.9844H245.812V18.0781Z" fill="white"/>
<path d="M270.844 18.0781H273.625V31.9844H270.844V18.0781Z" fill="white"/>
<path d="M275.016 18.0781H277.797V31.9844H275.016V18.0781Z" fill="white"/>
<path d="M249.984 18.0781H251.375V31.9844H249.984V18.0781Z" fill="white"/>
<path d="M252.766 18.0781H254.156V31.9844H252.766V18.0781Z" fill="white"/>
<path d="M255.547 18.0781H256.938V31.9844H255.547V18.0781Z" fill="white"/>
<path d="M258.328 18.0781H262.5V31.9844H258.328V18.0781Z" fill="white"/>
<path d="M263.891 18.0781H266.672V31.9844H263.891V18.0781Z" fill="white"/>
<path d="M268.062 18.0781H269.453V31.9844H268.062V18.0781Z" fill="white"/>
<path d="M240.25 40.3281H243.031V43.1094H240.25V40.3281Z" fill="white"/>
<path d="M245.812 40.3281H248.594V43.1094H245.812V40.3281Z" fill="white"/>
<path d="M251.375 40.3281H284.75V43.1094H251.375V40.3281Z" fill="white"/>
<g clip-path="url(#clip0_44_344)">
<path d="M114.933 89H156.467C158.04 89 159.549 88.3749 160.662 87.2622C161.775 86.1495 162.4 84.6403 162.4 83.0667V56.3667C162.4 54.7931 161.775 53.2839 160.662 52.1712C159.549 51.0585 158.04 50.4333 156.467 50.4333H114.933C113.36 50.4333 111.851 51.0585 110.738 52.1712C109.625 53.2839 109 54.7931 109 56.3667V83.0667C109 84.6403 109.625 86.1495 110.738 87.2622C111.851 88.3749 113.36 89 114.933 89ZM111.967 56.3667C111.967 55.5799 112.279 54.8253 112.836 54.2689C113.392 53.7126 114.147 53.4 114.933 53.4H156.467C157.253 53.4 158.008 53.7126 158.564 54.2689C159.121 54.8253 159.433 55.5799 159.433 56.3667V83.0667C159.433 83.8535 159.121 84.6081 158.564 85.1644C158.008 85.7208 157.253 86.0334 156.467 86.0334H114.933C114.147 86.0334 113.392 85.7208 112.836 85.1644C112.279 84.6081 111.967 83.8535 111.967 83.0667V56.3667Z" fill="white"/>
<path d="M184.65 1.91618e-07H135.7C134.508 -0.00027081 133.333 0.286916 132.275 0.837219C131.217 1.38752 130.308 2.18472 129.624 3.16124C128.94 4.13776 128.501 5.26482 128.345 6.44689C128.189 7.62896 128.321 8.83119 128.728 9.95168L136.28 30.7184C136.802 32.148 137.751 33.3827 138.998 34.2558C140.245 35.1288 141.73 35.598 143.252 35.6H153.5V38.5667C153.5 39.7469 153.969 40.8788 154.803 41.7133C155.638 42.5478 156.77 43.0167 157.95 43.0167H164.72L176.469 73.5733L173.589 77.4152C172.88 78.363 172.484 79.5082 172.456 80.6914C172.428 81.8747 172.769 83.0373 173.432 84.0177C174.095 84.9981 175.047 85.7476 176.156 86.162C177.265 86.5764 178.475 86.6351 179.619 86.33L192.532 82.8872C193.482 82.634 194.371 82.1927 195.146 81.5897C195.922 80.9866 196.569 80.2339 197.048 79.3763C197.528 78.5186 197.83 77.5735 197.937 76.5968C198.045 75.6202 197.955 74.6319 197.674 73.6905L186.248 35.6H189.1C191.46 35.5976 193.722 34.6592 195.391 32.9907C197.059 31.3221 197.998 29.0597 198 26.7V13.35C197.996 9.81057 196.588 6.41722 194.086 3.91446C191.583 1.4117 188.189 0.00392636 184.65 1.91618e-07ZM139.069 29.7038L131.518 8.93708C131.274 8.26494 131.195 7.5438 131.289 6.83475C131.382 6.12571 131.645 5.44965 132.056 4.86385C132.466 4.27805 133.011 3.79976 133.646 3.46951C134.28 3.13926 134.985 2.96678 135.7 2.96667H136.145L146.933 32.6333H143.252C142.338 32.6316 141.448 32.3498 140.7 31.8259C139.952 31.302 139.382 30.5613 139.069 29.7038ZM157.95 40.05C157.557 40.05 157.179 39.8937 156.901 39.6155C156.623 39.3374 156.467 38.9601 156.467 38.5667V35.6H161.867L163.587 40.05H157.95ZM168.47 44.5H171.359C171.817 44.5037 172.263 44.6423 172.642 44.8986C173.021 45.1548 173.316 45.5172 173.489 45.9403L180.744 63.5668C180.889 63.9169 180.946 64.2974 180.908 64.6746C180.871 65.0518 180.741 65.4139 180.53 65.7288C180.32 66.0437 180.034 66.3017 179.7 66.4798C179.365 66.658 178.992 66.7508 178.613 66.75H177.027L168.47 44.5ZM194.832 74.542C195 75.1034 195.055 75.693 194.991 76.2758C194.928 76.8587 194.748 77.4228 194.462 77.9347C194.176 78.4466 193.791 78.896 193.328 79.2559C192.865 79.6159 192.335 79.8792 191.768 80.0303L178.855 83.4731C178.305 83.6194 177.724 83.5909 177.191 83.3915C176.659 83.1922 176.202 82.8318 175.884 82.3606C175.566 81.8894 175.402 81.3308 175.416 80.7624C175.43 80.194 175.621 79.6441 175.962 79.1892L179.335 74.6918C179.486 74.4909 179.583 74.255 179.618 74.0062C179.653 73.7574 179.624 73.5038 179.534 73.2693L178.169 69.7167H178.614C179.481 69.7175 180.335 69.5044 181.1 69.0963C181.864 68.6882 182.517 68.0978 182.998 67.3773C183.48 66.6568 183.777 65.8285 183.862 64.9659C183.948 64.1032 183.819 63.2329 183.487 62.432L176.234 44.816C175.842 43.8444 175.168 43.0125 174.3 42.4274C173.431 41.8423 172.407 41.5309 171.359 41.5333H167.329L165.048 35.6H183.144L194.832 74.542ZM195.033 26.7C195.033 28.2736 194.408 29.7828 193.295 30.8955C192.183 32.0082 190.674 32.6333 189.1 32.6333H150.088L139.3 2.96667H184.65C187.403 2.9702 190.042 4.06529 191.988 6.01178C193.935 7.95826 195.03 10.5973 195.033 13.35V26.7Z" fill="white"/>
<path d="M117.9 81.5833C118.293 81.5833 118.671 81.427 118.949 81.1489C119.227 80.8707 119.383 80.4934 119.383 80.1V59.3333C119.383 58.9399 119.227 58.5626 118.949 58.2844C118.671 58.0063 118.293 57.85 117.9 57.85C117.507 57.85 117.129 58.0063 116.851 58.2844C116.573 58.5626 116.417 58.9399 116.417 59.3333V80.1C116.417 80.4934 116.573 80.8707 116.851 81.1489C117.129 81.427 117.507 81.5833 117.9 81.5833Z" fill="white"/>
<path d="M123.833 72.6833C124.227 72.6833 124.604 72.527 124.882 72.2489C125.16 71.9707 125.317 71.5934 125.317 71.2V59.3333C125.317 58.9399 125.16 58.5626 124.882 58.2844C124.604 58.0063 124.227 57.85 123.833 57.85C123.44 57.85 123.063 58.0063 122.784 58.2844C122.506 58.5626 122.35 58.9399 122.35 59.3333V71.2C122.35 71.5934 122.506 71.9707 122.784 72.2489C123.063 72.527 123.44 72.6833 123.833 72.6833Z" fill="white"/>
<path d="M123.833 81.5834C124.227 81.5834 124.604 81.4271 124.882 81.1489C125.16 80.8707 125.317 80.4934 125.317 80.1V77.1334C125.317 76.74 125.16 76.3627 124.882 76.0845C124.604 75.8063 124.227 75.65 123.833 75.65C123.44 75.65 123.063 75.8063 122.784 76.0845C122.506 76.3627 122.35 76.74 122.35 77.1334V80.1C122.35 80.4934 122.506 80.8707 122.784 81.1489C123.063 81.4271 123.44 81.5834 123.833 81.5834Z" fill="white"/>
<path d="M129.767 72.6833C130.16 72.6833 130.537 72.527 130.816 72.2489C131.094 71.9707 131.25 71.5934 131.25 71.2V59.3333C131.25 58.9399 131.094 58.5626 130.816 58.2844C130.537 58.0063 130.16 57.85 129.767 57.85C129.373 57.85 128.996 58.0063 128.718 58.2844C128.44 58.5626 128.283 58.9399 128.283 59.3333V71.2C128.283 71.5934 128.44 71.9707 128.718 72.2489C128.996 72.527 129.373 72.6833 129.767 72.6833Z" fill="white"/>
<path d="M129.767 81.5834C130.16 81.5834 130.537 81.4271 130.816 81.1489C131.094 80.8707 131.25 80.4934 131.25 80.1V77.1334C131.25 76.74 131.094 76.3627 130.816 76.0845C130.537 75.8063 130.16 75.65 129.767 75.65C129.373 75.65 128.996 75.8063 128.718 76.0845C128.44 76.3627 128.283 76.74 128.283 77.1334V80.1C128.283 80.4934 128.44 80.8707 128.718 81.1489C128.996 81.4271 129.373 81.5834 129.767 81.5834Z" fill="white"/>
<path d="M135.7 72.6833C136.093 72.6833 136.471 72.527 136.749 72.2489C137.027 71.9707 137.183 71.5934 137.183 71.2V59.3333C137.183 58.9399 137.027 58.5626 136.749 58.2844C136.471 58.0063 136.093 57.85 135.7 57.85C135.307 57.85 134.929 58.0063 134.651 58.2844C134.373 58.5626 134.217 58.9399 134.217 59.3333V71.2C134.217 71.5934 134.373 71.9707 134.651 72.2489C134.929 72.527 135.307 72.6833 135.7 72.6833Z" fill="white"/>
<path d="M135.7 81.5834C136.093 81.5834 136.471 81.4271 136.749 81.1489C137.027 80.8707 137.183 80.4934 137.183 80.1V77.1334C137.183 76.74 137.027 76.3627 136.749 76.0845C136.471 75.8063 136.093 75.65 135.7 75.65C135.307 75.65 134.929 75.8063 134.651 76.0845C134.373 76.3627 134.217 76.74 134.217 77.1334V80.1C134.217 80.4934 134.373 80.8707 134.651 81.1489C134.929 81.4271 135.307 81.5834 135.7 81.5834Z" fill="white"/>
<path d="M141.633 72.6833C142.027 72.6833 142.404 72.527 142.682 72.2489C142.96 71.9707 143.117 71.5934 143.117 71.2V59.3333C143.117 58.9399 142.96 58.5626 142.682 58.2844C142.404 58.0063 142.027 57.85 141.633 57.85C141.24 57.85 140.863 58.0063 140.584 58.2844C140.306 58.5626 140.15 58.9399 140.15 59.3333V71.2C140.15 71.5934 140.306 71.9707 140.584 72.2489C140.863 72.527 141.24 72.6833 141.633 72.6833Z" fill="white"/>
<path d="M141.633 81.5834C142.027 81.5834 142.404 81.4271 142.682 81.1489C142.96 80.8707 143.117 80.4934 143.117 80.1V77.1334C143.117 76.74 142.96 76.3627 142.682 76.0845C142.404 75.8063 142.027 75.65 141.633 75.65C141.24 75.65 140.863 75.8063 140.584 76.0845C140.306 76.3627 140.15 76.74 140.15 77.1334V80.1C140.15 80.4934 140.306 80.8707 140.584 81.1489C140.863 81.4271 141.24 81.5834 141.633 81.5834Z" fill="white"/>
<path d="M147.567 72.6833C147.96 72.6833 148.337 72.527 148.616 72.2489C148.894 71.9707 149.05 71.5934 149.05 71.2V59.3333C149.05 58.9399 148.894 58.5626 148.616 58.2844C148.337 58.0063 147.96 57.85 147.567 57.85C147.173 57.85 146.796 58.0063 146.518 58.2844C146.24 58.5626 146.083 58.9399 146.083 59.3333V71.2C146.083 71.5934 146.24 71.9707 146.518 72.2489C146.796 72.527 147.173 72.6833 147.567 72.6833Z" fill="white"/>
<path d="M147.567 81.5834C147.96 81.5834 148.337 81.4271 148.616 81.1489C148.894 80.8707 149.05 80.4934 149.05 80.1V77.1334C149.05 76.74 148.894 76.3627 148.616 76.0845C148.337 75.8063 147.96 75.65 147.567 75.65C147.173 75.65 146.796 75.8063 146.518 76.0845C146.24 76.3627 146.083 76.74 146.083 77.1334V80.1C146.083 80.4934 146.24 80.8707 146.518 81.1489C146.796 81.4271 147.173 81.5834 147.567 81.5834Z" fill="white"/>
<path d="M153.5 81.5833C153.893 81.5833 154.271 81.427 154.549 81.1489C154.827 80.8707 154.983 80.4934 154.983 80.1V59.3333C154.983 58.9399 154.827 58.5626 154.549 58.2844C154.271 58.0063 153.893 57.85 153.5 57.85C153.107 57.85 152.729 58.0063 152.451 58.2844C152.173 58.5626 152.017 58.9399 152.017 59.3333V80.1C152.017 80.4934 152.173 80.8707 152.451 81.1489C152.729 81.427 153.107 81.5833 153.5 81.5833Z" fill="white"/>
</g>
<path d="M48.6718 11.125H40.3281C39.5604 11.125 38.9374 10.502 38.9374 9.73438C38.9374 8.96675 39.5604 8.34375 40.3281 8.34375H48.6718C49.4394 8.34375 50.0624 8.96675 50.0624 9.73438C50.0624 10.502 49.4394 11.125 48.6718 11.125Z" fill="white"/>
<path d="M59.7968 86.2188H29.2031C25.3677 86.2188 22.2499 83.0982 22.2499 79.2656V31.9844C22.2499 31.2168 22.8729 30.5938 23.6406 30.5938C24.4082 30.5938 25.0312 31.2168 25.0312 31.9844V79.2656C25.0312 81.5657 26.903 83.4375 29.2031 83.4375H59.7968C62.0969 83.4375 63.9687 81.5657 63.9687 79.2656V31.9844C63.9687 31.2168 64.5917 30.5938 65.3593 30.5938C66.1269 30.5938 66.7499 31.2168 66.7499 31.9844V79.2656C66.7499 83.0982 63.6322 86.2188 59.7968 86.2188Z" fill="white"/>
<path d="M65.3593 41.7188C64.5917 41.7188 63.9687 41.0957 63.9687 40.3281V9.73438C63.9687 7.43428 62.0969 5.5625 59.7968 5.5625H29.2031C26.903 5.5625 25.0312 7.43428 25.0312 9.73438V40.3281C25.0312 41.0957 24.4082 41.7188 23.6406 41.7188C22.8729 41.7188 22.2499 41.0957 22.2499 40.3281V9.73438C22.2499 5.90181 25.3677 2.78125 29.2031 2.78125H59.7968C63.6322 2.78125 66.7499 5.90181 66.7499 9.73438V40.3281C66.7499 41.0957 66.1269 41.7188 65.3593 41.7188Z" fill="white"/>
<path d="M73.7031 16.8266C72.9354 16.8266 72.3124 16.3426 72.3124 15.575V15.2969C72.3124 14.5293 72.9354 13.9062 73.7031 13.9062C74.4707 13.9062 75.0937 14.5293 75.0937 15.2969C75.0937 16.0645 74.4707 16.8266 73.7031 16.8266Z" fill="white"/>
<path d="M73.7031 22.3891C72.9354 22.3891 72.3124 21.9051 72.3124 21.1375V20.8594C72.3124 20.0918 72.9354 19.4688 73.7031 19.4688C74.4707 19.4688 75.0937 20.0918 75.0937 20.8594C75.0937 21.627 74.4707 22.3891 73.7031 22.3891Z" fill="white"/>
<path d="M73.7031 27.9516C72.9354 27.9516 72.3124 27.4676 72.3124 26.7V26.4219C72.3124 25.6543 72.9354 25.0312 73.7031 25.0312C74.4707 25.0312 75.0937 25.6543 75.0937 26.4219C75.0937 27.1895 74.4707 27.9516 73.7031 27.9516Z" fill="white"/>
<path d="M15.2968 63.8297C14.5292 63.8297 13.9062 63.3457 13.9062 62.5781V62.3C13.9062 61.5324 14.5292 60.9094 15.2968 60.9094C16.0644 60.9094 16.6874 61.5324 16.6874 62.3C16.6874 63.0676 16.0644 63.8297 15.2968 63.8297Z" fill="white"/>
<path d="M15.2968 69.3922C14.5292 69.3922 13.9062 68.9082 13.9062 68.1406V67.8625C13.9062 67.0949 14.5292 66.4719 15.2968 66.4719C16.0644 66.4719 16.6874 67.0949 16.6874 67.8625C16.6874 68.6301 16.0644 69.3922 15.2968 69.3922Z" fill="white"/>
<path d="M15.2968 74.9547C14.5292 74.9547 13.9062 74.4707 13.9062 73.7031V73.425C13.9062 72.6574 14.5292 72.0344 15.2968 72.0344C16.0644 72.0344 16.6874 72.6574 16.6874 73.425C16.6874 74.1926 16.0644 74.9547 15.2968 74.9547Z" fill="white"/>
<path d="M69.089 75.0938C68.9916 75.0938 68.8915 75.0854 68.7942 75.0632C68.0432 74.9018 67.5676 74.162 67.7289 73.4111L68.6467 69.1558C68.758 68.6329 69.1613 68.2241 69.6786 68.0989C70.9913 67.7818 72.2707 67.2478 73.4806 66.5108C73.9283 66.2327 74.5041 66.241 74.9518 66.5247L77.7053 68.2853L79.4102 66.5664L77.6497 63.8352C77.3604 63.3875 77.3548 62.8117 77.6302 62.3584C78.3672 61.1486 78.9012 59.8692 79.2155 58.5564C79.3407 58.0391 79.7467 57.6386 80.2668 57.5218L83.4374 56.8182V54.4346L80.2696 53.731C79.7495 53.6142 79.3434 53.2137 79.2183 52.6963C78.904 51.3836 78.3672 50.1042 77.633 48.8944C77.3548 48.441 77.3604 47.8681 77.6497 47.4203L79.413 44.6641L77.7108 42.962L74.9546 44.7253C74.5068 45.0117 73.9339 45.0173 73.4833 44.7392C72.2707 44.0022 70.9913 43.4682 69.6814 43.1511C69.1613 43.0259 68.7608 42.6143 68.6495 42.0942L67.9653 38.9375H66.7499C65.9823 38.9375 65.3593 38.3145 65.3593 37.5469C65.3593 36.7793 65.9823 36.1562 66.7499 36.1562H69.0862C69.7398 36.1562 70.3072 36.6152 70.4434 37.2548L71.186 40.6841C72.204 40.9928 73.2024 41.41 74.1648 41.9301L77.1518 40.0194C77.7025 39.669 78.4201 39.7468 78.8845 40.2085L82.1692 43.4904C82.6309 43.9521 82.7088 44.6724 82.3555 45.2231L80.4448 48.2102C80.9649 49.1753 81.3821 50.1737 81.6908 51.1945L85.1257 51.9565C85.7653 52.0984 86.2187 52.6658 86.2187 53.3166V57.9334C86.2187 58.5842 85.7653 59.1516 85.1284 59.2907L81.6936 60.0527C81.3849 61.0735 80.9677 62.0719 80.4476 63.0342L82.3555 65.9935C82.7115 66.5414 82.6364 67.2645 82.1747 67.7262L78.8901 71.0359C78.4256 71.5004 77.7053 71.5783 77.1546 71.2278L74.1675 69.3171C73.2024 69.8372 72.2068 70.2544 71.1888 70.5631L70.4462 73.9924C70.3044 74.6488 69.7259 75.0938 69.089 75.0938Z" fill="white"/>
<path d="M70.6187 62.7951C70.1737 62.7951 69.7342 62.5781 69.4645 62.1804C69.0361 61.5435 69.2058 60.6785 69.8455 60.2502C71.3891 59.21 72.3125 57.4801 72.3125 55.625C72.3125 52.5573 69.8177 50.0625 66.75 50.0625C66.3717 50.0625 65.9962 50.1014 65.6375 50.1738C64.8921 50.3239 64.1495 49.8456 63.9937 49.0891C63.8408 48.3353 64.3247 47.6011 65.0784 47.4481C65.6236 47.3397 66.1854 47.2812 66.75 47.2812C71.3501 47.2812 75.0937 51.0248 75.0937 55.625C75.0937 58.409 73.7114 61.0012 71.3919 62.5587C71.1555 62.7172 70.8857 62.7951 70.6187 62.7951Z" fill="white"/>
<path d="M22.2499 41.7188C17.6498 41.7188 13.9062 37.9752 13.9062 33.375C13.9062 30.5799 15.2968 27.985 17.6275 26.4275C18.2588 26.0047 19.1266 26.1716 19.5549 26.814C19.9804 27.451 19.808 28.3159 19.1683 28.7415C17.6164 29.7816 16.6874 31.5116 16.6874 33.375C16.6874 36.4427 19.1822 38.9375 22.2499 38.9375C22.6226 38.9375 22.9898 38.9014 23.3402 38.8291C24.0772 38.6761 24.8254 39.1628 24.9783 39.9193C25.1313 40.673 24.6418 41.4045 23.8881 41.5547C23.3569 41.6631 22.8118 41.7188 22.2499 41.7188Z" fill="white"/>
<path d="M22.2499 52.8437H19.9137C19.2601 52.8437 18.6927 52.3848 18.5564 51.7451L17.8138 48.3158C16.7959 48.0071 15.7974 47.5899 14.8351 47.0698L11.8481 48.9806C11.2946 49.331 10.5798 49.2559 10.1153 48.7914L6.83069 45.5096C6.369 45.0479 6.29113 44.3275 6.64435 43.7768L8.55506 40.7898C8.03497 39.8247 7.61778 38.8262 7.30906 37.8055L3.87422 37.0434C3.23453 36.9016 2.78119 36.3342 2.78119 35.6834V31.0665C2.78119 30.4157 3.23453 29.8483 3.87144 29.7093L7.30628 28.9472C7.615 27.9265 8.03219 26.928 8.55228 25.9657L6.64713 23.0037C6.29113 22.4558 6.36622 21.7326 6.82791 21.271L10.1126 17.9613C10.5715 17.494 11.2946 17.4161 11.8481 17.7694L14.8351 19.6801C15.8002 19.16 16.7959 18.7428 17.8138 18.4341L18.5564 15.0048C18.7178 14.2511 19.4715 13.7727 20.2085 13.9396C20.9594 14.1009 21.435 14.8407 21.2737 15.5917L20.3559 19.847C20.2447 20.3698 19.8414 20.7787 19.3241 20.9038C18.0113 21.2209 16.7319 21.7549 15.5193 22.4919C15.0688 22.7701 14.4958 22.7617 14.048 22.478L11.2946 20.7175L9.58691 22.4363L11.3474 25.1675C11.6395 25.6153 11.645 26.191 11.3669 26.6443C10.6299 27.8542 10.0959 29.1336 9.7816 30.4463C9.65644 30.9636 9.25038 31.3641 8.73028 31.4809L5.56244 32.1818V34.5653L8.73028 35.269C9.25038 35.3858 9.65644 35.7863 9.7816 36.3036C10.0959 37.6164 10.6327 38.8957 11.3669 40.1056C11.645 40.5589 11.6395 41.1319 11.3502 41.5796L9.58691 44.3331L11.289 46.0352L14.0453 44.2719C14.493 43.9882 15.0688 43.9827 15.5165 44.258C16.7292 44.995 18.0085 45.529 19.3185 45.8461C19.8386 45.9712 20.2391 46.3829 20.3503 46.903L21.0345 50.0625H22.2499C23.0176 50.0625 23.6406 50.6855 23.6406 51.4531C23.6406 52.2207 23.0176 52.8437 22.2499 52.8437Z" fill="white"/>
<path d="M43.1093 51.4532C42.9981 51.4532 42.8868 51.4393 42.7728 51.4115C42.0246 51.2251 41.5741 50.4714 41.7604 49.726L44.5417 38.601C44.7252 37.8529 45.4678 37.4023 46.2271 37.5887C46.9752 37.775 47.4258 38.5287 47.2395 39.2741L44.4582 50.3991C44.3025 51.0332 43.7351 51.4532 43.1093 51.4532Z" fill="white"/>
<path d="M51.4531 51.4532C51.0971 51.4532 50.7411 51.317 50.4685 51.0472C49.9262 50.5048 49.9262 49.6232 50.4685 49.0808L55.0492 44.5001L50.4713 39.9222C49.929 39.3798 49.929 38.4982 50.4713 37.9558C51.0136 37.4135 51.8953 37.4135 52.4377 37.9558L58.0002 43.5183C58.5425 44.0607 58.5425 44.9423 58.0002 45.4847L52.4377 51.0472C52.1651 51.317 51.8091 51.4532 51.4531 51.4532Z" fill="white"/>
<path d="M37.5468 51.4532C37.1908 51.4532 36.8348 51.317 36.5623 51.0472L30.9998 45.4847C30.4574 44.9423 30.4574 44.0607 30.9998 43.5183L36.5623 37.9558C37.1046 37.4135 37.9863 37.4135 38.5286 37.9558C39.071 38.4982 39.071 39.3798 38.5286 39.9222L33.9507 44.5001L38.5286 49.078C39.071 49.6204 39.071 50.502 38.5286 51.0444C38.2588 51.317 37.9028 51.4532 37.5468 51.4532Z" fill="white"/>
<defs>
<clipPath id="clip0_44_344">
<rect width="89" height="89" fill="white" transform="translate(109)"/>
</clipPath>
</defs>
</svg>
