<svg width="16" height="16" viewBox="0 0 16 16" fill="none" xmlns="http://www.w3.org/2000/svg">
<path d="M6.94219 13.3451C6.94031 13.3451 6.93812 13.3451 6.93625 13.3451C6.85875 13.3436 6.78562 13.3104 6.73312 13.2536L1.375 7.42732C1.28312 7.32732 1.27469 7.17669 1.355 7.067C1.43531 6.95763 1.58156 6.92013 1.70469 6.97763L6.60875 9.27388C6.65 9.29325 6.69875 9.28388 6.73031 9.25107L14.2109 1.43263C14.3122 1.32669 14.4778 1.31513 14.5928 1.40638C14.7078 1.49763 14.7344 1.66138 14.6541 1.78419L7.21281 13.1836C7.20219 13.2001 7.18969 13.2151 7.17594 13.2292L7.14312 13.262C7.08969 13.3151 7.01719 13.3451 6.94219 13.3451Z" fill="#203B54"/>
</svg>
