<svg width="16" height="16" viewBox="0 0 16 16" fill="none" xmlns="http://www.w3.org/2000/svg">
<path fill-rule="evenodd" clip-rule="evenodd" d="M1.00073 13.5864C0.610233 13.977 0.610293 14.6101 1.00085 15.0006C1.39141 15.3911 2.02457 15.3911 2.41506 15.0005L8.0003 9.4143L13.586 15C13.9765 15.3905 14.6097 15.3905 15.0002 15C15.3907 14.6095 15.3907 13.9763 15.0002 13.5858L9.4144 8L14.9998 2.41362C15.3902 2.02306 15.3902 1.3899 14.9996 0.999411C14.6091 0.608911 13.9759 0.608971 13.5854 0.999531L8.0001 6.5858L2.41438 1.00001C2.02386 0.609491 1.39069 0.609491 1.00017 1.00001C0.609643 1.39054 0.609643 2.0237 1.00017 2.41423L6.5861 8.0001L1.00073 13.5864Z" fill="#203B54"/>
</svg>
