<svg width="16" height="16" viewBox="0 0 16 16" fill="none" xmlns="http://www.w3.org/2000/svg">
<path d="M13.2955 2.6889C11.879 1.27231 9.99545 0.492188 7.99219 0.492188C5.98892 0.492188 4.10541 1.27231 2.6889 2.6889C1.27231 4.10541 0.492188 5.98892 0.492188 7.99219C0.492188 9.99545 1.27231 11.879 2.6889 13.2955C4.10541 14.7121 5.98892 15.4922 7.99219 15.4922C9.99545 15.4922 11.879 14.7121 13.2955 13.2955C14.7121 11.879 15.4922 9.99545 15.4922 7.99219C15.4922 5.98892 14.7121 4.10541 13.2955 2.6889ZM14.0588 11.3059C14.0453 11.3041 14.0316 11.3027 14.0176 11.3027H12.5624C12.4682 10.8405 12.1555 10.4572 11.7375 10.2646C11.8421 9.62494 11.9017 8.961 11.915 8.28516H14.8997C14.854 9.37573 14.5546 10.4019 14.0588 11.3059ZM7.99219 1.07813C8.84628 1.07813 9.66559 1.77063 10.2993 3.02802C10.4658 3.35788 10.6133 3.71558 10.7414 4.0957H8.28516V3.12891C8.28516 2.96704 8.15405 2.83594 7.99219 2.83594C7.83032 2.83594 7.69922 2.96704 7.69922 3.12891V4.0957H6.22934C6.15161 3.71429 5.92511 3.38617 5.61346 3.17505C6.24774 1.83929 7.10696 1.07813 7.99219 1.07813ZM11.127 10.1309C10.4197 10.1309 9.82782 10.6349 9.69177 11.3027H8.28516V8.28516H11.3289C11.316 8.91596 11.2607 9.53485 11.1649 10.1318C11.1524 10.1316 11.1398 10.1309 11.127 10.1309ZM8.28516 7.69922V4.68164H10.9182C11.1661 5.60266 11.3069 6.62897 11.3288 7.69922H8.28516ZM5.67297 4.38867C5.67297 4.87335 5.27866 5.26758 4.79407 5.26758C4.30939 5.26758 3.91516 4.87335 3.91516 4.38867C3.91516 3.90399 4.30939 3.50977 4.79407 3.50977C5.27866 3.50977 5.67297 3.90399 5.67297 4.38867ZM4.81943 5.85278C5.51559 5.84088 6.09485 5.34137 6.22934 4.68164H7.69922V7.69922H4.65546C4.66837 7.0686 4.72376 6.44971 4.81943 5.85278ZM7.69922 8.28516V11.3027H5.06616C4.81824 10.3817 4.67743 9.35541 4.65555 8.28516H7.69922ZM7.69922 11.8887V14.8786C6.95224 14.7391 6.24591 14.0693 5.68506 12.9564C5.51862 12.6265 5.37103 12.2688 5.24295 11.8887H7.69922ZM8.28516 14.8779V11.8887H9.69177C9.77344 12.2896 10.0195 12.6313 10.3561 12.8405C9.79404 14.0091 9.05731 14.7309 8.28516 14.8779ZM10.2481 11.5957C10.2481 11.111 10.6425 10.7168 11.127 10.7168C11.6117 10.7168 12.006 11.111 12.006 11.5957C12.006 12.0804 11.6117 12.4746 11.127 12.4746C10.6425 12.4746 10.2481 12.0804 10.2481 11.5957ZM11.9148 7.69922C11.894 6.63675 11.7597 5.61264 11.5233 4.68164H14.0607C14.5554 5.58481 14.854 6.60983 14.8997 7.69922H11.9148ZM13.7006 4.0957H11.3568C11.2068 3.6189 11.0283 3.17212 10.8225 2.76416C10.5244 2.17236 10.1825 1.68805 9.80933 1.32092C11.4122 1.758 12.785 2.75848 13.7006 4.0957ZM6.18329 1.31873C5.76654 1.72586 5.38934 2.27554 5.07147 2.95047C4.98157 2.93317 4.88892 2.92383 4.79407 2.92383C4.08655 2.92383 3.49475 3.42792 3.3587 4.0957H2.28378C3.20105 2.7562 4.5769 1.75461 6.18329 1.31873ZM1.92371 4.68164H3.35861C3.45721 5.16559 3.79541 5.56329 4.24319 5.74567C4.1413 6.37756 4.0827 7.03235 4.06952 7.69922H3.12891C2.96704 7.69922 2.83594 7.83032 2.83594 7.99219C2.83594 8.15405 2.96704 8.28516 3.12891 8.28516H4.06961C4.09039 9.34763 4.2247 10.3717 4.46109 11.3027H1.92371C1.38483 10.319 1.07813 9.19071 1.07813 7.99219C1.07813 6.79367 1.38483 5.66538 1.92371 4.68164ZM2.28378 11.8887H4.62753C4.77759 12.3655 4.95612 12.8123 5.16184 13.2202C5.46002 13.812 5.80188 14.2963 6.17505 14.6635C4.57214 14.2264 3.1994 13.2259 2.28378 11.8887ZM9.80676 14.6641C10.2238 14.2552 10.5936 13.7115 10.9083 13.0442C10.9797 13.055 11.0528 13.0605 11.127 13.0605C11.8346 13.0605 12.4263 12.5566 12.5625 11.8887H13.7006C12.7844 13.2266 11.4108 14.2274 9.80676 14.6641Z" fill="#203B54"/>
</svg>
