<?xml version="1.0" encoding="UTF-8" standalone="no"?>
<svg
   width="40"
   height="40"
   viewBox="0 0 40 40"
   fill="none"
   version="1.1"
   id="svg38"
   sodipodi:docname="gear.svg"
   inkscape:version="1.1.1 (3bf5ae0d25, 2021-09-20)"
   xmlns:inkscape="http://www.inkscape.org/namespaces/inkscape"
   xmlns:sodipodi="http://sodipodi.sourceforge.net/DTD/sodipodi-0.dtd"
   xmlns="http://www.w3.org/2000/svg"
   xmlns:svg="http://www.w3.org/2000/svg">
  <defs
     id="defs42" />
  <sodipodi:namedview
     id="namedview40"
     pagecolor="#ffffff"
     bordercolor="#666666"
     borderopacity="1.0"
     inkscape:pageshadow="2"
     inkscape:pageopacity="0.0"
     inkscape:pagecheckerboard="0"
     showgrid="false"
     inkscape:zoom="20.05"
     inkscape:cx="19.975062"
     inkscape:cy="19.975062"
     inkscape:window-width="1920"
     inkscape:window-height="991"
     inkscape:window-x="-9"
     inkscape:window-y="-9"
     inkscape:window-maximized="1"
     inkscape:current-layer="svg38" />
  <path
     style="color:#000000;fill:#ffffff;stroke-linecap:round;stroke-linejoin:round;stroke-miterlimit:10;-inkscape-stroke:none"
     d="m 5.7949219,14.935547 a 0.5,0.5 0 0 0 -0.2890625,0.25 c -0.1149284,0.229857 -0.1137035,0.340688 -0.109375,0.332031 a 0.50005,0.50005 0 0 0 -0.033203,0.08203 c -2.4556003,8.28048 2.3464243,17.025407 10.6269528,19.423828 5.76492,1.710787 11.764263,-0.05834 15.705078,-4.113281 a 0.5,0.5 0 0 0 -0.0098,-0.707031 0.5,0.5 0 0 0 -0.707031,0.0098 c -3.689708,3.796559 -9.30253,5.45686 -14.707032,3.851562 a 0.50005,0.50005 0 0 0 -0.0039,-0.002 C 8.5113031,31.815926 4.0221108,23.64107 6.3222656,15.884766 l -0.03125,0.08008 C 6.405944,15.734987 6.4047191,15.624156 6.4003906,15.632813 A 0.5,0.5 0 0 0 6.1777344,14.962891 0.5,0.5 0 0 0 5.7949219,14.935547 Z"
     id="path2" />
  <path
     style="color:#000000;fill:#ffffff;stroke-linecap:round;stroke-linejoin:round;stroke-miterlimit:10;-inkscape-stroke:none"
     d="M 19.792969,4.3359375 C 14.800295,4.5232081 10.149099,7.1045035 7.3632812,11.261719 A 0.5,0.5 0 0 0 7.5,11.955078 0.5,0.5 0 0 0 8.1933594,11.818359 C 11.667949,6.6333037 18.243496,4.0624344 24.558594,5.9355469 32.373212,8.2371216 36.806634,16.413545 34.505859,24.171875 a 0.50005,0.50005 0 0 0 -0.002,0.0078 c -0.266019,0.957669 -0.637726,1.862363 -1.121094,2.775391 a 0.5,0.5 0 0 0 0.208985,0.675781 0.5,0.5 0 0 0 0.675781,-0.208984 C 34.77822,26.45733 35.178019,25.485092 35.464844,24.455078 37.919864,16.176624 33.174563,7.430743 24.841797,4.9765625 23.157875,4.4770966 21.457193,4.273514 19.792969,4.3359375 Z"
     id="path4" />
  <path
     style="color:#000000;fill:#ffffff;stroke-linecap:round;stroke-linejoin:round;stroke-miterlimit:10;-inkscape-stroke:none"
     d="m 32.064453,23.363281 a 0.5,0.5 0 0 0 -0.240234,0.664063 l 1.546875,3.318359 a 0.50005,0.50005 0 0 0 0.666015,0.240234 l 3.316407,-1.546875 a 0.5,0.5 0 0 0 0.242187,-0.666015 0.5,0.5 0 0 0 -0.664062,-0.240235 l -2.865235,1.335938 -1.335937,-2.865234 a 0.5,0.5 0 0 0 -0.666016,-0.240235 z"
     id="path6" />
  <path
     style="color:#000000;fill:#ffffff;stroke-linecap:round;stroke-linejoin:round;stroke-miterlimit:10;-inkscape-stroke:none"
     d="m 5.6894531,14.986328 -3.0976562,1.935547 a 0.5,0.5 0 0 0 -0.1582031,0.689453 0.5,0.5 0 0 0 0.6894531,0.158203 l 2.671875,-1.669922 1.6699218,2.671875 A 0.5,0.5 0 0 0 8.1542969,18.931641 0.5,0.5 0 0 0 8.3125,18.242187 L 6.3769531,15.144531 a 0.50005,0.50005 0 0 0 -0.6875,-0.158203 z"
     id="path8" />
  <path
     style="color:#000000;fill:#ffffff;stroke-linecap:round;stroke-linejoin:round;stroke-miterlimit:10;-inkscape-stroke:none"
     d="m 18.017578,10.496094 c -1.119915,0.235771 -2.167662,0.704398 -3.09375,1.283203 a 0.50005,0.50005 0 0 0 -0.201172,0.605469 c 0.342725,0.881293 0.272817,1.570932 -0.164062,2.007812 -0.436899,0.436899 -1.126509,0.506792 -2.007813,0.164063 a 0.50005,0.50005 0 0 0 -0.613281,0.21289 c -0.572116,0.972597 -1.039619,2.016804 -1.275391,3.136719 a 0.50005,0.50005 0 0 0 0.308594,0.568359 c 0.849643,0.330417 1.285156,0.940336 1.285156,1.525391 0,0.585055 -0.42586,1.141745 -1.30664,1.533203 a 0.50005,0.50005 0 0 0 -0.28711,0.554688 c 0.23503,1.175042 0.704399,2.228209 1.283204,3.154296 a 0.50005,0.50005 0 0 0 0.605468,0.201172 c 0.876259,-0.340767 1.560762,-0.270062 1.998047,0.160157 0.395027,0.443916 0.508026,1.152352 0.173828,2.011718 a 0.50005,0.50005 0 0 0 0.201172,0.605469 c 0.926088,0.578805 1.973835,1.047432 3.09375,1.283203 a 0.50005,0.50005 0 0 0 0.564453,-0.298828 c 0.329274,-0.799665 0.966464,-1.294922 1.529297,-1.294922 0.562833,0 1.144969,0.483108 1.537109,1.316406 a 0.50005,0.50005 0 0 0 0.556641,0.277344 c 1.119916,-0.235771 2.16571,-0.704398 3.091797,-1.283203 a 0.50005,0.50005 0 0 0 0.197266,-0.613281 c -0.333405,-0.809696 -0.258198,-1.573834 0.167968,-2 0.436764,-0.436836 1.128473,-0.506788 2.009766,-0.164063 a 0.50005,0.50005 0 0 0 0.611328,-0.21289 c 0.572116,-0.972597 1.039618,-2.016904 1.275391,-3.136719 A 0.50005,0.50005 0 0 0 29.25,21.525391 C 28.400357,21.194974 27.964844,20.585055 27.964844,20 c 0,-0.585055 0.42586,-1.141745 1.30664,-1.533203 a 0.50005,0.50005 0 0 0 0.28711,-0.554688 C 29.323565,16.736967 28.856148,15.6839 28.277344,14.757813 a 0.50005,0.50005 0 0 0 -0.605469,-0.201172 c -0.881293,0.342725 -1.573002,0.272773 -2.009766,-0.164063 -0.436879,-0.43688 -0.506787,-1.126519 -0.164062,-2.007812 a 0.50005,0.50005 0 0 0 -0.201172,-0.605469 c -0.926087,-0.578805 -1.971881,-1.047432 -3.091797,-1.283203 a 0.50005,0.50005 0 0 0 -0.570312,0.308594 c -0.330417,0.849643 -0.938383,1.285156 -1.523438,1.285156 -0.585055,0 -1.143698,-0.425861 -1.535156,-1.306641 a 0.50005,0.50005 0 0 0 -0.558594,-0.287109 z m -0.0625,1.089844 c 0.514305,0.861192 1.23816,1.503906 2.15625,1.503906 0.911788,0 1.661419,-0.633517 2.158203,-1.501953 0.780572,0.198059 1.528751,0.519542 2.220703,0.923828 -0.24419,0.956906 -0.199903,1.923143 0.464844,2.58789 0.664228,0.664338 1.629666,0.708372 2.585938,0.464844 0.407585,0.696882 0.731299,1.456126 0.929687,2.279297 -0.862147,0.514298 -1.505859,1.237546 -1.505859,2.15625 0,0.912438 0.636368,1.661518 1.505859,2.158203 -0.197623,0.783396 -0.522246,1.541589 -0.931641,2.277344 -0.955634,-0.242865 -1.920203,-0.199047 -2.583984,0.464844 -0.670684,0.670684 -0.712902,1.650927 -0.466797,2.58789 -0.692778,0.4046 -1.441153,0.727981 -2.222656,0.925781 -0.508758,-0.833644 -1.216779,-1.503906 -2.154297,-1.503906 -0.931393,0 -1.666268,0.660312 -2.158203,1.503906 -0.782875,-0.198352 -1.532842,-0.522006 -2.226562,-0.927734 0.234312,-0.959777 0.155672,-1.909425 -0.44336,-2.568359 a 0.50005,0.50005 0 0 0 -0.01758,-0.01758 C 14.601342,24.236107 13.635936,24.192026 12.679688,24.435547 12.271755,23.738333 11.948524,22.979836 11.75,22.15625 12.612371,21.641954 13.255859,20.918847 13.255859,20 c 0,-0.912288 -0.634659,-1.661495 -1.503906,-2.158203 0.197643,-0.783211 0.520417,-1.54181 0.929688,-2.277344 0.955611,0.242857 1.920148,0.198993 2.583984,-0.464844 0.664747,-0.664747 0.709034,-1.630984 0.464844,-2.58789 0.693206,-0.405019 1.442521,-0.727833 2.224609,-0.925781 z"
     id="path10" />
  <path
     style="color:#000000;fill:#ffffff;stroke-linecap:round;stroke-linejoin:round;stroke-miterlimit:10;-inkscape-stroke:none"
     d="m 20,15.683594 c -2.377533,0 -4.316406,1.938873 -4.316406,4.316406 0,2.377533 1.938873,4.316406 4.316406,4.316406 2.377533,0 4.316406,-1.938873 4.316406,-4.316406 0,-2.377533 -1.938873,-4.316406 -4.316406,-4.316406 z m 0,1 c 1.837063,0 3.316406,1.479343 3.316406,3.316406 0,1.837063 -1.479343,3.316406 -3.316406,3.316406 -1.837063,0 -3.316406,-1.479343 -3.316406,-3.316406 0,-1.837063 1.479343,-3.316406 3.316406,-3.316406 z"
     id="path12" />
  <path
     style="color:#000000;fill:#ffffff;stroke-linecap:round;stroke-linejoin:round;stroke-miterlimit:10;-inkscape-stroke:none"
     d="m 20.054687,6.4492187 a 0.5,0.5 0 0 0 -0.5,0.5 v 1.1621094 a 0.5,0.5 0 0 0 0.5,0.5 0.5,0.5 0 0 0 0.5,-0.5 V 6.9492187 a 0.5,0.5 0 0 0 -0.5,-0.5 z"
     id="path14" />
  <path
     style="color:#000000;fill:#ffffff;stroke-linecap:round;stroke-linejoin:round;stroke-miterlimit:10;-inkscape-stroke:none"
     d="m 20.054687,31.388672 a 0.5,0.5 0 0 0 -0.5,0.5 v 1.162109 a 0.5,0.5 0 0 0 0.5,0.5 0.5,0.5 0 0 0 0.5,-0.5 v -1.162109 a 0.5,0.5 0 0 0 -0.5,-0.5 z"
     id="path16" />
  <path
     style="color:#000000;fill:#ffffff;stroke-linecap:round;stroke-linejoin:round;stroke-miterlimit:10;-inkscape-stroke:none"
     d="m 13.677734,8.1855469 a 0.5,0.5 0 0 0 -0.380859,0.035156 0.5,0.5 0 0 0 -0.208984,0.6757813 l 0.552734,1.0507812 A 0.5,0.5 0 0 0 14.316406,10.15625 0.5,0.5 0 0 0 14.525391,9.4804688 L 13.972656,8.4296875 A 0.5,0.5 0 0 0 13.677734,8.1855469 Z"
     id="path18" />
  <path
     style="color:#000000;fill:#ffffff;stroke-linecap:round;stroke-linejoin:round;stroke-miterlimit:10;-inkscape-stroke:none"
     d="m 26.101562,29.802734 a 0.5,0.5 0 0 0 -0.378906,0.05078 0.5,0.5 0 0 0 -0.183594,0.68164 l 0.609375,1.050781 a 0.5,0.5 0 0 0 0.683594,0.183594 0.5,0.5 0 0 0 0.181641,-0.683594 l -0.609375,-1.050781 a 0.5,0.5 0 0 0 -0.302735,-0.232422 z"
     id="path20" />
  <path
     style="color:#000000;fill:#ffffff;stroke-linecap:round;stroke-linejoin:round;stroke-miterlimit:10;-inkscape-stroke:none"
     d="m 8.546875,13.042969 a 0.5,0.5 0 0 0 -0.3105469,0.226562 0.5,0.5 0 0 0 0.1660157,0.6875 l 0.9960937,0.607422 a 0.5,0.5 0 0 0 0.6875005,-0.166015 0.5,0.5 0 0 0 -0.1660161,-0.6875 L 8.9238281,13.103516 A 0.5,0.5 0 0 0 8.546875,13.042969 Z"
     id="path22" />
  <path
     style="color:#000000;fill:#ffffff;stroke-linecap:round;stroke-linejoin:round;stroke-miterlimit:10;-inkscape-stroke:none"
     d="m 30.167969,25.541016 a 0.5,0.5 0 0 0 -0.308594,0.226562 0.5,0.5 0 0 0 0.166016,0.6875 l 0.99414,0.607422 a 0.5,0.5 0 0 0 0.6875,-0.166016 0.5,0.5 0 0 0 -0.166015,-0.6875 l -0.994141,-0.607422 a 0.5,0.5 0 0 0 -0.378906,-0.06055 z"
     id="path24" />
  <path
     style="color:#000000;fill:#ffffff;stroke-linecap:round;stroke-linejoin:round;stroke-miterlimit:10;-inkscape-stroke:none"
     d="m 6.9492187,19.554687 a 0.5,0.5 0 0 0 -0.5,0.5 0.5,0.5 0 0 0 0.5,0.5 h 1.1621094 a 0.5,0.5 0 0 0 0.5,-0.5 0.5,0.5 0 0 0 -0.5,-0.5 z"
     id="path26" />
  <path
     style="color:#000000;fill:#ffffff;stroke-linecap:round;stroke-linejoin:round;stroke-miterlimit:10;-inkscape-stroke:none"
     d="m 31.888672,19.554687 a 0.5,0.5 0 0 0 -0.5,0.5 0.5,0.5 0 0 0 0.5,0.5 h 1.162109 a 0.5,0.5 0 0 0 0.5,-0.5 0.5,0.5 0 0 0 -0.5,-0.5 z"
     id="path28" />
  <path
     style="color:#000000;fill:#ffffff;stroke-linecap:round;stroke-linejoin:round;stroke-miterlimit:10;-inkscape-stroke:none"
     d="m 9.8515625,25.492187 a 0.5,0.5 0 0 0 -0.3808594,0.04297 L 8.4765625,26.087891 A 0.5,0.5 0 0 0 8.28125,26.767578 0.5,0.5 0 0 0 8.9609375,26.962891 l 0.9960938,-0.552735 a 0.5,0.5 0 0 0 0.1933597,-0.68164 0.5,0.5 0 0 0 -0.2988285,-0.236329 z"
     id="path30" />
  <path
     style="color:#000000;fill:#ffffff;stroke-linecap:round;stroke-linejoin:round;stroke-miterlimit:10;-inkscape-stroke:none"
     d="m 31.539062,12.996094 a 0.5,0.5 0 0 0 -0.380859,0.03516 l -1.050781,0.554688 a 0.5,0.5 0 0 0 -0.208985,0.673828 0.5,0.5 0 0 0 0.675782,0.210937 L 31.625,13.917969 a 0.5,0.5 0 0 0 0.208984,-0.675781 0.5,0.5 0 0 0 -0.294922,-0.246094 z"
     id="path32" />
  <path
     style="color:#000000;fill:#ffffff;stroke-linecap:round;stroke-linejoin:round;stroke-miterlimit:10;-inkscape-stroke:none"
     d="m 13.935547,29.808594 a 0.5,0.5 0 0 0 -0.294922,0.24414 l -0.552734,1.050782 a 0.5,0.5 0 0 0 0.208984,0.675781 0.5,0.5 0 0 0 0.675781,-0.210938 l 0.552735,-1.050781 a 0.5,0.5 0 0 0 -0.208985,-0.673828 0.5,0.5 0 0 0 -0.380859,-0.03516 z"
     id="path34" />
  <path
     style="color:#000000;fill:#ffffff;stroke-linecap:round;stroke-linejoin:round;stroke-miterlimit:10;-inkscape-stroke:none"
     d="m 26.832031,8.2304688 a 0.5,0.5 0 0 0 -0.683594,0.1816406 l -0.609375,1.0507812 a 0.5,0.5 0 0 0 0.183594,0.6835934 0.5,0.5 0 0 0 0.681641,-0.1816402 L 27.013672,8.9140625 A 0.5,0.5 0 0 0 26.832031,8.2304688 Z"
     id="path36" />
</svg>
