<svg xmlns="http://www.w3.org/2000/svg" width="22" height="22" viewBox="0 0 22 22" fill="none">
    <path
        d="M0.179197 11.4328L10.5621 21.8207C10.6768 21.9355 10.8324 22 10.9947 22C11.1569 22 11.3126 21.9355 11.4273 21.8207C11.542 21.7059 11.6065 21.5502 11.6065 21.3879C11.6065 21.2255 11.542 21.0699 11.4273 20.9551L2.08899 11.6122L21.3776 11.612C21.4588 11.6134 21.5395 11.5986 21.6149 11.5685C21.6904 11.5384 21.7591 11.4935 21.817 11.4366C21.875 11.3796 21.921 11.3117 21.9524 11.2367C21.9838 11.1617 22 11.0813 22 11C22 10.9187 21.9838 10.8383 21.9524 10.7633C21.921 10.6883 21.875 10.6204 21.817 10.5634C21.7591 10.5065 21.6904 10.4616 21.6149 10.4315C21.5395 10.4014 21.4588 10.3866 21.3776 10.388L2.08878 10.388L11.4273 1.04494C11.542 0.930145 11.6065 0.774452 11.6065 0.61211C11.6065 0.449768 11.542 0.294075 11.4273 0.179283C11.3126 0.0644894 11.1569 -1.90735e-06 10.9947 -1.90735e-06C10.8324 -1.90735e-06 10.6768 0.0644875 10.5621 0.179281L0.179195 10.5672C0.0644569 10.682 -1.90735e-06 10.8377 -1.90735e-06 11C-1.90735e-06 11.1623 0.0644588 11.318 0.179197 11.4328Z"
        fill="#0F2862" />
</svg>