<svg width="16" height="12" viewBox="0 0 16 12" fill="none" xmlns="http://www.w3.org/2000/svg">
<path d="M16 1.48074C16 0.668865 15.3395 0.0083313 14.5276 0.0083313H1.47241C0.66069 0.00836255 0.000281251 0.668584 0 1.48099V1.48124V10.5187C0 11.3408 0.667253 11.9917 1.47291 11.9917H14.5271C15.3491 11.9917 16 11.3244 16 10.5187V1.48124C16 1.48118 16 1.48112 16 1.48106C16 1.48096 16 1.48087 16 1.48074ZM1.47241 0.945866H14.5276C14.8225 0.945866 15.0625 1.18584 15.0625 1.48152C15.0625 1.63865 14.9844 1.78449 14.8535 1.87174L8.29703 6.24289C8.11663 6.36317 7.88344 6.3632 7.703 6.24289C7.703 6.24289 1.14641 1.87165 1.14654 1.87174C1.14657 1.87178 1.14644 1.87168 1.14641 1.87165C1.0156 1.78449 0.937504 1.63865 0.937504 1.48074C0.937504 1.1858 1.17747 0.945866 1.47241 0.945866ZM14.5271 11.0542H1.47291C1.18107 11.0542 0.937504 10.8182 0.937504 10.5187V2.85916L7.18293 7.02289C7.43112 7.18836 7.71556 7.27108 8 7.27108C8.28447 7.27108 8.56894 7.18836 8.8171 7.02289L15.0625 2.85916V10.5188C15.0625 10.8106 14.8265 11.0542 14.5271 11.0542Z" fill="#203B54"/>
</svg>
