<?xml version="1.0" encoding="UTF-8" standalone="no"?>
<svg
   width="16"
   height="16"
   viewBox="0 0 16 16"
   fill="none"
   version="1.1"
   id="svg11"
   sodipodi:docname="phone.svg"
   inkscape:version="1.1.1 (3bf5ae0d25, 2021-09-20)"
   xmlns:inkscape="http://www.inkscape.org/namespaces/inkscape"
   xmlns:sodipodi="http://sodipodi.sourceforge.net/DTD/sodipodi-0.dtd"
   xmlns="http://www.w3.org/2000/svg"
   xmlns:svg="http://www.w3.org/2000/svg">
  <sodipodi:namedview
     id="namedview13"
     pagecolor="#ffffff"
     bordercolor="#666666"
     borderopacity="1.0"
     inkscape:pageshadow="2"
     inkscape:pageopacity="0.0"
     inkscape:pagecheckerboard="0"
     showgrid="false"
     inkscape:zoom="50.125"
     inkscape:cx="8.0099751"
     inkscape:cy="8.0099751"
     inkscape:window-width="1920"
     inkscape:window-height="991"
     inkscape:window-x="-9"
     inkscape:window-y="-9"
     inkscape:window-maximized="1"
     inkscape:current-layer="svg11" />
  <path
     style="color:#000000;fill:#203b54;-inkscape-stroke:none"
     d="m 3.1210938,-0.00390625 c -0.3836359,0.003195276 -0.755156,0.14383264 -1.0332032,0.421875 l -1.51562498,1.51562495 -0.005859,0.00586 C 0.19899118,2.329893 0.01508762,2.8957258 0.01757813,3.5742188 0.02009295,4.2596084 0.20170177,5.0426143 0.55273437,5.9101562 1.254095,7.6435313 2.6017671,9.6252148 4.4804687,11.503906 c 1.8790754,1.879045 3.8577586,3.24543 5.5917973,3.957032 0.868011,0.356209 1.65016,0.540335 2.335937,0.539062 0.464483,-8.68e-4 0.781237,-0.219351 1.121094,-0.402344 l 0.166016,0.166016 0.353515,-0.353516 0.353516,-0.353515 1.164062,-1.16211 0.01172,-0.01563 c 0.553677,-0.648645 0.542563,-1.580644 -0.01367,-2.136718 L 13.332031,9.5097656 c -0.792307,-0.7923075 -2.159639,-0.4587032 -2.472656,0.5585934 -0.241197,0.72374 -1.0548518,1.110929 -1.7519531,0.957032 l -0.00391,-0.002 C 8.328166,10.82885 7.3572278,10.193164 6.5839844,9.4296875 5.8158179,8.6712407 5.1622151,7.7083108 4.9628906,6.8945312 l -0.00391,-0.015625 -0.00586,-0.015625 C 4.7204384,6.1340059 5.2374492,5.3492113 5.9160156,5.1230469 l 0.00977,-0.00391 -0.00391,-0.00195 C 6.9322707,4.7989935 7.2626793,3.4423668 6.4726562,2.6523438 L 4.2402344,0.41796875 4.2246094,0.40429688 C 3.9002738,0.12744449 3.5047296,-0.00710153 3.1210938,-0.00390625 Z M 15.564453,11.742188 15.710938,12.095703 V 11.888672 Z M 2.7949219,1.125 C 2.9346377,0.98528661 3.2983027,0.93231751 3.5742188,1.1660156 L 5.765625,3.359375 C 6.068741,3.662491 5.9122402,4.0783859 5.6210937,4.1679687 l -0.021484,0.00781 C 4.4257403,4.5670288 3.5975711,5.8558471 4.0019531,7.1523437 4.2771497,8.2507198 5.0263066,9.296885 5.8808594,10.140625 c 0.7231658,0.714031 1.5849848,1.27847 2.4648437,1.621094 l -0.042969,0.107422 0.5605469,0.125 L 8.8867188,12 h 0.00195 c 1.0422765,0.231651 2.0838921,-0.321254 2.6289061,-1.273437 h 0.185547 l 0.105469,-0.341797 0.0078,-0.02344 c 0.09051,-0.29022 0.506002,-0.4471232 0.808594,-0.144531 l 2.085938,2.085937 0.146484,0.146485 c 0.139266,0.139226 0.192592,0.501699 -0.03906,0.777344 l -1.123046,1.123046 -0.353516,0.353516 C 13.171348,14.873574 12.902979,14.999071 12.40625,15 11.907228,15.000927 11.233359,14.856146 10.451172,14.535156 8.8886935,13.893959 6.9886809,12.598027 5.1875,10.796875 3.3892053,8.9985901 2.1130868,7.0986379 1.4804687,5.5351562 1.163848,4.7526598 1.0194333,4.0759216 1.0175781,3.5703125 1.0157381,3.069042 1.1391315,2.7930619 1.2949219,2.6269531 c 2.969e-4,-3.166e-4 -2.972e-4,-0.00164 0,-0.00195 z"
     id="path2" />
  <defs
     id="defs9">
    <clipPath
       id="clip0_2_244">
      <rect
         width="16"
         height="16"
         fill="white"
         id="rect6" />
    </clipPath>
  </defs>
</svg>
