<?xml version="1.0" encoding="UTF-8" standalone="no"?>
<svg
   width="25"
   height="25"
   viewBox="0 0 25 25"
   fill="none"
   version="1.1"
   id="svg6"
   sodipodi:docname="plus.svg"
   inkscape:version="1.1.1 (3bf5ae0d25, 2021-09-20)"
   xmlns:inkscape="http://www.inkscape.org/namespaces/inkscape"
   xmlns:sodipodi="http://sodipodi.sourceforge.net/DTD/sodipodi-0.dtd"
   xmlns="http://www.w3.org/2000/svg"
   xmlns:svg="http://www.w3.org/2000/svg">
  <defs
     id="defs10" />
  <sodipodi:namedview
     id="namedview8"
     pagecolor="#ffffff"
     bordercolor="#666666"
     borderopacity="1.0"
     inkscape:pageshadow="2"
     inkscape:pageopacity="0.0"
     inkscape:pagecheckerboard="0"
     showgrid="false"
     inkscape:zoom="32.96"
     inkscape:cx="12.48483"
     inkscape:cy="12.51517"
     inkscape:window-width="1920"
     inkscape:window-height="1009"
     inkscape:window-x="-8"
     inkscape:window-y="-8"
     inkscape:window-maximized="1"
     inkscape:current-layer="svg6" />
  <path
     style="color:#000000;fill:#7c97c9;stroke-linecap:round;-inkscape-stroke:none"
     d="M 12,2.0996094 A 0.89999998,0.89999998 0 0 0 11.099609,3 V 23 A 0.89999998,0.89999998 0 0 0 12,23.900391 0.89999998,0.89999998 0 0 0 12.900391,23 V 3 A 0.89999998,0.89999998 0 0 0 12,2.0996094 Z"
     id="path2" />
  <path
     style="color:#000000;fill:#7c97c9;stroke-linecap:round;-inkscape-stroke:none"
     d="M 2,12.099609 A 0.89999998,0.89999998 0 0 0 1.0996094,13 0.89999998,0.89999998 0 0 0 2,13.900391 H 22 A 0.89999998,0.89999998 0 0 0 22.900391,13 0.89999998,0.89999998 0 0 0 22,12.099609 Z"
     id="path4" />
</svg>
