<svg xmlns="http://www.w3.org/2000/svg" width="22" height="22" viewBox="0 0 22 22" fill="none">
    <path
        d="M21.8208 10.5672L11.4379 0.179284C11.3232 0.0644903 11.1676 -4.93442e-09 11.0053 0C10.8431 4.93442e-09 10.6874 0.0644902 10.5727 0.179284C10.458 0.294077 10.3935 0.44977 10.3935 0.612112C10.3935 0.774454 10.458 0.930148 10.5727 1.04494L19.911 10.3878L0.622449 10.388C0.541221 10.3866 0.460525 10.4014 0.385071 10.4315C0.309617 10.4616 0.240914 10.5065 0.182972 10.5634C0.12503 10.6204 0.0790097 10.6883 0.0475948 10.7633C0.01618 10.8383 2.46602e-09 10.9187 0 11C-2.46602e-09 11.0813 0.0161783 11.1617 0.0475931 11.2367C0.079008 11.3117 0.12503 11.3796 0.182972 11.4366C0.240914 11.4935 0.309616 11.5384 0.385071 11.5685C0.460525 11.5986 0.54122 11.6134 0.622447 11.612L19.9112 11.612L10.5727 20.9551C10.458 21.0699 10.3935 21.2255 10.3935 21.3879C10.3935 21.5502 10.458 21.7059 10.5727 21.8207C10.6874 21.9355 10.8431 22 11.0053 22C11.1676 22 11.3232 21.9355 11.4379 21.8207L21.8208 11.4328C21.9355 11.318 22 11.1623 22 11C22 10.8377 21.9355 10.682 21.8208 10.5672Z"
        fill="#0F2862" />
</svg>