<svg width="16" height="16" viewBox="0 0 16 16" fill="none" xmlns="http://www.w3.org/2000/svg">
<path d="M11.8333 5.66673C11.8333 3.55006 10.1167 1.8334 8 1.8334C5.88334 1.8334 4.16667 3.55006 4.16667 5.66673C4.16667 7.7834 5.88334 9.50006 8 9.50006C10.1167 9.50006 11.8333 7.7834 11.8333 5.66673ZM5.16667 5.66673C5.16667 4.10006 6.43334 2.8334 8 2.8334C9.56667 2.8334 10.8333 4.10006 10.8333 5.66673C10.8333 7.2334 9.56667 8.50006 8 8.50006C6.43334 8.50006 5.16667 7.2334 5.16667 5.66673Z" fill="#203B54"/>
<path d="M1.58339 15.3667C1.66672 15.4167 1.75006 15.4334 1.83339 15.4334C2.00006 15.4334 2.18339 15.3501 2.26672 15.1834C3.43339 13.1167 5.63339 11.8334 8.00006 11.8334C10.3667 11.8334 12.5667 13.1167 13.7501 15.1834C13.8834 15.4167 14.2001 15.5001 14.4334 15.3667C14.6667 15.2334 14.7501 14.9167 14.6167 14.6834C13.2667 12.3167 10.7334 10.8334 8.00006 10.8334C5.26672 10.8334 2.73339 12.3167 1.38339 14.6834C1.25006 14.9167 1.33339 15.2334 1.58339 15.3667Z" fill="#203B54"/>
</svg>
