<svg width="18" height="18" viewBox="0 0 18 18" fill="none" xmlns="http://www.w3.org/2000/svg">
<path d="M16.2081 4.08137H12.3295V2.51849C12.3295 1.77433 11.7241 1.16895 10.98 1.16895H7.02001C6.27585 1.16895 5.67043 1.77433 5.67043 2.51849V4.08137H1.79189C0.80382 4.08137 0 4.88523 0 5.87327V15.0383C0 16.0263 0.80382 16.8301 1.79189 16.8301H16.2081C17.1961 16.8301 18 16.0263 18 15.0383V5.87327C18 4.88523 17.1961 4.08137 16.2081 4.08137ZM6.81354 2.51849C6.81354 2.40465 6.90616 2.31205 7.02001 2.31205H10.98C11.0938 2.31205 11.1864 2.40468 11.1864 2.51849V4.08137H6.81354V2.51849ZM1.14311 5.87327C1.14311 5.51551 1.43414 5.22448 1.79189 5.22448H16.2081C16.5658 5.22448 16.8569 5.51551 16.8569 5.87327V6.7192C16.8569 7.51266 16.3248 8.22171 15.563 8.44351L9.58511 10.184C9.20235 10.2955 8.79769 10.2955 8.41485 10.184L2.43697 8.44348C1.67515 8.22168 1.14311 7.51266 1.14311 6.7192V5.87327ZM16.2081 15.687H1.79189C1.43417 15.687 1.14311 15.396 1.14311 15.0383V9.04647C1.43114 9.26909 1.75946 9.4368 2.11739 9.54104C8.72096 11.4637 8.38156 11.4108 8.99998 11.4108C9.62658 11.4108 9.27129 11.4659 15.8826 9.54104C16.2405 9.4368 16.5689 9.26909 16.8569 9.04647V15.0383C16.8569 15.396 16.5658 15.687 16.2081 15.687Z" fill="#203B54"/>
</svg>
