<svg width="87" height="87" viewBox="0 0 87 87" fill="none" xmlns="http://www.w3.org/2000/svg">
<path d="M1.57687 79.4826C1.27781 79.9448 1.29141 80.543 1.61766 80.9915C1.87594 81.3586 2.29734 81.5761 2.73234 81.5761C2.8275 81.5761 2.92266 81.5761 3.03141 81.5489L15.5241 78.7758C19.1264 80.6109 23.1637 81.5761 27.2147 81.5761C41.3114 81.5761 52.7981 70.2117 53.0156 56.1558C59.1328 57.8142 65.8345 57.1889 71.5167 54.307L84.0094 57.0665C84.1045 57.0937 84.1997 57.0937 84.3084 57.0937C84.7434 57.0937 85.1648 56.8762 85.4231 56.5092C85.7358 56.0606 85.7494 55.4625 85.4639 55.0003L80.3662 46.9392C83.7919 42.4669 85.6678 36.9342 85.6678 31.252C85.6678 17.0058 74.0859 5.42389 59.8397 5.42389C45.5934 5.42389 34.2563 16.7883 34.0387 30.8306C31.8638 30.2325 29.58 29.8926 27.2147 29.8926C12.9413 29.9062 1.35938 41.4881 1.35938 55.7344C1.35938 61.403 3.23531 66.9356 6.67453 71.4215L1.57687 79.4826ZM59.8125 8.15623C72.5498 8.15623 82.9219 18.5283 82.9219 31.2656C82.9219 36.6351 81.0459 41.8687 77.6203 45.9876C77.2397 46.4362 77.1989 47.0887 77.5116 47.5781L81.3858 53.6953L71.5983 51.5339C71.2856 51.4659 70.9458 51.5067 70.6603 51.6562C65.2364 54.5381 58.6978 55.0954 52.8797 53.2739C51.9553 43.4728 45.5119 35.2486 36.7031 31.7414C36.7031 31.5783 36.6895 31.4151 36.6895 31.252C36.6895 18.5147 47.0616 8.14264 59.7989 8.14264L59.8125 8.15623ZM4.07812 55.7344C4.07812 42.997 14.4502 32.625 27.1875 32.625C39.9248 32.625 50.2969 42.997 50.2969 55.7344C50.2969 68.4717 39.9248 78.8437 27.1875 78.8437C23.4084 78.8437 19.6566 77.9058 16.3261 76.125C16.1222 76.0162 15.9047 75.9619 15.6872 75.9619C15.592 75.9619 15.4833 75.9619 15.3881 75.989L5.61422 78.1505L9.48844 72.0333C9.80109 71.5303 9.76031 70.8914 9.39328 70.4428C5.96766 66.3103 4.09172 61.0767 4.09172 55.7072L4.07812 55.7344Z" fill="#203B54"/>
<path d="M27.1875 67.9688C28.3136 67.9688 29.2266 67.0558 29.2266 65.9297C29.2266 64.8035 28.3136 63.8906 27.1875 63.8906C26.0614 63.8906 25.1484 64.8035 25.1484 65.9297C25.1484 67.0558 26.0614 67.9688 27.1875 67.9688Z" fill="#203B54"/>
<path d="M27.1875 44.8594C29.4305 44.8594 31.2656 46.6945 31.2656 48.9375C31.2656 51.1805 29.4305 53.0156 27.1875 53.0156C26.4398 53.0156 25.8281 53.6273 25.8281 54.375V61.1719H28.5469V55.5984C31.6462 54.9731 33.9844 52.2272 33.9844 48.9375C33.9844 45.1856 30.9394 42.1406 27.1875 42.1406C23.4356 42.1406 20.3906 45.1856 20.3906 48.9375H23.1094C23.1094 46.6945 24.9445 44.8594 27.1875 44.8594Z" fill="#203B54"/>
<path d="M48.9375 21.75H70.6875V24.4688H48.9375V21.75Z" fill="#203B54"/>
<path d="M48.9375 29.9062H70.6875V32.625H48.9375V29.9062Z" fill="#203B54"/>
<path d="M54.375 38.0625H70.6875V40.7812H54.375V38.0625Z" fill="#203B54"/>
</svg>
