<svg width="87" height="87" viewBox="0 0 87 87" fill="none" xmlns="http://www.w3.org/2000/svg">
<g clip-path="url(#clip0_63_2449)">
<path d="M5.4375 29.9062C5.07697 29.9062 4.73121 30.0495 4.47628 30.3044C4.22134 30.5593 4.07813 30.9051 4.07812 31.2656V36.7031C4.07813 37.0637 4.22134 37.4094 4.47628 37.6643C4.73121 37.9193 5.07697 38.0625 5.4375 38.0625H8.40145C8.82774 39.9099 9.53466 41.6811 10.4976 43.3143L7.195 46.6169C7.06876 46.7431 6.96863 46.893 6.90031 47.0579C6.83199 47.2228 6.79683 47.3996 6.79683 47.5781C6.79683 47.7566 6.83199 47.9334 6.90031 48.0984C6.96863 48.2633 7.06876 48.4131 7.195 48.5394L11.2731 52.6175C11.3994 52.7437 11.5492 52.8439 11.7141 52.9122C11.8791 52.9805 12.0559 53.0157 12.2344 53.0157C12.4129 53.0157 12.5897 52.9805 12.7546 52.9122C12.9195 52.8439 13.0694 52.7437 13.1956 52.6175L16.4982 49.3149C18.1314 50.2778 19.9026 50.9848 21.75 51.4111V55.7344C21.75 56.0949 21.8932 56.4407 22.1482 56.6956C22.4031 56.9505 22.7488 57.0938 23.1094 57.0938H27.8757C28.7464 60.4708 30.4167 63.5889 32.7457 66.1847C35.0748 68.7805 37.9941 70.7779 41.2574 72.0082C44.5206 73.2386 48.032 73.6659 51.4951 73.2539C54.9582 72.8419 58.2713 71.6029 61.1549 69.6413L74.6006 83.0869C74.9793 83.4656 75.4289 83.766 75.9237 83.9709C76.4185 84.1759 76.9488 84.2814 77.4844 84.2814C78.0199 84.2814 78.5503 84.1759 79.045 83.9709C79.5398 83.766 79.9894 83.4656 80.3681 83.0869C80.7468 82.7082 81.0472 82.2586 81.2522 81.7638C81.4571 81.269 81.5626 80.7387 81.5626 80.2031C81.5626 79.6676 81.4571 79.1372 81.2522 78.6425C81.0472 78.1477 80.7468 77.6981 80.3681 77.3194L66.9224 63.8736C69.9033 59.4955 71.181 54.1788 70.5152 48.9243C69.8493 43.6698 67.2857 38.8399 63.3069 35.3438H65.25C65.6105 35.3438 65.9563 35.2005 66.2112 34.9456C66.4662 34.6907 66.6094 34.3449 66.6094 33.9844V28.795C66.8773 28.0847 70.6875 17.9648 70.6875 17.6719C70.6875 14.6826 69.8445 12.3241 68.1822 10.6616C66.5198 8.99906 64.1611 8.15625 61.1719 8.15625C58.1826 8.15625 55.8241 8.99923 54.1616 10.6616C52.4991 12.3239 51.6562 14.6826 51.6562 17.6719C51.6562 17.8348 55.7344 28.7933 55.7344 28.7933V30.9949C53.5412 30.2721 51.2467 29.9046 48.9375 29.9062H43.2548C42.8285 28.0588 42.1216 26.2877 41.1586 24.6545L44.4613 21.3519C44.5875 21.2256 44.6876 21.0758 44.7559 20.9109C44.8243 20.7459 44.8594 20.5691 44.8594 20.3906C44.8594 20.2121 44.8243 20.0353 44.7559 19.8704C44.6876 19.7055 44.5875 19.5556 44.4613 19.4294L40.3831 15.3513C40.2569 15.225 40.107 15.1249 39.9421 15.0566C39.7772 14.9882 39.6004 14.9531 39.4219 14.9531C39.2434 14.9531 39.0666 14.9882 38.9016 15.0566C38.7367 15.1249 38.5869 15.225 38.4606 15.3513L35.158 18.6539C33.5248 17.6909 31.7537 16.984 29.9062 16.5577V12.2344C29.9062 11.8738 29.763 11.5281 29.5081 11.2732C29.2532 11.0182 28.9074 10.875 28.5469 10.875H23.1094C22.7488 10.875 22.4031 11.0182 22.1482 11.2732C21.8932 11.5281 21.75 11.8738 21.75 12.2344V16.5577C19.9026 16.984 18.1314 17.6909 16.4982 18.6539L13.1956 15.3513C13.0694 15.225 12.9195 15.1249 12.7546 15.0566C12.5897 14.9882 12.4129 14.9531 12.2344 14.9531C12.0559 14.9531 11.8791 14.9882 11.7141 15.0566C11.5492 15.1249 11.3994 15.225 11.2731 15.3513L7.195 19.4294C7.06876 19.5556 6.96863 19.7055 6.90031 19.8704C6.83199 20.0353 6.79683 20.2121 6.79683 20.3906C6.79683 20.5691 6.83199 20.7459 6.90031 20.9109C6.96863 21.0758 7.06876 21.2256 7.195 21.3519L10.4976 24.6545C9.53466 26.2877 8.82774 28.0588 8.40145 29.9062H5.4375ZM78.4456 79.242C78.5749 79.3676 78.6779 79.5176 78.7486 79.6833C78.8194 79.849 78.8565 80.0271 78.8578 80.2073C78.8592 80.3875 78.8246 80.5661 78.7563 80.7328C78.6879 80.8996 78.5871 81.051 78.4597 81.1784C78.3323 81.3058 78.1808 81.4066 78.0141 81.475C77.8473 81.5433 77.6687 81.5778 77.4885 81.5765C77.3083 81.5752 77.1302 81.5381 76.9645 81.4673C76.7988 81.3965 76.6488 81.2935 76.5233 81.1642L63.3176 67.9589C63.9975 67.3585 64.6395 66.7164 65.24 66.0366L78.4456 79.242ZM54.3772 17.4313C54.4578 13.0804 56.7429 10.875 61.1719 10.875C65.6068 10.875 67.8916 13.0857 67.9667 17.4471C67.5846 18.4967 65.7268 23.4327 64.3102 27.1875H58.0356L54.3772 17.4313ZM58.4531 29.9062H63.8906V32.625H59.457C59.1276 32.4422 58.793 32.2675 58.4531 32.1011V29.9062ZM67.9688 51.6562C67.9688 55.4197 66.8529 59.0987 64.7623 62.2281C62.6717 65.3575 59.7002 67.7968 56.2235 69.2376C52.7467 70.6784 48.9208 71.056 45.2295 70.3228C41.5382 69.5895 38.1471 67.7783 35.485 65.118C32.8229 62.4577 31.0093 59.0679 30.2735 55.3771C29.5377 51.6862 29.9127 47.8601 31.3512 44.3824C32.7896 40.9046 35.2268 37.9315 38.3548 35.8387C41.4827 33.746 45.1609 32.6276 48.9244 32.625H48.9375C53.9831 32.6307 58.8205 34.6376 62.3883 38.2054C65.9561 41.7732 67.963 46.6106 67.9688 51.6562ZM25.8281 40.7812C24.4838 40.7812 23.1697 40.3826 22.052 39.6358C20.9342 38.8889 20.0631 37.8274 19.5486 36.5854C19.0342 35.3435 18.8996 33.9768 19.1618 32.6584C19.4241 31.3399 20.0714 30.1288 21.022 29.1783C21.9726 28.2277 23.1837 27.5804 24.5021 27.3181C25.8206 27.0558 27.1872 27.1904 28.4292 27.7049C29.6711 28.2193 30.7327 29.0905 31.4795 30.2082C32.2264 31.326 32.625 32.6401 32.625 33.9844C32.623 35.7864 31.9062 37.514 30.632 38.7883C29.3578 40.0625 27.6301 40.7792 25.8281 40.7812ZM10.8565 31.4894C11.23 29.2541 12.08 27.1252 13.3487 25.2473C13.5317 24.9856 13.6166 24.6677 13.5886 24.3496C13.5607 24.0315 13.4216 23.7333 13.1958 23.5075L10.0786 20.3906L12.2344 18.2348L15.3513 21.3519C15.5771 21.5777 15.8752 21.7168 16.1934 21.7447C16.5115 21.7727 16.8293 21.6877 17.0911 21.5048C18.969 20.2361 21.0978 19.3861 23.3332 19.0126C23.6505 18.9596 23.9387 18.7958 24.1467 18.5503C24.3546 18.3049 24.4687 17.9936 24.4688 17.6719V13.5938H27.1875V17.6719C27.1875 17.9936 27.3016 18.3049 27.5095 18.5504C27.7175 18.796 28.0057 18.9598 28.3231 19.0127C30.5584 19.3863 32.6873 20.2362 34.5652 21.505C34.8269 21.6879 35.1448 21.7728 35.4629 21.7449C35.781 21.7169 36.0792 21.5778 36.305 21.352L39.4219 18.2348L41.5777 20.3906L38.4606 23.5075C38.2348 23.7333 38.0957 24.0315 38.0678 24.3496C38.0398 24.6677 38.1248 24.9856 38.3077 25.2473C39.5759 27.1244 40.4257 29.2522 40.7994 31.4865C38.8222 32.288 36.9736 33.3758 35.3128 34.715C35.3313 34.4732 35.3438 34.2299 35.3438 33.9835C35.3446 31.9621 34.702 29.9929 33.509 28.361C32.3159 26.7292 30.6344 25.5195 28.708 24.9071C26.7815 24.2947 24.7102 24.3115 22.7939 24.9549C20.8776 25.5983 19.2158 26.8351 18.0493 28.486C16.8828 30.1369 16.2721 32.1162 16.3057 34.1374C16.3392 36.1586 17.0152 38.1166 18.2359 39.7279C19.4565 41.3392 21.1583 42.5201 23.0949 43.0996C25.0315 43.6791 27.1023 43.6271 29.0074 42.9512C27.8042 45.6954 27.1844 48.6598 27.1875 51.6562C27.1876 52.5651 27.2444 53.4732 27.3574 54.375H24.4688V50.2969C24.4688 49.9751 24.3546 49.6638 24.1467 49.4183C23.9388 49.1728 23.6505 49.009 23.3332 48.956C21.0978 48.5825 18.969 47.7325 17.0911 46.4638C16.8293 46.2808 16.5115 46.1959 16.1934 46.2239C15.8752 46.2518 15.5771 46.3909 15.3513 46.6167L12.2344 49.7339L10.0786 47.5781L13.1956 44.4613C13.4214 44.2354 13.5605 43.9373 13.5885 43.6191C13.6164 43.301 13.5315 42.9832 13.3486 42.7214C12.0798 40.8435 11.2298 38.7147 10.8563 36.4793C10.8033 36.162 10.6396 35.8738 10.3941 35.6658C10.1486 35.4579 9.83733 35.3438 9.51562 35.3438H6.79688V32.625H9.51562C9.83736 32.625 10.1487 32.5109 10.3942 32.303C10.6397 32.095 10.8035 31.8068 10.8565 31.4894Z" fill="#203B54"/>
<path d="M46.3623 7.54822C46.201 7.87067 46.1745 8.24396 46.2885 8.58598C46.4025 8.928 46.6477 9.21073 46.9701 9.37199L49.6888 10.7314C49.8487 10.8129 50.0231 10.8619 50.2019 10.8757C50.3808 10.8894 50.5606 10.8677 50.7311 10.8116C50.9015 10.7556 51.0591 10.6663 51.1949 10.549C51.3307 10.4318 51.4419 10.2888 51.5221 10.1283C51.6024 9.96785 51.6501 9.79309 51.6624 9.61411C51.6748 9.43513 51.6516 9.25547 51.5943 9.08549C51.5369 8.91551 51.4464 8.75856 51.3281 8.62371C51.2097 8.48886 51.0659 8.37877 50.9048 8.29978L48.1861 6.94041C47.8636 6.77917 47.4903 6.75263 47.1483 6.86661C46.8063 6.9806 46.5235 7.22578 46.3623 7.54822Z" fill="#203B54"/>
<path d="M59.8125 1.35938V4.07812C59.8125 4.43865 59.9557 4.78442 60.2107 5.03935C60.4656 5.29428 60.8113 5.4375 61.1719 5.4375C61.5324 5.4375 61.8782 5.29428 62.1331 5.03935C62.388 4.78442 62.5312 4.43865 62.5312 4.07812V1.35938C62.5312 0.998846 62.388 0.653084 62.1331 0.398152C61.8782 0.143219 61.5324 0 61.1719 0C60.8113 0 60.4656 0.143219 60.2107 0.398152C59.9557 0.653084 59.8125 0.998846 59.8125 1.35938Z" fill="#203B54"/>
<path d="M52.4076 1.5029C52.0852 1.66416 51.84 1.94689 51.726 2.28891C51.612 2.63093 51.6385 3.00423 51.7998 3.32668L53.1592 6.04543C53.2381 6.20651 53.3482 6.35036 53.4831 6.4687C53.6179 6.58703 53.7749 6.67749 53.9449 6.73488C54.1148 6.79227 54.2945 6.81544 54.4735 6.80306C54.6525 6.79068 54.8272 6.743 54.9877 6.66275C55.1482 6.58251 55.2911 6.4713 55.4084 6.33553C55.5257 6.19976 55.6149 6.04212 55.671 5.87169C55.7271 5.70127 55.7488 5.52144 55.735 5.34256C55.7213 5.16368 55.6722 4.9893 55.5907 4.82947L54.2314 2.11072C54.0701 1.78828 53.7874 1.5431 53.4454 1.42911C53.1033 1.31513 52.73 1.34167 52.4076 1.5029Z" fill="#203B54"/>
<path d="M68.1123 2.11073L66.7529 4.82948C66.6714 4.98931 66.6224 5.16369 66.6086 5.34257C66.5949 5.52145 66.6166 5.70128 66.6727 5.87171C66.7287 6.04213 66.818 6.19977 66.9353 6.33554C67.0525 6.47131 67.1955 6.58252 67.356 6.66277C67.5164 6.74301 67.6912 6.79069 67.8702 6.80307C68.0492 6.81545 68.2288 6.79228 68.3988 6.73489C68.5688 6.67751 68.7257 6.58704 68.8606 6.46871C68.9954 6.35038 69.1055 6.20652 69.1845 6.04544L70.5439 3.32669C70.6254 3.16686 70.6744 2.99248 70.6882 2.8136C70.702 2.63472 70.6802 2.45488 70.6242 2.28446C70.5681 2.11404 70.4788 1.95639 70.3616 1.82062C70.2443 1.68486 70.1013 1.57364 69.9408 1.4934C69.7804 1.41316 69.6056 1.36547 69.4266 1.35309C69.2477 1.34071 69.068 1.36389 68.898 1.42127C68.728 1.47866 68.5711 1.56913 68.4362 1.68746C68.3014 1.80579 68.1913 1.94964 68.1123 2.11073Z" fill="#203B54"/>
<path d="M74.1576 6.94044L71.4389 8.29981C71.2778 8.3788 71.1339 8.4889 71.0156 8.62375C70.8972 8.7586 70.8068 8.91554 70.7494 9.08552C70.692 9.2555 70.6688 9.43516 70.6812 9.61414C70.6936 9.79312 70.7413 9.96788 70.8215 10.1283C70.9018 10.2888 71.013 10.4318 71.1487 10.5491C71.2845 10.6664 71.4422 10.7556 71.6126 10.8117C71.783 10.8677 71.9628 10.8895 72.1417 10.8757C72.3206 10.8619 72.495 10.8129 72.6548 10.7314L75.3736 9.37202C75.5346 9.29303 75.6785 9.18294 75.7968 9.04809C75.9152 8.91324 76.0056 8.7563 76.063 8.58631C76.1204 8.41633 76.1436 8.23667 76.1312 8.05769C76.1188 7.87871 76.0711 7.70395 75.9909 7.54349C75.9106 7.38303 75.7994 7.24004 75.6637 7.12276C75.5279 7.00548 75.3703 6.91624 75.1998 6.86018C75.0294 6.80412 74.8496 6.78235 74.6707 6.79613C74.4918 6.8099 74.3174 6.85895 74.1576 6.94044Z" fill="#203B54"/>
<path d="M32.625 51.6562C32.625 54.8826 33.5817 58.0364 35.3742 60.719C37.1666 63.4016 39.7143 65.4924 42.695 66.727C45.6757 67.9617 48.9556 68.2847 52.1199 67.6553C55.2842 67.0259 58.1908 65.4723 60.4722 63.1909C62.7535 60.9096 64.3071 58.003 64.9366 54.8387C65.566 51.6743 65.2429 48.3944 64.0083 45.4137C62.7736 42.433 60.6828 39.8853 58.0002 38.0929C55.3177 36.3005 52.1638 35.3437 48.9375 35.3438C44.6126 35.3486 40.4663 37.0688 37.4082 40.1269C34.3501 43.1851 32.6299 47.3314 32.625 51.6562ZM62.5312 51.6562C62.5312 54.3448 61.734 56.9731 60.2403 59.2085C58.7466 61.444 56.6235 63.1864 54.1396 64.2152C51.6557 65.2441 48.9224 65.5133 46.2855 64.9888C43.6486 64.4643 41.2264 63.1696 39.3253 61.2685C37.4241 59.3674 36.1295 56.9452 35.6049 54.3083C35.0804 51.6713 35.3496 48.9381 36.3785 46.4541C37.4074 43.9702 39.1497 41.8472 41.3852 40.3535C43.6207 38.8598 46.2489 38.0625 48.9375 38.0625C52.5415 38.0666 55.9968 39.5001 58.5452 42.0485C61.0936 44.597 62.5272 48.0522 62.5312 51.6562Z" fill="#203B54"/>
<path d="M40.7812 51.6562C40.7812 51.2957 40.638 50.95 40.3831 50.695C40.1282 50.4401 39.7824 50.2969 39.4219 50.2969C39.0613 50.2969 38.7156 50.4401 38.4607 50.695C38.2057 50.95 38.0625 51.2957 38.0625 51.6562C38.0657 54.5395 39.2125 57.3037 41.2513 59.3425C43.29 61.3812 46.0543 62.528 48.9375 62.5312C49.298 62.5312 49.6438 62.388 49.8987 62.1331C50.1537 61.8782 50.2969 61.5324 50.2969 61.1719C50.2969 60.8113 50.1537 60.4656 49.8987 60.2107C49.6438 59.9557 49.298 59.8125 48.9375 59.8125C46.7751 59.8101 44.7019 58.95 43.1728 57.421C41.6437 55.8919 40.7836 53.8187 40.7812 51.6562Z" fill="#203B54"/>
</g>
<defs>
<clipPath id="clip0_63_2449">
<rect width="87" height="87" fill="white"/>
</clipPath>
</defs>
</svg>
