<svg width="87" height="87" viewBox="0 0 87 87" fill="none" xmlns="http://www.w3.org/2000/svg">
<g clip-path="url(#clip0_76_336)">
<path d="M85.713 35.9587L75.1831 33.3254C74.6246 31.5824 73.9271 29.8938 73.1014 28.2857L78.6815 18.9845C79.0825 18.3159 78.9771 17.4602 78.4259 16.9089L70.0912 8.57409C69.5397 8.02269 68.684 7.91751 68.0155 8.31853L58.7141 13.8988C57.1004 13.0704 55.412 12.3727 53.6744 11.8165L51.0413 1.28699C50.8522 0.530666 50.1727 0 49.3929 0H37.6071C36.8273 0 36.1478 0.530666 35.9587 1.28699L33.3256 11.8164C31.5878 12.3725 29.8996 13.0702 28.2859 13.8986L18.9845 8.31836C18.3159 7.91734 17.4602 8.02252 16.9088 8.57392L8.57409 16.9088C8.02286 17.46 7.91751 18.3159 8.31853 18.9844L13.8986 28.2855C13.0729 29.8937 12.3754 31.5822 11.8169 33.3252L1.28699 35.9587C0.530666 36.1478 0 36.8273 0 37.6071V49.3929C0 50.1725 0.530666 50.8522 1.28699 51.0413L11.8169 53.6746C12.3754 55.4176 13.0729 57.1062 13.8986 58.7143L8.31853 68.0155C7.91751 68.6841 8.02286 69.5398 8.57409 70.0911L16.9088 78.4259C17.4603 78.9773 18.3159 79.0825 18.9845 78.6815L28.286 73.1011C29.8976 73.9279 31.5859 74.6254 33.3254 75.183L35.9587 85.7128C36.1478 86.4692 36.8273 86.9998 37.6071 86.9998H49.3927C50.1725 86.9998 50.852 86.4692 51.0411 85.7128L53.6744 75.183C55.4139 74.6254 57.1022 73.9279 58.7138 73.1011L68.0153 78.6815C68.6838 79.0825 69.5397 78.9771 70.0911 78.4259L78.4257 70.0911C78.977 69.5398 79.0823 68.684 78.6813 68.0155L73.1012 58.7143C73.9269 57.1062 74.6244 55.4176 75.183 53.6746L85.7128 51.0413C86.4692 50.8522 86.9998 50.1725 86.9998 49.3929V37.6071C87 36.8273 86.4693 36.1478 85.713 35.9587ZM83.6016 48.0663L73.4256 50.6111C72.838 50.758 72.3731 51.2065 72.2051 51.7885C71.5832 53.9444 70.7276 56.0147 69.6624 57.9422C69.3691 58.4725 69.3808 59.1187 69.6924 59.6383L75.0846 68.6264L68.626 75.0849L59.638 69.6928C59.1187 69.3813 58.473 69.3698 57.9427 69.6622C56.0086 70.7296 53.938 71.5852 51.7881 72.2054C51.2061 72.3733 50.7575 72.8384 50.6106 73.4258L48.0661 83.6016H38.9339L36.3889 73.4256C36.2421 72.838 35.7934 72.3731 35.2114 72.2052C33.0617 71.5852 30.9909 70.7295 29.0568 69.662C28.5267 69.3696 27.8808 69.3811 27.3615 69.6926L18.3735 75.0847L11.9153 68.6264L17.3074 59.6383C17.619 59.1187 17.6306 58.4725 17.3375 57.9422C16.2722 56.0147 15.4167 53.9444 14.7948 51.7885C14.6269 51.2065 14.1618 50.758 13.5742 50.6111L3.39844 48.0663V38.9337L13.5744 36.3889C14.162 36.242 14.6269 35.7935 14.7949 35.2116C15.4168 33.0556 16.2724 30.9853 17.3376 29.0578C17.6309 28.5275 17.6192 27.8813 17.3076 27.3617L11.9153 18.3737L18.3738 11.9151L27.3618 17.3072C27.8813 17.6189 28.5273 17.6304 29.0575 17.3376C30.9948 16.2678 33.0651 15.4123 35.2107 14.7949C35.7932 14.6274 36.2421 14.1621 36.3893 13.5742L38.9339 3.39844H48.0661L50.6111 13.5744C50.758 14.1623 51.2071 14.6274 51.7896 14.7951C53.9352 15.4124 56.0056 16.268 57.9429 17.3378C58.473 17.6306 59.1192 17.6192 59.6385 17.3074L68.6265 11.9153L75.0851 18.3738L69.6929 27.3618C69.3813 27.8815 69.3698 28.5277 69.6629 29.058C70.7281 30.9854 71.5837 33.0558 72.2056 35.2117C72.3735 35.7937 72.8385 36.2421 73.4261 36.3891L83.6016 38.9337V48.0663Z" fill="#203B54"/>
<path d="M59.4727 59.4727C60.4111 59.4727 61.1719 58.7119 61.1719 57.7734C61.1719 56.835 60.4111 56.0742 59.4727 56.0742C58.5342 56.0742 57.7734 56.835 57.7734 57.7734C57.7734 58.7119 58.5342 59.4727 59.4727 59.4727Z" fill="#203B54"/>
<path d="M43.5 20.3906C30.7576 20.3906 20.3906 30.7574 20.3906 43.5C20.3906 56.2426 30.7576 66.6094 43.5 66.6094C47.2306 66.6094 50.94 65.6954 54.2273 63.9659C55.0579 63.5289 55.377 62.5013 54.9398 61.6709C54.5026 60.8405 53.4751 60.5214 52.6449 60.9583C49.8439 62.432 46.6816 63.2109 43.5 63.2109C32.6313 63.2109 23.7891 54.3685 23.7891 43.5C23.7891 32.6315 32.6313 23.7891 43.5 23.7891C54.3687 23.7891 63.2109 32.6315 63.2109 43.5C63.2109 45.9598 62.7617 48.3599 61.8759 50.6335C61.535 51.5079 61.9678 52.4929 62.8422 52.8338C63.7175 53.1743 64.7018 52.7417 65.0424 51.8675C66.0821 49.1988 66.6094 46.3836 66.6094 43.5C66.6094 30.7574 56.2424 20.3906 43.5 20.3906Z" fill="#203B54"/>
</g>
<defs>
<clipPath id="clip0_76_336">
<rect width="87" height="87" fill="white"/>
</clipPath>
</defs>
</svg>
