<svg width="87" height="87" viewBox="0 0 87 87" fill="none" xmlns="http://www.w3.org/2000/svg">
<g clip-path="url(#clip0_44_182)">
<path d="M85.5507 3.79621e-08H85.55H1.45C0.649415 -0.000181212 0.000177435 0.648694 -3.8147e-06 1.44928V1.45V30.45H2.9V2.9H84.1V34.8H33.35V37.7H85.55C86.3506 37.7002 86.9998 37.0513 87 36.2507V36.25V1.45C87.0002 0.649419 86.3513 0.000181288 85.5507 3.79621e-08Z" fill="#203B54"/>
<path d="M76.85 7.25H47.85V10.15H76.85V7.25Z" fill="#203B54"/>
<path d="M81.2 15.95H52.2V18.85H81.2V15.95Z" fill="#203B54"/>
<path d="M75.4 24.65H46.4V27.55H75.4V24.65Z" fill="#203B54"/>
<path d="M46.2844 12.5016C45.2917 10.1154 42.5526 8.98588 40.1666 9.97859C40.1258 9.99562 40.0852 10.013 40.045 10.0311L28.2877 16.1302C28.7513 15.1692 28.9947 14.1169 29 13.05C29 9.04606 25.754 5.80005 21.75 5.80005C17.746 5.80005 14.5 9.04606 14.5 13.05C14.5054 14.6238 15.028 16.1523 15.9872 17.4H15.9268C11.811 17.4276 8.13685 19.9863 6.68377 23.8373L2.813 37.179C1.89152 39.5725 3.08487 42.2601 5.47864 43.1816C6.57013 43.6017 7.77997 43.5947 8.86656 43.1617C10.115 42.6587 11.0865 41.643 11.5337 40.3735L13.05 35.5477V56.5334C11.8023 55.5744 10.2738 55.0518 8.7 55.0462C4.70198 55.0402 1.45598 58.2765 1.45 62.2747C1.4471 64.2327 2.23735 66.1083 3.64076 67.4738C1.41356 68.6117 0.00869622 70.8983 -3.77674e-06 73.3992V85.55C-0.000185027 86.3506 0.64869 86.9999 1.44927 87H1.45H15.95C16.7506 87.0002 17.3998 86.3513 17.4 85.5508V85.55V73.3992C17.3929 71.344 16.4381 69.4072 14.8125 68.15H25.7877C24.1619 69.4072 23.2071 71.344 23.2002 73.3992V85.55C23.2 86.3506 23.8489 86.9999 24.6495 87H24.6502H39.1502C39.9508 87.0002 40.6 86.3513 40.6002 85.5508V85.55V73.3992C40.5915 70.8983 39.1866 68.6117 36.9594 67.4738C39.8223 64.6795 39.8779 60.0933 37.0836 57.2305C35.3628 55.4674 32.8639 54.6998 30.4502 55.1928V25.5307L43.7614 18.6191C46.1473 17.6266 47.2769 14.8876 46.2844 12.5016ZM21.75 8.70005C24.1525 8.70005 26.1 10.6476 26.1 13.05C26.1 15.4525 24.1525 17.4 21.75 17.4C19.3486 17.3975 17.4025 15.4514 17.4 13.05C17.4 10.6476 19.3475 8.70005 21.75 8.70005ZM8.7 57.9462C11.1025 57.9462 13.05 59.8937 13.05 62.2962C13.05 64.6987 11.1025 66.6462 8.7 66.6462C6.29753 66.6462 4.35 64.6987 4.35 62.2962C4.35253 59.8948 6.29861 57.9489 8.7 57.9462ZM14.5 84.1H2.9V73.3992C2.9029 71.302 4.60248 69.6026 6.6999 69.6H10.7001C12.7973 69.6026 14.4971 71.302 14.5 73.3992V84.1ZM37.7 73.3992V84.1H26.1V73.3992C26.1029 71.302 27.8025 69.6026 29.8999 69.6H33.9001C35.9975 69.6026 37.6971 71.302 37.7 73.3992ZM31.9 57.9462C34.3014 57.9488 36.2475 59.8948 36.25 62.2962C36.25 64.6987 34.3025 66.6462 31.9 66.6462C29.4975 66.6462 27.55 64.6987 27.55 62.2962C27.55 59.8937 29.4975 57.9462 31.9 57.9462ZM43.631 14.9205C43.4369 15.4186 43.0384 15.8096 42.5365 15.9939L28.3325 23.3628C27.8518 23.6122 27.55 24.1087 27.55 24.65V56.5334C24.834 58.5416 23.8931 62.1762 25.2938 65.25H23.2V40.6H20.3V65.25H15.3062C15.7187 64.3384 15.936 63.3505 15.9446 62.35H15.95V26.1C15.9498 25.2991 15.3004 24.65 14.4996 24.6502C13.8665 24.6504 13.3066 25.0613 13.1167 25.6654L8.787 39.4431C8.45893 40.3479 7.45934 40.8156 6.55454 40.4873C6.4911 40.4643 6.42893 40.4376 6.3684 40.4074C5.53193 39.9751 5.17686 38.9659 5.55857 38.105L9.42916 24.7633C10.473 22.0826 13.0498 20.3126 15.9266 20.3H26.1935C26.4259 20.3004 26.655 20.2444 26.8612 20.1373L41.2728 12.6566C42.1374 12.2959 43.1339 12.6649 43.5547 13.5019C43.7779 13.9431 43.8056 14.4578 43.631 14.9205Z" fill="#203B54"/>
<path d="M60.1592 67.4738C63.0271 64.6796 63.087 60.0895 60.2928 57.2216C57.4987 54.3537 52.9085 54.2938 50.0406 57.088C47.1727 59.8821 47.1128 64.4723 49.907 67.3402C49.951 67.3853 49.9956 67.4299 50.0408 67.4738C47.8137 68.6117 46.4087 70.8983 46.4 73.3992V85.55C46.3998 86.3506 47.0487 86.9999 47.8493 87C47.8495 87 47.8498 87 47.85 87H62.35C63.1506 87.0002 63.7998 86.3513 63.8 85.5508C63.8 85.5506 63.8 85.5502 63.8 85.55V73.3992C63.7913 70.8983 62.3864 68.6117 60.1592 67.4738ZM55.1 57.9462C57.5025 57.9462 59.45 59.8937 59.45 62.2962C59.45 64.6987 57.5025 66.6462 55.1 66.6462C52.6975 66.6462 50.75 64.6987 50.75 62.2962C50.7525 59.8948 52.6986 57.9489 55.1 57.9462ZM60.9 84.1H49.3V73.3992C49.3029 71.302 51.0025 69.6026 53.0999 69.6H57.1001C59.1973 69.6026 60.8971 71.302 60.9 73.3992V84.1Z" fill="#203B54"/>
<path d="M83.3592 67.4738C86.2271 64.6796 86.287 60.0895 83.4928 57.2216C80.6987 54.3537 76.1085 54.2938 73.2406 57.088C70.3727 59.8821 70.3129 64.4723 73.107 67.3402C73.151 67.3853 73.1956 67.4299 73.2408 67.4738C71.0137 68.6117 69.6087 70.8983 69.6 73.3992V85.55C69.5998 86.3506 70.2487 86.9999 71.0493 87C71.0495 87 71.0498 87 71.05 87H85.55C86.3506 87.0002 86.9998 86.3513 87 85.5508C87 85.5506 87 85.5502 87 85.55V73.3992C86.9913 70.8983 85.5864 68.6117 83.3592 67.4738ZM78.3 57.9462C80.7025 57.9462 82.65 59.8937 82.65 62.2962C82.65 64.6987 80.7025 66.6462 78.3 66.6462C75.8975 66.6462 73.95 64.6987 73.95 62.2962C73.9525 59.8948 75.8986 57.9489 78.3 57.9462ZM84.1 84.1H72.5V73.3992C72.5029 71.302 74.2025 69.6026 76.2999 69.6H80.3001C82.3973 69.6026 84.0971 71.302 84.1 73.3992V84.1Z" fill="#203B54"/>
</g>
<defs>
<clipPath id="clip0_44_182">
<rect width="87" height="87" fill="white"/>
</clipPath>
</defs>
</svg>
