<svg width="87" height="87" viewBox="0 0 87 87" fill="none" xmlns="http://www.w3.org/2000/svg">
<g clip-path="url(#clip0_44_228)">
<path d="M17.2094 42.1187C11.6438 42.1187 7.11616 37.6322 7.11616 32.1193C7.11616 26.6057 11.6438 22.1193 17.2094 22.1193C22.7743 22.1193 27.3012 26.6051 27.3012 32.1193C27.3012 37.6329 22.7743 42.1187 17.2094 42.1187ZM17.2094 24.9257C13.1909 24.9257 9.92261 28.1529 9.92261 32.1193C9.92261 36.0851 13.1909 39.3122 17.2094 39.3122C21.2265 39.3122 24.4948 36.0851 24.4948 32.1193C24.4948 28.1529 21.2265 24.9257 17.2094 24.9257Z" fill="#203B54"/>
<path d="M21.2697 69.8051H3.66771C1.64509 69.8051 -3.8147e-06 68.1702 -3.8147e-06 66.1606V61.5707C-3.8147e-06 52.1743 7.71979 44.5292 17.2094 44.5292C20.9415 44.5292 24.4941 45.694 27.4801 47.8968C28.1036 48.3572 28.2365 49.2356 27.7761 49.8598C27.3156 50.4826 26.4379 50.6155 25.8137 50.1558C23.3136 48.3113 20.3386 47.3356 17.2094 47.3356C9.26759 47.3356 2.80645 53.7221 2.80645 61.5707V66.1606C2.80645 66.6224 3.19288 66.9986 3.66771 66.9986H21.2704C22.0446 66.9986 22.6736 67.6269 22.6736 68.4018C22.6736 69.1761 22.0446 69.8051 21.2697 69.8051Z" fill="#203B54"/>
<path d="M83.3323 68.743H65.7303C64.9561 68.743 64.3271 68.1147 64.3271 67.3397C64.3271 66.5655 64.9561 65.9365 65.7303 65.9365H83.333C83.8078 65.9365 84.1942 65.561 84.1942 65.0992V60.5093C84.1942 52.6593 77.7331 46.2742 69.7913 46.2742C66.4744 46.2742 63.2363 47.4164 60.6731 49.4911C60.0715 49.9782 59.1883 49.8858 58.6998 49.2835C58.2126 48.6812 58.3044 47.7974 58.9081 47.3095C61.9687 44.8326 65.8338 43.4678 69.7913 43.4678C79.2802 43.4678 87 51.1122 87 60.5093V65.0992C87 67.1082 85.3549 68.743 83.3323 68.743Z" fill="#203B54"/>
<path d="M69.7906 41.4253C64.2257 41.4253 59.6988 36.9395 59.6988 31.4259C59.6988 25.9124 64.2257 21.4259 69.7906 21.4259C75.3562 21.4259 79.8838 25.9117 79.8838 31.4259C79.8838 36.9402 75.3556 41.4253 69.7906 41.4253ZM69.7906 24.2324C65.7735 24.2324 62.5052 27.4595 62.5052 31.4259C62.5052 35.3924 65.7735 38.6188 69.7906 38.6188C73.8091 38.6188 77.0774 35.3924 77.0774 31.4259C77.0774 27.4595 73.8084 24.2324 69.7906 24.2324Z" fill="#203B54"/>
<path d="M62.545 74.371H24.455C21.9247 74.371 19.8665 72.3278 19.8665 69.816V63.3604C19.8665 50.4586 30.4674 39.9625 43.5 39.9625C56.5326 39.9625 67.1335 50.4586 67.1335 63.3604V69.816C67.1335 72.3278 65.0753 74.371 62.545 74.371ZM43.5 42.7697C32.0159 42.7697 22.6729 52.0071 22.6729 63.361V69.8167C22.6729 70.7807 23.4725 71.5653 24.455 71.5653H62.5443C63.5268 71.5653 64.3264 70.7807 64.3264 69.8167V63.361C64.3271 52.0071 54.9841 42.7697 43.5 42.7697Z" fill="#203B54"/>
<path d="M43.0122 38.3229C35.8617 38.3229 30.0433 32.5599 30.0433 25.4753C30.0433 18.3913 35.8611 12.629 43.0122 12.629C50.164 12.629 55.9817 18.392 55.9817 25.4759C55.9817 32.5606 50.1633 38.3229 43.0122 38.3229ZM43.0122 15.4355C37.4088 15.4355 32.8497 19.9398 32.8497 25.4759C32.8497 31.0128 37.4088 35.5171 43.0122 35.5171C48.6162 35.5171 53.1753 31.0128 53.1753 25.4759C53.1753 19.9398 48.6162 15.4355 43.0122 15.4355Z" fill="#203B54"/>
<path d="M40.324 55.718L37.919 65H36.086L34.617 59.67C34.5823 59.54 34.5433 59.3797 34.5 59.189C34.4567 58.9983 34.409 58.8033 34.357 58.604C34.3137 58.396 34.2747 58.2053 34.24 58.032C34.2053 57.85 34.1837 57.7157 34.175 57.629C34.1663 57.7157 34.1447 57.85 34.11 58.032C34.0753 58.2053 34.0363 58.396 33.993 58.604C33.9497 58.8033 33.9063 59.0027 33.863 59.202C33.8197 59.3927 33.7763 59.5573 33.733 59.696L32.303 65H30.457L28.065 55.718H29.729L31.003 61.009C31.0463 61.1823 31.0897 61.373 31.133 61.581C31.1763 61.7803 31.2197 61.9883 31.263 62.205C31.3063 62.413 31.3453 62.621 31.38 62.829C31.4147 63.0283 31.4407 63.206 31.458 63.362C31.4753 63.1973 31.5013 63.0153 31.536 62.816C31.5707 62.608 31.6097 62.4 31.653 62.192C31.6963 61.9753 31.7397 61.7717 31.783 61.581C31.8263 61.3817 31.8697 61.2127 31.913 61.074L33.369 55.718H34.981L36.463 61.087C36.5063 61.2343 36.5497 61.4077 36.593 61.607C36.645 61.7977 36.6927 62.0013 36.736 62.218C36.7793 62.426 36.814 62.6297 36.84 62.829C36.8747 63.0283 36.905 63.206 36.931 63.362C36.957 63.1453 36.9917 62.8983 37.035 62.621C37.087 62.3437 37.1433 62.062 37.204 61.776C37.2733 61.49 37.334 61.2343 37.386 61.009L38.66 55.718H40.324ZM45.5906 65L43.0426 57.395H42.9906C42.9993 57.5683 43.0123 57.8153 43.0296 58.136C43.047 58.448 43.06 58.7903 43.0686 59.163C43.086 59.527 43.0946 59.8693 43.0946 60.19V65H41.5996V55.718H43.9136L46.3576 63.011H46.4096L48.9576 55.718H51.2716V65H49.6856V60.112C49.6856 59.8173 49.69 59.4967 49.6986 59.15C49.716 58.7947 49.729 58.461 49.7376 58.149C49.755 57.8283 49.768 57.5813 49.7766 57.408H49.7246L47.0726 65H45.5906ZM59.0679 62.465C59.0679 63.011 58.9335 63.4833 58.6649 63.882C58.3962 64.2807 58.0062 64.5883 57.4949 64.805C56.9922 65.0217 56.3899 65.13 55.6879 65.13C55.3499 65.13 55.0249 65.1083 54.7129 65.065C54.4095 65.0303 54.1192 64.974 53.8419 64.896C53.5732 64.818 53.3219 64.7227 53.0879 64.61V63.05C53.4779 63.2233 53.9069 63.3837 54.3749 63.531C54.8429 63.6697 55.3195 63.739 55.8049 63.739C56.1775 63.739 56.4809 63.6913 56.7149 63.596C56.9575 63.492 57.1352 63.3533 57.2479 63.18C57.3605 62.998 57.4169 62.79 57.4169 62.556C57.4169 62.296 57.3432 62.075 57.1959 61.893C57.0485 61.711 56.8319 61.542 56.5459 61.386C56.2599 61.23 55.9045 61.0653 55.4799 60.892C55.1939 60.7707 54.9122 60.6363 54.6349 60.489C54.3662 60.333 54.1235 60.1467 53.9069 59.93C53.6902 59.7133 53.5169 59.4577 53.3869 59.163C53.2569 58.8683 53.1919 58.5217 53.1919 58.123C53.1919 57.5943 53.3175 57.1393 53.5689 56.758C53.8289 56.3767 54.1885 56.0863 54.6479 55.887C55.1159 55.6877 55.6575 55.588 56.2729 55.588C56.7669 55.588 57.2305 55.64 57.6639 55.744C58.0972 55.848 58.5262 55.9953 58.9509 56.186L58.4179 57.525C58.0365 57.3603 57.6682 57.2303 57.3129 57.135C56.9575 57.0397 56.5935 56.992 56.2209 56.992C55.9262 56.992 55.6749 57.0397 55.4669 57.135C55.2589 57.2217 55.1029 57.3473 54.9989 57.512C54.8949 57.6767 54.8429 57.8673 54.8429 58.084C54.8429 58.3353 54.9079 58.5477 55.0379 58.721C55.1679 58.8943 55.3672 59.059 55.6359 59.215C55.9132 59.3623 56.2685 59.5313 56.7019 59.722C57.2045 59.9387 57.6292 60.164 57.9759 60.398C58.3225 60.632 58.5912 60.9137 58.7819 61.243C58.9725 61.5723 59.0679 61.9797 59.0679 62.465Z" fill="#203B54"/>
</g>
<defs>
<clipPath id="clip0_44_228">
<rect width="87" height="87" fill="white"/>
</clipPath>
</defs>
</svg>
