<svg width="18" height="14" viewBox="0 0 18 14" fill="none" xmlns="http://www.w3.org/2000/svg">
<path d="M16.4807 10.7721V6.10051L16.614 6.02288C16.897 5.85863 17.0657 5.56557 17.0657 5.23876C17.0657 4.91195 16.897 4.61832 16.614 4.45407L9.77571 0.481695C9.20027 0.146445 8.48421 0.147008 7.90877 0.481695L1.0699 4.45463C0.787524 4.61888 0.618774 4.91195 0.618774 5.23876C0.618774 5.56557 0.787524 5.85863 1.0699 6.02345L3.14327 7.22832V10.029C3.14327 10.6793 3.49315 11.2839 4.05565 11.6085L6.90977 13.2538C7.50546 13.5969 8.17371 13.7691 8.84196 13.7691C9.51021 13.7691 10.1779 13.5975 10.7741 13.2538L13.6277 11.6085C14.1908 11.2845 14.5406 10.6793 14.5406 10.029V7.22776L15.4682 6.68888V10.7721C15.2303 10.9341 15.0739 11.2069 15.0739 11.5168C15.0739 12.0141 15.4772 12.4174 15.9745 12.4174C16.4717 12.4174 16.875 12.0141 16.875 11.5168C16.875 11.2074 16.7186 10.9346 16.4807 10.7721ZM13.5287 10.0284H13.5281C13.5281 10.3176 13.3735 10.5864 13.1226 10.7304L10.269 12.3758C9.38927 12.8826 8.29521 12.8826 7.41602 12.3758L4.5619 10.7304C4.31159 10.5864 4.15634 10.3176 4.15634 10.0284V7.81613L7.90877 9.99638C8.19677 10.1634 8.51965 10.2473 8.84252 10.2473C9.1654 10.2473 9.48827 10.164 9.77627 9.99638L13.5287 7.81613V10.0284ZM9.26721 9.12113C9.00509 9.27357 8.6794 9.27357 8.41727 9.12113L1.73534 5.23876L8.41671 1.35638C8.67884 1.20395 9.00453 1.20395 9.26665 1.35638L15.9486 5.2382L9.26721 9.12113Z" fill="#203B54"/>
</svg>
