<svg width="18" height="18" viewBox="0 0 18 18" fill="none" xmlns="http://www.w3.org/2000/svg">
<mask id="mask0_370_284" style="mask-type:luminance" maskUnits="userSpaceOnUse" x="0" y="0" width="18" height="18">
<path d="M0 1.90735e-06H18V18H0V1.90735e-06Z" fill="white"/>
</mask>
<g mask="url(#mask0_370_284)">
<path d="M15.6296 3.39876C15.1903 3.83811 14.478 3.83811 14.0386 3.39876C13.5993 2.95941 13.5993 2.24711 14.0386 1.80776C14.478 1.36842 15.1903 1.36842 15.6296 1.80776C16.069 2.24711 16.069 2.95941 15.6296 3.39876Z" stroke="#203B54" stroke-width="0.75" stroke-miterlimit="10" stroke-linecap="round" stroke-linejoin="round"/>
<path d="M3.9614 16.1922C3.52205 16.6316 2.80975 16.6316 2.3704 16.1922C1.93106 15.7529 1.93106 15.0406 2.3704 14.6012C2.80975 14.1619 3.52205 14.1619 3.9614 14.6012C4.40075 15.0406 4.40075 15.7529 3.9614 16.1922Z" stroke="#203B54" stroke-width="0.75" stroke-miterlimit="10" stroke-linecap="round" stroke-linejoin="round"/>
<path d="M7.29449 17.4803C7.84589 17.5906 8.41619 17.6484 9.00003 17.6484C13.7764 17.6484 17.6485 13.7764 17.6485 9C17.6485 6.91492 16.9105 5.00228 15.6816 3.50873" stroke="#203B54" stroke-width="0.75" stroke-miterlimit="10" stroke-linecap="round" stroke-linejoin="round"/>
<path d="M10.722 0.522966C10.1655 0.410537 9.58964 0.351509 9 0.351509C4.2236 0.351509 0.351562 4.22355 0.351562 8.99995C0.351562 11.085 1.08956 12.9977 2.31845 14.4912" stroke="#203B54" stroke-width="0.75" stroke-miterlimit="10" stroke-linecap="round" stroke-linejoin="round"/>
<path d="M8.99999 11.5534C7.5898 11.5534 6.44659 10.4102 6.44659 9C6.44659 7.58981 7.5898 6.44664 8.99999 6.44664C10.4102 6.44664 11.5534 7.58981 11.5534 9C11.5534 10.4102 10.4102 11.5534 8.99999 11.5534ZM14.0918 7.89775C13.9579 7.27436 13.7126 6.69234 13.3775 6.17376L14.0511 5.50013L12.4961 3.94633L11.8231 4.61939C11.3045 4.28425 10.7225 4.03896 10.0991 3.90505V2.95313H7.90086V3.90505C7.27747 4.03896 6.69549 4.28425 6.1769 4.61939L5.50384 3.94633L3.94891 5.50013L4.62251 6.17376C4.28736 6.69234 4.04208 7.27436 3.90813 7.89775H2.95371L2.95251 10.096H3.9081C4.04204 10.7194 4.28733 11.3014 4.62247 11.82L3.94631 12.4961L5.50011 14.0511L6.17683 13.3744C6.69546 13.7095 7.27747 13.9548 7.90086 14.0888V15.0469H10.0991V14.0888C10.7225 13.9548 11.3045 13.7095 11.8231 13.3744L12.4999 14.0511L14.0537 12.4961L13.3775 11.82C13.7126 11.3014 13.9579 10.7194 14.0919 10.096H15.0475V7.89775H14.0918Z" stroke="#203B54" stroke-width="0.75" stroke-miterlimit="10" stroke-linecap="round" stroke-linejoin="round"/>
</g>
</svg>
