<svg width="60" height="60" viewBox="0 0 60 60" fill="none" xmlns="http://www.w3.org/2000/svg">
<g clip-path="url(#clip0_102_227)">
<path d="M59.0005 2.61808e-08H59H1C0.447875 -0.000124974 0.000125 0.447375 0 0.9995V1V21H2V2H58V24H23V26H59C59.5521 26.0001 59.9999 25.5526 60 25.0005V25V1C60.0001 0.447875 59.5526 0.000125026 59.0005 2.61808e-08Z" fill="#203B54"/>
<path d="M53 5H33V7H53V5Z" fill="#203B54"/>
<path d="M56 11H36V13H56V11Z" fill="#203B54"/>
<path d="M52 17H32V19H52V17Z" fill="#203B54"/>
<path d="M31.9202 8.62175C31.2356 6.97612 29.3466 6.19712 27.7011 6.88175C27.673 6.8935 27.645 6.9055 27.6173 6.918L19.5088 11.1243C19.8285 10.4615 19.9964 9.73575 20 9C20 6.23863 17.7614 4 15 4C12.2386 4 10 6.23863 10 9C10.0037 10.0854 10.3641 11.1395 11.0256 12H10.984C8.1455 12.019 5.61162 13.7836 4.6095 16.4395L1.94 25.6406C1.3045 27.2914 2.1275 29.1449 3.77837 29.7804C4.53113 30.0701 5.3655 30.0653 6.11487 29.7666C6.97587 29.4198 7.64587 28.7192 7.95425 27.8438L9 24.5156V38.9885C8.1395 38.3271 7.08537 37.9668 6 37.9629C3.24275 37.9588 1.00412 40.1906 1 42.948C0.998 44.2984 1.543 45.5919 2.51087 46.5336C0.974875 47.3184 0.00600003 48.8954 2.61808e-08 50.6201V59C-0.000124974 59.5521 0.447375 59.9999 0.9995 60H1H11C11.5521 60.0001 11.9999 59.5526 12 59.0005V59V50.6201C11.9951 49.2028 11.3366 47.867 10.2155 47H17.7846C16.6634 47.867 16.0049 49.2028 16.0001 50.6201V59C16 59.5521 16.4475 59.9999 16.9996 60H17.0001H27.0001C27.5522 60.0001 28 59.5526 28.0001 59.0005V59V50.6201C27.9941 48.8954 27.0252 47.3184 25.4893 46.5336C27.4636 44.6065 27.502 41.4436 25.5749 39.4692C24.3881 38.2534 22.6648 37.724 21.0001 38.064V17.6074L30.1803 12.8407C31.8258 12.1562 32.6048 10.2673 31.9202 8.62175ZM15 6C16.6569 6 18 7.34312 18 9C18 10.6569 16.6569 12 15 12C13.3439 11.9983 12.0017 10.6561 12 9C12 7.34312 13.3431 6 15 6ZM6 39.9629C7.65688 39.9629 9 41.306 9 42.9629C9 44.6198 7.65688 45.9629 6 45.9629C4.34312 45.9629 3 44.6198 3 42.9629C3.00175 41.3068 4.34387 39.9648 6 39.9629ZM10 58H2V50.6201C2.002 49.1737 3.17413 48.0018 4.62063 48H7.37937C8.82575 48.0018 9.998 49.1737 10 50.6201V58ZM26 50.6201V58H18V50.6201C18.002 49.1737 19.1741 48.0018 20.6206 48H23.3794C24.8259 48.0018 25.998 49.1737 26 50.6201ZM22 39.9629C23.6561 39.9646 24.9982 41.3068 25 42.9629C25 44.6198 23.6569 45.9629 22 45.9629C20.3431 45.9629 19 44.6198 19 42.9629C19 41.306 20.3431 39.9629 22 39.9629ZM30.0904 10.29C29.9565 10.6335 29.6816 10.9031 29.3355 11.0302L19.5396 16.1122C19.2081 16.2842 19 16.6266 19 17V38.9885C17.1269 40.3735 16.478 42.8801 17.444 45H16V28H14V45H10.556C10.8405 44.3713 10.9904 43.69 10.9963 43H11V18C10.9999 17.4476 10.552 17 9.99975 17.0001C9.56313 17.0003 9.177 17.2836 9.046 17.7003L6.06 27.2021C5.83375 27.8261 5.14437 28.1486 4.52037 27.9223C4.47662 27.9064 4.43375 27.888 4.392 27.8671C3.81513 27.569 3.57025 26.873 3.8335 26.2792L6.50287 17.0781C7.22275 15.2294 8.99988 14.0086 10.9839 14H18.0645C18.2248 14.0002 18.3827 13.9616 18.525 13.8877L28.464 8.72863C29.0603 8.47988 29.7475 8.73437 30.0378 9.31162C30.1916 9.61587 30.2108 9.97087 30.0904 10.29Z" fill="#203B54"/>
<path d="M41.4891 46.5336C43.467 44.6066 43.5082 41.441 41.5812 39.4631C39.6542 37.4852 36.4886 37.444 34.5107 39.371C32.5329 41.298 32.4916 44.4636 34.4186 46.4415C34.449 46.4726 34.4798 46.5033 34.5109 46.5336C32.975 47.3183 32.006 48.8953 32 50.6201V59C31.9999 59.5521 32.4474 59.9998 32.9995 60C32.9996 60 32.9999 60 33 60H43C43.5521 60.0001 43.9999 59.5526 44 59.0005C44 59.0003 44 59.0001 44 59V50.6201C43.994 48.8953 43.0251 47.3183 41.4891 46.5336ZM38 39.9628C39.6569 39.9628 41 41.306 41 42.9628C41 44.6197 39.6569 45.9628 38 45.9628C36.3431 45.9628 35 44.6197 35 42.9628C35.0017 41.3067 36.3439 39.9647 38 39.9628ZM42 58H34V50.6201C34.002 49.1737 35.1741 48.0017 36.6206 48H39.3794C40.8258 48.0017 41.998 49.1737 42 50.6201V58Z" fill="#203B54"/>
<path d="M57.4891 46.5336C59.467 44.6066 59.5082 41.441 57.5812 39.4631C55.6542 37.4852 52.4886 37.444 50.5107 39.371C48.5329 41.298 48.4916 44.4636 50.4186 46.4415C50.449 46.4726 50.4798 46.5033 50.5109 46.5336C48.975 47.3183 48.006 48.8953 48 50.6201V59C47.9999 59.5521 48.4474 59.9998 48.9995 60C48.9996 60 48.9999 60 49 60H59C59.5521 60.0001 59.9999 59.5526 60 59.0005C60 59.0003 60 59.0001 60 59V50.6201C59.994 48.8953 59.0251 47.3183 57.4891 46.5336ZM54 39.9628C55.6569 39.9628 57 41.306 57 42.9628C57 44.6197 55.6569 45.9628 54 45.9628C52.3431 45.9628 51 44.6197 51 42.9628C51.0017 41.3067 52.3439 39.9647 54 39.9628ZM58 58H50V50.6201C50.002 49.1737 51.1741 48.0017 52.6206 48H55.3794C56.8258 48.0017 57.998 49.1737 58 50.6201V58Z" fill="#203B54"/>
</g>
<defs>
<clipPath id="clip0_102_227">
<rect width="60" height="60" fill="white"/>
</clipPath>
</defs>
</svg>
