<svg width="60" height="60" viewBox="0 0 60 60" fill="none" xmlns="http://www.w3.org/2000/svg">
<g clip-path="url(#clip0_138_681)">
<path d="M35.0747 16.3895C35.0747 16.2186 34.8459 16.1598 34.7654 16.3105C33.7262 18.2543 31.6781 19.5773 29.3198 19.5773H21.0405V25.8459C21.0405 30.4143 24.62 34.5869 30.0346 34.5869C34.8545 34.5869 38.7757 30.6656 38.7757 25.8459V19.5079C36.6014 19.5957 35.0747 17.9172 35.0747 16.3895Z" stroke="#203B54" stroke-width="2" stroke-miterlimit="10" stroke-linecap="round" stroke-linejoin="round"/>
<path d="M47.9444 41.6978L35.3757 36.9012C35.036 36.77 34.8103 36.443 34.8092 36.0769L34.8067 33.1636C33.4335 34.0622 31.7945 34.5869 30.0346 34.5869C28.0938 34.5869 26.3906 34.0488 25.0017 33.1505V36.0716C25.0017 36.4367 24.8262 36.6518 24.624 36.789L12.0553 41.6977C10.0059 42.5412 7.26172 45.1949 7.26172 49.1329V57.5188C7.26172 58.4037 7.97915 59.1211 8.86404 59.1211H51.1355C52.0204 59.1211 52.7379 58.4037 52.7379 57.5188V49.1329C52.738 45.195 49.9938 42.5413 47.9444 41.6978Z" stroke="#203B54" stroke-width="2" stroke-miterlimit="10" stroke-linecap="round" stroke-linejoin="round"/>
<path d="M45.2231 58.8744C45.2231 57.3371 45.2231 50.1812 45.2231 48.3713" stroke="#203B54" stroke-width="2" stroke-miterlimit="10" stroke-linecap="round" stroke-linejoin="round"/>
<path d="M14.5933 48.3715C14.5933 50.0724 14.5933 57.3661 14.5933 58.8745" stroke="#203B54" stroke-width="2" stroke-miterlimit="10" stroke-linecap="round" stroke-linejoin="round"/>
<path d="M14.5929 53.7626H7.26172V57.5189C7.26172 58.4038 7.97914 59.1212 8.86402 59.1212H14.5927L14.5929 53.7626Z" stroke="#203B54" stroke-width="2" stroke-miterlimit="10" stroke-linecap="round" stroke-linejoin="round"/>
<path d="M45.2231 53.7626V59.1211H51.1355C52.0204 59.1211 52.7378 58.4038 52.7378 57.5188V53.7626H45.2231Z" stroke="#203B54" stroke-width="2" stroke-miterlimit="10" stroke-linecap="round" stroke-linejoin="round"/>
<path d="M40.7074 28.1437H40.8636C41.9303 28.1437 42.7951 27.279 42.7951 26.2122V16.2911C42.7951 15.2243 41.9303 14.3596 40.8636 14.3596H40.7074C39.6406 14.3596 38.7759 15.2243 38.7759 16.2911V26.2122C38.7759 27.279 39.6406 28.1437 40.7074 28.1437Z" stroke="#203B54" stroke-width="2" stroke-miterlimit="10" stroke-linecap="round" stroke-linejoin="round"/>
<path d="M42.7949 16.0695H44.2036C46.2752 16.0695 47.9702 17.7643 47.9702 19.836V22.6672C47.9702 24.7388 46.2753 26.4338 44.2036 26.4338H42.7949V16.0695Z" stroke="#203B54" stroke-width="2" stroke-miterlimit="10" stroke-linecap="round" stroke-linejoin="round"/>
<path d="M19.1092 28.1437H18.953C17.8862 28.1437 17.0215 27.279 17.0215 26.2122V16.2911C17.0215 15.2243 17.8862 14.3596 18.953 14.3596H19.1092C20.1759 14.3596 21.0407 15.2243 21.0407 16.2911V26.2122C21.0407 27.279 20.1758 28.1437 19.1092 28.1437Z" stroke="#203B54" stroke-width="2" stroke-miterlimit="10" stroke-linecap="round" stroke-linejoin="round"/>
<path d="M17.0214 16.0695H15.6127C13.5412 16.0695 11.8462 17.7643 11.8462 19.836V22.6672C11.8462 24.7388 13.5411 26.4338 15.6127 26.4338H17.0214V16.0695Z" stroke="#203B54" stroke-width="2" stroke-miterlimit="10" stroke-linecap="round" stroke-linejoin="round"/>
<path d="M18.9528 14.3595H19.109C20.1758 14.3595 21.0405 15.2243 21.0405 16.291V19.5772H29.3198C31.6781 19.5772 33.7262 18.2542 34.7654 16.3105C34.8459 16.1598 35.0747 16.2187 35.0747 16.3895C35.0747 17.917 36.6013 19.5956 38.7757 19.508V16.291C38.7757 15.2243 39.6405 14.3595 40.7072 14.3595H40.8634C40.8777 14.3595 40.8914 14.3614 40.9056 14.3616C40.3594 8.77492 35.6359 4.39453 29.9082 4.39453C24.1805 4.39453 19.457 8.77492 18.9106 14.3616C18.9248 14.3613 18.9387 14.3595 18.9528 14.3595Z" stroke="#203B54" stroke-width="2" stroke-miterlimit="10" stroke-linecap="round" stroke-linejoin="round"/>
<path d="M31.9569 43.5538C34.8769 42.8957 37.2486 40.7729 38.2544 38L35.3755 36.9014C35.0358 36.7701 34.8101 36.4432 34.809 36.0771L34.8066 33.1638C33.4334 34.0624 31.7944 34.5871 30.0344 34.5871C28.0937 34.5871 26.3905 34.049 25.0016 33.1508V36.0718C25.0016 36.4368 24.826 36.652 24.6239 36.7892L21.5576 37.9868C22.5182 40.6575 24.7666 42.8272 27.8551 43.5285" stroke="#203B54" stroke-width="2" stroke-miterlimit="10" stroke-linecap="round" stroke-linejoin="round"/>
<path d="M40.9165 5.90594C38.2458 2.82658 34.3045 0.878906 29.9082 0.878906C21.8634 0.878906 15.3418 7.40056 15.3418 15.4453V16.0804C15.4314 16.0739 15.5216 16.0695 15.6127 16.0695C16.1757 16.0695 16.5368 16.0695 17.0215 16.0695H17.0351C17.1451 15.1072 17.9612 14.3594 18.953 14.3594H19.1092C20.1759 14.3594 21.0407 15.2242 21.0407 16.2909V19.5771H29.3199C31.6782 19.5771 33.7263 18.2541 34.7655 16.3104C34.8461 16.1597 35.0748 16.2186 35.0748 16.3894C35.0748 17.9169 36.6014 19.5955 38.7758 19.5079V16.2909C38.7758 15.2242 39.6406 14.3594 40.7073 14.3594H40.8636C41.8553 14.3594 42.6714 15.1072 42.7815 16.0695H42.7951C43.7034 16.0695 43.6212 16.0695 44.2038 16.0695C44.295 16.0695 44.3851 16.0739 44.4747 16.0804V15.4453C44.4747 13.2702 43.9972 11.2068 43.1424 9.35315" stroke="#203B54" stroke-width="2" stroke-miterlimit="10" stroke-linecap="round" stroke-linejoin="round"/>
</g>
<defs>
<clipPath id="clip0_138_681">
<rect width="60" height="60" fill="white"/>
</clipPath>
</defs>
</svg>
