<svg width="48" height="48" viewBox="0 0 48 48" fill="none" xmlns="http://www.w3.org/2000/svg">
<g clip-path="url(#clip0_356_822)">
<path d="M29.7405 2.96679H5.97613C4.60963 2.96679 3.50169 4.07454 3.50169 5.44113V39.5448C3.50169 40.9114 4.60963 42.0193 5.97613 42.0193H30.4882C31.8547 42.0193 32.9625 40.9114 32.9625 39.5448V18.5546" stroke="#203B54" stroke-width="2" stroke-miterlimit="10" stroke-linecap="round" stroke-linejoin="round"/>
<path d="M26.6789 14.3301H9.78534V10.3706H26.6789V14.3301Z" stroke="#203B54" stroke-width="2" stroke-miterlimit="10" stroke-linecap="round" stroke-linejoin="round"/>
<path d="M9.78534 19.4658H26.6789" stroke="#203B54" stroke-width="2" stroke-miterlimit="10" stroke-linecap="round" stroke-linejoin="round"/>
<path d="M9.78534 23.9121H26.6789" stroke="#203B54" stroke-width="2" stroke-miterlimit="10" stroke-linecap="round" stroke-linejoin="round"/>
<path d="M9.78534 28.3584H26.6789" stroke="#203B54" stroke-width="2" stroke-miterlimit="10" stroke-linecap="round" stroke-linejoin="round"/>
<path d="M9.78534 32.8057H26.6789" stroke="#203B54" stroke-width="2" stroke-miterlimit="10" stroke-linecap="round" stroke-linejoin="round"/>
<path d="M44.4983 9.84915C44.4983 14.7708 40.5092 18.7607 35.5886 18.7607C30.6679 18.7607 26.6789 14.7708 26.6789 9.84915C26.6789 4.92746 30.6679 0.937555 35.5886 0.937555C40.5092 0.937555 44.4983 4.92746 44.4983 9.84915Z" stroke="#203B54" stroke-width="2" stroke-miterlimit="10" stroke-linecap="round" stroke-linejoin="round"/>
<path d="M35.5927 8.62096V15.0315" stroke="#203B54" stroke-width="2" stroke-miterlimit="10" stroke-linecap="round" stroke-linejoin="round"/>
<path d="M36.5261 5.60449C36.5261 6.12218 36.1063 6.54199 35.5886 6.54199C35.0709 6.54199 34.6511 6.12218 34.6511 5.60449C34.6511 5.08671 35.0709 4.66699 35.5886 4.66699C36.1063 4.66699 36.5261 5.08671 36.5261 5.60449Z" fill="#203B54"/>
<path d="M39.3491 18.3468V23.1086" stroke="#203B54" stroke-width="2" stroke-miterlimit="10" stroke-linecap="round" stroke-linejoin="round"/>
<path d="M39.3491 31.5848V44.5881C39.3491 45.9547 38.2413 47.0625 36.8746 47.0625H12.3628C10.9961 47.0625 9.88834 45.9547 9.88834 44.5881V42.3006" stroke="#203B54" stroke-width="2" stroke-miterlimit="10" stroke-linecap="round" stroke-linejoin="round"/>
</g>
<defs>
<clipPath id="clip0_356_822">
<rect width="48" height="48" fill="white"/>
</clipPath>
</defs>
</svg>
