<svg width="48" height="48" viewBox="0 0 48 48" fill="none" xmlns="http://www.w3.org/2000/svg">
<path d="M10.5673 26.6763C11.1782 27.6872 12.2473 28.2835 13.4182 28.2835H34.5745C35.7527 28.2835 36.8218 27.6799 37.4254 26.6763C38.0364 25.6653 38.0727 24.4435 37.5273 23.4035L26.9527 3.22171C26.3782 2.11625 25.2436 1.43262 24 1.43262C22.7564 1.43262 21.6218 2.11625 21.0473 3.22171L10.4655 23.3963C9.92 24.4435 9.95636 25.6653 10.5673 26.6763ZM11.5636 23.9708L22.1382 3.79625C22.5091 3.0908 23.2 2.67625 23.9927 2.67625C24.7855 2.67625 25.4836 3.09807 25.8473 3.79625L36.4218 23.9708C36.7636 24.6253 36.7418 25.3963 36.3564 26.029C35.9709 26.6617 35.3018 27.0399 34.56 27.0399H13.4182C12.6764 27.0399 12.0073 26.6617 11.6218 26.029C11.2436 25.3963 11.2145 24.6253 11.5636 23.9708Z" fill="#203B54"/>
<path d="M23.9927 20.5089C25.1273 20.5089 26.0654 19.6216 26.1382 18.4798L26.5454 9.79616C26.5891 9.07616 26.32 8.37071 25.8182 7.85434C25.3164 7.33798 24.6182 7.06162 23.8836 7.09071C23.2218 7.1198 22.6036 7.41071 22.1454 7.9198C21.6582 8.45798 21.4036 9.18525 21.4473 9.89798L21.8473 18.4871C21.92 19.6216 22.8582 20.5089 23.9927 20.5089ZM23.0618 8.74889C23.2945 8.48707 23.6073 8.34162 23.9345 8.32707H23.9927C24.3491 8.32707 24.6763 8.46525 24.9309 8.7198C25.1927 8.98889 25.3309 9.34525 25.3091 9.73071L24.9018 18.4143C24.8727 18.8943 24.4727 19.2653 23.9927 19.2653C23.5127 19.2653 23.1127 18.8871 23.0836 18.4216L22.6836 9.83253C22.6618 9.4398 22.8 9.0398 23.0618 8.74889Z" fill="#203B54"/>
<path d="M23.9927 21.1272C22.6764 21.1272 21.6073 22.1963 21.6073 23.5127C21.6073 24.829 22.6764 25.8981 23.9927 25.8981C25.3091 25.8981 26.3782 24.829 26.3782 23.5127C26.3782 22.1963 25.3091 21.1272 23.9927 21.1272ZM23.9927 24.6617C23.36 24.6617 22.8436 24.1454 22.8436 23.5127C22.8436 22.8799 23.36 22.3636 23.9927 22.3636C24.6255 22.3636 25.1418 22.8799 25.1418 23.5127C25.1418 24.1454 24.6255 24.6617 23.9927 24.6617Z" fill="#203B54"/>
<path d="M24.1527 36.1958C24.5905 36.1958 24.9454 35.8409 24.9454 35.4031C24.9454 34.9653 24.5905 34.6104 24.1527 34.6104C23.7149 34.6104 23.36 34.9653 23.36 35.4031C23.36 35.8409 23.7149 36.1958 24.1527 36.1958Z" fill="#203B54"/>
<path d="M41.5418 5.10522H30.7636C30.4218 5.10522 30.1455 5.38159 30.1455 5.72341C30.1455 6.06522 30.4218 6.34159 30.7636 6.34159H41.5418C43.0109 6.34159 44.2109 7.54159 44.2109 9.01068V35.0834C44.2109 36.5452 43.0182 37.738 41.5491 37.738H6.45818C4.98909 37.738 3.79636 36.538 3.79636 35.0689V9.01068C3.79636 7.54159 4.98909 6.34159 6.45818 6.34159H17.2364C17.5782 6.34159 17.8545 6.06522 17.8545 5.72341C17.8545 5.38159 17.5782 5.10522 17.2364 5.10522H6.45818C4.30545 5.10522 2.56 6.85795 2.56 9.01068V35.0689C2.56 37.2216 4.31272 38.9743 6.45818 38.9743H18.8509L17.4036 42.1452H14.4582C14.1164 42.1452 13.84 42.4216 13.84 42.7634V45.9416C13.84 46.2834 14.1164 46.5598 14.4582 46.5598H33.8327C34.1745 46.5598 34.4509 46.2834 34.4509 45.9416V42.7634C34.4509 42.4216 34.1745 42.1452 33.8327 42.1452H30.8873L29.44 38.9743H41.5345C43.6873 38.9743 45.4327 37.2289 45.4327 35.0761V9.01068C45.4473 6.85795 43.6945 5.10522 41.5418 5.10522ZM33.2145 45.3234H15.0836V43.3889H17.8036H30.4945H33.2145V45.3234ZM18.7709 42.1525L20.2109 38.9816H28.0873L29.5273 42.1525H18.7709Z" fill="#203B54"/>
<path d="M42.16 32.4362V9.01076C42.16 8.66894 41.8836 8.39258 41.5418 8.39258H32.4873C32.1455 8.39258 31.8691 8.66894 31.8691 9.01076C31.8691 9.35258 32.1455 9.62894 32.4873 9.62894H40.9236V31.818H7.07637L7.08364 9.62894H15.5127C15.8546 9.62894 16.1309 9.35258 16.1309 9.01076C16.1309 8.66894 15.8546 8.39258 15.5127 8.39258H6.45819C6.11637 8.39258 5.84001 8.66894 5.84001 9.01076L5.83273 32.4362C5.83273 32.6035 5.89819 32.7562 6.01455 32.8726C6.13091 32.9889 6.29091 33.0544 6.45091 33.0544H41.5346C41.8836 33.0617 42.16 32.778 42.16 32.4362Z" fill="#203B54"/>
</svg>
