<svg width="32" height="32" viewBox="0 0 32 32" fill="none" xmlns="http://www.w3.org/2000/svg">
<g clip-path="url(#clip0_356_910)">
<path d="M30.3662 8.50159C30.0205 7.21637 29.0072 6.20325 27.7222 5.85718C25.3746 5.21484 15.984 5.21484 15.984 5.21484C15.984 5.21484 6.59382 5.21484 4.24623 5.83282C2.98591 6.17853 1.94789 7.21655 1.60218 8.50159C0.984386 10.849 0.984386 15.7172 0.984386 15.7172C0.984386 15.7172 0.984386 20.61 1.60218 22.9329C1.94825 24.2179 2.96119 25.231 4.24641 25.5771C6.61854 26.2196 15.9844 26.2196 15.9844 26.2196C15.9844 26.2196 25.3746 26.2196 27.7222 25.6016C29.0074 25.2557 30.0205 24.2426 30.3666 22.9576C30.9842 20.61 30.9842 15.7419 30.9842 15.7419C30.9842 15.7419 31.0089 10.849 30.3662 8.50159ZM12.9943 20.2147V11.2198L20.803 15.7172L12.9943 20.2147Z" fill="white"/>
</g>
<defs>
<clipPath id="clip0_356_910">
<rect width="32" height="32" fill="white"/>
</clipPath>
</defs>
</svg>
