<svg width="40" height="40" viewBox="0 0 40 40" fill="none" xmlns="http://www.w3.org/2000/svg">
<path d="M8.14685 4.39697C6.07873 4.39697 4.39685 6.07885 4.39685 8.14697C4.39685 10.2151 6.07873 11.897 8.14685 11.897C10.215 11.897 11.8969 10.2151 11.8969 8.14697C11.8969 6.07885 10.215 4.39697 8.14685 4.39697ZM8.14685 10.647C6.7681 10.647 5.64685 9.52572 5.64685 8.14697C5.64685 6.76822 6.7681 5.64697 8.14685 5.64697C9.5256 5.64697 10.6469 6.76822 10.6469 8.14697C10.6469 9.52572 9.5256 10.647 8.14685 10.647Z" fill="white"/>
<path d="M36.0669 30.4419L35.1831 29.5581L30.625 34.1162L29.8169 33.3081L28.9331 34.1919L30.625 35.8837L36.0669 30.4419Z" fill="white"/>
<path d="M21.875 7.5H23.125V8.75H21.875V7.5Z" fill="white"/>
<path d="M29.375 7.5H30.625V8.75H29.375V7.5Z" fill="white"/>
<path d="M26.875 7.5H28.125V8.75H26.875V7.5Z" fill="white"/>
<path d="M24.375 7.5H25.625V8.75H24.375V7.5Z" fill="white"/>
<path d="M15 23.1251H25C26.0338 23.1251 26.875 22.2838 26.875 21.2501V20.6251H35C37.4119 20.6251 39.375 18.6626 39.375 16.2501V11.8751C39.375 9.4626 37.4119 7.5001 35 7.5001H33.125V6.8751C33.125 5.84135 32.2838 5.0001 31.25 5.0001H21.25C20.2162 5.0001 19.375 5.84135 19.375 6.8751V7.5001H15.6469V6.4201L14.0063 5.97197C13.9525 5.82822 13.8925 5.6851 13.8275 5.54385L14.6719 4.0651L12.2294 1.6226L10.7512 2.46635C10.6094 2.40135 10.4669 2.34135 10.3231 2.2876L9.87437 0.646973H6.42L5.97125 2.2876C5.8275 2.34135 5.685 2.40072 5.54375 2.46635L4.065 1.6226L1.6225 4.0651L2.46625 5.54385C2.40125 5.6851 2.34125 5.82822 2.2875 5.97197L0.646875 6.4201V9.87385L2.2875 10.3226C2.34125 10.4663 2.40125 10.6095 2.46625 10.7507L1.62188 12.2295L4.06437 14.6713L5.54313 13.8276C5.68438 13.8926 5.82688 13.9526 5.97063 14.0063L6.41937 15.647H9.87375L10.3225 14.0063C10.4656 13.9526 10.6088 13.8926 10.7506 13.8276L12.2288 14.6707L14.6713 12.2288L13.8269 10.7501C13.8919 10.6088 13.9519 10.4657 14.0056 10.322L15.6462 9.87322V8.7501H19.375V9.3751C19.375 10.4088 20.2162 11.2501 21.25 11.2501H31.25C32.2838 11.2501 33.125 10.4088 33.125 9.3751V8.7501H35C36.7231 8.7501 38.125 10.152 38.125 11.8751V16.2501C38.125 17.9732 36.7231 19.3751 35 19.3751H26.875V18.7501C26.875 17.7163 26.0338 16.8751 25 16.8751H15C13.9663 16.8751 13.125 17.7163 13.125 18.7501V19.3751H5C2.58812 19.3751 0.625 21.3382 0.625 23.7501V28.7501C0.625 31.162 2.58812 33.1251 5 33.1251H6.875V33.7501C6.875 34.7838 7.71625 35.6251 8.75 35.6251H18.75C19.7838 35.6251 20.625 34.7838 20.625 33.7501V33.1251H25.6569C25.9737 36.6238 28.92 39.3751 32.5 39.3751C36.2906 39.3751 39.375 36.2907 39.375 32.5001C39.375 28.7095 36.2906 25.6251 32.5 25.6251C28.92 25.6251 25.9737 28.3763 25.6569 31.8751H20.625V31.2501C20.625 30.2163 19.7838 29.3751 18.75 29.3751H8.75C7.71625 29.3751 6.875 30.2163 6.875 31.2501V31.8751H5C3.27688 31.8751 1.875 30.4732 1.875 28.7501V23.7501C1.875 22.027 3.27688 20.6251 5 20.6251H13.125V21.2501C13.125 22.2838 13.9663 23.1251 15 23.1251ZM14.3969 8.9201L13.0262 9.2951L12.9256 9.62322C12.8356 9.9126 12.7156 10.2007 12.5681 10.4795L12.4069 10.7832L13.1131 12.0201L12.0206 13.1132L10.7831 12.4076L10.48 12.5682C10.2019 12.7157 9.91375 12.8357 9.62375 12.9251L9.29625 13.0263L8.92062 14.397H7.375L6.99938 13.0263L6.67188 12.9251C6.38313 12.8357 6.095 12.7163 5.81563 12.5682L5.51188 12.4076L4.275 13.1132L3.18125 12.0201L3.8875 10.7832L3.72625 10.4795C3.57875 10.2007 3.45812 9.9126 3.36875 9.62322L3.26813 9.2951L1.8975 8.9201V7.37385L3.26813 6.99947L3.36937 6.67135C3.45875 6.38197 3.57875 6.09385 3.72625 5.81572L3.8875 5.51135L3.18125 4.27447L4.27375 3.18135L5.51063 3.88697L5.81438 3.72635C6.095 3.57822 6.38313 3.4576 6.67063 3.36885L6.99812 3.2676L7.37375 1.89697H8.91937L9.295 3.2676L9.6225 3.36885C9.91125 3.45822 10.1994 3.57822 10.4788 3.72635L10.7819 3.88697L12.0194 3.18135L13.1119 4.27447L12.4056 5.51135L12.5669 5.8151C12.7144 6.09322 12.835 6.38135 12.9237 6.67072L13.025 6.99885L14.3956 7.37322V8.9201H14.3969ZM31.875 9.3751C31.875 9.71947 31.595 10.0001 31.25 10.0001H21.25C20.905 10.0001 20.625 9.71947 20.625 9.3751V6.8751C20.625 6.53072 20.905 6.2501 21.25 6.2501H31.25C31.595 6.2501 31.875 6.53072 31.875 6.8751V9.3751ZM32.5 26.8751C35.6019 26.8751 38.125 29.3982 38.125 32.5001C38.125 35.602 35.6019 38.1251 32.5 38.1251C29.3981 38.1251 26.875 35.602 26.875 32.5001C26.875 29.3982 29.3981 26.8751 32.5 26.8751ZM8.125 31.2501C8.125 30.9051 8.405 30.6251 8.75 30.6251H18.75C19.095 30.6251 19.375 30.9051 19.375 31.2501V33.7501C19.375 34.0951 19.095 34.3751 18.75 34.3751H8.75C8.405 34.3751 8.125 34.0951 8.125 33.7501V31.2501ZM14.375 18.7501C14.375 18.4057 14.655 18.1251 15 18.1251H25C25.345 18.1251 25.625 18.4057 25.625 18.7501V21.2501C25.625 21.5951 25.345 21.8751 25 21.8751H15C14.655 21.8751 14.375 21.5951 14.375 21.2501V18.7501Z" fill="white"/>
<path d="M20.625 19.375H21.875V20.625H20.625V19.375Z" fill="white"/>
<path d="M18.125 19.375H19.375V20.625H18.125V19.375Z" fill="white"/>
<path d="M15.625 19.375H16.875V20.625H15.625V19.375Z" fill="white"/>
<path d="M23.125 19.375H24.375V20.625H23.125V19.375Z" fill="white"/>
<path d="M11.875 31.875H13.125V33.125H11.875V31.875Z" fill="white"/>
<path d="M16.875 31.875H18.125V33.125H16.875V31.875Z" fill="white"/>
<path d="M14.375 31.875H15.625V33.125H14.375V31.875Z" fill="white"/>
<path d="M9.375 31.875H10.625V33.125H9.375V31.875Z" fill="white"/>
</svg>
