<svg width="145" height="34" viewBox="0 0 145 34" fill="none" xmlns="http://www.w3.org/2000/svg">
<g clip-path="url(#clip0_34_83)">
<path d="M62.6956 26.2286H58.5958L52.4224 17.7888V26.2286H48.8232V9.58217H52.4224V17.6489L58.5243 9.58217H62.3619L56.1646 17.579L62.6956 26.2286ZM74.7296 26.2286H64.9331V9.58217H74.7296V12.4731H68.5323V16.1335H74.3005V19.0245H68.5323V23.3143H74.7296V26.2286ZM85.5884 12.2866C84.9051 12.2866 84.2933 12.4187 83.753 12.683C83.2287 12.9472 82.7837 13.328 82.4183 13.8254C82.0528 14.3072 81.7747 14.8978 81.584 15.5973C81.4092 16.2967 81.3218 17.0816 81.3218 17.952C81.3218 19.1333 81.4648 20.1435 81.7509 20.9829C82.0528 21.8066 82.5215 22.4361 83.1572 22.8713C83.7928 23.3065 84.6032 23.5241 85.5884 23.5241C86.2876 23.5241 86.9788 23.4464 87.6621 23.291C88.3613 23.1355 89.1161 22.9179 89.9265 22.6382V25.5991C89.1796 25.8944 88.4407 26.112 87.7098 26.2519C86.9788 26.3918 86.1604 26.4617 85.2547 26.4617C83.5067 26.4617 82.0607 26.112 80.9166 25.4126C79.7884 24.6976 78.9541 23.7029 78.4139 22.4283C77.8736 21.1383 77.6035 19.6384 77.6035 17.9287C77.6035 16.6697 77.7783 15.5195 78.1278 14.4782C78.4774 13.4213 78.9859 12.512 79.6533 11.7504C80.3366 10.9888 81.1709 10.3982 82.1561 9.97851C83.1572 9.55886 84.3013 9.34903 85.5884 9.34903C86.4306 9.34903 87.2728 9.45783 88.115 9.67543C88.973 9.87749 89.7914 10.1573 90.57 10.5147L89.4021 13.3824C88.7665 13.0871 88.1229 12.8306 87.4714 12.613C86.8358 12.3954 86.2081 12.2866 85.5884 12.2866ZM108.618 17.8821C108.618 19.1721 108.451 20.3456 108.117 21.4025C107.8 22.4439 107.307 23.3454 106.64 24.107C105.988 24.8686 105.146 25.4514 104.113 25.8555C103.096 26.2597 101.896 26.4617 100.514 26.4617C99.1315 26.4617 97.9238 26.2597 96.8909 25.8555C95.874 25.4359 95.0318 24.853 94.3644 24.107C93.7129 23.3454 93.2203 22.4361 92.8866 21.3792C92.5687 20.3223 92.4098 19.1488 92.4098 17.8587C92.4098 16.1335 92.6959 14.6336 93.2679 13.3591C93.8559 12.0846 94.7457 11.0976 95.9375 10.3982C97.1452 9.6832 98.6786 9.32571 100.538 9.32571C102.381 9.32571 103.898 9.6832 105.09 10.3982C106.282 11.0976 107.164 12.0923 107.736 13.3824C108.324 14.6569 108.618 16.1568 108.618 17.8821ZM96.1997 17.8821C96.1997 19.0478 96.3507 20.0503 96.6526 20.8896C96.9545 21.7289 97.4233 22.3739 98.0589 22.8247C98.6945 23.2754 99.5127 23.5008 100.514 23.5008C101.547 23.5008 102.373 23.2754 102.993 22.8247C103.628 22.3739 104.089 21.7289 104.375 20.8896C104.677 20.0503 104.828 19.0478 104.828 17.8821C104.828 16.1257 104.494 14.7502 103.827 13.7554C103.16 12.7607 102.063 12.2633 100.538 12.2633C99.5206 12.2633 98.6945 12.4887 98.0589 12.9394C97.4233 13.3902 96.9545 14.0352 96.6526 14.8745C96.3507 15.7138 96.1997 16.7163 96.1997 17.8821ZM121.964 9.34903V11.4007C123.823 11.4473 125.301 11.7659 126.397 12.3566C127.51 12.9317 128.304 13.6777 128.781 14.5947C129.273 15.5118 129.52 16.5143 129.52 17.6023C129.52 18.3017 129.393 19.0167 129.138 19.7472C128.9 20.4777 128.487 21.1538 127.899 21.7755C127.327 22.3817 126.556 22.8791 125.587 23.2677C124.618 23.6562 123.41 23.8661 121.964 23.8971V26.4617H118.722V23.8971C117.26 23.8661 116.037 23.6562 115.051 23.2677C114.082 22.8791 113.311 22.3739 112.739 21.7522C112.167 21.1305 111.762 20.4622 111.524 19.7472C111.285 19.0167 111.166 18.3017 111.166 17.6023C111.166 16.7941 111.301 16.0247 111.571 15.2942C111.842 14.5637 112.271 13.9109 112.859 13.3358C113.447 12.7607 114.225 12.3022 115.195 11.9602C116.164 11.6183 117.34 11.4318 118.722 11.4007V9.34903H121.964ZM118.722 14.1518C117.689 14.1984 116.863 14.3771 116.243 14.688C115.639 14.9833 115.202 15.3797 114.932 15.877C114.678 16.3744 114.551 16.9417 114.551 17.579C114.551 18.2784 114.694 18.8923 114.98 19.4208C115.282 19.9337 115.735 20.3456 116.339 20.6565C116.958 20.9518 117.753 21.1227 118.722 21.1694V14.1518ZM121.964 21.1694C122.933 21.1227 123.72 20.9518 124.324 20.6565C124.943 20.3456 125.396 19.9337 125.682 19.4208C125.984 18.8923 126.135 18.2784 126.135 17.579C126.135 16.9417 126 16.3744 125.73 15.877C125.476 15.3797 125.039 14.9833 124.419 14.688C123.815 14.3771 122.997 14.1984 121.964 14.1518V21.1694ZM139.396 26.2286H135.796V12.5198H131.172V9.58217H144.02V12.5198H139.396V26.2286Z" fill="#203B54"/>
<mask id="mask0_34_83" style="mask-type:luminance" maskUnits="userSpaceOnUse" x="0" y="0" width="37" height="34">
<path d="M31.7808 0H4.96575C2.22324 0 0 2.17462 0 4.85714V29.1429C0 31.8254 2.22324 34 4.96575 34H31.7808C34.5233 34 36.7466 31.8254 36.7466 29.1429V4.85714C36.7466 2.17462 34.5233 0 31.7808 0Z" fill="white"/>
</mask>
<g mask="url(#mask0_34_83)">
<path d="M31.7808 0H4.96575C2.22324 0 0 2.17462 0 4.85714V29.1429C0 31.8254 2.22324 34 4.96575 34H31.7808C34.5233 34 36.7466 31.8254 36.7466 29.1429V4.85714C36.7466 2.17462 34.5233 0 31.7808 0Z" fill="#203B54"/>
<path d="M10.5732 17.9678L22.1553 -10.8259L77.1792 18.917L22.1587 45.8257L10.5732 17.9678Z" fill="#CE1515" stroke="white" stroke-width="2"/>
<path d="M26.2262 11.2686H40.1233V23.7028H26.2116C26.1659 23.5999 26.1113 23.4763 26.0495 23.3353C25.8547 22.8902 25.5885 22.2719 25.3028 21.5785C24.7533 20.2447 24.1447 18.6635 23.8264 17.5028C24.1515 16.5308 24.7604 14.9491 25.306 13.5671C25.5929 12.8402 25.8603 12.1738 26.056 11.689C26.1214 11.5271 26.1788 11.3854 26.2262 11.2686Z" stroke="white" stroke-width="2"/>
</g>
</g>
<defs>
<clipPath id="clip0_34_83">
<rect width="145" height="34" fill="white"/>
</clipPath>
</defs>
</svg>
