<svg width="90" height="90" viewBox="0 0 90 90" fill="none" xmlns="http://www.w3.org/2000/svg">
<path fill-rule="evenodd" clip-rule="evenodd" d="M0.833252 45C0.833252 20.6074 20.6073 0.833332 44.9999 0.833332C52.0432 0.833332 58.7132 2.48521 64.632 5.42671C66.8165 6.51224 67.7073 9.16303 66.6217 11.3474C65.5361 13.5318 62.8852 14.4226 60.7012 13.337C55.9762 10.989 50.6488 9.66667 44.9999 9.66667C25.4858 9.66667 9.66659 25.4859 9.66659 45C9.66659 64.5142 25.4858 80.3333 44.9999 80.3333C64.5141 80.3333 80.3333 64.5142 80.3333 45C80.3333 43.6697 80.2599 42.358 80.1173 41.0687C79.8492 38.644 81.5977 36.4613 84.0221 36.1936C86.4464 35.9254 88.6291 37.6736 88.8972 40.0979C89.0752 41.7091 89.1666 43.3446 89.1666 45C89.1666 69.3924 69.3923 89.1667 44.9999 89.1667C20.6073 89.1667 0.833252 69.3924 0.833252 45ZM87.8729 10.9603C89.5977 12.6851 89.5977 15.4816 87.8729 17.2064L48.1229 56.9564C46.3982 58.6811 43.6016 58.6811 41.8769 56.9564L28.6268 43.7064C26.9021 41.9816 26.9021 39.185 28.6268 37.4603C30.3517 35.7355 33.1482 35.7355 34.873 37.4603L44.9999 47.5873L81.6269 10.9603C83.3516 9.23547 86.1482 9.23547 87.8729 10.9603V10.9603Z" fill="#203B54"/>
</svg>
