<svg width="509" height="119" viewBox="0 0 509 119" fill="none" xmlns="http://www.w3.org/2000/svg">
<g opacity="0.05">
<path d="M103.125 60C103.125 60.1758 103.058 60.3518 102.924 60.486L96.0486 67.361C95.78 67.6297 95.3449 67.6297 95.0765 67.361C94.808 67.0924 94.8078 66.6574 95.0765 66.3889L101.465 60L95.0765 53.611C94.8078 53.3424 94.8078 52.9074 95.0765 52.6389C95.3451 52.3704 95.7801 52.3703 96.0486 52.6389L102.924 59.5139C103.058 59.6481 103.125 59.8241 103.125 60Z" fill="#4370D6"/>
</g>
<g opacity="0.1">
<path d="M125.125 60C125.125 60.1758 125.058 60.3518 124.924 60.486L118.049 67.361C117.78 67.6297 117.345 67.6297 117.076 67.361C116.808 67.0924 116.808 66.6574 117.076 66.3889L123.465 60L117.076 53.611C116.808 53.3424 116.808 52.9074 117.076 52.6389C117.345 52.3704 117.78 52.3703 118.049 52.6389L124.924 59.5139C125.058 59.6481 125.125 59.8241 125.125 60Z" fill="#4370D6"/>
</g>
<g opacity="0.15">
<path d="M147.125 60C147.125 60.1758 147.058 60.3518 146.924 60.486L140.049 67.361C139.78 67.6297 139.345 67.6297 139.076 67.361C138.808 67.0924 138.808 66.6574 139.076 66.3889L145.465 60L139.076 53.611C138.808 53.3424 138.808 52.9074 139.076 52.6389C139.345 52.3704 139.78 52.3703 140.049 52.6389L146.924 59.5139C147.058 59.6481 147.125 59.8241 147.125 60Z" fill="#4370D6"/>
</g>
<g opacity="0.2">
<path d="M169.125 60C169.125 60.1758 169.058 60.3518 168.924 60.486L162.049 67.361C161.78 67.6297 161.345 67.6297 161.076 67.361C160.808 67.0924 160.808 66.6574 161.076 66.3889L167.465 60L161.076 53.611C160.808 53.3424 160.808 52.9074 161.076 52.6389C161.345 52.3704 161.78 52.3703 162.049 52.6389L168.924 59.5139C169.058 59.6481 169.125 59.8241 169.125 60Z" fill="#4370D6"/>
</g>
<g opacity="0.25">
<path d="M191.125 60C191.125 60.1758 191.058 60.3518 190.924 60.486L184.049 67.361C183.78 67.6297 183.345 67.6297 183.076 67.361C182.808 67.0924 182.808 66.6574 183.076 66.3889L189.465 60L183.076 53.611C182.808 53.3424 182.808 52.9074 183.076 52.6389C183.345 52.3704 183.78 52.3703 184.049 52.6389L190.924 59.5139C191.058 59.6481 191.125 59.8241 191.125 60Z" fill="#4370D6"/>
</g>
<g opacity="0.3">
<path d="M213.125 60C213.125 60.1758 213.058 60.3518 212.924 60.486L206.049 67.361C205.78 67.6297 205.345 67.6297 205.076 67.361C204.808 67.0924 204.808 66.6574 205.076 66.3889L211.465 60L205.076 53.611C204.808 53.3424 204.808 52.9074 205.076 52.6389C205.345 52.3704 205.78 52.3703 206.049 52.6389L212.924 59.5139C213.058 59.6481 213.125 59.8241 213.125 60Z" fill="#4370D6"/>
</g>
<g opacity="0.35">
<path d="M235.125 60C235.125 60.1758 235.058 60.3518 234.924 60.486L228.049 67.361C227.78 67.6297 227.345 67.6297 227.076 67.361C226.808 67.0924 226.808 66.6574 227.076 66.3889L233.465 60L227.076 53.611C226.808 53.3424 226.808 52.9074 227.076 52.6389C227.345 52.3704 227.78 52.3703 228.049 52.6389L234.924 59.5139C235.058 59.6481 235.125 59.8241 235.125 60Z" fill="#4370D6"/>
</g>
<g opacity="0.4">
<path d="M257.125 60C257.125 60.1758 257.058 60.3518 256.924 60.486L250.049 67.361C249.78 67.6297 249.345 67.6297 249.076 67.361C248.808 67.0924 248.808 66.6574 249.076 66.3889L255.465 60L249.076 53.611C248.808 53.3424 248.808 52.9074 249.076 52.6389C249.345 52.3704 249.78 52.3703 250.049 52.6389L256.924 59.5139C257.058 59.6481 257.125 59.8241 257.125 60Z" fill="#4370D6"/>
</g>
<g opacity="0.45">
<path d="M279.125 60C279.125 60.1758 279.058 60.3518 278.924 60.486L272.049 67.361C271.78 67.6297 271.345 67.6297 271.076 67.361C270.808 67.0924 270.808 66.6574 271.076 66.3889L277.465 60L271.076 53.611C270.808 53.3424 270.808 52.9074 271.076 52.6389C271.345 52.3704 271.78 52.3703 272.049 52.6389L278.924 59.5139C279.058 59.6481 279.125 59.8241 279.125 60Z" fill="#4370D6"/>
</g>
<g opacity="0.5">
<path d="M301.125 60C301.125 60.1758 301.058 60.3518 300.924 60.486L294.049 67.361C293.78 67.6297 293.345 67.6297 293.076 67.361C292.808 67.0924 292.808 66.6574 293.076 66.3889L299.465 60L293.076 53.611C292.808 53.3424 292.808 52.9074 293.076 52.6389C293.345 52.3704 293.78 52.3703 294.049 52.6389L300.924 59.5139C301.058 59.6481 301.125 59.8241 301.125 60Z" fill="#4370D6"/>
</g>
<g opacity="0.55">
<path d="M323.125 60C323.125 60.1758 323.058 60.3518 322.924 60.486L316.049 67.361C315.78 67.6297 315.345 67.6297 315.076 67.361C314.808 67.0924 314.808 66.6574 315.076 66.3889L321.465 60L315.076 53.611C314.808 53.3424 314.808 52.9074 315.076 52.6389C315.345 52.3704 315.78 52.3703 316.049 52.6389L322.924 59.5139C323.058 59.6481 323.125 59.8241 323.125 60Z" fill="#4370D6"/>
</g>
<g opacity="0.6">
<path d="M345.125 60C345.125 60.1758 345.058 60.3518 344.924 60.486L338.049 67.361C337.78 67.6297 337.345 67.6297 337.076 67.361C336.808 67.0924 336.808 66.6574 337.076 66.3889L343.465 60L337.076 53.611C336.808 53.3424 336.808 52.9074 337.076 52.6389C337.345 52.3704 337.78 52.3703 338.049 52.6389L344.924 59.5139C345.058 59.6481 345.125 59.8241 345.125 60Z" fill="#4370D6"/>
</g>
<g opacity="0.7">
<path d="M367.125 60C367.125 60.1758 367.058 60.3518 366.924 60.486L360.049 67.361C359.78 67.6297 359.345 67.6297 359.076 67.361C358.808 67.0924 358.808 66.6574 359.076 66.3889L365.465 60L359.076 53.611C358.808 53.3424 358.808 52.9074 359.076 52.6389C359.345 52.3704 359.78 52.3703 360.049 52.6389L366.924 59.5139C367.058 59.6481 367.125 59.8241 367.125 60Z" fill="#4370D6"/>
</g>
<g opacity="0.9">
<path d="M389.125 60C389.125 60.1758 389.058 60.3518 388.924 60.486L382.049 67.361C381.78 67.6297 381.345 67.6297 381.076 67.361C380.808 67.0924 380.808 66.6574 381.076 66.3889L387.465 60L381.076 53.611C380.808 53.3424 380.808 52.9074 381.076 52.6389C381.345 52.3704 381.78 52.3703 382.049 52.6389L388.924 59.5139C389.058 59.6481 389.125 59.8241 389.125 60Z" fill="#4370D6"/>
</g>
<path d="M411.125 60C411.125 60.1758 411.058 60.3518 410.924 60.486L404.049 67.361C403.78 67.6297 403.345 67.6297 403.076 67.361C402.808 67.0924 402.808 66.6574 403.076 66.3889L409.465 60L403.076 53.611C402.808 53.3424 402.808 52.9074 403.076 52.6389C403.345 52.3704 403.78 52.3703 404.049 52.6389L410.924 59.5139C411.058 59.6481 411.125 59.8241 411.125 60Z" fill="#4370D6"/>
<circle cx="46.5" cy="35" r="33.5" stroke="#203B54" stroke-width="3"/>
<path d="M57.6277 20.9787H54.1899V19.4407C54.1899 18.9432 53.6471 18.717 53.1495 18.717H50.4807C49.8474 16.9076 48.2642 16.0029 46.4548 16.0029C44.6653 15.9357 43.0377 17.0329 42.4289 18.717H39.8053C39.3077 18.717 38.8101 18.9432 38.8101 19.4407V20.9787H35.3722C33.335 21.0004 31.6683 22.6076 31.5725 24.6427V50.5621C31.5725 52.5524 33.3819 53.9999 35.3722 53.9999H57.6277C59.618 53.9999 61.4274 52.5524 61.4274 50.5621V24.6428C61.3316 22.6076 59.6649 21.0004 57.6277 20.9787ZM40.6194 20.5264H43.1074C43.5417 20.4734 43.8905 20.143 43.9669 19.7122C44.2348 18.5456 45.2582 17.7082 46.4548 17.6766C47.6403 17.7126 48.6484 18.5526 48.8975 19.7122C48.9786 20.1579 49.3504 20.4925 49.8021 20.5264H52.3806V24.1452H40.6194V20.5264ZM59.618 50.5622C59.618 51.5573 58.6228 52.1906 57.6277 52.1906H35.3722C34.3771 52.1906 33.3819 51.5573 33.3819 50.5622V24.6428C33.4742 23.6069 34.3324 22.8071 35.3722 22.7882H38.8101V25.0951C38.8579 25.602 39.2968 25.9811 39.8052 25.9546H53.1494C53.6672 25.983 54.1199 25.609 54.1898 25.0951V22.7881H57.6276C58.6674 22.8071 59.5256 23.6068 59.6179 24.6427V50.5622H59.618Z" fill="#203B54"/>
<path d="M55.4444 38H37.5556C36.6964 38 36 38.4477 36 39C36 39.5523 36.6964 40 37.5556 40H55.4444C56.3036 40 57 39.5523 57 39C57 38.4477 56.3036 38 55.4444 38Z" fill="#203B54"/>
<path d="M55.4444 31H37.5556C36.6964 31 36 31.4477 36 32C36 32.5523 36.6964 33 37.5556 33H55.4444C56.3036 33 57 32.5523 57 32C57 31.4477 56.3036 31 55.4444 31Z" fill="#203B54"/>
<path d="M55.4444 45H37.5556C36.6964 45 36 45.4477 36 46C36 46.5523 36.6964 47 37.5556 47H55.4444C56.3036 47 57 46.5523 57 46C57 45.4477 56.3036 45 55.4444 45Z" fill="#203B54"/>
<circle cx="61.5" cy="41.5" r="8.75" fill="#FAFBFC" stroke="#203B54" stroke-width="1.5"/>
<g clip-path="url(#clip0_454_787)">
<mask id="mask0_454_787" style="mask-type:luminance" maskUnits="userSpaceOnUse" x="57" y="37" width="9" height="9">
<path d="M57 37H66V46H57V37Z" fill="white"/>
</mask>
<g mask="url(#mask0_454_787)">
<path d="M65.5796 38.5391L64.461 37.4205C64.2556 37.2151 63.9207 37.2149 63.7155 37.4202L58.0122 43.1235L59.8766 44.9879L65.58 39.2846C65.7852 39.0794 65.785 38.7445 65.5796 38.5391Z" stroke="#203B54" stroke-width="0.8" stroke-miterlimit="22.926" stroke-linecap="round" stroke-linejoin="round"/>
<path d="M57.2664 45.7336L58.0121 43.1234L59.8766 44.9879L57.2664 45.7336Z" stroke="#203B54" stroke-width="0.8" stroke-miterlimit="22.926" stroke-linecap="round" stroke-linejoin="round"/>
<path d="M64.8338 40.0306L62.9694 38.1662" stroke="#203B54" stroke-width="0.8" stroke-miterlimit="22.926" stroke-linecap="round" stroke-linejoin="round"/>
</g>
</g>
<path d="M26.6236 83.248C26.6236 84.0267 26.3676 84.6453 25.8556 85.104C25.3543 85.5627 24.6876 85.8507 23.8556 85.968V86.032C24.8476 86.1493 25.5996 86.448 26.1116 86.928C26.6343 87.3973 26.8956 88.0107 26.8956 88.768C26.8956 89.4293 26.7196 90.016 26.3676 90.528C26.0263 91.04 25.509 91.44 24.8156 91.728C24.1223 92.016 23.2583 92.16 22.2236 92.16C21.5303 92.16 20.885 92.112 20.2876 92.016C19.701 91.92 19.1676 91.76 18.6876 91.536V90.016C19.0183 90.176 19.3756 90.3147 19.7596 90.432C20.1543 90.5387 20.549 90.624 20.9436 90.688C21.349 90.7413 21.7276 90.768 22.0796 90.768C23.1036 90.768 23.8663 90.592 24.3676 90.24C24.869 89.8773 25.1196 89.3653 25.1196 88.704C25.1196 88.032 24.805 87.5467 24.1756 87.248C23.5463 86.9387 22.677 86.784 21.5676 86.784H20.0956V85.376H21.4716C22.2716 85.376 22.9223 85.3013 23.4236 85.152C23.925 84.992 24.293 84.768 24.5276 84.48C24.7623 84.192 24.8796 83.8507 24.8796 83.456C24.8796 82.9333 24.677 82.5333 24.2716 82.256C23.8663 81.968 23.3223 81.824 22.6396 81.824C21.9676 81.824 21.3863 81.9147 20.8956 82.096C20.405 82.2667 19.9356 82.496 19.4876 82.784L18.6876 81.616C19.0183 81.3813 19.3863 81.1787 19.7916 81.008C20.197 80.8267 20.645 80.6827 21.1356 80.576C21.637 80.4693 22.1756 80.416 22.7516 80.416C23.5836 80.416 24.2876 80.5387 24.8636 80.784C25.4396 81.0293 25.877 81.3653 26.1756 81.792C26.4743 82.208 26.6236 82.6933 26.6236 83.248ZM32.3908 83.216C33.4788 83.216 34.2894 83.456 34.8228 83.936C35.3561 84.4053 35.6228 85.1467 35.6228 86.16V92H34.4228L34.0868 90.8H34.0228C33.7774 91.1093 33.5214 91.3653 33.2548 91.568C32.9988 91.7707 32.7001 91.92 32.3588 92.016C32.0281 92.112 31.6228 92.16 31.1428 92.16C30.6308 92.16 30.1668 92.0693 29.7508 91.888C29.3454 91.696 29.0254 91.408 28.7908 91.024C28.5561 90.6293 28.4388 90.1387 28.4388 89.552C28.4388 88.6773 28.7694 88.0107 29.4308 87.552C30.1028 87.0933 31.1214 86.8427 32.4868 86.8L33.9588 86.752V86.272C33.9588 85.632 33.8148 85.184 33.5268 84.928C33.2388 84.672 32.8334 84.544 32.3108 84.544C31.8628 84.544 31.4361 84.608 31.0308 84.736C30.6254 84.864 30.2414 85.0187 29.8788 85.2L29.3348 83.968C29.7401 83.7547 30.2041 83.5787 30.7268 83.44C31.2601 83.2907 31.8148 83.216 32.3908 83.216ZM32.7908 87.888C31.8094 87.9307 31.1268 88.096 30.7428 88.384C30.3694 88.6613 30.1828 89.056 30.1828 89.568C30.1828 90.016 30.3161 90.3413 30.5828 90.544C30.8601 90.7467 31.2068 90.848 31.6228 90.848C32.2948 90.848 32.8494 90.6613 33.2868 90.288C33.7241 89.9147 33.9428 89.3547 33.9428 88.608V87.856L32.7908 87.888ZM45.0343 83.376V90.656H46.2983V95.024H44.7143V92H38.7623V95.024H37.1943V90.656H37.8823C38.3409 89.9947 38.7249 89.2693 39.0343 88.48C39.3436 87.6907 39.5783 86.864 39.7383 86C39.9089 85.1253 40.0103 84.2507 40.0423 83.376H45.0343ZM41.5143 84.688C41.4503 85.3813 41.3329 86.0907 41.1623 86.816C41.0023 87.5413 40.7943 88.2347 40.5383 88.896C40.2929 89.5573 39.9996 90.144 39.6583 90.656H43.3703V84.688H41.5143ZM51.2658 83.216C52.3538 83.216 53.1644 83.456 53.6978 83.936C54.2311 84.4053 54.4978 85.1467 54.4978 86.16V92H53.2978L52.9618 90.8H52.8978C52.6524 91.1093 52.3964 91.3653 52.1298 91.568C51.8738 91.7707 51.5751 91.92 51.2338 92.016C50.9031 92.112 50.4978 92.16 50.0178 92.16C49.5058 92.16 49.0418 92.0693 48.6258 91.888C48.2204 91.696 47.9004 91.408 47.6658 91.024C47.4311 90.6293 47.3138 90.1387 47.3138 89.552C47.3138 88.6773 47.6444 88.0107 48.3058 87.552C48.9778 87.0933 49.9964 86.8427 51.3618 86.8L52.8338 86.752V86.272C52.8338 85.632 52.6898 85.184 52.4018 84.928C52.1138 84.672 51.7084 84.544 51.1858 84.544C50.7378 84.544 50.3111 84.608 49.9058 84.736C49.5004 84.864 49.1164 85.0187 48.7538 85.2L48.2098 83.968C48.6151 83.7547 49.0791 83.5787 49.6018 83.44C50.1351 83.2907 50.6898 83.216 51.2658 83.216ZM51.6658 87.888C50.6844 87.9307 50.0018 88.096 49.6178 88.384C49.2444 88.6613 49.0578 89.056 49.0578 89.568C49.0578 90.016 49.1911 90.3413 49.4578 90.544C49.7351 90.7467 50.0818 90.848 50.4978 90.848C51.1698 90.848 51.7244 90.6613 52.1618 90.288C52.5991 89.9147 52.8178 89.3547 52.8178 88.608V87.856L51.6658 87.888ZM58.5973 86.528C58.5973 86.9867 58.7253 87.328 58.9813 87.552C59.2373 87.776 59.5999 87.888 60.0693 87.888C60.5813 87.888 61.0506 87.8187 61.4773 87.68C61.9039 87.5307 62.3359 87.3333 62.7733 87.088V83.376H64.4693V92H62.7733V88.272C62.3253 88.56 61.8666 88.7893 61.3973 88.96C60.9279 89.1307 60.3733 89.216 59.7333 89.216C58.8479 89.216 58.1546 88.9867 57.6533 88.528C57.1519 88.0587 56.9013 87.4187 56.9013 86.608V83.376H58.5973V86.528ZM70.4689 83.216C71.5569 83.216 72.3675 83.456 72.9009 83.936C73.4342 84.4053 73.7009 85.1467 73.7009 86.16V92H72.5009L72.1649 90.8H72.1009C71.8555 91.1093 71.5995 91.3653 71.3329 91.568C71.0769 91.7707 70.7782 91.92 70.4369 92.016C70.1062 92.112 69.7009 92.16 69.2209 92.16C68.7089 92.16 68.2449 92.0693 67.8289 91.888C67.4235 91.696 67.1035 91.408 66.8689 91.024C66.6342 90.6293 66.5169 90.1387 66.5169 89.552C66.5169 88.6773 66.8475 88.0107 67.5089 87.552C68.1809 87.0933 69.1995 86.8427 70.5649 86.8L72.0369 86.752V86.272C72.0369 85.632 71.8929 85.184 71.6049 84.928C71.3169 84.672 70.9115 84.544 70.3889 84.544C69.9409 84.544 69.5142 84.608 69.1089 84.736C68.7035 84.864 68.3195 85.0187 67.9569 85.2L67.4129 83.968C67.8182 83.7547 68.2822 83.5787 68.8049 83.44C69.3382 83.2907 69.8929 83.216 70.4689 83.216ZM70.8689 87.888C69.8875 87.9307 69.2049 88.096 68.8209 88.384C68.4475 88.6613 68.2609 89.056 68.2609 89.568C68.2609 90.016 68.3942 90.3413 68.6609 90.544C68.9382 90.7467 69.2849 90.848 69.7009 90.848C70.3729 90.848 70.9275 90.6613 71.3649 90.288C71.8022 89.9147 72.0209 89.3547 72.0209 88.608V87.856L70.8689 87.888ZM9.01056 105.376V114H7.31456V106.752H3.25056V114H1.55456V105.376H9.01056ZM19.2639 109.68C19.2639 110.395 19.1679 111.029 18.9759 111.584C18.7839 112.139 18.5119 112.608 18.1599 112.992C17.8079 113.376 17.3813 113.669 16.8799 113.872C16.3786 114.064 15.8133 114.16 15.1839 114.16C14.6079 114.16 14.0746 114.064 13.5839 113.872C13.0933 113.669 12.6666 113.376 12.3039 112.992C11.9519 112.608 11.6746 112.139 11.4719 111.584C11.2693 111.029 11.1679 110.389 11.1679 109.664C11.1679 108.715 11.3279 107.909 11.6479 107.248C11.9786 106.587 12.4479 106.085 13.0559 105.744C13.6746 105.392 14.3999 105.216 15.2319 105.216C16.0213 105.216 16.7146 105.392 17.3119 105.744C17.9199 106.085 18.3946 106.587 18.7359 107.248C19.0879 107.909 19.2639 108.72 19.2639 109.68ZM12.9119 109.68C12.9119 110.32 12.9919 110.875 13.1519 111.344C13.3119 111.803 13.5626 112.155 13.9039 112.4C14.2453 112.645 14.6826 112.768 15.2159 112.768C15.7493 112.768 16.1866 112.645 16.5279 112.4C16.8693 112.155 17.1199 111.803 17.2799 111.344C17.4399 110.875 17.5199 110.32 17.5199 109.68C17.5199 109.019 17.4346 108.464 17.2639 108.016C17.1039 107.568 16.8533 107.227 16.5119 106.992C16.1813 106.747 15.7439 106.624 15.1999 106.624C14.3999 106.624 13.8186 106.891 13.4559 107.424C13.0933 107.957 12.9119 108.709 12.9119 109.68ZM24.8859 114.16C24.0966 114.16 23.4033 114.005 22.8059 113.696C22.2086 113.387 21.7446 112.907 21.4139 112.256C21.0833 111.595 20.9179 110.757 20.9179 109.744C20.9179 108.677 21.0939 107.813 21.4459 107.152C21.8086 106.491 22.2939 106.005 22.9019 105.696C23.5206 105.376 24.2246 105.216 25.0139 105.216C25.4939 105.216 25.9419 105.269 26.3579 105.376C26.7846 105.472 27.1366 105.584 27.4139 105.712L26.9019 107.088C26.6033 106.971 26.2833 106.869 25.9419 106.784C25.6113 106.699 25.2966 106.656 24.9979 106.656C24.4646 106.656 24.0219 106.773 23.6699 107.008C23.3286 107.232 23.0726 107.573 22.9019 108.032C22.7419 108.48 22.6619 109.045 22.6619 109.728C22.6619 110.379 22.7473 110.928 22.9179 111.376C23.0886 111.824 23.3393 112.165 23.6699 112.4C24.0113 112.624 24.4326 112.736 24.9339 112.736C25.4139 112.736 25.8353 112.683 26.1979 112.576C26.5606 112.469 26.9019 112.331 27.2219 112.16V113.632C26.9126 113.813 26.5766 113.947 26.2139 114.032C25.8513 114.117 25.4086 114.16 24.8859 114.16ZM35.5617 106.736H32.7457V114H31.0657V106.736H28.2657V105.376H35.5617V106.736ZM40.5861 105.216C41.6741 105.216 42.4847 105.456 43.0181 105.936C43.5514 106.405 43.8181 107.147 43.8181 108.16V114H42.6181L42.2821 112.8H42.2181C41.9727 113.109 41.7167 113.365 41.4501 113.568C41.1941 113.771 40.8954 113.92 40.5541 114.016C40.2234 114.112 39.8181 114.16 39.3381 114.16C38.8261 114.16 38.3621 114.069 37.9461 113.888C37.5407 113.696 37.2207 113.408 36.9861 113.024C36.7514 112.629 36.6341 112.139 36.6341 111.552C36.6341 110.677 36.9647 110.011 37.6261 109.552C38.2981 109.093 39.3167 108.843 40.6821 108.8L42.1541 108.752V108.272C42.1541 107.632 42.0101 107.184 41.7221 106.928C41.4341 106.672 41.0287 106.544 40.5061 106.544C40.0581 106.544 39.6314 106.608 39.2261 106.736C38.8207 106.864 38.4367 107.019 38.0741 107.2L37.5301 105.968C37.9354 105.755 38.3994 105.579 38.9221 105.44C39.4554 105.291 40.0101 105.216 40.5861 105.216ZM40.9861 109.888C40.0047 109.931 39.3221 110.096 38.9381 110.384C38.5647 110.661 38.3781 111.056 38.3781 111.568C38.3781 112.016 38.5114 112.341 38.7781 112.544C39.0554 112.747 39.4021 112.848 39.8181 112.848C40.4901 112.848 41.0447 112.661 41.4821 112.288C41.9194 111.915 42.1381 111.355 42.1381 110.608V109.856L40.9861 109.888ZM53.5816 107.568C53.5816 108.091 53.4216 108.507 53.1016 108.816C52.7922 109.115 52.3762 109.317 51.8536 109.424V109.488C52.4082 109.563 52.8776 109.76 53.2616 110.08C53.6562 110.389 53.8536 110.848 53.8536 111.456C53.8536 111.829 53.7842 112.171 53.6456 112.48C53.5069 112.789 53.2936 113.061 53.0056 113.296C52.7176 113.52 52.3442 113.696 51.8856 113.824C51.4376 113.941 50.8936 114 50.2536 114H46.4296V105.376H50.2536C50.8829 105.376 51.4482 105.445 51.9496 105.584C52.4509 105.723 52.8456 105.952 53.1336 106.272C53.4322 106.592 53.5816 107.024 53.5816 107.568ZM52.0936 111.424C52.0936 110.976 51.9229 110.656 51.5816 110.464C51.2402 110.261 50.7336 110.16 50.0616 110.16H48.1256V112.72H50.0936C50.7229 112.72 51.2136 112.624 51.5656 112.432C51.9176 112.229 52.0936 111.893 52.0936 111.424ZM51.8536 107.76C51.8536 107.387 51.7202 107.115 51.4536 106.944C51.1869 106.773 50.7549 106.688 50.1576 106.688H48.1256V108.864H49.9016C50.5416 108.864 51.0269 108.779 51.3576 108.608C51.6882 108.427 51.8536 108.144 51.8536 107.76ZM62.8103 114H61.0983V106.736H58.6663C58.5596 108.059 58.4263 109.195 58.2663 110.144C58.117 111.083 57.9196 111.845 57.6743 112.432C57.4396 113.019 57.1463 113.451 56.7943 113.728C56.453 113.995 56.0423 114.128 55.5623 114.128C55.3916 114.128 55.2263 114.112 55.0663 114.08C54.9063 114.059 54.7676 114.021 54.6503 113.968V112.672C54.725 112.693 54.805 112.715 54.8903 112.736C54.9863 112.747 55.0823 112.752 55.1783 112.752C55.3916 112.752 55.5836 112.667 55.7543 112.496C55.9356 112.325 56.0956 112.059 56.2343 111.696C56.3836 111.333 56.517 110.864 56.6343 110.288C56.7623 109.701 56.869 109.003 56.9543 108.192C57.0503 107.381 57.1356 106.443 57.2103 105.376H62.8103V114ZM68.8528 105.216C69.6101 105.216 70.2608 105.376 70.8048 105.696C71.3488 106.005 71.7648 106.453 72.0528 107.04C72.3515 107.627 72.5008 108.32 72.5008 109.12V110.048H66.7088C66.7301 110.933 66.9595 111.611 67.3968 112.08C67.8448 112.549 68.4688 112.784 69.2688 112.784C69.8235 112.784 70.3141 112.736 70.7408 112.64C71.1781 112.533 71.6261 112.379 72.0848 112.176V113.584C71.6581 113.776 71.2208 113.92 70.7728 114.016C70.3355 114.112 69.8128 114.16 69.2048 114.16C68.3728 114.16 67.6368 113.995 66.9968 113.664C66.3568 113.333 65.8555 112.843 65.4928 112.192C65.1408 111.531 64.9648 110.72 64.9648 109.76C64.9648 108.789 65.1248 107.968 65.4448 107.296C65.7755 106.624 66.2288 106.112 66.8048 105.76C67.3915 105.397 68.0741 105.216 68.8528 105.216ZM68.8528 106.528C68.2448 106.528 67.7541 106.725 67.3808 107.12C67.0181 107.515 66.8048 108.075 66.7408 108.8H70.8048C70.8048 108.352 70.7355 107.957 70.5968 107.616C70.4581 107.275 70.2448 107.008 69.9568 106.816C69.6688 106.624 69.3008 106.528 68.8528 106.528ZM76.3131 105.376V108.88H80.5691V105.376H82.2651V114H80.5691V110.24H76.3131V114H74.6171V105.376H76.3131ZM88.2579 105.216C89.3459 105.216 90.1566 105.456 90.6899 105.936C91.2233 106.405 91.4899 107.147 91.4899 108.16V114H90.2899L89.9539 112.8H89.8899C89.6446 113.109 89.3886 113.365 89.1219 113.568C88.8659 113.771 88.5673 113.92 88.2259 114.016C87.8953 114.112 87.4899 114.16 87.0099 114.16C86.4979 114.16 86.0339 114.069 85.6179 113.888C85.2126 113.696 84.8926 113.408 84.6579 113.024C84.4233 112.629 84.3059 112.139 84.3059 111.552C84.3059 110.677 84.6366 110.011 85.2979 109.552C85.9699 109.093 86.9886 108.843 88.3539 108.8L89.8259 108.752V108.272C89.8259 107.632 89.6819 107.184 89.3939 106.928C89.1059 106.672 88.7006 106.544 88.1779 106.544C87.7299 106.544 87.3033 106.608 86.8979 106.736C86.4926 106.864 86.1086 107.019 85.7459 107.2L85.2019 105.968C85.6073 105.755 86.0713 105.579 86.5939 105.44C87.1273 105.291 87.6819 105.216 88.2579 105.216ZM88.6579 109.888C87.6766 109.931 86.9939 110.096 86.6099 110.384C86.2366 110.661 86.0499 111.056 86.0499 111.568C86.0499 112.016 86.1833 112.341 86.4499 112.544C86.7273 112.747 87.0739 112.848 87.4899 112.848C88.1619 112.848 88.7166 112.661 89.1539 112.288C89.5913 111.915 89.8099 111.355 89.8099 110.608V109.856L88.6579 109.888Z" fill="#203B54"/>
<circle cx="462.5" cy="35" r="33.5" stroke="#4370D6" stroke-width="3"/>
<path d="M473.628 20.9787H470.19V19.4407C470.19 18.9432 469.647 18.717 469.149 18.717H466.481C465.847 16.9076 464.264 16.0029 462.455 16.0029C460.665 15.9357 459.038 17.0329 458.429 18.717H455.805C455.308 18.717 454.81 18.9432 454.81 19.4407V20.9787H451.372C449.335 21.0004 447.668 22.6076 447.573 24.6427V50.5621C447.573 52.5524 449.382 53.9999 451.372 53.9999H473.628C475.618 53.9999 477.427 52.5524 477.427 50.5621V24.6428C477.332 22.6076 475.665 21.0004 473.628 20.9787ZM456.619 20.5264H459.107C459.542 20.4734 459.891 20.143 459.967 19.7122C460.235 18.5456 461.258 17.7082 462.455 17.6766C463.64 17.7126 464.648 18.5526 464.897 19.7122C464.979 20.1579 465.35 20.4925 465.802 20.5264H468.381V24.1452H456.619V20.5264ZM475.618 50.5622C475.618 51.5573 474.623 52.1906 473.628 52.1906H451.372C450.377 52.1906 449.382 51.5573 449.382 50.5622V24.6428C449.474 23.6069 450.332 22.8071 451.372 22.7882H454.81V25.0951C454.858 25.602 455.297 25.9811 455.805 25.9546H469.149C469.667 25.983 470.12 25.609 470.19 25.0951V22.7881H473.628C474.667 22.8071 475.526 23.6068 475.618 24.6427V50.5622H475.618Z" fill="#4370D6"/>
<path d="M471.444 38H453.556C452.696 38 452 38.4477 452 39C452 39.5523 452.696 40 453.556 40H471.444C472.304 40 473 39.5523 473 39C473 38.4477 472.304 38 471.444 38Z" fill="#4370D6"/>
<path d="M471.444 31H453.556C452.696 31 452 31.4477 452 32C452 32.5523 452.696 33 453.556 33H471.444C472.304 33 473 32.5523 473 32C473 31.4477 472.304 31 471.444 31Z" fill="#4370D6"/>
<path d="M471.444 45H453.556C452.696 45 452 45.4477 452 46C452 46.5523 452.696 47 453.556 47H471.444C472.304 47 473 46.5523 473 46C473 45.4477 472.304 45 471.444 45Z" fill="#4370D6"/>
<circle cx="477.5" cy="41.5" r="8.75" fill="#FAFBFC" stroke="#4370D6" stroke-width="1.5"/>
<path d="M480.912 39.282C480.573 38.9243 480.01 38.9043 479.646 39.2368L476.751 41.9961L475.529 40.7295C475.19 40.3718 474.627 40.3517 474.263 40.6843C473.912 41.0514 473.912 41.629 474.263 41.9961L476.117 43.896C476.278 44.0757 476.51 44.1751 476.751 44.1674C476.989 44.164 477.217 44.0664 477.384 43.896L480.912 40.5486C481.262 40.2277 481.285 39.684 480.964 39.3343C480.948 39.3161 480.931 39.2987 480.912 39.282Z" fill="#4370D6"/>
<path d="M442.155 83.248C442.155 84.016 441.894 84.6347 441.371 85.104C440.848 85.5627 440.166 85.856 439.323 85.984V86.032C440.336 86.1493 441.11 86.4427 441.643 86.912C442.187 87.3813 442.459 87.9947 442.459 88.752C442.459 89.424 442.283 90.016 441.931 90.528C441.579 91.04 441.051 91.44 440.347 91.728C439.643 92.016 438.768 92.16 437.723 92.16C436.955 92.16 436.256 92.1067 435.627 92C434.998 91.904 434.443 91.7493 433.963 91.536V89.776C434.294 89.936 434.656 90.0747 435.051 90.192C435.456 90.2987 435.862 90.384 436.267 90.448C436.683 90.5013 437.072 90.528 437.435 90.528C438.448 90.528 439.195 90.368 439.675 90.048C440.155 89.7173 440.395 89.2533 440.395 88.656C440.395 88.0373 440.07 87.5893 439.419 87.312C438.779 87.024 437.904 86.88 436.795 86.88H435.515V85.264H436.683C437.536 85.264 438.214 85.1947 438.715 85.056C439.216 84.9173 439.574 84.72 439.787 84.464C440.011 84.1973 440.123 83.888 440.123 83.536C440.123 83.0773 439.936 82.72 439.563 82.464C439.19 82.1973 438.656 82.064 437.963 82.064C437.323 82.064 436.752 82.1547 436.251 82.336C435.75 82.5067 435.275 82.7307 434.827 83.008L433.915 81.632C434.278 81.3973 434.667 81.1893 435.083 81.008C435.51 80.816 435.979 80.672 436.491 80.576C437.003 80.4693 437.563 80.416 438.171 80.416C439.024 80.416 439.744 80.5387 440.331 80.784C440.928 81.0293 441.382 81.3653 441.691 81.792C442 82.208 442.155 82.6933 442.155 83.248ZM447.963 83.168C449.083 83.168 449.931 83.4133 450.507 83.904C451.094 84.384 451.387 85.1413 451.387 86.176V92H449.963L449.563 90.8H449.499C449.254 91.1093 448.998 91.3707 448.731 91.584C448.475 91.7867 448.176 91.9307 447.835 92.016C447.504 92.112 447.099 92.16 446.619 92.16C446.107 92.16 445.643 92.064 445.227 91.872C444.822 91.68 444.502 91.3867 444.267 90.992C444.032 90.5867 443.915 90.08 443.915 89.472C443.915 88.576 444.24 87.904 444.891 87.456C445.552 86.9973 446.55 86.7467 447.883 86.704L449.387 86.656V86.224C449.387 85.6693 449.254 85.2747 448.987 85.04C448.72 84.8053 448.347 84.688 447.867 84.688C447.43 84.688 447.008 84.752 446.603 84.88C446.198 85.008 445.803 85.1573 445.419 85.328L444.779 83.92C445.206 83.696 445.691 83.5147 446.235 83.376C446.79 83.2373 447.366 83.168 447.963 83.168ZM448.331 87.936C447.446 87.968 446.832 88.1227 446.491 88.4C446.15 88.6667 445.979 89.0293 445.979 89.488C445.979 89.8933 446.102 90.1867 446.347 90.368C446.592 90.5493 446.907 90.64 447.291 90.64C447.878 90.64 448.374 90.4747 448.779 90.144C449.184 89.8027 449.387 89.3013 449.387 88.64V87.904L448.331 87.936ZM461.209 83.328V90.464H462.473V95.072H460.617V92H454.713V95.072H452.873V90.464H453.593C454.02 89.8453 454.377 89.152 454.665 88.384C454.953 87.6053 455.177 86.784 455.337 85.92C455.497 85.056 455.604 84.192 455.657 83.328H461.209ZM457.369 84.864C457.305 85.536 457.199 86.208 457.049 86.88C456.9 87.5413 456.713 88.176 456.489 88.784C456.265 89.392 455.999 89.952 455.689 90.464H459.209V84.864H457.369ZM467.494 83.168C468.614 83.168 469.462 83.4133 470.038 83.904C470.625 84.384 470.918 85.1413 470.918 86.176V92H469.494L469.094 90.8H469.03C468.785 91.1093 468.529 91.3707 468.262 91.584C468.006 91.7867 467.708 91.9307 467.366 92.016C467.036 92.112 466.63 92.16 466.15 92.16C465.638 92.16 465.174 92.064 464.758 91.872C464.353 91.68 464.033 91.3867 463.798 90.992C463.564 90.5867 463.446 90.08 463.446 89.472C463.446 88.576 463.772 87.904 464.422 87.456C465.084 86.9973 466.081 86.7467 467.414 86.704L468.918 86.656V86.224C468.918 85.6693 468.785 85.2747 468.518 85.04C468.252 84.8053 467.878 84.688 467.398 84.688C466.961 84.688 466.54 84.752 466.134 84.88C465.729 85.008 465.334 85.1573 464.95 85.328L464.31 83.92C464.737 83.696 465.222 83.5147 465.766 83.376C466.321 83.2373 466.897 83.168 467.494 83.168ZM467.862 87.936C466.977 87.968 466.364 88.1227 466.022 88.4C465.681 88.6667 465.51 89.0293 465.51 89.488C465.51 89.8933 465.633 90.1867 465.878 90.368C466.124 90.5493 466.438 90.64 466.822 90.64C467.409 90.64 467.905 90.4747 468.31 90.144C468.716 89.8027 468.918 89.3013 468.918 88.64V87.904L467.862 87.936ZM475.204 86.496C475.204 86.912 475.316 87.2267 475.54 87.44C475.764 87.6533 476.079 87.76 476.484 87.76C476.975 87.76 477.423 87.696 477.828 87.568C478.244 87.44 478.66 87.2747 479.076 87.072V83.328H481.092V92H479.076V88.4C478.66 88.6347 478.218 88.8373 477.748 89.008C477.279 89.1787 476.73 89.264 476.1 89.264C475.204 89.264 474.495 89.0347 473.972 88.576C473.45 88.1067 473.188 87.4347 473.188 86.56V83.328H475.204V86.496ZM487.135 83.168C488.255 83.168 489.103 83.4133 489.679 83.904C490.265 84.384 490.559 85.1413 490.559 86.176V92H489.135L488.735 90.8H488.671C488.425 91.1093 488.169 91.3707 487.903 91.584C487.647 91.7867 487.348 91.9307 487.007 92.016C486.676 92.112 486.271 92.16 485.791 92.16C485.279 92.16 484.815 92.064 484.399 91.872C483.993 91.68 483.673 91.3867 483.439 90.992C483.204 90.5867 483.087 90.08 483.087 89.472C483.087 88.576 483.412 87.904 484.063 87.456C484.724 86.9973 485.721 86.7467 487.055 86.704L488.559 86.656V86.224C488.559 85.6693 488.425 85.2747 488.159 85.04C487.892 84.8053 487.519 84.688 487.039 84.688C486.601 84.688 486.18 84.752 485.775 84.88C485.369 85.008 484.975 85.1573 484.591 85.328L483.951 83.92C484.377 83.696 484.863 83.5147 485.407 83.376C485.961 83.2373 486.537 83.168 487.135 83.168ZM487.503 87.936C486.617 87.968 486.004 88.1227 485.663 88.4C485.321 88.6667 485.151 89.0293 485.151 89.488C485.151 89.8933 485.273 90.1867 485.519 90.368C485.764 90.5493 486.079 90.64 486.463 90.64C487.049 90.64 487.545 90.4747 487.951 90.144C488.356 89.8027 488.559 89.3013 488.559 88.64V87.904L487.503 87.936ZM424.954 107.568C424.954 108.059 424.8 108.464 424.49 108.784C424.192 109.104 423.765 109.312 423.21 109.408V109.472C423.797 109.547 424.277 109.749 424.65 110.08C425.034 110.4 425.226 110.848 425.226 111.424C425.226 111.797 425.152 112.144 425.002 112.464C424.864 112.773 424.645 113.045 424.346 113.28C424.058 113.504 423.68 113.68 423.21 113.808C422.741 113.936 422.176 114 421.514 114H417.53V105.328H421.498C422.16 105.328 422.746 105.397 423.258 105.536C423.781 105.675 424.192 105.909 424.49 106.24C424.8 106.56 424.954 107.003 424.954 107.568ZM423.13 111.344C423.13 110.949 422.976 110.667 422.666 110.496C422.368 110.315 421.914 110.224 421.306 110.224H419.546V112.544H421.354C421.898 112.544 422.33 112.453 422.65 112.272C422.97 112.091 423.13 111.781 423.13 111.344ZM422.906 107.744C422.906 107.424 422.784 107.189 422.538 107.04C422.293 106.891 421.92 106.816 421.418 106.816H419.546V108.768H421.146C421.722 108.768 422.16 108.688 422.458 108.528C422.757 108.368 422.906 108.107 422.906 107.744ZM427.28 114V105.328H429.296V108.752H430.848C431.691 108.752 432.379 108.848 432.912 109.04C433.456 109.221 433.856 109.499 434.112 109.872C434.379 110.245 434.512 110.715 434.512 111.28C434.512 111.835 434.39 112.315 434.144 112.72C433.899 113.125 433.51 113.44 432.976 113.664C432.443 113.888 431.744 114 430.88 114H427.28ZM430.752 112.544C431.264 112.544 431.686 112.453 432.016 112.272C432.347 112.08 432.512 111.765 432.512 111.328C432.512 110.912 432.358 110.624 432.048 110.464C431.75 110.304 431.312 110.224 430.736 110.224H429.296V112.544H430.752ZM435.84 114V105.328H437.856V114H435.84ZM448.116 105.328V114H446.1V106.896H442.468V114H440.452V105.328H448.116ZM458.446 109.648C458.446 110.373 458.35 111.013 458.158 111.568C457.966 112.123 457.689 112.597 457.326 112.992C456.974 113.376 456.537 113.669 456.014 113.872C455.502 114.064 454.932 114.16 454.302 114.16C453.705 114.16 453.156 114.064 452.654 113.872C452.153 113.669 451.716 113.376 451.342 112.992C450.98 112.597 450.697 112.123 450.494 111.568C450.292 111.013 450.19 110.373 450.19 109.648C450.19 108.688 450.356 107.877 450.686 107.216C451.017 106.544 451.492 106.037 452.11 105.696C452.74 105.344 453.481 105.168 454.334 105.168C455.145 105.168 455.854 105.344 456.462 105.696C457.081 106.037 457.566 106.544 457.918 107.216C458.27 107.877 458.446 108.688 458.446 109.648ZM452.254 109.648C452.254 110.256 452.324 110.779 452.462 111.216C452.612 111.643 452.836 111.968 453.134 112.192C453.444 112.416 453.838 112.528 454.318 112.528C454.809 112.528 455.204 112.416 455.502 112.192C455.812 111.968 456.036 111.643 456.174 111.216C456.313 110.779 456.382 110.256 456.382 109.648C456.382 109.029 456.308 108.512 456.158 108.096C456.02 107.669 455.796 107.349 455.486 107.136C455.188 106.912 454.798 106.8 454.318 106.8C453.593 106.8 453.065 107.045 452.734 107.536C452.414 108.027 452.254 108.731 452.254 109.648ZM467.858 114H465.842V106.88H463.522C463.416 108.192 463.282 109.307 463.122 110.224C462.962 111.141 462.765 111.893 462.53 112.48C462.296 113.056 462.002 113.477 461.65 113.744C461.309 114.011 460.893 114.144 460.402 114.144C460.178 114.144 459.97 114.128 459.778 114.096C459.586 114.064 459.421 114.011 459.282 113.936V112.352C459.378 112.384 459.48 112.416 459.586 112.448C459.693 112.469 459.805 112.48 459.922 112.48C460.104 112.48 460.269 112.411 460.418 112.272C460.578 112.123 460.722 111.883 460.85 111.552C460.989 111.211 461.117 110.763 461.234 110.208C461.352 109.653 461.453 108.976 461.538 108.176C461.634 107.365 461.72 106.416 461.794 105.328H467.858V114ZM472.468 105.328V108.768H476.292V105.328H478.308V114H476.292V110.32H472.468V114H470.452V105.328H472.468ZM484.393 105.168C485.172 105.168 485.839 105.328 486.393 105.648C486.959 105.957 487.396 106.405 487.705 106.992C488.015 107.568 488.169 108.272 488.169 109.104V110.128H482.441C482.463 110.917 482.681 111.531 483.097 111.968C483.513 112.395 484.089 112.608 484.825 112.608C485.391 112.608 485.892 112.555 486.329 112.448C486.777 112.331 487.236 112.165 487.705 111.952V113.568C487.279 113.771 486.836 113.92 486.377 114.016C485.919 114.112 485.369 114.16 484.729 114.16C483.887 114.16 483.135 114 482.473 113.68C481.823 113.349 481.311 112.853 480.937 112.192C480.575 111.531 480.393 110.709 480.393 109.728C480.393 108.736 480.559 107.904 480.889 107.232C481.231 106.549 481.7 106.037 482.297 105.696C482.895 105.344 483.593 105.168 484.393 105.168ZM484.393 106.656C483.86 106.656 483.423 106.832 483.081 107.184C482.751 107.525 482.553 108.037 482.489 108.72H486.217C486.217 108.315 486.148 107.957 486.009 107.648C485.881 107.339 485.684 107.099 485.417 106.928C485.151 106.747 484.809 106.656 484.393 106.656ZM492.218 105.328V108.768H496.042V105.328H498.058V114H496.042V110.32H492.218V114H490.202V105.328H492.218ZM504.111 105.168C505.231 105.168 506.079 105.413 506.655 105.904C507.242 106.384 507.535 107.141 507.535 108.176V114H506.111L505.711 112.8H505.647C505.402 113.109 505.146 113.371 504.879 113.584C504.623 113.787 504.325 113.931 503.983 114.016C503.653 114.112 503.247 114.16 502.767 114.16C502.255 114.16 501.791 114.064 501.375 113.872C500.97 113.68 500.65 113.387 500.415 112.992C500.181 112.587 500.063 112.08 500.063 111.472C500.063 110.576 500.389 109.904 501.039 109.456C501.701 108.997 502.698 108.747 504.031 108.704L505.535 108.656V108.224C505.535 107.669 505.402 107.275 505.135 107.04C504.869 106.805 504.495 106.688 504.015 106.688C503.578 106.688 503.157 106.752 502.751 106.88C502.346 107.008 501.951 107.157 501.567 107.328L500.927 105.92C501.354 105.696 501.839 105.515 502.383 105.376C502.938 105.237 503.514 105.168 504.111 105.168ZM504.479 109.936C503.594 109.968 502.981 110.123 502.639 110.4C502.298 110.667 502.127 111.029 502.127 111.488C502.127 111.893 502.25 112.187 502.495 112.368C502.741 112.549 503.055 112.64 503.439 112.64C504.026 112.64 504.522 112.475 504.927 112.144C505.333 111.803 505.535 111.301 505.535 110.64V109.904L504.479 109.936Z" fill="#4370D6"/>
<defs>
<clipPath id="clip0_454_787">
<rect width="9" height="9" fill="white" transform="translate(57 37)"/>
</clipPath>
</defs>
</svg>
