<svg width="272" height="96" viewBox="0 0 272 96" fill="none" xmlns="http://www.w3.org/2000/svg">
<path d="M75 47C75 47.1278 74.9512 47.2558 74.8535 47.3535L69.8535 52.3535C69.6582 52.5488 69.3418 52.5488 69.1465 52.3535C68.9513 52.1581 68.9512 51.8417 69.1465 51.6465L73.793 47L69.1465 42.3535C68.9512 42.1581 68.9512 41.8417 69.1465 41.6465C69.3419 41.4512 69.6583 41.4511 69.8535 41.6465L74.8535 46.6465C74.9512 46.7441 75 46.8721 75 47Z" fill="#941919"/>
<path d="M91 47C91 47.1278 90.9512 47.2558 90.8535 47.3535L85.8535 52.3535C85.6582 52.5488 85.3418 52.5488 85.1465 52.3535C84.9513 52.1581 84.9512 51.8417 85.1465 51.6465L89.793 47L85.1465 42.3535C84.9512 42.1581 84.9512 41.8417 85.1465 41.6465C85.3419 41.4512 85.6583 41.4511 85.8535 41.6465L90.8535 46.6465C90.9512 46.7441 91 46.8721 91 47Z" fill="#941919"/>
<path d="M107 47C107 47.1278 106.951 47.2558 106.854 47.3535L101.854 52.3535C101.658 52.5488 101.342 52.5488 101.147 52.3535C100.951 52.1581 100.951 51.8417 101.147 51.6465L105.793 47L101.147 42.3535C100.951 42.1581 100.951 41.8417 101.147 41.6465C101.342 41.4512 101.658 41.4511 101.854 41.6465L106.854 46.6465C106.951 46.7441 107 46.8721 107 47Z" fill="#941919"/>
<g opacity="0.5">
<path d="M123 47C123 47.1278 122.951 47.2558 122.854 47.3535L117.854 52.3535C117.658 52.5488 117.342 52.5488 117.147 52.3535C116.951 52.1581 116.951 51.8417 117.147 51.6465L121.793 47L117.147 42.3535C116.951 42.1581 116.951 41.8417 117.147 41.6465C117.342 41.4512 117.658 41.4511 117.854 41.6465L122.854 46.6465C122.951 46.7441 123 46.8721 123 47Z" fill="#7B96AE"/>
</g>
<g opacity="0.55">
<path d="M139 47C139 47.1278 138.951 47.2558 138.854 47.3535L133.854 52.3535C133.658 52.5488 133.342 52.5488 133.147 52.3535C132.951 52.1581 132.951 51.8417 133.147 51.6465L137.793 47L133.147 42.3535C132.951 42.1581 132.951 41.8417 133.147 41.6465C133.342 41.4512 133.658 41.4511 133.854 41.6465L138.854 46.6465C138.951 46.7441 139 46.8721 139 47Z" fill="#7B96AE"/>
</g>
<g opacity="0.6">
<path d="M155 47C155 47.1278 154.951 47.2558 154.854 47.3535L149.854 52.3535C149.658 52.5488 149.342 52.5488 149.147 52.3535C148.951 52.1581 148.951 51.8417 149.147 51.6465L153.793 47L149.147 42.3535C148.951 42.1581 148.951 41.8417 149.147 41.6465C149.342 41.4512 149.658 41.4511 149.854 41.6465L154.854 46.6465C154.951 46.7441 155 46.8721 155 47Z" fill="#7B96AE"/>
</g>
<g opacity="0.7">
<path d="M171 47C171 47.1278 170.951 47.2558 170.854 47.3535L165.854 52.3535C165.658 52.5488 165.342 52.5488 165.147 52.3535C164.951 52.1581 164.951 51.8417 165.147 51.6465L169.793 47L165.147 42.3535C164.951 42.1581 164.951 41.8417 165.147 41.6465C165.342 41.4512 165.658 41.4511 165.854 41.6465L170.854 46.6465C170.951 46.7441 171 46.8721 171 47Z" fill="#4370D6"/>
</g>
<g opacity="0.9">
<path d="M187 47C187 47.1278 186.951 47.2558 186.854 47.3535L181.854 52.3535C181.658 52.5488 181.342 52.5488 181.147 52.3535C180.951 52.1581 180.951 51.8417 181.147 51.6465L185.793 47L181.147 42.3535C180.951 42.1581 180.951 41.8417 181.147 41.6465C181.342 41.4512 181.658 41.4511 181.854 41.6465L186.854 46.6465C186.951 46.7441 187 46.8721 187 47Z" fill="#4370D6"/>
</g>
<path d="M203 47C203 47.1278 202.951 47.2558 202.854 47.3535L197.854 52.3535C197.658 52.5488 197.342 52.5488 197.147 52.3535C196.951 52.1581 196.951 51.8417 197.147 51.6465L201.793 47L197.147 42.3535C196.951 42.1581 196.951 41.8417 197.147 41.6465C197.342 41.4512 197.658 41.4511 197.854 41.6465L202.854 46.6465C202.951 46.7441 203 46.8721 203 47Z" fill="#4370D6"/>
<circle cx="40.5" cy="24.5" r="23.5" stroke="#203B54" stroke-width="2"/>
<g clip-path="url(#clip0_457_824)">
<path d="M48.2894 14.6853H45.8829V13.6087C45.8829 13.2604 45.503 13.1021 45.1547 13.1021H43.2865C42.8432 11.8355 41.735 11.2022 40.4684 11.2022C39.2158 11.1552 38.0764 11.9232 37.6503 13.1021H35.8137C35.4654 13.1021 35.1171 13.2604 35.1171 13.6087V14.6853H32.7106C31.2845 14.7005 30.1178 15.8255 30.0508 17.2501V35.3937C30.0508 36.7869 31.3174 37.8001 32.7106 37.8001H48.2894C49.6826 37.8001 50.9492 36.7869 50.9492 35.3937V17.2501C50.8822 15.8255 49.7155 14.7005 48.2894 14.6853ZM36.3836 14.3687H38.1252C38.4292 14.3316 38.6734 14.1003 38.7268 13.7987C38.9144 12.9821 39.6308 12.3959 40.4684 12.3738C41.2982 12.399 42.0039 12.987 42.1782 13.7987C42.235 14.1107 42.4953 14.345 42.8115 14.3687H44.6164V16.9018H36.3836V14.3687ZM49.6826 35.3937C49.6826 36.0903 48.986 36.5336 48.2894 36.5336H32.7106C32.014 36.5336 31.3174 36.0903 31.3174 35.3937V17.2501C31.382 16.525 31.9827 15.9652 32.7106 15.9519H35.1171V17.5668C35.1505 17.9216 35.4578 18.187 35.8137 18.1684H45.1546C45.517 18.1883 45.834 17.9265 45.8829 17.5668V15.9519H48.2893C49.0172 15.9652 49.618 16.525 49.6826 17.2501V35.3937H49.6826Z" fill="#203B54"/>
<path d="M46.761 26.6001H34.2388C33.6374 26.6001 33.1499 26.9135 33.1499 27.3001C33.1499 27.6867 33.6374 28.0001 34.2388 28.0001H46.761C47.3624 28.0001 47.8499 27.6867 47.8499 27.3001C47.8499 26.9135 47.3624 26.6001 46.761 26.6001Z" fill="#203B54"/>
<path d="M46.761 21.7002H34.2388C33.6374 21.7002 33.1499 22.0136 33.1499 22.4002C33.1499 22.7868 33.6374 23.1002 34.2388 23.1002H46.761C47.3624 23.1002 47.8499 22.7868 47.8499 22.4002C47.8499 22.0136 47.3624 21.7002 46.761 21.7002Z" fill="#203B54"/>
<path d="M46.761 31.5H34.2388C33.6374 31.5 33.1499 31.8134 33.1499 32.2C33.1499 32.5866 33.6374 32.9 34.2388 32.9H46.761C47.3624 32.9 47.8499 32.5866 47.8499 32.2C47.8499 31.8134 47.3624 31.5 46.761 31.5Z" fill="#203B54"/>
<path d="M56.9001 29.0504C56.9001 32.3089 54.2586 34.9504 51.0001 34.9504C47.7416 34.9504 45.1001 32.3089 45.1001 29.0504C45.1001 25.7919 47.7416 23.1504 51.0001 23.1504C54.2586 23.1504 56.9001 25.7919 56.9001 29.0504Z" fill="#FAFBFC" stroke="#203B54" stroke-width="1.5"/>
<g clip-path="url(#clip1_457_824)">
<mask id="mask0_457_824" style="mask-type:luminance" maskUnits="userSpaceOnUse" x="47" y="25" width="8" height="8">
<path d="M47.8501 25.9002H54.1501V32.2002H47.8501V25.9002Z" fill="white"/>
</mask>
<g mask="url(#mask0_457_824)">
<path d="M53.8558 26.9775L53.0728 26.1945C52.929 26.0507 52.6946 26.0506 52.5509 26.1943L48.5586 30.1866L49.8637 31.4917L53.856 27.4994C53.9997 27.3557 53.9996 27.1213 53.8558 26.9775Z" stroke="#203B54" stroke-width="0.8" stroke-miterlimit="22.926" stroke-linecap="round" stroke-linejoin="round"/>
<path d="M48.0366 32.0137L48.5587 30.1865L49.8638 31.4916L48.0366 32.0137Z" stroke="#203B54" stroke-width="0.8" stroke-miterlimit="22.926" stroke-linecap="round" stroke-linejoin="round"/>
<path d="M53.3339 28.0215L52.0288 26.7164" stroke="#203B54" stroke-width="0.8" stroke-miterlimit="22.926" stroke-linecap="round" stroke-linejoin="round"/>
</g>
</g>
</g>
<path d="M23.1082 60.342C23.1082 61.0233 22.8842 61.5647 22.4362 61.966C21.9975 62.3673 21.4142 62.6193 20.6862 62.722V62.778C21.5542 62.8807 22.2122 63.142 22.6602 63.562C23.1175 63.9727 23.3462 64.5093 23.3462 65.172C23.3462 65.7507 23.1922 66.264 22.8842 66.712C22.5855 67.16 22.1328 67.51 21.5262 67.762C20.9195 68.014 20.1635 68.14 19.2582 68.14C18.6515 68.14 18.0868 68.098 17.5642 68.014C17.0508 67.93 16.5842 67.79 16.1642 67.594V66.264C16.4535 66.404 16.7662 66.5253 17.1022 66.628C17.4475 66.7213 17.7928 66.796 18.1382 66.852C18.4928 66.8987 18.8242 66.922 19.1322 66.922C20.0282 66.922 20.6955 66.768 21.1342 66.46C21.5728 66.1427 21.7922 65.6947 21.7922 65.116C21.7922 64.528 21.5168 64.1033 20.9662 63.842C20.4155 63.5713 19.6548 63.436 18.6842 63.436H17.3962V62.204H18.6002C19.3002 62.204 19.8695 62.1387 20.3082 62.008C20.7468 61.868 21.0688 61.672 21.2742 61.42C21.4795 61.168 21.5822 60.8693 21.5822 60.524C21.5822 60.0667 21.4048 59.7167 21.0502 59.474C20.6955 59.222 20.2195 59.096 19.6222 59.096C19.0342 59.096 18.5255 59.1753 18.0962 59.334C17.6668 59.4833 17.2562 59.684 16.8642 59.936L16.1642 58.914C16.4535 58.7087 16.7755 58.5313 17.1302 58.382C17.4848 58.2233 17.8768 58.0973 18.3062 58.004C18.7448 57.9107 19.2162 57.864 19.7202 57.864C20.4482 57.864 21.0642 57.9713 21.5682 58.186C22.0722 58.4007 22.4548 58.6947 22.7162 59.068C22.9775 59.432 23.1082 59.8567 23.1082 60.342ZM28.1544 60.314C29.1064 60.314 29.8157 60.524 30.2824 60.944C30.7491 61.3547 30.9824 62.0033 30.9824 62.89V68H29.9324L29.6384 66.95H29.5824C29.3677 67.2207 29.1437 67.4447 28.9104 67.622C28.6864 67.7993 28.4251 67.93 28.1264 68.014C27.8371 68.098 27.4824 68.14 27.0624 68.14C26.6144 68.14 26.2084 68.0607 25.8444 67.902C25.4897 67.734 25.2097 67.482 25.0044 67.146C24.7991 66.8007 24.6964 66.3713 24.6964 65.858C24.6964 65.0927 24.9857 64.5093 25.5644 64.108C26.1524 63.7067 27.0437 63.4873 28.2384 63.45L29.5264 63.408V62.988C29.5264 62.428 29.4004 62.036 29.1484 61.812C28.8964 61.588 28.5417 61.476 28.0844 61.476C27.6924 61.476 27.3191 61.532 26.9644 61.644C26.6097 61.756 26.2737 61.8913 25.9564 62.05L25.4804 60.972C25.8351 60.7853 26.2411 60.6313 26.6984 60.51C27.1651 60.3793 27.6504 60.314 28.1544 60.314ZM28.5044 64.402C27.6457 64.4393 27.0484 64.584 26.7124 64.836C26.3857 65.0787 26.2224 65.424 26.2224 65.872C26.2224 66.264 26.3391 66.5487 26.5724 66.726C26.8151 66.9033 27.1184 66.992 27.4824 66.992C28.0704 66.992 28.5557 66.8287 28.9384 66.502C29.3211 66.1753 29.5124 65.6853 29.5124 65.032V64.374L28.5044 64.402ZM39.2175 60.454V66.824H40.3235V70.646H38.9375V68H33.7295V70.646H32.3575V66.824H32.9595C33.3608 66.2453 33.6968 65.6107 33.9675 64.92C34.2381 64.2293 34.4435 63.506 34.5835 62.75C34.7328 61.9847 34.8215 61.2193 34.8495 60.454H39.2175ZM36.1375 61.602C36.0815 62.2087 35.9788 62.8293 35.8295 63.464C35.6895 64.0987 35.5075 64.7053 35.2835 65.284C35.0688 65.8627 34.8121 66.376 34.5135 66.824H37.7615V61.602H36.1375ZM44.67 60.314C45.622 60.314 46.3314 60.524 46.798 60.944C47.2647 61.3547 47.498 62.0033 47.498 62.89V68H46.448L46.154 66.95H46.098C45.8834 67.2207 45.6594 67.4447 45.426 67.622C45.202 67.7993 44.9407 67.93 44.642 68.014C44.3527 68.098 43.998 68.14 43.578 68.14C43.13 68.14 42.724 68.0607 42.36 67.902C42.0054 67.734 41.7254 67.482 41.52 67.146C41.3147 66.8007 41.212 66.3713 41.212 65.858C41.212 65.0927 41.5014 64.5093 42.08 64.108C42.668 63.7067 43.5594 63.4873 44.754 63.45L46.042 63.408V62.988C46.042 62.428 45.916 62.036 45.664 61.812C45.412 61.588 45.0574 61.476 44.6 61.476C44.208 61.476 43.8347 61.532 43.48 61.644C43.1254 61.756 42.7894 61.8913 42.472 62.05L41.996 60.972C42.3507 60.7853 42.7567 60.6313 43.214 60.51C43.6807 60.3793 44.166 60.314 44.67 60.314ZM45.02 64.402C44.1614 64.4393 43.564 64.584 43.228 64.836C42.9014 65.0787 42.738 65.424 42.738 65.872C42.738 66.264 42.8547 66.5487 43.088 66.726C43.3307 66.9033 43.634 66.992 43.998 66.992C44.586 66.992 45.0714 66.8287 45.454 66.502C45.8367 66.1753 46.028 65.6853 46.028 65.032V64.374L45.02 64.402ZM51.0851 63.212C51.0851 63.6133 51.1971 63.912 51.4211 64.108C51.6451 64.304 51.9624 64.402 52.3731 64.402C52.8211 64.402 53.2318 64.3413 53.6051 64.22C53.9784 64.0893 54.3564 63.9167 54.7391 63.702V60.454H56.2231V68H54.7391V64.738C54.3471 64.99 53.9458 65.1907 53.5351 65.34C53.1244 65.4893 52.6391 65.564 52.0791 65.564C51.3044 65.564 50.6978 65.3633 50.2591 64.962C49.8204 64.5513 49.6011 63.9913 49.6011 63.282V60.454H51.0851V63.212ZM61.4728 60.314C62.4248 60.314 63.1341 60.524 63.6008 60.944C64.0674 61.3547 64.3008 62.0033 64.3008 62.89V68H63.2508L62.9568 66.95H62.9008C62.6861 67.2207 62.4621 67.4447 62.2288 67.622C62.0048 67.7993 61.7434 67.93 61.4448 68.014C61.1554 68.098 60.8008 68.14 60.3808 68.14C59.9328 68.14 59.5268 68.0607 59.1628 67.902C58.8081 67.734 58.5281 67.482 58.3228 67.146C58.1174 66.8007 58.0148 66.3713 58.0148 65.858C58.0148 65.0927 58.3041 64.5093 58.8828 64.108C59.4708 63.7067 60.3621 63.4873 61.5568 63.45L62.8448 63.408V62.988C62.8448 62.428 62.7188 62.036 62.4668 61.812C62.2148 61.588 61.8601 61.476 61.4028 61.476C61.0108 61.476 60.6374 61.532 60.2828 61.644C59.9281 61.756 59.5921 61.8913 59.2748 62.05L58.7988 60.972C59.1534 60.7853 59.5594 60.6313 60.0168 60.51C60.4834 60.3793 60.9688 60.314 61.4728 60.314ZM61.8228 64.402C60.9641 64.4393 60.3668 64.584 60.0308 64.836C59.7041 65.0787 59.5408 65.424 59.5408 65.872C59.5408 66.264 59.6574 66.5487 59.8908 66.726C60.1334 66.9033 60.4368 66.992 60.8008 66.992C61.3888 66.992 61.8741 66.8287 62.2568 66.502C62.6394 66.1753 62.8308 65.6853 62.8308 65.032V64.374L61.8228 64.402ZM7.69674 79.454V87H6.21274V80.658H2.65674V87H1.17274V79.454H7.69674ZM16.6684 83.22C16.6684 83.8453 16.5844 84.4007 16.4164 84.886C16.2484 85.3713 16.0104 85.782 15.7024 86.118C15.3944 86.454 15.0211 86.7107 14.5824 86.888C14.1438 87.056 13.6491 87.14 13.0984 87.14C12.5944 87.14 12.1278 87.056 11.6984 86.888C11.2691 86.7107 10.8958 86.454 10.5784 86.118C10.2704 85.782 10.0278 85.3713 9.85045 84.886C9.67311 84.4007 9.58445 83.8407 9.58445 83.206C9.58445 82.3753 9.72445 81.6707 10.0044 81.092C10.2938 80.5133 10.7044 80.0747 11.2364 79.776C11.7778 79.468 12.4124 79.314 13.1404 79.314C13.8311 79.314 14.4378 79.468 14.9604 79.776C15.4924 80.0747 15.9078 80.5133 16.2064 81.092C16.5144 81.6707 16.6684 82.38 16.6684 83.22ZM11.1104 83.22C11.1104 83.78 11.1804 84.2653 11.3204 84.676C11.4604 85.0773 11.6798 85.3853 11.9784 85.6C12.2771 85.8147 12.6598 85.922 13.1264 85.922C13.5931 85.922 13.9758 85.8147 14.2744 85.6C14.5731 85.3853 14.7924 85.0773 14.9324 84.676C15.0724 84.2653 15.1424 83.78 15.1424 83.22C15.1424 82.6413 15.0678 82.156 14.9184 81.764C14.7784 81.372 14.5591 81.0733 14.2604 80.868C13.9711 80.6533 13.5884 80.546 13.1124 80.546C12.4124 80.546 11.9038 80.7793 11.5864 81.246C11.2691 81.7127 11.1104 82.3707 11.1104 83.22ZM21.5877 87.14C20.897 87.14 20.2904 87.0047 19.7677 86.734C19.245 86.4633 18.839 86.0433 18.5497 85.474C18.2604 84.8953 18.1157 84.1627 18.1157 83.276C18.1157 82.3427 18.2697 81.5867 18.5777 81.008C18.895 80.4293 19.3197 80.0047 19.8517 79.734C20.393 79.454 21.009 79.314 21.6997 79.314C22.1197 79.314 22.5117 79.3607 22.8757 79.454C23.249 79.538 23.557 79.636 23.7997 79.748L23.3517 80.952C23.0904 80.8493 22.8104 80.7607 22.5117 80.686C22.2224 80.6113 21.947 80.574 21.6857 80.574C21.219 80.574 20.8317 80.6767 20.5237 80.882C20.225 81.078 20.001 81.3767 19.8517 81.778C19.7117 82.17 19.6417 82.6647 19.6417 83.262C19.6417 83.8313 19.7164 84.312 19.8657 84.704C20.015 85.096 20.2344 85.3947 20.5237 85.6C20.8224 85.796 21.191 85.894 21.6297 85.894C22.0497 85.894 22.4184 85.8473 22.7357 85.754C23.053 85.6607 23.3517 85.5393 23.6317 85.39V86.678C23.361 86.8367 23.067 86.9533 22.7497 87.028C22.4324 87.1027 22.045 87.14 21.5877 87.14ZM30.929 80.644H28.465V87H26.995V80.644H24.545V79.454H30.929V80.644ZM35.3253 79.314C36.2773 79.314 36.9866 79.524 37.4533 79.944C37.92 80.3547 38.1533 81.0033 38.1533 81.89V87H37.1033L36.8093 85.95H36.7533C36.5386 86.2207 36.3146 86.4447 36.0813 86.622C35.8573 86.7993 35.596 86.93 35.2973 87.014C35.008 87.098 34.6533 87.14 34.2333 87.14C33.7853 87.14 33.3793 87.0607 33.0153 86.902C32.6606 86.734 32.3806 86.482 32.1753 86.146C31.97 85.8007 31.8673 85.3713 31.8673 84.858C31.8673 84.0927 32.1566 83.5093 32.7353 83.108C33.3233 82.7067 34.2146 82.4873 35.4093 82.45L36.6973 82.408V81.988C36.6973 81.428 36.5713 81.036 36.3193 80.812C36.0673 80.588 35.7126 80.476 35.2553 80.476C34.8633 80.476 34.49 80.532 34.1353 80.644C33.7806 80.756 33.4446 80.8913 33.1273 81.05L32.6513 79.972C33.006 79.7853 33.412 79.6313 33.8693 79.51C34.336 79.3793 34.8213 79.314 35.3253 79.314ZM35.6753 83.402C34.8166 83.4393 34.2193 83.584 33.8833 83.836C33.5566 84.0787 33.3933 84.424 33.3933 84.872C33.3933 85.264 33.51 85.5487 33.7433 85.726C33.986 85.9033 34.2893 85.992 34.6533 85.992C35.2413 85.992 35.7266 85.8287 36.1093 85.502C36.492 85.1753 36.6833 84.6853 36.6833 84.032V83.374L35.6753 83.402ZM46.6964 81.372C46.6964 81.8293 46.5564 82.1933 46.2764 82.464C46.0057 82.7253 45.6417 82.9027 45.1844 82.996V83.052C45.6697 83.1173 46.0804 83.29 46.4164 83.57C46.7617 83.8407 46.9344 84.242 46.9344 84.774C46.9344 85.1007 46.8737 85.3993 46.7524 85.67C46.631 85.9407 46.4444 86.1787 46.1924 86.384C45.9404 86.58 45.6137 86.734 45.2124 86.846C44.8204 86.9487 44.3444 87 43.7844 87H40.4384V79.454H43.7844C44.335 79.454 44.8297 79.5147 45.2684 79.636C45.707 79.7573 46.0524 79.958 46.3044 80.238C46.5657 80.518 46.6964 80.896 46.6964 81.372ZM45.3944 84.746C45.3944 84.354 45.245 84.074 44.9464 83.906C44.6477 83.7287 44.2044 83.64 43.6164 83.64H41.9224V85.88H43.6444C44.195 85.88 44.6244 85.796 44.9324 85.628C45.2404 85.4507 45.3944 85.1567 45.3944 84.746ZM45.1844 81.54C45.1844 81.2133 45.0677 80.9753 44.8344 80.826C44.601 80.6767 44.223 80.602 43.7004 80.602H41.9224V82.506H43.4764C44.0364 82.506 44.461 82.4313 44.7504 82.282C45.0397 82.1233 45.1844 81.876 45.1844 81.54ZM54.7715 87H53.2735V80.644H51.1455C51.0522 81.8013 50.9355 82.7953 50.7955 83.626C50.6649 84.4473 50.4922 85.1147 50.2775 85.628C50.0722 86.1413 49.8155 86.5193 49.5075 86.762C49.2089 86.9953 48.8495 87.112 48.4295 87.112C48.2802 87.112 48.1355 87.098 47.9955 87.07C47.8555 87.0513 47.7342 87.0187 47.6315 86.972V85.838C47.6969 85.8567 47.7669 85.8753 47.8415 85.894C47.9255 85.9033 48.0095 85.908 48.0935 85.908C48.2802 85.908 48.4482 85.8333 48.5975 85.684C48.7562 85.5347 48.8962 85.3013 49.0175 84.984C49.1482 84.6667 49.2649 84.256 49.3675 83.752C49.4795 83.2387 49.5729 82.6273 49.6475 81.918C49.7315 81.2087 49.8062 80.3873 49.8715 79.454H54.7715V87ZM60.0587 79.314C60.7214 79.314 61.2907 79.454 61.7667 79.734C62.2427 80.0047 62.6067 80.3967 62.8587 80.91C63.12 81.4233 63.2507 82.03 63.2507 82.73V83.542H58.1827C58.2014 84.3167 58.402 84.9093 58.7847 85.32C59.1767 85.7307 59.7227 85.936 60.4227 85.936C60.908 85.936 61.3374 85.894 61.7107 85.81C62.0934 85.7167 62.4854 85.5813 62.8867 85.404V86.636C62.5134 86.804 62.1307 86.93 61.7387 87.014C61.356 87.098 60.8987 87.14 60.3667 87.14C59.6387 87.14 58.9947 86.9953 58.4347 86.706C57.8747 86.4167 57.436 85.9873 57.1187 85.418C56.8107 84.8393 56.6567 84.13 56.6567 83.29C56.6567 82.4407 56.7967 81.722 57.0767 81.134C57.366 80.546 57.7627 80.098 58.2667 79.79C58.78 79.4727 59.3774 79.314 60.0587 79.314ZM60.0587 80.462C59.5267 80.462 59.0974 80.6347 58.7707 80.98C58.4534 81.3253 58.2667 81.8153 58.2107 82.45H61.7667C61.7667 82.058 61.706 81.7127 61.5847 81.414C61.4634 81.1153 61.2767 80.882 61.0247 80.714C60.7727 80.546 60.4507 80.462 60.0587 80.462ZM66.5864 79.454V82.52H70.3104V79.454H71.7944V87H70.3104V83.71H66.5864V87H65.1024V79.454H66.5864ZM77.0382 79.314C77.9902 79.314 78.6995 79.524 79.1662 79.944C79.6329 80.3547 79.8662 81.0033 79.8662 81.89V87H78.8162L78.5222 85.95H78.4662C78.2515 86.2207 78.0275 86.4447 77.7942 86.622C77.5702 86.7993 77.3089 86.93 77.0102 87.014C76.7209 87.098 76.3662 87.14 75.9462 87.14C75.4982 87.14 75.0922 87.0607 74.7282 86.902C74.3735 86.734 74.0935 86.482 73.8882 86.146C73.6829 85.8007 73.5802 85.3713 73.5802 84.858C73.5802 84.0927 73.8695 83.5093 74.4482 83.108C75.0362 82.7067 75.9275 82.4873 77.1222 82.45L78.4102 82.408V81.988C78.4102 81.428 78.2842 81.036 78.0322 80.812C77.7802 80.588 77.4255 80.476 76.9682 80.476C76.5762 80.476 76.2029 80.532 75.8482 80.644C75.4935 80.756 75.1575 80.8913 74.8402 81.05L74.3642 79.972C74.7189 79.7853 75.1249 79.6313 75.5822 79.51C76.0489 79.3793 76.5342 79.314 77.0382 79.314ZM77.3882 83.402C76.5295 83.4393 75.9322 83.584 75.5962 83.836C75.2695 84.0787 75.1062 84.424 75.1062 84.872C75.1062 85.264 75.2229 85.5487 75.4562 85.726C75.6989 85.9033 76.0022 85.992 76.3662 85.992C76.9542 85.992 77.4395 85.8287 77.8222 85.502C78.2049 85.1753 78.3962 84.6853 78.3962 84.032V83.374L77.3882 83.402Z" fill="#203B54"/>
<circle cx="232.5" cy="24.5" r="23.5" stroke="#4370D6" stroke-width="2"/>
<g clip-path="url(#clip2_457_824)">
<path d="M240.289 14.6853H237.883V13.6087C237.883 13.2604 237.503 13.1021 237.155 13.1021H235.287C234.843 11.8355 233.735 11.2022 232.468 11.2022C231.216 11.1552 230.076 11.9232 229.65 13.1021H227.814C227.465 13.1021 227.117 13.2604 227.117 13.6087V14.6853H224.711C223.285 14.7005 222.118 15.8255 222.051 17.2501V35.3937C222.051 36.7869 223.317 37.8001 224.711 37.8001H240.289C241.683 37.8001 242.949 36.7869 242.949 35.3937V17.2501C242.882 15.8255 241.715 14.7005 240.289 14.6853ZM228.384 14.3687H230.125C230.429 14.3316 230.673 14.1003 230.727 13.7987C230.914 12.9821 231.631 12.3959 232.468 12.3738C233.298 12.399 234.004 12.987 234.178 13.7987C234.235 14.1107 234.495 14.345 234.812 14.3687H236.616V16.9018H228.384V14.3687ZM241.683 35.3937C241.683 36.0903 240.986 36.5336 240.289 36.5336H224.711C224.014 36.5336 223.317 36.0903 223.317 35.3937V17.2501C223.382 16.525 223.983 15.9652 224.711 15.9519H227.117V17.5668C227.151 17.9216 227.458 18.187 227.814 18.1684H237.155C237.517 18.1883 237.834 17.9265 237.883 17.5668V15.9519H240.289C241.017 15.9652 241.618 16.525 241.683 17.2501V35.3937H241.683Z" fill="#4370D6"/>
<path d="M238.761 26.6001H226.239C225.637 26.6001 225.15 26.9135 225.15 27.3001C225.15 27.6867 225.637 28.0001 226.239 28.0001H238.761C239.362 28.0001 239.85 27.6867 239.85 27.3001C239.85 26.9135 239.362 26.6001 238.761 26.6001Z" fill="#4370D6"/>
<path d="M238.761 21.7002H226.239C225.637 21.7002 225.15 22.0136 225.15 22.4002C225.15 22.7868 225.637 23.1002 226.239 23.1002H238.761C239.362 23.1002 239.85 22.7868 239.85 22.4002C239.85 22.0136 239.362 21.7002 238.761 21.7002Z" fill="#4370D6"/>
<path d="M238.761 31.5H226.239C225.637 31.5 225.15 31.8134 225.15 32.2C225.15 32.5866 225.637 32.9 226.239 32.9H238.761C239.362 32.9 239.85 32.5866 239.85 32.2C239.85 31.8134 239.362 31.5 238.761 31.5Z" fill="#4370D6"/>
<path d="M248.9 29.0504C248.9 32.3089 246.259 34.9504 243 34.9504C239.742 34.9504 237.1 32.3089 237.1 29.0504C237.1 25.7919 239.742 23.1504 243 23.1504C246.259 23.1504 248.9 25.7919 248.9 29.0504Z" fill="#FAFBFC" stroke="#4370D6" stroke-width="1.5"/>
<path d="M245.389 27.4977C245.151 27.2473 244.757 27.2333 244.502 27.4661L242.476 29.3976L241.621 28.5109C241.383 28.2606 240.989 28.2465 240.734 28.4793C240.489 28.7363 240.489 29.1406 240.734 29.3976L242.032 30.7275C242.145 30.8533 242.307 30.9229 242.475 30.9175C242.643 30.9151 242.802 30.8468 242.919 30.7275L245.389 28.3843C245.633 28.1597 245.65 27.7791 245.425 27.5343C245.414 27.5216 245.401 27.5094 245.389 27.4977Z" fill="#4370D6"/>
</g>
<path d="M214.608 65.342C214.608 66.0233 214.384 66.5647 213.936 66.966C213.498 67.3673 212.914 67.6193 212.186 67.722V67.778C213.054 67.8807 213.712 68.142 214.16 68.562C214.618 68.9727 214.846 69.5093 214.846 70.172C214.846 70.7507 214.692 71.264 214.384 71.712C214.086 72.16 213.633 72.51 213.026 72.762C212.42 73.014 211.664 73.14 210.758 73.14C210.152 73.14 209.587 73.098 209.064 73.014C208.551 72.93 208.084 72.79 207.664 72.594V71.264C207.954 71.404 208.266 71.5253 208.602 71.628C208.948 71.7213 209.293 71.796 209.638 71.852C209.993 71.8987 210.324 71.922 210.632 71.922C211.528 71.922 212.196 71.768 212.634 71.46C213.073 71.1427 213.292 70.6947 213.292 70.116C213.292 69.528 213.017 69.1033 212.466 68.842C211.916 68.5713 211.155 68.436 210.184 68.436H208.896V67.204H210.1C210.8 67.204 211.37 67.1387 211.808 67.008C212.247 66.868 212.569 66.672 212.774 66.42C212.98 66.168 213.082 65.8693 213.082 65.524C213.082 65.0667 212.905 64.7167 212.55 64.474C212.196 64.222 211.72 64.096 211.122 64.096C210.534 64.096 210.026 64.1753 209.596 64.334C209.167 64.4833 208.756 64.684 208.364 64.936L207.664 63.914C207.954 63.7087 208.276 63.5313 208.63 63.382C208.985 63.2233 209.377 63.0973 209.806 63.004C210.245 62.9107 210.716 62.864 211.22 62.864C211.948 62.864 212.564 62.9713 213.068 63.186C213.572 63.4007 213.955 63.6947 214.216 64.068C214.478 64.432 214.608 64.8567 214.608 65.342ZM219.654 65.314C220.606 65.314 221.316 65.524 221.782 65.944C222.249 66.3547 222.482 67.0033 222.482 67.89V73H221.432L221.138 71.95H221.082C220.868 72.2207 220.644 72.4447 220.41 72.622C220.186 72.7993 219.925 72.93 219.626 73.014C219.337 73.098 218.982 73.14 218.562 73.14C218.114 73.14 217.708 73.0607 217.344 72.902C216.99 72.734 216.71 72.482 216.504 72.146C216.299 71.8007 216.196 71.3713 216.196 70.858C216.196 70.0927 216.486 69.5093 217.064 69.108C217.652 68.7067 218.544 68.4873 219.738 68.45L221.026 68.408V67.988C221.026 67.428 220.9 67.036 220.648 66.812C220.396 66.588 220.042 66.476 219.584 66.476C219.192 66.476 218.819 66.532 218.464 66.644C218.11 66.756 217.774 66.8913 217.456 67.05L216.98 65.972C217.335 65.7853 217.741 65.6313 218.198 65.51C218.665 65.3793 219.15 65.314 219.654 65.314ZM220.004 69.402C219.146 69.4393 218.548 69.584 218.212 69.836C217.886 70.0787 217.722 70.424 217.722 70.872C217.722 71.264 217.839 71.5487 218.072 71.726C218.315 71.9033 218.618 71.992 218.982 71.992C219.57 71.992 220.056 71.8287 220.438 71.502C220.821 71.1753 221.012 70.6853 221.012 70.032V69.374L220.004 69.402ZM230.717 65.454V71.824H231.823V75.646H230.437V73H225.229V75.646H223.857V71.824H224.459C224.861 71.2453 225.197 70.6107 225.467 69.92C225.738 69.2293 225.943 68.506 226.083 67.75C226.233 66.9847 226.321 66.2193 226.349 65.454H230.717ZM227.637 66.602C227.581 67.2087 227.479 67.8293 227.329 68.464C227.189 69.0987 227.007 69.7053 226.783 70.284C226.569 70.8627 226.312 71.376 226.013 71.824H229.261V66.602H227.637ZM236.17 65.314C237.122 65.314 237.831 65.524 238.298 65.944C238.765 66.3547 238.998 67.0033 238.998 67.89V73H237.948L237.654 71.95H237.598C237.383 72.2207 237.159 72.4447 236.926 72.622C236.702 72.7993 236.441 72.93 236.142 73.014C235.853 73.098 235.498 73.14 235.078 73.14C234.63 73.14 234.224 73.0607 233.86 72.902C233.505 72.734 233.225 72.482 233.02 72.146C232.815 71.8007 232.712 71.3713 232.712 70.858C232.712 70.0927 233.001 69.5093 233.58 69.108C234.168 68.7067 235.059 68.4873 236.254 68.45L237.542 68.408V67.988C237.542 67.428 237.416 67.036 237.164 66.812C236.912 66.588 236.557 66.476 236.1 66.476C235.708 66.476 235.335 66.532 234.98 66.644C234.625 66.756 234.289 66.8913 233.972 67.05L233.496 65.972C233.851 65.7853 234.257 65.6313 234.714 65.51C235.181 65.3793 235.666 65.314 236.17 65.314ZM236.52 69.402C235.661 69.4393 235.064 69.584 234.728 69.836C234.401 70.0787 234.238 70.424 234.238 70.872C234.238 71.264 234.355 71.5487 234.588 71.726C234.831 71.9033 235.134 71.992 235.498 71.992C236.086 71.992 236.571 71.8287 236.954 71.502C237.337 71.1753 237.528 70.6853 237.528 70.032V69.374L236.52 69.402ZM242.585 68.212C242.585 68.6133 242.697 68.912 242.921 69.108C243.145 69.304 243.462 69.402 243.873 69.402C244.321 69.402 244.732 69.3413 245.105 69.22C245.478 69.0893 245.856 68.9167 246.239 68.702V65.454H247.723V73H246.239V69.738C245.847 69.99 245.446 70.1907 245.035 70.34C244.624 70.4893 244.139 70.564 243.579 70.564C242.804 70.564 242.198 70.3633 241.759 69.962C241.32 69.5513 241.101 68.9913 241.101 68.282V65.454H242.585V68.212ZM252.973 65.314C253.925 65.314 254.634 65.524 255.101 65.944C255.567 66.3547 255.801 67.0033 255.801 67.89V73H254.751L254.457 71.95H254.401C254.186 72.2207 253.962 72.4447 253.729 72.622C253.505 72.7993 253.243 72.93 252.945 73.014C252.655 73.098 252.301 73.14 251.881 73.14C251.433 73.14 251.027 73.0607 250.663 72.902C250.308 72.734 250.028 72.482 249.823 72.146C249.617 71.8007 249.515 71.3713 249.515 70.858C249.515 70.0927 249.804 69.5093 250.383 69.108C250.971 68.7067 251.862 68.4873 253.057 68.45L254.345 68.408V67.988C254.345 67.428 254.219 67.036 253.967 66.812C253.715 66.588 253.36 66.476 252.903 66.476C252.511 66.476 252.137 66.532 251.783 66.644C251.428 66.756 251.092 66.8913 250.775 67.05L250.299 65.972C250.653 65.7853 251.059 65.6313 251.517 65.51C251.983 65.3793 252.469 65.314 252.973 65.314ZM253.323 69.402C252.464 69.4393 251.867 69.584 251.531 69.836C251.204 70.0787 251.041 70.424 251.041 70.872C251.041 71.264 251.157 71.5487 251.391 71.726C251.633 71.9033 251.937 71.992 252.301 71.992C252.889 71.992 253.374 71.8287 253.757 71.502C254.139 71.1753 254.331 70.6853 254.331 70.032V69.374L253.323 69.402ZM199.778 86.372C199.778 86.8293 199.638 87.1933 199.358 87.464C199.088 87.7253 198.724 87.9027 198.266 87.996V88.052C198.752 88.1173 199.162 88.29 199.498 88.57C199.844 88.8407 200.016 89.242 200.016 89.774C200.016 90.1007 199.956 90.3993 199.834 90.67C199.713 90.9407 199.526 91.1787 199.274 91.384C199.022 91.58 198.696 91.734 198.294 91.846C197.902 91.9487 197.426 92 196.866 92H193.52V84.454H196.866C197.417 84.454 197.912 84.5147 198.35 84.636C198.789 84.7573 199.134 84.958 199.386 85.238C199.648 85.518 199.778 85.896 199.778 86.372ZM198.476 89.746C198.476 89.354 198.327 89.074 198.028 88.906C197.73 88.7287 197.286 88.64 196.698 88.64H195.004V90.88H196.726C197.277 90.88 197.706 90.796 198.014 90.628C198.322 90.4507 198.476 90.1567 198.476 89.746ZM198.266 86.54C198.266 86.2133 198.15 85.9753 197.916 85.826C197.683 85.6767 197.305 85.602 196.782 85.602H195.004V87.506H196.558C197.118 87.506 197.543 87.4313 197.832 87.282C198.122 87.1233 198.266 86.876 198.266 86.54ZM201.806 92V84.454H203.29V87.492H204.956C205.646 87.492 206.216 87.576 206.664 87.744C207.112 87.9027 207.443 88.1407 207.658 88.458C207.872 88.7753 207.98 89.1767 207.98 89.662C207.98 90.138 207.872 90.5533 207.658 90.908C207.452 91.2533 207.126 91.524 206.678 91.72C206.239 91.9067 205.66 92 204.942 92H201.806ZM204.83 90.88C205.324 90.88 205.726 90.796 206.034 90.628C206.351 90.4507 206.51 90.1473 206.51 89.718C206.51 89.3073 206.365 89.0273 206.076 88.878C205.786 88.7193 205.371 88.64 204.83 88.64H203.29V90.88H204.83ZM209.184 92V84.454H210.668V92H209.184ZM219.513 84.454V92H218.029V85.658H214.473V92H212.989V84.454H219.513ZM228.485 88.22C228.485 88.8453 228.401 89.4007 228.233 89.886C228.065 90.3713 227.827 90.782 227.519 91.118C227.211 91.454 226.838 91.7107 226.399 91.888C225.96 92.056 225.466 92.14 224.915 92.14C224.411 92.14 223.944 92.056 223.515 91.888C223.086 91.7107 222.712 91.454 222.395 91.118C222.087 90.782 221.844 90.3713 221.667 89.886C221.49 89.4007 221.401 88.8407 221.401 88.206C221.401 87.3753 221.541 86.6707 221.821 86.092C222.11 85.5133 222.521 85.0747 223.053 84.776C223.594 84.468 224.229 84.314 224.957 84.314C225.648 84.314 226.254 84.468 226.777 84.776C227.309 85.0747 227.724 85.5133 228.023 86.092C228.331 86.6707 228.485 87.38 228.485 88.22ZM222.927 88.22C222.927 88.78 222.997 89.2653 223.137 89.676C223.277 90.0773 223.496 90.3853 223.795 90.6C224.094 90.8147 224.476 90.922 224.943 90.922C225.41 90.922 225.792 90.8147 226.091 90.6C226.39 90.3853 226.609 90.0773 226.749 89.676C226.889 89.2653 226.959 88.78 226.959 88.22C226.959 87.6413 226.884 87.156 226.735 86.764C226.595 86.372 226.376 86.0733 226.077 85.868C225.788 85.6533 225.405 85.546 224.929 85.546C224.229 85.546 223.72 85.7793 223.403 86.246C223.086 86.7127 222.927 87.3707 222.927 88.22ZM236.414 92H234.916V85.644H232.788C232.695 86.8013 232.578 87.7953 232.438 88.626C232.307 89.4473 232.135 90.1147 231.92 90.628C231.715 91.1413 231.458 91.5193 231.15 91.762C230.851 91.9953 230.492 92.112 230.072 92.112C229.923 92.112 229.778 92.098 229.638 92.07C229.498 92.0513 229.377 92.0187 229.274 91.972V90.838C229.339 90.8567 229.409 90.8753 229.484 90.894C229.568 90.9033 229.652 90.908 229.736 90.908C229.923 90.908 230.091 90.8333 230.24 90.684C230.399 90.5347 230.539 90.3013 230.66 89.984C230.791 89.6667 230.907 89.256 231.01 88.752C231.122 88.2387 231.215 87.6273 231.29 86.918C231.374 86.2087 231.449 85.3873 231.514 84.454H236.414V92ZM240.217 84.454V87.52H243.941V84.454H245.425V92H243.941V88.71H240.217V92H238.733V84.454H240.217ZM250.711 84.314C251.374 84.314 251.943 84.454 252.419 84.734C252.895 85.0047 253.259 85.3967 253.511 85.91C253.772 86.4233 253.903 87.03 253.903 87.73V88.542H248.835C248.854 89.3167 249.054 89.9093 249.437 90.32C249.829 90.7307 250.375 90.936 251.075 90.936C251.56 90.936 251.99 90.894 252.363 90.81C252.746 90.7167 253.138 90.5813 253.539 90.404V91.636C253.166 91.804 252.783 91.93 252.391 92.014C252.008 92.098 251.551 92.14 251.019 92.14C250.291 92.14 249.647 91.9953 249.087 91.706C248.527 91.4167 248.088 90.9873 247.771 90.418C247.463 89.8393 247.309 89.13 247.309 88.29C247.309 87.4407 247.449 86.722 247.729 86.134C248.018 85.546 248.415 85.098 248.919 84.79C249.432 84.4727 250.03 84.314 250.711 84.314ZM250.711 85.462C250.179 85.462 249.75 85.6347 249.423 85.98C249.106 86.3253 248.919 86.8153 248.863 87.45H252.419C252.419 87.058 252.358 86.7127 252.237 86.414C252.116 86.1153 251.929 85.882 251.677 85.714C251.425 85.546 251.103 85.462 250.711 85.462ZM257.239 84.454V87.52H260.963V84.454H262.447V92H260.963V88.71H257.239V92H255.755V84.454H257.239ZM267.691 84.314C268.643 84.314 269.352 84.524 269.819 84.944C270.285 85.3547 270.519 86.0033 270.519 86.89V92H269.469L269.175 90.95H269.119C268.904 91.2207 268.68 91.4447 268.447 91.622C268.223 91.7993 267.961 91.93 267.663 92.014C267.373 92.098 267.019 92.14 266.599 92.14C266.151 92.14 265.745 92.0607 265.381 91.902C265.026 91.734 264.746 91.482 264.541 91.146C264.335 90.8007 264.233 90.3713 264.233 89.858C264.233 89.0927 264.522 88.5093 265.101 88.108C265.689 87.7067 266.58 87.4873 267.775 87.45L269.063 87.408V86.988C269.063 86.428 268.937 86.036 268.685 85.812C268.433 85.588 268.078 85.476 267.621 85.476C267.229 85.476 266.855 85.532 266.501 85.644C266.146 85.756 265.81 85.8913 265.493 86.05L265.017 84.972C265.371 84.7853 265.777 84.6313 266.235 84.51C266.701 84.3793 267.187 84.314 267.691 84.314ZM268.041 88.402C267.182 88.4393 266.585 88.584 266.249 88.836C265.922 89.0787 265.759 89.424 265.759 89.872C265.759 90.264 265.875 90.5487 266.109 90.726C266.351 90.9033 266.655 90.992 267.019 90.992C267.607 90.992 268.092 90.8287 268.475 90.502C268.857 90.1753 269.049 89.6853 269.049 89.032V88.374L268.041 88.402Z" fill="#4370D6"/>
<path d="M74.19 9.53C74.19 10.0167 74.0367 10.4033 73.73 10.69C73.4233 10.97 73.0133 11.15 72.5 11.23V11.27C73.1 11.35 73.5567 11.54 73.87 11.84C74.1833 12.1333 74.34 12.5133 74.34 12.98C74.34 13.6067 74.1 14.1167 73.62 14.51C73.14 14.9033 72.42 15.1 71.46 15.1C71.0733 15.1 70.7033 15.07 70.35 15.01C70.0033 14.9567 69.68 14.8567 69.38 14.71V13.89C69.6867 14.0433 70.0267 14.16 70.4 14.24C70.7733 14.32 71.1233 14.36 71.45 14.36C72.09 14.36 72.5733 14.24 72.9 14C73.2333 13.76 73.4 13.42 73.4 12.98C73.4 12.5267 73.2067 12.1967 72.82 11.99C72.4333 11.7833 71.8933 11.68 71.2 11.68H70.18V10.93H71.15C71.8567 10.93 72.3833 10.8133 72.73 10.58C73.0833 10.34 73.26 10.02 73.26 9.62C73.26 9.26 73.1267 8.98333 72.86 8.79C72.5933 8.59667 72.2467 8.5 71.82 8.5C71.3667 8.5 70.9933 8.55667 70.7 8.67C70.4067 8.78333 70.12 8.93 69.84 9.11L69.41 8.5C69.69 8.29333 70.0333 8.12 70.44 7.98C70.8533 7.83333 71.3167 7.76 71.83 7.76C72.5967 7.76 73.18 7.92667 73.58 8.26C73.9867 8.59333 74.19 9.01667 74.19 9.53ZM77.7589 9.55C78.4122 9.55 78.8956 9.69333 79.2089 9.98C79.5222 10.2667 79.6789 10.7233 79.6789 11.35V15H79.0389L78.8689 14.24H78.8289C78.5956 14.5333 78.3489 14.75 78.0889 14.89C77.8289 15.03 77.4756 15.1 77.0289 15.1C76.5422 15.1 76.1389 14.9733 75.8189 14.72C75.4989 14.46 75.3389 14.0567 75.3389 13.51C75.3389 12.9767 75.5489 12.5667 75.9689 12.28C76.3889 11.9867 77.0356 11.8267 77.9089 11.8L78.8189 11.77V11.45C78.8189 11.0033 78.7222 10.6933 78.5289 10.52C78.3356 10.3467 78.0622 10.26 77.7089 10.26C77.4289 10.26 77.1622 10.3033 76.9089 10.39C76.6556 10.47 76.4189 10.5633 76.1989 10.67L75.9289 10.01C76.1622 9.88333 76.4389 9.77667 76.7589 9.69C77.0789 9.59667 77.4122 9.55 77.7589 9.55ZM78.8089 12.38L78.0189 12.41C77.3522 12.4367 76.8889 12.5433 76.6289 12.73C76.3756 12.9167 76.2489 13.18 76.2489 13.52C76.2489 13.82 76.3389 14.04 76.5189 14.18C76.7056 14.32 76.9422 14.39 77.2289 14.39C77.6756 14.39 78.0489 14.2667 78.3489 14.02C78.6556 13.7667 78.8089 13.38 78.8089 12.86V12.38ZM85.3144 9.64V14.26H86.0944V16.86H85.2444V15H81.5144V16.86H80.6744V14.26H81.1044C81.5644 13.6267 81.9077 12.9067 82.1344 12.1C82.3677 11.2867 82.4877 10.4667 82.4944 9.64H85.3144ZM84.4644 10.33H83.2744C83.241 10.7833 83.1677 11.2533 83.0544 11.74C82.9477 12.22 82.8044 12.68 82.6244 13.12C82.451 13.56 82.2477 13.94 82.0144 14.26H84.4644V10.33ZM89.1749 9.55C89.8283 9.55 90.3116 9.69333 90.6249 9.98C90.9383 10.2667 91.0949 10.7233 91.0949 11.35V15H90.4549L90.2849 14.24H90.2449C90.0116 14.5333 89.7649 14.75 89.5049 14.89C89.2449 15.03 88.8916 15.1 88.4449 15.1C87.9583 15.1 87.5549 14.9733 87.2349 14.72C86.9149 14.46 86.7549 14.0567 86.7549 13.51C86.7549 12.9767 86.9649 12.5667 87.3849 12.28C87.8049 11.9867 88.4516 11.8267 89.3249 11.8L90.2349 11.77V11.45C90.2349 11.0033 90.1383 10.6933 89.9449 10.52C89.7516 10.3467 89.4783 10.26 89.1249 10.26C88.8449 10.26 88.5783 10.3033 88.3249 10.39C88.0716 10.47 87.8349 10.5633 87.6149 10.67L87.3449 10.01C87.5783 9.88333 87.8549 9.77667 88.1749 9.69C88.4949 9.59667 88.8283 9.55 89.1749 9.55ZM90.2249 12.38L89.4349 12.41C88.7683 12.4367 88.3049 12.5433 88.0449 12.73C87.7916 12.9167 87.6649 13.18 87.6649 13.52C87.6649 13.82 87.7549 14.04 87.9349 14.18C88.1216 14.32 88.3583 14.39 88.6449 14.39C89.0916 14.39 89.4649 14.2667 89.7649 14.02C90.0716 13.7667 90.2249 13.38 90.2249 12.86V12.38ZM93.5204 9.64V11.59C93.5204 12.2033 93.8637 12.51 94.5504 12.51C94.8837 12.51 95.1871 12.46 95.4604 12.36C95.7337 12.2533 96.0137 12.1133 96.3004 11.94V9.64H97.1804V15H96.3004V12.61C96.0004 12.8033 95.7037 12.9567 95.4104 13.07C95.1237 13.1767 94.7771 13.23 94.3704 13.23C93.8171 13.23 93.3904 13.0867 93.0904 12.8C92.7904 12.5133 92.6404 12.13 92.6404 11.65V9.64H93.5204ZM100.913 9.55C101.567 9.55 102.05 9.69333 102.363 9.98C102.677 10.2667 102.833 10.7233 102.833 11.35V15H102.193L102.023 14.24H101.983C101.75 14.5333 101.503 14.75 101.243 14.89C100.983 15.03 100.63 15.1 100.183 15.1C99.6965 15.1 99.2932 14.9733 98.9732 14.72C98.6532 14.46 98.4932 14.0567 98.4932 13.51C98.4932 12.9767 98.7032 12.5667 99.1232 12.28C99.5432 11.9867 100.19 11.8267 101.063 11.8L101.973 11.77V11.45C101.973 11.0033 101.877 10.6933 101.683 10.52C101.49 10.3467 101.217 10.26 100.863 10.26C100.583 10.26 100.317 10.3033 100.063 10.39C99.8099 10.47 99.5732 10.5633 99.3532 10.67L99.0832 10.01C99.3165 9.88333 99.5932 9.77667 99.9132 9.69C100.233 9.59667 100.567 9.55 100.913 9.55ZM101.963 12.38L101.173 12.41C100.507 12.4367 100.043 12.5433 99.7832 12.73C99.5299 12.9167 99.4032 13.18 99.4032 13.52C99.4032 13.82 99.4932 14.04 99.6732 14.18C99.8599 14.32 100.097 14.39 100.383 14.39C100.83 14.39 101.203 14.2667 101.503 14.02C101.81 13.7667 101.963 13.38 101.963 12.86V12.38ZM74.51 26.31C74.51 27.1967 74.2833 27.8833 73.83 28.37C73.3833 28.8567 72.7767 29.1 72.01 29.1C71.5367 29.1 71.1133 28.9933 70.74 28.78C70.3733 28.56 70.0833 28.2433 69.87 27.83C69.6567 27.41 69.55 26.9033 69.55 26.31C69.55 25.4233 69.77 24.74 70.21 24.26C70.6567 23.78 71.2667 23.54 72.04 23.54C72.52 23.54 72.9467 23.65 73.32 23.87C73.6933 24.0833 73.9833 24.3967 74.19 24.81C74.4033 25.2167 74.51 25.7167 74.51 26.31ZM70.46 26.31C70.46 26.9433 70.5833 27.4467 70.83 27.82C71.0833 28.1867 71.4833 28.37 72.03 28.37C72.57 28.37 72.9667 28.1867 73.22 27.82C73.4733 27.4467 73.6 26.9433 73.6 26.31C73.6 25.6767 73.4733 25.18 73.22 24.82C72.9667 24.46 72.5667 24.28 72.02 24.28C71.4733 24.28 71.0767 24.46 70.83 24.82C70.5833 25.18 70.46 25.6767 70.46 26.31ZM81.1947 30.86H80.3347V29H75.9047V23.64H76.7847V28.26H79.5547V23.64H80.4347V28.27H81.1947V30.86ZM84.293 23.54C84.7464 23.54 85.1397 23.64 85.473 23.84C85.8064 24.04 86.0597 24.3233 86.233 24.69C86.413 25.05 86.503 25.4733 86.503 25.96V26.49H82.833C82.8464 27.0967 82.9997 27.56 83.293 27.88C83.593 28.1933 84.0097 28.35 84.543 28.35C84.883 28.35 85.183 28.32 85.443 28.26C85.7097 28.1933 85.983 28.1 86.263 27.98V28.75C85.9897 28.87 85.7197 28.9567 85.453 29.01C85.1864 29.07 84.8697 29.1 84.503 29.1C83.9897 29.1 83.5397 28.9967 83.153 28.79C82.7664 28.5833 82.463 28.2767 82.243 27.87C82.0297 27.4633 81.923 26.96 81.923 26.36C81.923 25.7733 82.0197 25.27 82.213 24.85C82.413 24.43 82.6897 24.1067 83.043 23.88C83.403 23.6533 83.8197 23.54 84.293 23.54ZM84.283 24.26C83.863 24.26 83.5297 24.3967 83.283 24.67C83.043 24.9367 82.8997 25.31 82.853 25.79H85.583C85.5764 25.3367 85.4697 24.97 85.263 24.69C85.0564 24.4033 84.7297 24.26 84.283 24.26ZM88.7476 23.64V25.87H91.6576V23.64H92.5376V29H91.6576V26.61H88.7476V29H87.8676V23.64H88.7476ZM96.3048 23.54C96.7581 23.54 97.1514 23.64 97.4848 23.84C97.8181 24.04 98.0714 24.3233 98.2448 24.69C98.4248 25.05 98.5148 25.4733 98.5148 25.96V26.49H94.8448C94.8581 27.0967 95.0114 27.56 95.3048 27.88C95.6048 28.1933 96.0214 28.35 96.5548 28.35C96.8948 28.35 97.1948 28.32 97.4548 28.26C97.7214 28.1933 97.9948 28.1 98.2748 27.98V28.75C98.0014 28.87 97.7314 28.9567 97.4648 29.01C97.1981 29.07 96.8814 29.1 96.5148 29.1C96.0014 29.1 95.5514 28.9967 95.1648 28.79C94.7781 28.5833 94.4748 28.2767 94.2548 27.87C94.0414 27.4633 93.9348 26.96 93.9348 26.36C93.9348 25.7733 94.0314 25.27 94.2248 24.85C94.4248 24.43 94.7014 24.1067 95.0548 23.88C95.4148 23.6533 95.8314 23.54 96.3048 23.54ZM96.2948 24.26C95.8748 24.26 95.5414 24.3967 95.2948 24.67C95.0548 24.9367 94.9114 25.31 94.8648 25.79H97.5948C97.5881 25.3367 97.4814 24.97 97.2748 24.69C97.0681 24.4033 96.7414 24.26 96.2948 24.26ZM100.759 23.64V25.87H103.669V23.64H104.549V29H103.669V26.61H100.759V29H99.8793V23.64H100.759ZM108.276 23.55C108.93 23.55 109.413 23.6933 109.726 23.98C110.04 24.2667 110.196 24.7233 110.196 25.35V29H109.556L109.386 28.24H109.346C109.113 28.5333 108.866 28.75 108.606 28.89C108.346 29.03 107.993 29.1 107.546 29.1C107.06 29.1 106.656 28.9733 106.336 28.72C106.016 28.46 105.856 28.0567 105.856 27.51C105.856 26.9767 106.066 26.5667 106.486 26.28C106.906 25.9867 107.553 25.8267 108.426 25.8L109.336 25.77V25.45C109.336 25.0033 109.24 24.6933 109.046 24.52C108.853 24.3467 108.58 24.26 108.226 24.26C107.946 24.26 107.68 24.3033 107.426 24.39C107.173 24.47 106.936 24.5633 106.716 24.67L106.446 24.01C106.68 23.8833 106.956 23.7767 107.276 23.69C107.596 23.5967 107.93 23.55 108.276 23.55ZM109.326 26.38L108.536 26.41C107.87 26.4367 107.406 26.5433 107.146 26.73C106.893 26.9167 106.766 27.18 106.766 27.52C106.766 27.82 106.856 28.04 107.036 28.18C107.223 28.32 107.46 28.39 107.746 28.39C108.193 28.39 108.566 28.2667 108.866 28.02C109.173 27.7667 109.326 27.38 109.326 26.86V26.38Z" fill="#941919"/>
<path d="M121.19 64.53C121.19 65.0167 121.037 65.4033 120.73 65.69C120.423 65.97 120.013 66.15 119.5 66.23V66.27C120.1 66.35 120.557 66.54 120.87 66.84C121.183 67.1333 121.34 67.5133 121.34 67.98C121.34 68.6067 121.1 69.1167 120.62 69.51C120.14 69.9033 119.42 70.1 118.46 70.1C118.073 70.1 117.703 70.07 117.35 70.01C117.003 69.9567 116.68 69.8567 116.38 69.71V68.89C116.687 69.0433 117.027 69.16 117.4 69.24C117.773 69.32 118.123 69.36 118.45 69.36C119.09 69.36 119.573 69.24 119.9 69C120.233 68.76 120.4 68.42 120.4 67.98C120.4 67.5267 120.207 67.1967 119.82 66.99C119.433 66.7833 118.893 66.68 118.2 66.68H117.18V65.93H118.15C118.857 65.93 119.383 65.8133 119.73 65.58C120.083 65.34 120.26 65.02 120.26 64.62C120.26 64.26 120.127 63.9833 119.86 63.79C119.593 63.5967 119.247 63.5 118.82 63.5C118.367 63.5 117.993 63.5567 117.7 63.67C117.407 63.7833 117.12 63.93 116.84 64.11L116.41 63.5C116.69 63.2933 117.033 63.12 117.44 62.98C117.853 62.8333 118.317 62.76 118.83 62.76C119.597 62.76 120.18 62.9267 120.58 63.26C120.987 63.5933 121.19 64.0167 121.19 64.53ZM124.759 64.55C125.412 64.55 125.896 64.6933 126.209 64.98C126.522 65.2667 126.679 65.7233 126.679 66.35V70H126.039L125.869 69.24H125.829C125.596 69.5333 125.349 69.75 125.089 69.89C124.829 70.03 124.476 70.1 124.029 70.1C123.542 70.1 123.139 69.9733 122.819 69.72C122.499 69.46 122.339 69.0567 122.339 68.51C122.339 67.9767 122.549 67.5667 122.969 67.28C123.389 66.9867 124.036 66.8267 124.909 66.8L125.819 66.77V66.45C125.819 66.0033 125.722 65.6933 125.529 65.52C125.336 65.3467 125.062 65.26 124.709 65.26C124.429 65.26 124.162 65.3033 123.909 65.39C123.656 65.47 123.419 65.5633 123.199 65.67L122.929 65.01C123.162 64.8833 123.439 64.7767 123.759 64.69C124.079 64.5967 124.412 64.55 124.759 64.55ZM125.809 67.38L125.019 67.41C124.352 67.4367 123.889 67.5433 123.629 67.73C123.376 67.9167 123.249 68.18 123.249 68.52C123.249 68.82 123.339 69.04 123.519 69.18C123.706 69.32 123.942 69.39 124.229 69.39C124.676 69.39 125.049 69.2667 125.349 69.02C125.656 68.7667 125.809 68.38 125.809 67.86V67.38ZM132.314 64.64V69.26H133.094V71.86H132.244V70H128.514V71.86H127.674V69.26H128.104C128.564 68.6267 128.908 67.9067 129.134 67.1C129.368 66.2867 129.488 65.4667 129.494 64.64H132.314ZM131.464 65.33H130.274C130.241 65.7833 130.168 66.2533 130.054 66.74C129.948 67.22 129.804 67.68 129.624 68.12C129.451 68.56 129.248 68.94 129.014 69.26H131.464V65.33ZM136.175 64.55C136.828 64.55 137.312 64.6933 137.625 64.98C137.938 65.2667 138.095 65.7233 138.095 66.35V70H137.455L137.285 69.24H137.245C137.012 69.5333 136.765 69.75 136.505 69.89C136.245 70.03 135.892 70.1 135.445 70.1C134.958 70.1 134.555 69.9733 134.235 69.72C133.915 69.46 133.755 69.0567 133.755 68.51C133.755 67.9767 133.965 67.5667 134.385 67.28C134.805 66.9867 135.452 66.8267 136.325 66.8L137.235 66.77V66.45C137.235 66.0033 137.138 65.6933 136.945 65.52C136.752 65.3467 136.478 65.26 136.125 65.26C135.845 65.26 135.578 65.3033 135.325 65.39C135.072 65.47 134.835 65.5633 134.615 65.67L134.345 65.01C134.578 64.8833 134.855 64.7767 135.175 64.69C135.495 64.5967 135.828 64.55 136.175 64.55ZM137.225 67.38L136.435 67.41C135.768 67.4367 135.305 67.5433 135.045 67.73C134.792 67.9167 134.665 68.18 134.665 68.52C134.665 68.82 134.755 69.04 134.935 69.18C135.122 69.32 135.358 69.39 135.645 69.39C136.092 69.39 136.465 69.2667 136.765 69.02C137.072 68.7667 137.225 68.38 137.225 67.86V67.38ZM140.52 64.64V66.59C140.52 67.2033 140.864 67.51 141.55 67.51C141.884 67.51 142.187 67.46 142.46 67.36C142.734 67.2533 143.014 67.1133 143.3 66.94V64.64H144.18V70H143.3V67.61C143 67.8033 142.704 67.9567 142.41 68.07C142.124 68.1767 141.777 68.23 141.37 68.23C140.817 68.23 140.39 68.0867 140.09 67.8C139.79 67.5133 139.64 67.13 139.64 66.65V64.64H140.52ZM147.913 64.55C148.567 64.55 149.05 64.6933 149.363 64.98C149.677 65.2667 149.833 65.7233 149.833 66.35V70H149.193L149.023 69.24H148.983C148.75 69.5333 148.503 69.75 148.243 69.89C147.983 70.03 147.63 70.1 147.183 70.1C146.697 70.1 146.293 69.9733 145.973 69.72C145.653 69.46 145.493 69.0567 145.493 68.51C145.493 67.9767 145.703 67.5667 146.123 67.28C146.543 66.9867 147.19 66.8267 148.063 66.8L148.973 66.77V66.45C148.973 66.0033 148.877 65.6933 148.683 65.52C148.49 65.3467 148.217 65.26 147.863 65.26C147.583 65.26 147.317 65.3033 147.063 65.39C146.81 65.47 146.573 65.5633 146.353 65.67L146.083 65.01C146.317 64.8833 146.593 64.7767 146.913 64.69C147.233 64.5967 147.567 64.55 147.913 64.55ZM148.963 67.38L148.173 67.41C147.507 67.4367 147.043 67.5433 146.783 67.73C146.53 67.9167 146.403 68.18 146.403 68.52C146.403 68.82 146.493 69.04 146.673 69.18C146.86 69.32 147.097 69.39 147.383 69.39C147.83 69.39 148.203 69.2667 148.503 69.02C148.81 68.7667 148.963 68.38 148.963 67.86V67.38ZM119 84.1C118.52 84.1 118.097 84.0033 117.73 83.81C117.363 83.6167 117.073 83.3167 116.86 82.91C116.653 82.5033 116.55 81.9833 116.55 81.35C116.55 80.69 116.657 80.1533 116.87 79.74C117.09 79.3267 117.39 79.0233 117.77 78.83C118.15 78.6367 118.58 78.54 119.06 78.54C119.327 78.54 119.587 78.57 119.84 78.63C120.1 78.6833 120.31 78.75 120.47 78.83L120.2 79.56C120.04 79.5 119.853 79.4433 119.64 79.39C119.427 79.3367 119.227 79.31 119.04 79.31C117.987 79.31 117.46 79.9867 117.46 81.34C117.46 81.9867 117.587 82.4833 117.84 82.83C118.1 83.17 118.483 83.34 118.99 83.34C119.277 83.34 119.533 83.31 119.76 83.25C119.987 83.19 120.193 83.1167 120.38 83.03V83.81C120.2 83.9033 120 83.9733 119.78 84.02C119.567 84.0733 119.307 84.1 119 84.1ZM126.315 81.31C126.315 82.1967 126.088 82.8833 125.635 83.37C125.188 83.8567 124.581 84.1 123.815 84.1C123.341 84.1 122.918 83.9933 122.545 83.78C122.178 83.56 121.888 83.2433 121.675 82.83C121.461 82.41 121.355 81.9033 121.355 81.31C121.355 80.4233 121.575 79.74 122.015 79.26C122.461 78.78 123.071 78.54 123.845 78.54C124.325 78.54 124.751 78.65 125.125 78.87C125.498 79.0833 125.788 79.3967 125.995 79.81C126.208 80.2167 126.315 80.7167 126.315 81.31ZM122.265 81.31C122.265 81.9433 122.388 82.4467 122.635 82.82C122.888 83.1867 123.288 83.37 123.835 83.37C124.375 83.37 124.771 83.1867 125.025 82.82C125.278 82.4467 125.405 81.9433 125.405 81.31C125.405 80.6767 125.278 80.18 125.025 79.82C124.771 79.46 124.371 79.28 123.825 79.28C123.278 79.28 122.881 79.46 122.635 79.82C122.388 80.18 122.265 80.6767 122.265 81.31ZM130.979 78.64V79.38H128.589V84H127.709V78.64H130.979ZM135.813 84H134.923V79.37H133.343C133.256 80.4967 133.136 81.4067 132.983 82.1C132.829 82.7867 132.623 83.2867 132.363 83.6C132.109 83.9133 131.793 84.07 131.413 84.07C131.326 84.07 131.239 84.0633 131.153 84.05C131.073 84.0433 131.006 84.0267 130.953 84V83.34C130.993 83.3533 131.036 83.3633 131.083 83.37C131.129 83.3767 131.176 83.38 131.223 83.38C131.583 83.38 131.869 82.9967 132.083 82.23C132.303 81.4633 132.469 80.2667 132.583 78.64H135.813V84ZM139.544 78.55C140.197 78.55 140.681 78.6933 140.994 78.98C141.307 79.2667 141.464 79.7233 141.464 80.35V84H140.824L140.654 83.24H140.614C140.381 83.5333 140.134 83.75 139.874 83.89C139.614 84.03 139.261 84.1 138.814 84.1C138.327 84.1 137.924 83.9733 137.604 83.72C137.284 83.46 137.124 83.0567 137.124 82.51C137.124 81.9767 137.334 81.5667 137.754 81.28C138.174 80.9867 138.821 80.8267 139.694 80.8L140.604 80.77V80.45C140.604 80.0033 140.507 79.6933 140.314 79.52C140.121 79.3467 139.847 79.26 139.494 79.26C139.214 79.26 138.947 79.3033 138.694 79.39C138.441 79.47 138.204 79.5633 137.984 79.67L137.714 79.01C137.947 78.8833 138.224 78.7767 138.544 78.69C138.864 78.5967 139.197 78.55 139.544 78.55ZM140.594 81.38L139.804 81.41C139.137 81.4367 138.674 81.5433 138.414 81.73C138.161 81.9167 138.034 82.18 138.034 82.52C138.034 82.82 138.124 83.04 138.304 83.18C138.491 83.32 138.727 83.39 139.014 83.39C139.461 83.39 139.834 83.2667 140.134 83.02C140.441 82.7667 140.594 82.38 140.594 81.86V81.38ZM145.27 84.1C144.79 84.1 144.366 84.0033 144 83.81C143.633 83.6167 143.343 83.3167 143.13 82.91C142.923 82.5033 142.82 81.9833 142.82 81.35C142.82 80.69 142.926 80.1533 143.14 79.74C143.36 79.3267 143.66 79.0233 144.04 78.83C144.42 78.6367 144.85 78.54 145.33 78.54C145.596 78.54 145.856 78.57 146.11 78.63C146.37 78.6833 146.58 78.75 146.74 78.83L146.47 79.56C146.31 79.5 146.123 79.4433 145.91 79.39C145.696 79.3367 145.496 79.31 145.31 79.31C144.256 79.31 143.73 79.9867 143.73 81.34C143.73 81.9867 143.856 82.4833 144.11 82.83C144.37 83.17 144.753 83.34 145.26 83.34C145.546 83.34 145.803 83.31 146.03 83.25C146.256 83.19 146.463 83.1167 146.65 83.03V83.81C146.47 83.9033 146.27 83.9733 146.05 84.02C145.836 84.0733 145.576 84.1 145.27 84.1ZM152.584 81.31C152.584 82.1967 152.358 82.8833 151.904 83.37C151.458 83.8567 150.851 84.1 150.084 84.1C149.611 84.1 149.188 83.9933 148.814 83.78C148.448 83.56 148.158 83.2433 147.944 82.83C147.731 82.41 147.624 81.9033 147.624 81.31C147.624 80.4233 147.844 79.74 148.284 79.26C148.731 78.78 149.341 78.54 150.114 78.54C150.594 78.54 151.021 78.65 151.394 78.87C151.768 79.0833 152.058 79.3967 152.264 79.81C152.478 80.2167 152.584 80.7167 152.584 81.31ZM148.534 81.31C148.534 81.9433 148.658 82.4467 148.904 82.82C149.158 83.1867 149.558 83.37 150.104 83.37C150.644 83.37 151.041 83.1867 151.294 82.82C151.548 82.4467 151.674 81.9433 151.674 81.31C151.674 80.6767 151.548 80.18 151.294 79.82C151.041 79.46 150.641 79.28 150.094 79.28C149.548 79.28 149.151 79.46 148.904 79.82C148.658 80.18 148.534 80.6767 148.534 81.31ZM158.289 79.99C158.289 80.3233 158.189 80.5833 157.989 80.77C157.789 80.9567 157.532 81.0833 157.219 81.15V81.19C157.546 81.2367 157.832 81.3567 158.079 81.55C158.332 81.7367 158.459 82.03 158.459 82.43C158.459 82.8833 158.289 83.26 157.949 83.56C157.616 83.8533 157.062 84 156.289 84H153.979V78.64H156.279C156.659 78.64 156.999 78.6833 157.299 78.77C157.606 78.85 157.846 78.99 158.019 79.19C158.199 79.3833 158.289 79.65 158.289 79.99ZM157.399 80.1C157.399 79.8467 157.306 79.6633 157.119 79.55C156.939 79.43 156.642 79.37 156.229 79.37H154.859V80.84H156.069C156.956 80.84 157.399 80.5933 157.399 80.1ZM157.549 82.43C157.549 82.1233 157.432 81.9033 157.199 81.77C156.966 81.6367 156.622 81.57 156.169 81.57H154.859V83.29H156.189C156.629 83.29 156.966 83.2267 157.199 83.1C157.432 82.9667 157.549 82.7433 157.549 82.43ZM161.771 78.55C162.424 78.55 162.907 78.6933 163.221 78.98C163.534 79.2667 163.691 79.7233 163.691 80.35V84H163.051L162.881 83.24H162.841C162.607 83.5333 162.361 83.75 162.101 83.89C161.841 84.03 161.487 84.1 161.041 84.1C160.554 84.1 160.151 83.9733 159.831 83.72C159.511 83.46 159.351 83.0567 159.351 82.51C159.351 81.9767 159.561 81.5667 159.981 81.28C160.401 80.9867 161.047 80.8267 161.921 80.8L162.831 80.77V80.45C162.831 80.0033 162.734 79.6933 162.541 79.52C162.347 79.3467 162.074 79.26 161.721 79.26C161.441 79.26 161.174 79.3033 160.921 79.39C160.667 79.47 160.431 79.5633 160.211 79.67L159.941 79.01C160.174 78.8833 160.451 78.7767 160.771 78.69C161.091 78.5967 161.424 78.55 161.771 78.55ZM162.821 81.38L162.031 81.41C161.364 81.4367 160.901 81.5433 160.641 81.73C160.387 81.9167 160.261 82.18 160.261 82.52C160.261 82.82 160.351 83.04 160.531 83.18C160.717 83.32 160.954 83.39 161.241 83.39C161.687 83.39 162.061 83.2667 162.361 83.02C162.667 82.7667 162.821 82.38 162.821 81.86V81.38ZM166.226 78.64V80.87H169.136V78.64H170.016V84H169.136V81.61H166.226V84H165.346V78.64H166.226ZM173.743 78.55C174.397 78.55 174.88 78.6933 175.193 78.98C175.507 79.2667 175.663 79.7233 175.663 80.35V84H175.023L174.853 83.24H174.813C174.58 83.5333 174.333 83.75 174.073 83.89C173.813 84.03 173.46 84.1 173.013 84.1C172.527 84.1 172.123 83.9733 171.803 83.72C171.483 83.46 171.323 83.0567 171.323 82.51C171.323 81.9767 171.533 81.5667 171.953 81.28C172.373 80.9867 173.02 80.8267 173.893 80.8L174.803 80.77V80.45C174.803 80.0033 174.707 79.6933 174.513 79.52C174.32 79.3467 174.047 79.26 173.693 79.26C173.413 79.26 173.147 79.3033 172.893 79.39C172.64 79.47 172.403 79.5633 172.183 79.67L171.913 79.01C172.147 78.8833 172.423 78.7767 172.743 78.69C173.063 78.5967 173.397 78.55 173.743 78.55ZM174.793 81.38L174.003 81.41C173.337 81.4367 172.873 81.5433 172.613 81.73C172.36 81.9167 172.233 82.18 172.233 82.52C172.233 82.82 172.323 83.04 172.503 83.18C172.69 83.32 172.927 83.39 173.213 83.39C173.66 83.39 174.033 83.2667 174.333 83.02C174.64 82.7667 174.793 82.38 174.793 81.86V81.38Z" fill="#7B96AE"/>
<defs>
<clipPath id="clip0_457_824">
<rect width="30.8" height="26.6" fill="white" transform="translate(26.8501 11.2002)"/>
</clipPath>
<clipPath id="clip1_457_824">
<rect width="6.3" height="6.3" fill="white" transform="translate(47.8501 25.9004)"/>
</clipPath>
<clipPath id="clip2_457_824">
<rect width="30.8" height="26.6" fill="white" transform="translate(218.85 11.2002)"/>
</clipPath>
</defs>
</svg>
