<svg width="272" height="96" viewBox="0 0 272 96" fill="none" xmlns="http://www.w3.org/2000/svg">
<g opacity="0.35">
<path d="M75 47C75 47.1278 74.9512 47.2558 74.8535 47.3535L69.8535 52.3535C69.6582 52.5488 69.3418 52.5488 69.1465 52.3535C68.9513 52.1581 68.9512 51.8417 69.1465 51.6465L73.793 47L69.1465 42.3535C68.9512 42.1581 68.9512 41.8417 69.1465 41.6465C69.3419 41.4512 69.6583 41.4511 69.8535 41.6465L74.8535 46.6465C74.9512 46.7441 75 46.8721 75 47Z" fill="#4370D6"/>
</g>
<g opacity="0.4">
<path d="M91 47C91 47.1278 90.9512 47.2558 90.8535 47.3535L85.8535 52.3535C85.6582 52.5488 85.3418 52.5488 85.1465 52.3535C84.9513 52.1581 84.9512 51.8417 85.1465 51.6465L89.793 47L85.1465 42.3535C84.9512 42.1581 84.9512 41.8417 85.1465 41.6465C85.3419 41.4512 85.6583 41.4511 85.8535 41.6465L90.8535 46.6465C90.9512 46.7441 91 46.8721 91 47Z" fill="#4370D6"/>
</g>
<g opacity="0.45">
<path d="M107 47C107 47.1278 106.951 47.2558 106.854 47.3535L101.854 52.3535C101.658 52.5488 101.342 52.5488 101.147 52.3535C100.951 52.1581 100.951 51.8417 101.147 51.6465L105.793 47L101.147 42.3535C100.951 42.1581 100.951 41.8417 101.147 41.6465C101.342 41.4512 101.658 41.4511 101.854 41.6465L106.854 46.6465C106.951 46.7441 107 46.8721 107 47Z" fill="#4370D6"/>
</g>
<g opacity="0.5">
<path d="M123 47C123 47.1278 122.951 47.2558 122.854 47.3535L117.854 52.3535C117.658 52.5488 117.342 52.5488 117.147 52.3535C116.951 52.1581 116.951 51.8417 117.147 51.6465L121.793 47L117.147 42.3535C116.951 42.1581 116.951 41.8417 117.147 41.6465C117.342 41.4512 117.658 41.4511 117.854 41.6465L122.854 46.6465C122.951 46.7441 123 46.8721 123 47Z" fill="#4370D6"/>
</g>
<g opacity="0.55">
<path d="M139 47C139 47.1278 138.951 47.2558 138.854 47.3535L133.854 52.3535C133.658 52.5488 133.342 52.5488 133.147 52.3535C132.951 52.1581 132.951 51.8417 133.147 51.6465L137.793 47L133.147 42.3535C132.951 42.1581 132.951 41.8417 133.147 41.6465C133.342 41.4512 133.658 41.4511 133.854 41.6465L138.854 46.6465C138.951 46.7441 139 46.8721 139 47Z" fill="#4370D6"/>
</g>
<g opacity="0.6">
<path d="M155 47C155 47.1278 154.951 47.2558 154.854 47.3535L149.854 52.3535C149.658 52.5488 149.342 52.5488 149.147 52.3535C148.951 52.1581 148.951 51.8417 149.147 51.6465L153.793 47L149.147 42.3535C148.951 42.1581 148.951 41.8417 149.147 41.6465C149.342 41.4512 149.658 41.4511 149.854 41.6465L154.854 46.6465C154.951 46.7441 155 46.8721 155 47Z" fill="#4370D6"/>
</g>
<g opacity="0.7">
<path d="M171 47C171 47.1278 170.951 47.2558 170.854 47.3535L165.854 52.3535C165.658 52.5488 165.342 52.5488 165.147 52.3535C164.951 52.1581 164.951 51.8417 165.147 51.6465L169.793 47L165.147 42.3535C164.951 42.1581 164.951 41.8417 165.147 41.6465C165.342 41.4512 165.658 41.4511 165.854 41.6465L170.854 46.6465C170.951 46.7441 171 46.8721 171 47Z" fill="#4370D6"/>
</g>
<g opacity="0.9">
<path d="M187 47C187 47.1278 186.951 47.2558 186.854 47.3535L181.854 52.3535C181.658 52.5488 181.342 52.5488 181.147 52.3535C180.951 52.1581 180.951 51.8417 181.147 51.6465L185.793 47L181.147 42.3535C180.951 42.1581 180.951 41.8417 181.147 41.6465C181.342 41.4512 181.658 41.4511 181.854 41.6465L186.854 46.6465C186.951 46.7441 187 46.8721 187 47Z" fill="#4370D6"/>
</g>
<path d="M203 47C203 47.1278 202.951 47.2558 202.854 47.3535L197.854 52.3535C197.658 52.5488 197.342 52.5488 197.147 52.3535C196.951 52.1581 196.951 51.8417 197.147 51.6465L201.793 47L197.147 42.3535C196.951 42.1581 196.951 41.8417 197.147 41.6465C197.342 41.4512 197.658 41.4511 197.854 41.6465L202.854 46.6465C202.951 46.7441 203 46.8721 203 47Z" fill="#4370D6"/>
<circle cx="40.5" cy="24.5" r="23.5" stroke="#203B54" stroke-width="2"/>
<g clip-path="url(#clip0_457_822)">
<path d="M48.2894 14.6853H45.8829V13.6087C45.8829 13.2604 45.503 13.1021 45.1547 13.1021H43.2865C42.8432 11.8355 41.735 11.2022 40.4684 11.2022C39.2158 11.1552 38.0764 11.9232 37.6503 13.1021H35.8137C35.4654 13.1021 35.1171 13.2604 35.1171 13.6087V14.6853H32.7106C31.2845 14.7005 30.1178 15.8255 30.0508 17.2501V35.3937C30.0508 36.7869 31.3174 37.8001 32.7106 37.8001H48.2894C49.6826 37.8001 50.9492 36.7869 50.9492 35.3937V17.2501C50.8822 15.8255 49.7155 14.7005 48.2894 14.6853ZM36.3836 14.3687H38.1252C38.4292 14.3316 38.6734 14.1003 38.7268 13.7987C38.9144 12.9821 39.6308 12.3959 40.4684 12.3738C41.2982 12.399 42.0039 12.987 42.1782 13.7987C42.235 14.1107 42.4953 14.345 42.8115 14.3687H44.6164V16.9018H36.3836V14.3687ZM49.6826 35.3937C49.6826 36.0903 48.986 36.5336 48.2894 36.5336H32.7106C32.014 36.5336 31.3174 36.0903 31.3174 35.3937V17.2501C31.382 16.525 31.9827 15.9652 32.7106 15.9519H35.1171V17.5668C35.1505 17.9216 35.4578 18.187 35.8137 18.1684H45.1546C45.517 18.1883 45.834 17.9265 45.8829 17.5668V15.9519H48.2893C49.0172 15.9652 49.618 16.525 49.6826 17.2501V35.3937H49.6826Z" fill="#203B54"/>
<path d="M46.761 26.6001H34.2388C33.6374 26.6001 33.1499 26.9135 33.1499 27.3001C33.1499 27.6867 33.6374 28.0001 34.2388 28.0001H46.761C47.3624 28.0001 47.8499 27.6867 47.8499 27.3001C47.8499 26.9135 47.3624 26.6001 46.761 26.6001Z" fill="#203B54"/>
<path d="M46.761 21.7002H34.2388C33.6374 21.7002 33.1499 22.0136 33.1499 22.4002C33.1499 22.7868 33.6374 23.1002 34.2388 23.1002H46.761C47.3624 23.1002 47.8499 22.7868 47.8499 22.4002C47.8499 22.0136 47.3624 21.7002 46.761 21.7002Z" fill="#203B54"/>
<path d="M46.761 31.5H34.2388C33.6374 31.5 33.1499 31.8134 33.1499 32.2C33.1499 32.5866 33.6374 32.9 34.2388 32.9H46.761C47.3624 32.9 47.8499 32.5866 47.8499 32.2C47.8499 31.8134 47.3624 31.5 46.761 31.5Z" fill="#203B54"/>
<path d="M56.9001 29.0504C56.9001 32.3089 54.2586 34.9504 51.0001 34.9504C47.7416 34.9504 45.1001 32.3089 45.1001 29.0504C45.1001 25.7919 47.7416 23.1504 51.0001 23.1504C54.2586 23.1504 56.9001 25.7919 56.9001 29.0504Z" fill="#FAFBFC" stroke="#203B54" stroke-width="1.5"/>
<g clip-path="url(#clip1_457_822)">
<mask id="mask0_457_822" style="mask-type:luminance" maskUnits="userSpaceOnUse" x="47" y="25" width="8" height="8">
<path d="M47.8501 25.9002H54.1501V32.2002H47.8501V25.9002Z" fill="white"/>
</mask>
<g mask="url(#mask0_457_822)">
<path d="M53.8558 26.9775L53.0728 26.1945C52.929 26.0507 52.6946 26.0506 52.5509 26.1943L48.5586 30.1866L49.8637 31.4917L53.856 27.4994C53.9997 27.3557 53.9996 27.1213 53.8558 26.9775Z" stroke="#203B54" stroke-width="0.8" stroke-miterlimit="22.926" stroke-linecap="round" stroke-linejoin="round"/>
<path d="M48.0366 32.0137L48.5587 30.1865L49.8638 31.4916L48.0366 32.0137Z" stroke="#203B54" stroke-width="0.8" stroke-miterlimit="22.926" stroke-linecap="round" stroke-linejoin="round"/>
<path d="M53.3339 28.0215L52.0288 26.7164" stroke="#203B54" stroke-width="0.8" stroke-miterlimit="22.926" stroke-linecap="round" stroke-linejoin="round"/>
</g>
</g>
</g>
<path d="M23.1082 60.342C23.1082 61.0233 22.8842 61.5647 22.4362 61.966C21.9975 62.3673 21.4142 62.6193 20.6862 62.722V62.778C21.5542 62.8807 22.2122 63.142 22.6602 63.562C23.1175 63.9727 23.3462 64.5093 23.3462 65.172C23.3462 65.7507 23.1922 66.264 22.8842 66.712C22.5855 67.16 22.1328 67.51 21.5262 67.762C20.9195 68.014 20.1635 68.14 19.2582 68.14C18.6515 68.14 18.0868 68.098 17.5642 68.014C17.0508 67.93 16.5842 67.79 16.1642 67.594V66.264C16.4535 66.404 16.7662 66.5253 17.1022 66.628C17.4475 66.7213 17.7928 66.796 18.1382 66.852C18.4928 66.8987 18.8242 66.922 19.1322 66.922C20.0282 66.922 20.6955 66.768 21.1342 66.46C21.5728 66.1427 21.7922 65.6947 21.7922 65.116C21.7922 64.528 21.5168 64.1033 20.9662 63.842C20.4155 63.5713 19.6548 63.436 18.6842 63.436H17.3962V62.204H18.6002C19.3002 62.204 19.8695 62.1387 20.3082 62.008C20.7468 61.868 21.0688 61.672 21.2742 61.42C21.4795 61.168 21.5822 60.8693 21.5822 60.524C21.5822 60.0667 21.4048 59.7167 21.0502 59.474C20.6955 59.222 20.2195 59.096 19.6222 59.096C19.0342 59.096 18.5255 59.1753 18.0962 59.334C17.6668 59.4833 17.2562 59.684 16.8642 59.936L16.1642 58.914C16.4535 58.7087 16.7755 58.5313 17.1302 58.382C17.4848 58.2233 17.8768 58.0973 18.3062 58.004C18.7448 57.9107 19.2162 57.864 19.7202 57.864C20.4482 57.864 21.0642 57.9713 21.5682 58.186C22.0722 58.4007 22.4548 58.6947 22.7162 59.068C22.9775 59.432 23.1082 59.8567 23.1082 60.342ZM28.1544 60.314C29.1064 60.314 29.8157 60.524 30.2824 60.944C30.7491 61.3547 30.9824 62.0033 30.9824 62.89V68H29.9324L29.6384 66.95H29.5824C29.3677 67.2207 29.1437 67.4447 28.9104 67.622C28.6864 67.7993 28.4251 67.93 28.1264 68.014C27.8371 68.098 27.4824 68.14 27.0624 68.14C26.6144 68.14 26.2084 68.0607 25.8444 67.902C25.4897 67.734 25.2097 67.482 25.0044 67.146C24.7991 66.8007 24.6964 66.3713 24.6964 65.858C24.6964 65.0927 24.9857 64.5093 25.5644 64.108C26.1524 63.7067 27.0437 63.4873 28.2384 63.45L29.5264 63.408V62.988C29.5264 62.428 29.4004 62.036 29.1484 61.812C28.8964 61.588 28.5417 61.476 28.0844 61.476C27.6924 61.476 27.3191 61.532 26.9644 61.644C26.6097 61.756 26.2737 61.8913 25.9564 62.05L25.4804 60.972C25.8351 60.7853 26.2411 60.6313 26.6984 60.51C27.1651 60.3793 27.6504 60.314 28.1544 60.314ZM28.5044 64.402C27.6457 64.4393 27.0484 64.584 26.7124 64.836C26.3857 65.0787 26.2224 65.424 26.2224 65.872C26.2224 66.264 26.3391 66.5487 26.5724 66.726C26.8151 66.9033 27.1184 66.992 27.4824 66.992C28.0704 66.992 28.5557 66.8287 28.9384 66.502C29.3211 66.1753 29.5124 65.6853 29.5124 65.032V64.374L28.5044 64.402ZM39.2175 60.454V66.824H40.3235V70.646H38.9375V68H33.7295V70.646H32.3575V66.824H32.9595C33.3608 66.2453 33.6968 65.6107 33.9675 64.92C34.2381 64.2293 34.4435 63.506 34.5835 62.75C34.7328 61.9847 34.8215 61.2193 34.8495 60.454H39.2175ZM36.1375 61.602C36.0815 62.2087 35.9788 62.8293 35.8295 63.464C35.6895 64.0987 35.5075 64.7053 35.2835 65.284C35.0688 65.8627 34.8121 66.376 34.5135 66.824H37.7615V61.602H36.1375ZM44.67 60.314C45.622 60.314 46.3314 60.524 46.798 60.944C47.2647 61.3547 47.498 62.0033 47.498 62.89V68H46.448L46.154 66.95H46.098C45.8834 67.2207 45.6594 67.4447 45.426 67.622C45.202 67.7993 44.9407 67.93 44.642 68.014C44.3527 68.098 43.998 68.14 43.578 68.14C43.13 68.14 42.724 68.0607 42.36 67.902C42.0054 67.734 41.7254 67.482 41.52 67.146C41.3147 66.8007 41.212 66.3713 41.212 65.858C41.212 65.0927 41.5014 64.5093 42.08 64.108C42.668 63.7067 43.5594 63.4873 44.754 63.45L46.042 63.408V62.988C46.042 62.428 45.916 62.036 45.664 61.812C45.412 61.588 45.0574 61.476 44.6 61.476C44.208 61.476 43.8347 61.532 43.48 61.644C43.1254 61.756 42.7894 61.8913 42.472 62.05L41.996 60.972C42.3507 60.7853 42.7567 60.6313 43.214 60.51C43.6807 60.3793 44.166 60.314 44.67 60.314ZM45.02 64.402C44.1614 64.4393 43.564 64.584 43.228 64.836C42.9014 65.0787 42.738 65.424 42.738 65.872C42.738 66.264 42.8547 66.5487 43.088 66.726C43.3307 66.9033 43.634 66.992 43.998 66.992C44.586 66.992 45.0714 66.8287 45.454 66.502C45.8367 66.1753 46.028 65.6853 46.028 65.032V64.374L45.02 64.402ZM51.0851 63.212C51.0851 63.6133 51.1971 63.912 51.4211 64.108C51.6451 64.304 51.9624 64.402 52.3731 64.402C52.8211 64.402 53.2318 64.3413 53.6051 64.22C53.9784 64.0893 54.3564 63.9167 54.7391 63.702V60.454H56.2231V68H54.7391V64.738C54.3471 64.99 53.9458 65.1907 53.5351 65.34C53.1244 65.4893 52.6391 65.564 52.0791 65.564C51.3044 65.564 50.6978 65.3633 50.2591 64.962C49.8204 64.5513 49.6011 63.9913 49.6011 63.282V60.454H51.0851V63.212ZM61.4728 60.314C62.4248 60.314 63.1341 60.524 63.6008 60.944C64.0674 61.3547 64.3008 62.0033 64.3008 62.89V68H63.2508L62.9568 66.95H62.9008C62.6861 67.2207 62.4621 67.4447 62.2288 67.622C62.0048 67.7993 61.7434 67.93 61.4448 68.014C61.1554 68.098 60.8008 68.14 60.3808 68.14C59.9328 68.14 59.5268 68.0607 59.1628 67.902C58.8081 67.734 58.5281 67.482 58.3228 67.146C58.1174 66.8007 58.0148 66.3713 58.0148 65.858C58.0148 65.0927 58.3041 64.5093 58.8828 64.108C59.4708 63.7067 60.3621 63.4873 61.5568 63.45L62.8448 63.408V62.988C62.8448 62.428 62.7188 62.036 62.4668 61.812C62.2148 61.588 61.8601 61.476 61.4028 61.476C61.0108 61.476 60.6374 61.532 60.2828 61.644C59.9281 61.756 59.5921 61.8913 59.2748 62.05L58.7988 60.972C59.1534 60.7853 59.5594 60.6313 60.0168 60.51C60.4834 60.3793 60.9688 60.314 61.4728 60.314ZM61.8228 64.402C60.9641 64.4393 60.3668 64.584 60.0308 64.836C59.7041 65.0787 59.5408 65.424 59.5408 65.872C59.5408 66.264 59.6574 66.5487 59.8908 66.726C60.1334 66.9033 60.4368 66.992 60.8008 66.992C61.3888 66.992 61.8741 66.8287 62.2568 66.502C62.6394 66.1753 62.8308 65.6853 62.8308 65.032V64.374L61.8228 64.402ZM7.69674 79.454V87H6.21274V80.658H2.65674V87H1.17274V79.454H7.69674ZM16.6684 83.22C16.6684 83.8453 16.5844 84.4007 16.4164 84.886C16.2484 85.3713 16.0104 85.782 15.7024 86.118C15.3944 86.454 15.0211 86.7107 14.5824 86.888C14.1438 87.056 13.6491 87.14 13.0984 87.14C12.5944 87.14 12.1278 87.056 11.6984 86.888C11.2691 86.7107 10.8958 86.454 10.5784 86.118C10.2704 85.782 10.0278 85.3713 9.85045 84.886C9.67311 84.4007 9.58445 83.8407 9.58445 83.206C9.58445 82.3753 9.72445 81.6707 10.0044 81.092C10.2938 80.5133 10.7044 80.0747 11.2364 79.776C11.7778 79.468 12.4124 79.314 13.1404 79.314C13.8311 79.314 14.4378 79.468 14.9604 79.776C15.4924 80.0747 15.9078 80.5133 16.2064 81.092C16.5144 81.6707 16.6684 82.38 16.6684 83.22ZM11.1104 83.22C11.1104 83.78 11.1804 84.2653 11.3204 84.676C11.4604 85.0773 11.6798 85.3853 11.9784 85.6C12.2771 85.8147 12.6598 85.922 13.1264 85.922C13.5931 85.922 13.9758 85.8147 14.2744 85.6C14.5731 85.3853 14.7924 85.0773 14.9324 84.676C15.0724 84.2653 15.1424 83.78 15.1424 83.22C15.1424 82.6413 15.0678 82.156 14.9184 81.764C14.7784 81.372 14.5591 81.0733 14.2604 80.868C13.9711 80.6533 13.5884 80.546 13.1124 80.546C12.4124 80.546 11.9038 80.7793 11.5864 81.246C11.2691 81.7127 11.1104 82.3707 11.1104 83.22ZM21.5877 87.14C20.897 87.14 20.2904 87.0047 19.7677 86.734C19.245 86.4633 18.839 86.0433 18.5497 85.474C18.2604 84.8953 18.1157 84.1627 18.1157 83.276C18.1157 82.3427 18.2697 81.5867 18.5777 81.008C18.895 80.4293 19.3197 80.0047 19.8517 79.734C20.393 79.454 21.009 79.314 21.6997 79.314C22.1197 79.314 22.5117 79.3607 22.8757 79.454C23.249 79.538 23.557 79.636 23.7997 79.748L23.3517 80.952C23.0904 80.8493 22.8104 80.7607 22.5117 80.686C22.2224 80.6113 21.947 80.574 21.6857 80.574C21.219 80.574 20.8317 80.6767 20.5237 80.882C20.225 81.078 20.001 81.3767 19.8517 81.778C19.7117 82.17 19.6417 82.6647 19.6417 83.262C19.6417 83.8313 19.7164 84.312 19.8657 84.704C20.015 85.096 20.2344 85.3947 20.5237 85.6C20.8224 85.796 21.191 85.894 21.6297 85.894C22.0497 85.894 22.4184 85.8473 22.7357 85.754C23.053 85.6607 23.3517 85.5393 23.6317 85.39V86.678C23.361 86.8367 23.067 86.9533 22.7497 87.028C22.4324 87.1027 22.045 87.14 21.5877 87.14ZM30.929 80.644H28.465V87H26.995V80.644H24.545V79.454H30.929V80.644ZM35.3253 79.314C36.2773 79.314 36.9866 79.524 37.4533 79.944C37.92 80.3547 38.1533 81.0033 38.1533 81.89V87H37.1033L36.8093 85.95H36.7533C36.5386 86.2207 36.3146 86.4447 36.0813 86.622C35.8573 86.7993 35.596 86.93 35.2973 87.014C35.008 87.098 34.6533 87.14 34.2333 87.14C33.7853 87.14 33.3793 87.0607 33.0153 86.902C32.6606 86.734 32.3806 86.482 32.1753 86.146C31.97 85.8007 31.8673 85.3713 31.8673 84.858C31.8673 84.0927 32.1566 83.5093 32.7353 83.108C33.3233 82.7067 34.2146 82.4873 35.4093 82.45L36.6973 82.408V81.988C36.6973 81.428 36.5713 81.036 36.3193 80.812C36.0673 80.588 35.7126 80.476 35.2553 80.476C34.8633 80.476 34.49 80.532 34.1353 80.644C33.7806 80.756 33.4446 80.8913 33.1273 81.05L32.6513 79.972C33.006 79.7853 33.412 79.6313 33.8693 79.51C34.336 79.3793 34.8213 79.314 35.3253 79.314ZM35.6753 83.402C34.8166 83.4393 34.2193 83.584 33.8833 83.836C33.5566 84.0787 33.3933 84.424 33.3933 84.872C33.3933 85.264 33.51 85.5487 33.7433 85.726C33.986 85.9033 34.2893 85.992 34.6533 85.992C35.2413 85.992 35.7266 85.8287 36.1093 85.502C36.492 85.1753 36.6833 84.6853 36.6833 84.032V83.374L35.6753 83.402ZM46.6964 81.372C46.6964 81.8293 46.5564 82.1933 46.2764 82.464C46.0057 82.7253 45.6417 82.9027 45.1844 82.996V83.052C45.6697 83.1173 46.0804 83.29 46.4164 83.57C46.7617 83.8407 46.9344 84.242 46.9344 84.774C46.9344 85.1007 46.8737 85.3993 46.7524 85.67C46.631 85.9407 46.4444 86.1787 46.1924 86.384C45.9404 86.58 45.6137 86.734 45.2124 86.846C44.8204 86.9487 44.3444 87 43.7844 87H40.4384V79.454H43.7844C44.335 79.454 44.8297 79.5147 45.2684 79.636C45.707 79.7573 46.0524 79.958 46.3044 80.238C46.5657 80.518 46.6964 80.896 46.6964 81.372ZM45.3944 84.746C45.3944 84.354 45.245 84.074 44.9464 83.906C44.6477 83.7287 44.2044 83.64 43.6164 83.64H41.9224V85.88H43.6444C44.195 85.88 44.6244 85.796 44.9324 85.628C45.2404 85.4507 45.3944 85.1567 45.3944 84.746ZM45.1844 81.54C45.1844 81.2133 45.0677 80.9753 44.8344 80.826C44.601 80.6767 44.223 80.602 43.7004 80.602H41.9224V82.506H43.4764C44.0364 82.506 44.461 82.4313 44.7504 82.282C45.0397 82.1233 45.1844 81.876 45.1844 81.54ZM54.7715 87H53.2735V80.644H51.1455C51.0522 81.8013 50.9355 82.7953 50.7955 83.626C50.6649 84.4473 50.4922 85.1147 50.2775 85.628C50.0722 86.1413 49.8155 86.5193 49.5075 86.762C49.2089 86.9953 48.8495 87.112 48.4295 87.112C48.2802 87.112 48.1355 87.098 47.9955 87.07C47.8555 87.0513 47.7342 87.0187 47.6315 86.972V85.838C47.6969 85.8567 47.7669 85.8753 47.8415 85.894C47.9255 85.9033 48.0095 85.908 48.0935 85.908C48.2802 85.908 48.4482 85.8333 48.5975 85.684C48.7562 85.5347 48.8962 85.3013 49.0175 84.984C49.1482 84.6667 49.2649 84.256 49.3675 83.752C49.4795 83.2387 49.5729 82.6273 49.6475 81.918C49.7315 81.2087 49.8062 80.3873 49.8715 79.454H54.7715V87ZM60.0587 79.314C60.7214 79.314 61.2907 79.454 61.7667 79.734C62.2427 80.0047 62.6067 80.3967 62.8587 80.91C63.12 81.4233 63.2507 82.03 63.2507 82.73V83.542H58.1827C58.2014 84.3167 58.402 84.9093 58.7847 85.32C59.1767 85.7307 59.7227 85.936 60.4227 85.936C60.908 85.936 61.3374 85.894 61.7107 85.81C62.0934 85.7167 62.4854 85.5813 62.8867 85.404V86.636C62.5134 86.804 62.1307 86.93 61.7387 87.014C61.356 87.098 60.8987 87.14 60.3667 87.14C59.6387 87.14 58.9947 86.9953 58.4347 86.706C57.8747 86.4167 57.436 85.9873 57.1187 85.418C56.8107 84.8393 56.6567 84.13 56.6567 83.29C56.6567 82.4407 56.7967 81.722 57.0767 81.134C57.366 80.546 57.7627 80.098 58.2667 79.79C58.78 79.4727 59.3774 79.314 60.0587 79.314ZM60.0587 80.462C59.5267 80.462 59.0974 80.6347 58.7707 80.98C58.4534 81.3253 58.2667 81.8153 58.2107 82.45H61.7667C61.7667 82.058 61.706 81.7127 61.5847 81.414C61.4634 81.1153 61.2767 80.882 61.0247 80.714C60.7727 80.546 60.4507 80.462 60.0587 80.462ZM66.5864 79.454V82.52H70.3104V79.454H71.7944V87H70.3104V83.71H66.5864V87H65.1024V79.454H66.5864ZM77.0382 79.314C77.9902 79.314 78.6995 79.524 79.1662 79.944C79.6329 80.3547 79.8662 81.0033 79.8662 81.89V87H78.8162L78.5222 85.95H78.4662C78.2515 86.2207 78.0275 86.4447 77.7942 86.622C77.5702 86.7993 77.3089 86.93 77.0102 87.014C76.7209 87.098 76.3662 87.14 75.9462 87.14C75.4982 87.14 75.0922 87.0607 74.7282 86.902C74.3735 86.734 74.0935 86.482 73.8882 86.146C73.6829 85.8007 73.5802 85.3713 73.5802 84.858C73.5802 84.0927 73.8695 83.5093 74.4482 83.108C75.0362 82.7067 75.9275 82.4873 77.1222 82.45L78.4102 82.408V81.988C78.4102 81.428 78.2842 81.036 78.0322 80.812C77.7802 80.588 77.4255 80.476 76.9682 80.476C76.5762 80.476 76.2029 80.532 75.8482 80.644C75.4935 80.756 75.1575 80.8913 74.8402 81.05L74.3642 79.972C74.7189 79.7853 75.1249 79.6313 75.5822 79.51C76.0489 79.3793 76.5342 79.314 77.0382 79.314ZM77.3882 83.402C76.5295 83.4393 75.9322 83.584 75.5962 83.836C75.2695 84.0787 75.1062 84.424 75.1062 84.872C75.1062 85.264 75.2229 85.5487 75.4562 85.726C75.6989 85.9033 76.0022 85.992 76.3662 85.992C76.9542 85.992 77.4395 85.8287 77.8222 85.502C78.2049 85.1753 78.3962 84.6853 78.3962 84.032V83.374L77.3882 83.402Z" fill="#203B54"/>
<circle cx="232.5" cy="24.5" r="23.5" stroke="#4370D6" stroke-width="2"/>
<g clip-path="url(#clip2_457_822)">
<path d="M240.289 14.6853H237.883V13.6087C237.883 13.2604 237.503 13.1021 237.155 13.1021H235.287C234.843 11.8355 233.735 11.2022 232.468 11.2022C231.216 11.1552 230.076 11.9232 229.65 13.1021H227.814C227.465 13.1021 227.117 13.2604 227.117 13.6087V14.6853H224.711C223.285 14.7005 222.118 15.8255 222.051 17.2501V35.3937C222.051 36.7869 223.317 37.8001 224.711 37.8001H240.289C241.683 37.8001 242.949 36.7869 242.949 35.3937V17.2501C242.882 15.8255 241.715 14.7005 240.289 14.6853ZM228.384 14.3687H230.125C230.429 14.3316 230.673 14.1003 230.727 13.7987C230.914 12.9821 231.631 12.3959 232.468 12.3738C233.298 12.399 234.004 12.987 234.178 13.7987C234.235 14.1107 234.495 14.345 234.812 14.3687H236.616V16.9018H228.384V14.3687ZM241.683 35.3937C241.683 36.0903 240.986 36.5336 240.289 36.5336H224.711C224.014 36.5336 223.317 36.0903 223.317 35.3937V17.2501C223.382 16.525 223.983 15.9652 224.711 15.9519H227.117V17.5668C227.151 17.9216 227.458 18.187 227.814 18.1684H237.155C237.517 18.1883 237.834 17.9265 237.883 17.5668V15.9519H240.289C241.017 15.9652 241.618 16.525 241.683 17.2501V35.3937H241.683Z" fill="#4370D6"/>
<path d="M238.761 26.6001H226.239C225.637 26.6001 225.15 26.9135 225.15 27.3001C225.15 27.6867 225.637 28.0001 226.239 28.0001H238.761C239.362 28.0001 239.85 27.6867 239.85 27.3001C239.85 26.9135 239.362 26.6001 238.761 26.6001Z" fill="#4370D6"/>
<path d="M238.761 21.7002H226.239C225.637 21.7002 225.15 22.0136 225.15 22.4002C225.15 22.7868 225.637 23.1002 226.239 23.1002H238.761C239.362 23.1002 239.85 22.7868 239.85 22.4002C239.85 22.0136 239.362 21.7002 238.761 21.7002Z" fill="#4370D6"/>
<path d="M238.761 31.5H226.239C225.637 31.5 225.15 31.8134 225.15 32.2C225.15 32.5866 225.637 32.9 226.239 32.9H238.761C239.362 32.9 239.85 32.5866 239.85 32.2C239.85 31.8134 239.362 31.5 238.761 31.5Z" fill="#4370D6"/>
<path d="M248.9 29.0504C248.9 32.3089 246.259 34.9504 243 34.9504C239.742 34.9504 237.1 32.3089 237.1 29.0504C237.1 25.7919 239.742 23.1504 243 23.1504C246.259 23.1504 248.9 25.7919 248.9 29.0504Z" fill="#FAFBFC" stroke="#4370D6" stroke-width="1.5"/>
<path d="M245.389 27.4977C245.151 27.2473 244.757 27.2333 244.502 27.4661L242.476 29.3976L241.621 28.5109C241.383 28.2606 240.989 28.2465 240.734 28.4793C240.489 28.7363 240.489 29.1406 240.734 29.3976L242.032 30.7275C242.145 30.8533 242.307 30.9229 242.475 30.9175C242.643 30.9151 242.802 30.8468 242.919 30.7275L245.389 28.3843C245.633 28.1597 245.65 27.7791 245.425 27.5343C245.414 27.5216 245.401 27.5094 245.389 27.4977Z" fill="#4370D6"/>
</g>
<path d="M214.608 65.342C214.608 66.0233 214.384 66.5647 213.936 66.966C213.498 67.3673 212.914 67.6193 212.186 67.722V67.778C213.054 67.8807 213.712 68.142 214.16 68.562C214.618 68.9727 214.846 69.5093 214.846 70.172C214.846 70.7507 214.692 71.264 214.384 71.712C214.086 72.16 213.633 72.51 213.026 72.762C212.42 73.014 211.664 73.14 210.758 73.14C210.152 73.14 209.587 73.098 209.064 73.014C208.551 72.93 208.084 72.79 207.664 72.594V71.264C207.954 71.404 208.266 71.5253 208.602 71.628C208.948 71.7213 209.293 71.796 209.638 71.852C209.993 71.8987 210.324 71.922 210.632 71.922C211.528 71.922 212.196 71.768 212.634 71.46C213.073 71.1427 213.292 70.6947 213.292 70.116C213.292 69.528 213.017 69.1033 212.466 68.842C211.916 68.5713 211.155 68.436 210.184 68.436H208.896V67.204H210.1C210.8 67.204 211.37 67.1387 211.808 67.008C212.247 66.868 212.569 66.672 212.774 66.42C212.98 66.168 213.082 65.8693 213.082 65.524C213.082 65.0667 212.905 64.7167 212.55 64.474C212.196 64.222 211.72 64.096 211.122 64.096C210.534 64.096 210.026 64.1753 209.596 64.334C209.167 64.4833 208.756 64.684 208.364 64.936L207.664 63.914C207.954 63.7087 208.276 63.5313 208.63 63.382C208.985 63.2233 209.377 63.0973 209.806 63.004C210.245 62.9107 210.716 62.864 211.22 62.864C211.948 62.864 212.564 62.9713 213.068 63.186C213.572 63.4007 213.955 63.6947 214.216 64.068C214.478 64.432 214.608 64.8567 214.608 65.342ZM219.654 65.314C220.606 65.314 221.316 65.524 221.782 65.944C222.249 66.3547 222.482 67.0033 222.482 67.89V73H221.432L221.138 71.95H221.082C220.868 72.2207 220.644 72.4447 220.41 72.622C220.186 72.7993 219.925 72.93 219.626 73.014C219.337 73.098 218.982 73.14 218.562 73.14C218.114 73.14 217.708 73.0607 217.344 72.902C216.99 72.734 216.71 72.482 216.504 72.146C216.299 71.8007 216.196 71.3713 216.196 70.858C216.196 70.0927 216.486 69.5093 217.064 69.108C217.652 68.7067 218.544 68.4873 219.738 68.45L221.026 68.408V67.988C221.026 67.428 220.9 67.036 220.648 66.812C220.396 66.588 220.042 66.476 219.584 66.476C219.192 66.476 218.819 66.532 218.464 66.644C218.11 66.756 217.774 66.8913 217.456 67.05L216.98 65.972C217.335 65.7853 217.741 65.6313 218.198 65.51C218.665 65.3793 219.15 65.314 219.654 65.314ZM220.004 69.402C219.146 69.4393 218.548 69.584 218.212 69.836C217.886 70.0787 217.722 70.424 217.722 70.872C217.722 71.264 217.839 71.5487 218.072 71.726C218.315 71.9033 218.618 71.992 218.982 71.992C219.57 71.992 220.056 71.8287 220.438 71.502C220.821 71.1753 221.012 70.6853 221.012 70.032V69.374L220.004 69.402ZM230.717 65.454V71.824H231.823V75.646H230.437V73H225.229V75.646H223.857V71.824H224.459C224.861 71.2453 225.197 70.6107 225.467 69.92C225.738 69.2293 225.943 68.506 226.083 67.75C226.233 66.9847 226.321 66.2193 226.349 65.454H230.717ZM227.637 66.602C227.581 67.2087 227.479 67.8293 227.329 68.464C227.189 69.0987 227.007 69.7053 226.783 70.284C226.569 70.8627 226.312 71.376 226.013 71.824H229.261V66.602H227.637ZM236.17 65.314C237.122 65.314 237.831 65.524 238.298 65.944C238.765 66.3547 238.998 67.0033 238.998 67.89V73H237.948L237.654 71.95H237.598C237.383 72.2207 237.159 72.4447 236.926 72.622C236.702 72.7993 236.441 72.93 236.142 73.014C235.853 73.098 235.498 73.14 235.078 73.14C234.63 73.14 234.224 73.0607 233.86 72.902C233.505 72.734 233.225 72.482 233.02 72.146C232.815 71.8007 232.712 71.3713 232.712 70.858C232.712 70.0927 233.001 69.5093 233.58 69.108C234.168 68.7067 235.059 68.4873 236.254 68.45L237.542 68.408V67.988C237.542 67.428 237.416 67.036 237.164 66.812C236.912 66.588 236.557 66.476 236.1 66.476C235.708 66.476 235.335 66.532 234.98 66.644C234.625 66.756 234.289 66.8913 233.972 67.05L233.496 65.972C233.851 65.7853 234.257 65.6313 234.714 65.51C235.181 65.3793 235.666 65.314 236.17 65.314ZM236.52 69.402C235.661 69.4393 235.064 69.584 234.728 69.836C234.401 70.0787 234.238 70.424 234.238 70.872C234.238 71.264 234.355 71.5487 234.588 71.726C234.831 71.9033 235.134 71.992 235.498 71.992C236.086 71.992 236.571 71.8287 236.954 71.502C237.337 71.1753 237.528 70.6853 237.528 70.032V69.374L236.52 69.402ZM242.585 68.212C242.585 68.6133 242.697 68.912 242.921 69.108C243.145 69.304 243.462 69.402 243.873 69.402C244.321 69.402 244.732 69.3413 245.105 69.22C245.478 69.0893 245.856 68.9167 246.239 68.702V65.454H247.723V73H246.239V69.738C245.847 69.99 245.446 70.1907 245.035 70.34C244.624 70.4893 244.139 70.564 243.579 70.564C242.804 70.564 242.198 70.3633 241.759 69.962C241.32 69.5513 241.101 68.9913 241.101 68.282V65.454H242.585V68.212ZM252.973 65.314C253.925 65.314 254.634 65.524 255.101 65.944C255.567 66.3547 255.801 67.0033 255.801 67.89V73H254.751L254.457 71.95H254.401C254.186 72.2207 253.962 72.4447 253.729 72.622C253.505 72.7993 253.243 72.93 252.945 73.014C252.655 73.098 252.301 73.14 251.881 73.14C251.433 73.14 251.027 73.0607 250.663 72.902C250.308 72.734 250.028 72.482 249.823 72.146C249.617 71.8007 249.515 71.3713 249.515 70.858C249.515 70.0927 249.804 69.5093 250.383 69.108C250.971 68.7067 251.862 68.4873 253.057 68.45L254.345 68.408V67.988C254.345 67.428 254.219 67.036 253.967 66.812C253.715 66.588 253.36 66.476 252.903 66.476C252.511 66.476 252.137 66.532 251.783 66.644C251.428 66.756 251.092 66.8913 250.775 67.05L250.299 65.972C250.653 65.7853 251.059 65.6313 251.517 65.51C251.983 65.3793 252.469 65.314 252.973 65.314ZM253.323 69.402C252.464 69.4393 251.867 69.584 251.531 69.836C251.204 70.0787 251.041 70.424 251.041 70.872C251.041 71.264 251.157 71.5487 251.391 71.726C251.633 71.9033 251.937 71.992 252.301 71.992C252.889 71.992 253.374 71.8287 253.757 71.502C254.139 71.1753 254.331 70.6853 254.331 70.032V69.374L253.323 69.402ZM199.778 86.372C199.778 86.8293 199.638 87.1933 199.358 87.464C199.088 87.7253 198.724 87.9027 198.266 87.996V88.052C198.752 88.1173 199.162 88.29 199.498 88.57C199.844 88.8407 200.016 89.242 200.016 89.774C200.016 90.1007 199.956 90.3993 199.834 90.67C199.713 90.9407 199.526 91.1787 199.274 91.384C199.022 91.58 198.696 91.734 198.294 91.846C197.902 91.9487 197.426 92 196.866 92H193.52V84.454H196.866C197.417 84.454 197.912 84.5147 198.35 84.636C198.789 84.7573 199.134 84.958 199.386 85.238C199.648 85.518 199.778 85.896 199.778 86.372ZM198.476 89.746C198.476 89.354 198.327 89.074 198.028 88.906C197.73 88.7287 197.286 88.64 196.698 88.64H195.004V90.88H196.726C197.277 90.88 197.706 90.796 198.014 90.628C198.322 90.4507 198.476 90.1567 198.476 89.746ZM198.266 86.54C198.266 86.2133 198.15 85.9753 197.916 85.826C197.683 85.6767 197.305 85.602 196.782 85.602H195.004V87.506H196.558C197.118 87.506 197.543 87.4313 197.832 87.282C198.122 87.1233 198.266 86.876 198.266 86.54ZM201.806 92V84.454H203.29V87.492H204.956C205.646 87.492 206.216 87.576 206.664 87.744C207.112 87.9027 207.443 88.1407 207.658 88.458C207.872 88.7753 207.98 89.1767 207.98 89.662C207.98 90.138 207.872 90.5533 207.658 90.908C207.452 91.2533 207.126 91.524 206.678 91.72C206.239 91.9067 205.66 92 204.942 92H201.806ZM204.83 90.88C205.324 90.88 205.726 90.796 206.034 90.628C206.351 90.4507 206.51 90.1473 206.51 89.718C206.51 89.3073 206.365 89.0273 206.076 88.878C205.786 88.7193 205.371 88.64 204.83 88.64H203.29V90.88H204.83ZM209.184 92V84.454H210.668V92H209.184ZM219.513 84.454V92H218.029V85.658H214.473V92H212.989V84.454H219.513ZM228.485 88.22C228.485 88.8453 228.401 89.4007 228.233 89.886C228.065 90.3713 227.827 90.782 227.519 91.118C227.211 91.454 226.838 91.7107 226.399 91.888C225.96 92.056 225.466 92.14 224.915 92.14C224.411 92.14 223.944 92.056 223.515 91.888C223.086 91.7107 222.712 91.454 222.395 91.118C222.087 90.782 221.844 90.3713 221.667 89.886C221.49 89.4007 221.401 88.8407 221.401 88.206C221.401 87.3753 221.541 86.6707 221.821 86.092C222.11 85.5133 222.521 85.0747 223.053 84.776C223.594 84.468 224.229 84.314 224.957 84.314C225.648 84.314 226.254 84.468 226.777 84.776C227.309 85.0747 227.724 85.5133 228.023 86.092C228.331 86.6707 228.485 87.38 228.485 88.22ZM222.927 88.22C222.927 88.78 222.997 89.2653 223.137 89.676C223.277 90.0773 223.496 90.3853 223.795 90.6C224.094 90.8147 224.476 90.922 224.943 90.922C225.41 90.922 225.792 90.8147 226.091 90.6C226.39 90.3853 226.609 90.0773 226.749 89.676C226.889 89.2653 226.959 88.78 226.959 88.22C226.959 87.6413 226.884 87.156 226.735 86.764C226.595 86.372 226.376 86.0733 226.077 85.868C225.788 85.6533 225.405 85.546 224.929 85.546C224.229 85.546 223.72 85.7793 223.403 86.246C223.086 86.7127 222.927 87.3707 222.927 88.22ZM236.414 92H234.916V85.644H232.788C232.695 86.8013 232.578 87.7953 232.438 88.626C232.307 89.4473 232.135 90.1147 231.92 90.628C231.715 91.1413 231.458 91.5193 231.15 91.762C230.851 91.9953 230.492 92.112 230.072 92.112C229.923 92.112 229.778 92.098 229.638 92.07C229.498 92.0513 229.377 92.0187 229.274 91.972V90.838C229.339 90.8567 229.409 90.8753 229.484 90.894C229.568 90.9033 229.652 90.908 229.736 90.908C229.923 90.908 230.091 90.8333 230.24 90.684C230.399 90.5347 230.539 90.3013 230.66 89.984C230.791 89.6667 230.907 89.256 231.01 88.752C231.122 88.2387 231.215 87.6273 231.29 86.918C231.374 86.2087 231.449 85.3873 231.514 84.454H236.414V92ZM240.217 84.454V87.52H243.941V84.454H245.425V92H243.941V88.71H240.217V92H238.733V84.454H240.217ZM250.711 84.314C251.374 84.314 251.943 84.454 252.419 84.734C252.895 85.0047 253.259 85.3967 253.511 85.91C253.772 86.4233 253.903 87.03 253.903 87.73V88.542H248.835C248.854 89.3167 249.054 89.9093 249.437 90.32C249.829 90.7307 250.375 90.936 251.075 90.936C251.56 90.936 251.99 90.894 252.363 90.81C252.746 90.7167 253.138 90.5813 253.539 90.404V91.636C253.166 91.804 252.783 91.93 252.391 92.014C252.008 92.098 251.551 92.14 251.019 92.14C250.291 92.14 249.647 91.9953 249.087 91.706C248.527 91.4167 248.088 90.9873 247.771 90.418C247.463 89.8393 247.309 89.13 247.309 88.29C247.309 87.4407 247.449 86.722 247.729 86.134C248.018 85.546 248.415 85.098 248.919 84.79C249.432 84.4727 250.03 84.314 250.711 84.314ZM250.711 85.462C250.179 85.462 249.75 85.6347 249.423 85.98C249.106 86.3253 248.919 86.8153 248.863 87.45H252.419C252.419 87.058 252.358 86.7127 252.237 86.414C252.116 86.1153 251.929 85.882 251.677 85.714C251.425 85.546 251.103 85.462 250.711 85.462ZM257.239 84.454V87.52H260.963V84.454H262.447V92H260.963V88.71H257.239V92H255.755V84.454H257.239ZM267.691 84.314C268.643 84.314 269.352 84.524 269.819 84.944C270.285 85.3547 270.519 86.0033 270.519 86.89V92H269.469L269.175 90.95H269.119C268.904 91.2207 268.68 91.4447 268.447 91.622C268.223 91.7993 267.961 91.93 267.663 92.014C267.373 92.098 267.019 92.14 266.599 92.14C266.151 92.14 265.745 92.0607 265.381 91.902C265.026 91.734 264.746 91.482 264.541 91.146C264.335 90.8007 264.233 90.3713 264.233 89.858C264.233 89.0927 264.522 88.5093 265.101 88.108C265.689 87.7067 266.58 87.4873 267.775 87.45L269.063 87.408V86.988C269.063 86.428 268.937 86.036 268.685 85.812C268.433 85.588 268.078 85.476 267.621 85.476C267.229 85.476 266.855 85.532 266.501 85.644C266.146 85.756 265.81 85.8913 265.493 86.05L265.017 84.972C265.371 84.7853 265.777 84.6313 266.235 84.51C266.701 84.3793 267.187 84.314 267.691 84.314ZM268.041 88.402C267.182 88.4393 266.585 88.584 266.249 88.836C265.922 89.0787 265.759 89.424 265.759 89.872C265.759 90.264 265.875 90.5487 266.109 90.726C266.351 90.9033 266.655 90.992 267.019 90.992C267.607 90.992 268.092 90.8287 268.475 90.502C268.857 90.1753 269.049 89.6853 269.049 89.032V88.374L268.041 88.402Z" fill="#4370D6"/>
<defs>
<clipPath id="clip0_457_822">
<rect width="30.8" height="26.6" fill="white" transform="translate(26.8501 11.2002)"/>
</clipPath>
<clipPath id="clip1_457_822">
<rect width="6.3" height="6.3" fill="white" transform="translate(47.8501 25.9004)"/>
</clipPath>
<clipPath id="clip2_457_822">
<rect width="30.8" height="26.6" fill="white" transform="translate(218.85 11.2002)"/>
</clipPath>
</defs>
</svg>
