<svg width="507" height="119" viewBox="0 0 507 119" fill="none" xmlns="http://www.w3.org/2000/svg">
<path d="M103.125 60C103.125 60.1758 103.058 60.3518 102.924 60.486L96.0486 67.361C95.78 67.6297 95.3449 67.6297 95.0765 67.361C94.808 67.0924 94.8078 66.6574 95.0765 66.3889L101.465 60L95.0765 53.611C94.8078 53.3424 94.8078 52.9074 95.0765 52.6389C95.3451 52.3704 95.7801 52.3703 96.0486 52.6389L102.924 59.5139C103.058 59.6481 103.125 59.8241 103.125 60Z" fill="#941919"/>
<path d="M125.125 60C125.125 60.1758 125.058 60.3518 124.924 60.486L118.049 67.361C117.78 67.6297 117.345 67.6297 117.076 67.361C116.808 67.0924 116.808 66.6574 117.076 66.3889L123.465 60L117.076 53.611C116.808 53.3424 116.808 52.9074 117.076 52.6389C117.345 52.3704 117.78 52.3703 118.049 52.6389L124.924 59.5139C125.058 59.6481 125.125 59.8241 125.125 60Z" fill="#941919"/>
<path d="M147.125 60C147.125 60.1758 147.058 60.3518 146.924 60.486L140.049 67.361C139.78 67.6297 139.345 67.6297 139.076 67.361C138.808 67.0924 138.808 66.6574 139.076 66.3889L145.465 60L139.076 53.611C138.808 53.3424 138.808 52.9074 139.076 52.6389C139.345 52.3704 139.78 52.3703 140.049 52.6389L146.924 59.5139C147.058 59.6481 147.125 59.8241 147.125 60Z" fill="#941919"/>
<path d="M169.125 60C169.125 60.1758 169.058 60.3518 168.924 60.486L162.049 67.361C161.78 67.6297 161.345 67.6297 161.076 67.361C160.808 67.0924 160.808 66.6574 161.076 66.3889L167.465 60L161.076 53.611C160.808 53.3424 160.808 52.9074 161.076 52.6389C161.345 52.3704 161.78 52.3703 162.049 52.6389L168.924 59.5139C169.058 59.6481 169.125 59.8241 169.125 60Z" fill="#941919"/>
<path d="M191.125 60C191.125 60.1758 191.058 60.3518 190.924 60.486L184.049 67.361C183.78 67.6297 183.345 67.6297 183.076 67.361C182.808 67.0924 182.808 66.6574 183.076 66.3889L189.465 60L183.076 53.611C182.808 53.3424 182.808 52.9074 183.076 52.6389C183.345 52.3704 183.78 52.3703 184.049 52.6389L190.924 59.5139C191.058 59.6481 191.125 59.8241 191.125 60Z" fill="#941919"/>
<path d="M213.125 60C213.125 60.1758 213.058 60.3518 212.924 60.486L206.049 67.361C205.78 67.6297 205.345 67.6297 205.076 67.361C204.808 67.0924 204.808 66.6574 205.076 66.3889L211.465 60L205.076 53.611C204.808 53.3424 204.808 52.9074 205.076 52.6389C205.345 52.3704 205.78 52.3703 206.049 52.6389L212.924 59.5139C213.058 59.6481 213.125 59.8241 213.125 60Z" fill="#7B96AE"/>
<path d="M235.125 60C235.125 60.1758 235.058 60.3518 234.924 60.486L228.049 67.361C227.78 67.6297 227.345 67.6297 227.076 67.361C226.808 67.0924 226.808 66.6574 227.076 66.3889L233.465 60L227.076 53.611C226.808 53.3424 226.808 52.9074 227.076 52.6389C227.345 52.3704 227.78 52.3703 228.049 52.6389L234.924 59.5139C235.058 59.6481 235.125 59.8241 235.125 60Z" fill="#7B96AE"/>
<path d="M257.125 60C257.125 60.1758 257.058 60.3518 256.924 60.486L250.049 67.361C249.78 67.6297 249.345 67.6297 249.076 67.361C248.808 67.0924 248.808 66.6574 249.076 66.3889L255.465 60L249.076 53.611C248.808 53.3424 248.808 52.9074 249.076 52.6389C249.345 52.3704 249.78 52.3703 250.049 52.6389L256.924 59.5139C257.058 59.6481 257.125 59.8241 257.125 60Z" fill="#7B96AE"/>
<path d="M279.125 60C279.125 60.1758 279.058 60.3518 278.924 60.486L272.049 67.361C271.78 67.6297 271.345 67.6297 271.076 67.361C270.808 67.0924 270.808 66.6574 271.076 66.3889L277.465 60L271.076 53.611C270.808 53.3424 270.808 52.9074 271.076 52.6389C271.345 52.3704 271.78 52.3703 272.049 52.6389L278.924 59.5139C279.058 59.6481 279.125 59.8241 279.125 60Z" fill="#7B96AE"/>
<path d="M301.125 60C301.125 60.1758 301.058 60.3518 300.924 60.486L294.049 67.361C293.78 67.6297 293.345 67.6297 293.076 67.361C292.808 67.0924 292.808 66.6574 293.076 66.3889L299.465 60L293.076 53.611C292.808 53.3424 292.808 52.9074 293.076 52.6389C293.345 52.3704 293.78 52.3703 294.049 52.6389L300.924 59.5139C301.058 59.6481 301.125 59.8241 301.125 60Z" fill="#7B96AE"/>
<path d="M323.125 60C323.125 60.1758 323.058 60.3518 322.924 60.486L316.049 67.361C315.78 67.6297 315.345 67.6297 315.076 67.361C314.808 67.0924 314.808 66.6574 315.076 66.3889L321.465 60L315.076 53.611C314.808 53.3424 314.808 52.9074 315.076 52.6389C315.345 52.3704 315.78 52.3703 316.049 52.6389L322.924 59.5139C323.058 59.6481 323.125 59.8241 323.125 60Z" fill="#4370D6"/>
<path d="M345.125 60C345.125 60.1758 345.058 60.3518 344.924 60.486L338.049 67.361C337.78 67.6297 337.345 67.6297 337.076 67.361C336.808 67.0924 336.808 66.6574 337.076 66.3889L343.465 60L337.076 53.611C336.808 53.3424 336.808 52.9074 337.076 52.6389C337.345 52.3704 337.78 52.3703 338.049 52.6389L344.924 59.5139C345.058 59.6481 345.125 59.8241 345.125 60Z" fill="#4370D6"/>
<path d="M367.125 60C367.125 60.1758 367.058 60.3518 366.924 60.486L360.049 67.361C359.78 67.6297 359.345 67.6297 359.076 67.361C358.808 67.0924 358.808 66.6574 359.076 66.3889L365.465 60L359.076 53.611C358.808 53.3424 358.808 52.9074 359.076 52.6389C359.345 52.3704 359.78 52.3703 360.049 52.6389L366.924 59.5139C367.058 59.6481 367.125 59.8241 367.125 60Z" fill="#4370D6"/>
<path d="M389.125 60C389.125 60.1758 389.058 60.3518 388.924 60.486L382.049 67.361C381.78 67.6297 381.345 67.6297 381.076 67.361C380.808 67.0924 380.808 66.6574 381.076 66.3889L387.465 60L381.076 53.611C380.808 53.3424 380.808 52.9074 381.076 52.6389C381.345 52.3704 381.78 52.3703 382.049 52.6389L388.924 59.5139C389.058 59.6481 389.125 59.8241 389.125 60Z" fill="#4370D6"/>
<path d="M411.125 60C411.125 60.1758 411.058 60.3518 410.924 60.486L404.049 67.361C403.78 67.6297 403.345 67.6297 403.076 67.361C402.808 67.0924 402.808 66.6574 403.076 66.3889L409.465 60L403.076 53.611C402.808 53.3424 402.808 52.9074 403.076 52.6389C403.345 52.3704 403.78 52.3703 404.049 52.6389L410.924 59.5139C411.058 59.6481 411.125 59.8241 411.125 60Z" fill="#4370D6"/>
<circle cx="46.5" cy="35" r="33.5" stroke="#203B54" stroke-width="3"/>
<path d="M57.6277 20.9787H54.1899V19.4407C54.1899 18.9432 53.6471 18.717 53.1495 18.717H50.4807C49.8474 16.9076 48.2642 16.0029 46.4548 16.0029C44.6653 15.9357 43.0377 17.0329 42.4289 18.717H39.8053C39.3077 18.717 38.8101 18.9432 38.8101 19.4407V20.9787H35.3722C33.335 21.0004 31.6683 22.6076 31.5725 24.6427V50.5621C31.5725 52.5524 33.3819 53.9999 35.3722 53.9999H57.6277C59.618 53.9999 61.4274 52.5524 61.4274 50.5621V24.6428C61.3316 22.6076 59.6649 21.0004 57.6277 20.9787ZM40.6194 20.5264H43.1074C43.5417 20.4734 43.8905 20.143 43.9669 19.7122C44.2348 18.5456 45.2582 17.7082 46.4548 17.6766C47.6403 17.7126 48.6484 18.5526 48.8975 19.7122C48.9786 20.1579 49.3504 20.4925 49.8021 20.5264H52.3806V24.1452H40.6194V20.5264ZM59.618 50.5622C59.618 51.5573 58.6228 52.1906 57.6277 52.1906H35.3722C34.3771 52.1906 33.3819 51.5573 33.3819 50.5622V24.6428C33.4742 23.6069 34.3324 22.8071 35.3722 22.7882H38.8101V25.0951C38.8579 25.602 39.2968 25.9811 39.8052 25.9546H53.1494C53.6672 25.983 54.1199 25.609 54.1898 25.0951V22.7881H57.6276C58.6674 22.8071 59.5256 23.6068 59.6179 24.6427V50.5622H59.618Z" fill="#203B54"/>
<path d="M55.4444 38H37.5556C36.6964 38 36 38.4477 36 39C36 39.5523 36.6964 40 37.5556 40H55.4444C56.3036 40 57 39.5523 57 39C57 38.4477 56.3036 38 55.4444 38Z" fill="#203B54"/>
<path d="M55.4444 31H37.5556C36.6964 31 36 31.4477 36 32C36 32.5523 36.6964 33 37.5556 33H55.4444C56.3036 33 57 32.5523 57 32C57 31.4477 56.3036 31 55.4444 31Z" fill="#203B54"/>
<path d="M55.4444 45H37.5556C36.6964 45 36 45.4477 36 46C36 46.5523 36.6964 47 37.5556 47H55.4444C56.3036 47 57 46.5523 57 46C57 45.4477 56.3036 45 55.4444 45Z" fill="#203B54"/>
<circle cx="61.5" cy="41.5" r="8.75" fill="#FAFBFC" stroke="#203B54" stroke-width="1.5"/>
<g clip-path="url(#clip0_454_788)">
<mask id="mask0_454_788" style="mask-type:luminance" maskUnits="userSpaceOnUse" x="57" y="37" width="9" height="9">
<path d="M57 37H66V46H57V37Z" fill="white"/>
</mask>
<g mask="url(#mask0_454_788)">
<path d="M65.5796 38.5391L64.461 37.4205C64.2556 37.2151 63.9207 37.2149 63.7155 37.4202L58.0122 43.1235L59.8766 44.9879L65.58 39.2846C65.7852 39.0794 65.785 38.7445 65.5796 38.5391Z" stroke="#203B54" stroke-width="0.8" stroke-miterlimit="22.926" stroke-linecap="round" stroke-linejoin="round"/>
<path d="M57.2664 45.7336L58.0121 43.1234L59.8766 44.9879L57.2664 45.7336Z" stroke="#203B54" stroke-width="0.8" stroke-miterlimit="22.926" stroke-linecap="round" stroke-linejoin="round"/>
<path d="M64.8338 40.0306L62.9694 38.1662" stroke="#203B54" stroke-width="0.8" stroke-miterlimit="22.926" stroke-linecap="round" stroke-linejoin="round"/>
</g>
</g>
<path d="M26.6236 83.248C26.6236 84.0267 26.3676 84.6453 25.8556 85.104C25.3543 85.5627 24.6876 85.8507 23.8556 85.968V86.032C24.8476 86.1493 25.5996 86.448 26.1116 86.928C26.6343 87.3973 26.8956 88.0107 26.8956 88.768C26.8956 89.4293 26.7196 90.016 26.3676 90.528C26.0263 91.04 25.509 91.44 24.8156 91.728C24.1223 92.016 23.2583 92.16 22.2236 92.16C21.5303 92.16 20.885 92.112 20.2876 92.016C19.701 91.92 19.1676 91.76 18.6876 91.536V90.016C19.0183 90.176 19.3756 90.3147 19.7596 90.432C20.1543 90.5387 20.549 90.624 20.9436 90.688C21.349 90.7413 21.7276 90.768 22.0796 90.768C23.1036 90.768 23.8663 90.592 24.3676 90.24C24.869 89.8773 25.1196 89.3653 25.1196 88.704C25.1196 88.032 24.805 87.5467 24.1756 87.248C23.5463 86.9387 22.677 86.784 21.5676 86.784H20.0956V85.376H21.4716C22.2716 85.376 22.9223 85.3013 23.4236 85.152C23.925 84.992 24.293 84.768 24.5276 84.48C24.7623 84.192 24.8796 83.8507 24.8796 83.456C24.8796 82.9333 24.677 82.5333 24.2716 82.256C23.8663 81.968 23.3223 81.824 22.6396 81.824C21.9676 81.824 21.3863 81.9147 20.8956 82.096C20.405 82.2667 19.9356 82.496 19.4876 82.784L18.6876 81.616C19.0183 81.3813 19.3863 81.1787 19.7916 81.008C20.197 80.8267 20.645 80.6827 21.1356 80.576C21.637 80.4693 22.1756 80.416 22.7516 80.416C23.5836 80.416 24.2876 80.5387 24.8636 80.784C25.4396 81.0293 25.877 81.3653 26.1756 81.792C26.4743 82.208 26.6236 82.6933 26.6236 83.248ZM32.3908 83.216C33.4788 83.216 34.2894 83.456 34.8228 83.936C35.3561 84.4053 35.6228 85.1467 35.6228 86.16V92H34.4228L34.0868 90.8H34.0228C33.7774 91.1093 33.5214 91.3653 33.2548 91.568C32.9988 91.7707 32.7001 91.92 32.3588 92.016C32.0281 92.112 31.6228 92.16 31.1428 92.16C30.6308 92.16 30.1668 92.0693 29.7508 91.888C29.3454 91.696 29.0254 91.408 28.7908 91.024C28.5561 90.6293 28.4388 90.1387 28.4388 89.552C28.4388 88.6773 28.7694 88.0107 29.4308 87.552C30.1028 87.0933 31.1214 86.8427 32.4868 86.8L33.9588 86.752V86.272C33.9588 85.632 33.8148 85.184 33.5268 84.928C33.2388 84.672 32.8334 84.544 32.3108 84.544C31.8628 84.544 31.4361 84.608 31.0308 84.736C30.6254 84.864 30.2414 85.0187 29.8788 85.2L29.3348 83.968C29.7401 83.7547 30.2041 83.5787 30.7268 83.44C31.2601 83.2907 31.8148 83.216 32.3908 83.216ZM32.7908 87.888C31.8094 87.9307 31.1268 88.096 30.7428 88.384C30.3694 88.6613 30.1828 89.056 30.1828 89.568C30.1828 90.016 30.3161 90.3413 30.5828 90.544C30.8601 90.7467 31.2068 90.848 31.6228 90.848C32.2948 90.848 32.8494 90.6613 33.2868 90.288C33.7241 89.9147 33.9428 89.3547 33.9428 88.608V87.856L32.7908 87.888ZM45.0343 83.376V90.656H46.2983V95.024H44.7143V92H38.7623V95.024H37.1943V90.656H37.8823C38.3409 89.9947 38.7249 89.2693 39.0343 88.48C39.3436 87.6907 39.5783 86.864 39.7383 86C39.9089 85.1253 40.0103 84.2507 40.0423 83.376H45.0343ZM41.5143 84.688C41.4503 85.3813 41.3329 86.0907 41.1623 86.816C41.0023 87.5413 40.7943 88.2347 40.5383 88.896C40.2929 89.5573 39.9996 90.144 39.6583 90.656H43.3703V84.688H41.5143ZM51.2658 83.216C52.3538 83.216 53.1644 83.456 53.6978 83.936C54.2311 84.4053 54.4978 85.1467 54.4978 86.16V92H53.2978L52.9618 90.8H52.8978C52.6524 91.1093 52.3964 91.3653 52.1298 91.568C51.8738 91.7707 51.5751 91.92 51.2338 92.016C50.9031 92.112 50.4978 92.16 50.0178 92.16C49.5058 92.16 49.0418 92.0693 48.6258 91.888C48.2204 91.696 47.9004 91.408 47.6658 91.024C47.4311 90.6293 47.3138 90.1387 47.3138 89.552C47.3138 88.6773 47.6444 88.0107 48.3058 87.552C48.9778 87.0933 49.9964 86.8427 51.3618 86.8L52.8338 86.752V86.272C52.8338 85.632 52.6898 85.184 52.4018 84.928C52.1138 84.672 51.7084 84.544 51.1858 84.544C50.7378 84.544 50.3111 84.608 49.9058 84.736C49.5004 84.864 49.1164 85.0187 48.7538 85.2L48.2098 83.968C48.6151 83.7547 49.0791 83.5787 49.6018 83.44C50.1351 83.2907 50.6898 83.216 51.2658 83.216ZM51.6658 87.888C50.6844 87.9307 50.0018 88.096 49.6178 88.384C49.2444 88.6613 49.0578 89.056 49.0578 89.568C49.0578 90.016 49.1911 90.3413 49.4578 90.544C49.7351 90.7467 50.0818 90.848 50.4978 90.848C51.1698 90.848 51.7244 90.6613 52.1618 90.288C52.5991 89.9147 52.8178 89.3547 52.8178 88.608V87.856L51.6658 87.888ZM58.5973 86.528C58.5973 86.9867 58.7253 87.328 58.9813 87.552C59.2373 87.776 59.5999 87.888 60.0693 87.888C60.5813 87.888 61.0506 87.8187 61.4773 87.68C61.9039 87.5307 62.3359 87.3333 62.7733 87.088V83.376H64.4693V92H62.7733V88.272C62.3253 88.56 61.8666 88.7893 61.3973 88.96C60.9279 89.1307 60.3733 89.216 59.7333 89.216C58.8479 89.216 58.1546 88.9867 57.6533 88.528C57.1519 88.0587 56.9013 87.4187 56.9013 86.608V83.376H58.5973V86.528ZM70.4689 83.216C71.5569 83.216 72.3675 83.456 72.9009 83.936C73.4342 84.4053 73.7009 85.1467 73.7009 86.16V92H72.5009L72.1649 90.8H72.1009C71.8555 91.1093 71.5995 91.3653 71.3329 91.568C71.0769 91.7707 70.7782 91.92 70.4369 92.016C70.1062 92.112 69.7009 92.16 69.2209 92.16C68.7089 92.16 68.2449 92.0693 67.8289 91.888C67.4235 91.696 67.1035 91.408 66.8689 91.024C66.6342 90.6293 66.5169 90.1387 66.5169 89.552C66.5169 88.6773 66.8475 88.0107 67.5089 87.552C68.1809 87.0933 69.1995 86.8427 70.5649 86.8L72.0369 86.752V86.272C72.0369 85.632 71.8929 85.184 71.6049 84.928C71.3169 84.672 70.9115 84.544 70.3889 84.544C69.9409 84.544 69.5142 84.608 69.1089 84.736C68.7035 84.864 68.3195 85.0187 67.9569 85.2L67.4129 83.968C67.8182 83.7547 68.2822 83.5787 68.8049 83.44C69.3382 83.2907 69.8929 83.216 70.4689 83.216ZM70.8689 87.888C69.8875 87.9307 69.2049 88.096 68.8209 88.384C68.4475 88.6613 68.2609 89.056 68.2609 89.568C68.2609 90.016 68.3942 90.3413 68.6609 90.544C68.9382 90.7467 69.2849 90.848 69.7009 90.848C70.3729 90.848 70.9275 90.6613 71.3649 90.288C71.8022 89.9147 72.0209 89.3547 72.0209 88.608V87.856L70.8689 87.888ZM9.01056 105.376V114H7.31456V106.752H3.25056V114H1.55456V105.376H9.01056ZM19.2639 109.68C19.2639 110.395 19.1679 111.029 18.9759 111.584C18.7839 112.139 18.5119 112.608 18.1599 112.992C17.8079 113.376 17.3813 113.669 16.8799 113.872C16.3786 114.064 15.8133 114.16 15.1839 114.16C14.6079 114.16 14.0746 114.064 13.5839 113.872C13.0933 113.669 12.6666 113.376 12.3039 112.992C11.9519 112.608 11.6746 112.139 11.4719 111.584C11.2693 111.029 11.1679 110.389 11.1679 109.664C11.1679 108.715 11.3279 107.909 11.6479 107.248C11.9786 106.587 12.4479 106.085 13.0559 105.744C13.6746 105.392 14.3999 105.216 15.2319 105.216C16.0213 105.216 16.7146 105.392 17.3119 105.744C17.9199 106.085 18.3946 106.587 18.7359 107.248C19.0879 107.909 19.2639 108.72 19.2639 109.68ZM12.9119 109.68C12.9119 110.32 12.9919 110.875 13.1519 111.344C13.3119 111.803 13.5626 112.155 13.9039 112.4C14.2453 112.645 14.6826 112.768 15.2159 112.768C15.7493 112.768 16.1866 112.645 16.5279 112.4C16.8693 112.155 17.1199 111.803 17.2799 111.344C17.4399 110.875 17.5199 110.32 17.5199 109.68C17.5199 109.019 17.4346 108.464 17.2639 108.016C17.1039 107.568 16.8533 107.227 16.5119 106.992C16.1813 106.747 15.7439 106.624 15.1999 106.624C14.3999 106.624 13.8186 106.891 13.4559 107.424C13.0933 107.957 12.9119 108.709 12.9119 109.68ZM24.8859 114.16C24.0966 114.16 23.4033 114.005 22.8059 113.696C22.2086 113.387 21.7446 112.907 21.4139 112.256C21.0833 111.595 20.9179 110.757 20.9179 109.744C20.9179 108.677 21.0939 107.813 21.4459 107.152C21.8086 106.491 22.2939 106.005 22.9019 105.696C23.5206 105.376 24.2246 105.216 25.0139 105.216C25.4939 105.216 25.9419 105.269 26.3579 105.376C26.7846 105.472 27.1366 105.584 27.4139 105.712L26.9019 107.088C26.6033 106.971 26.2833 106.869 25.9419 106.784C25.6113 106.699 25.2966 106.656 24.9979 106.656C24.4646 106.656 24.0219 106.773 23.6699 107.008C23.3286 107.232 23.0726 107.573 22.9019 108.032C22.7419 108.48 22.6619 109.045 22.6619 109.728C22.6619 110.379 22.7473 110.928 22.9179 111.376C23.0886 111.824 23.3393 112.165 23.6699 112.4C24.0113 112.624 24.4326 112.736 24.9339 112.736C25.4139 112.736 25.8353 112.683 26.1979 112.576C26.5606 112.469 26.9019 112.331 27.2219 112.16V113.632C26.9126 113.813 26.5766 113.947 26.2139 114.032C25.8513 114.117 25.4086 114.16 24.8859 114.16ZM35.5617 106.736H32.7457V114H31.0657V106.736H28.2657V105.376H35.5617V106.736ZM40.5861 105.216C41.6741 105.216 42.4847 105.456 43.0181 105.936C43.5514 106.405 43.8181 107.147 43.8181 108.16V114H42.6181L42.2821 112.8H42.2181C41.9727 113.109 41.7167 113.365 41.4501 113.568C41.1941 113.771 40.8954 113.92 40.5541 114.016C40.2234 114.112 39.8181 114.16 39.3381 114.16C38.8261 114.16 38.3621 114.069 37.9461 113.888C37.5407 113.696 37.2207 113.408 36.9861 113.024C36.7514 112.629 36.6341 112.139 36.6341 111.552C36.6341 110.677 36.9647 110.011 37.6261 109.552C38.2981 109.093 39.3167 108.843 40.6821 108.8L42.1541 108.752V108.272C42.1541 107.632 42.0101 107.184 41.7221 106.928C41.4341 106.672 41.0287 106.544 40.5061 106.544C40.0581 106.544 39.6314 106.608 39.2261 106.736C38.8207 106.864 38.4367 107.019 38.0741 107.2L37.5301 105.968C37.9354 105.755 38.3994 105.579 38.9221 105.44C39.4554 105.291 40.0101 105.216 40.5861 105.216ZM40.9861 109.888C40.0047 109.931 39.3221 110.096 38.9381 110.384C38.5647 110.661 38.3781 111.056 38.3781 111.568C38.3781 112.016 38.5114 112.341 38.7781 112.544C39.0554 112.747 39.4021 112.848 39.8181 112.848C40.4901 112.848 41.0447 112.661 41.4821 112.288C41.9194 111.915 42.1381 111.355 42.1381 110.608V109.856L40.9861 109.888ZM53.5816 107.568C53.5816 108.091 53.4216 108.507 53.1016 108.816C52.7922 109.115 52.3762 109.317 51.8536 109.424V109.488C52.4082 109.563 52.8776 109.76 53.2616 110.08C53.6562 110.389 53.8536 110.848 53.8536 111.456C53.8536 111.829 53.7842 112.171 53.6456 112.48C53.5069 112.789 53.2936 113.061 53.0056 113.296C52.7176 113.52 52.3442 113.696 51.8856 113.824C51.4376 113.941 50.8936 114 50.2536 114H46.4296V105.376H50.2536C50.8829 105.376 51.4482 105.445 51.9496 105.584C52.4509 105.723 52.8456 105.952 53.1336 106.272C53.4322 106.592 53.5816 107.024 53.5816 107.568ZM52.0936 111.424C52.0936 110.976 51.9229 110.656 51.5816 110.464C51.2402 110.261 50.7336 110.16 50.0616 110.16H48.1256V112.72H50.0936C50.7229 112.72 51.2136 112.624 51.5656 112.432C51.9176 112.229 52.0936 111.893 52.0936 111.424ZM51.8536 107.76C51.8536 107.387 51.7202 107.115 51.4536 106.944C51.1869 106.773 50.7549 106.688 50.1576 106.688H48.1256V108.864H49.9016C50.5416 108.864 51.0269 108.779 51.3576 108.608C51.6882 108.427 51.8536 108.144 51.8536 107.76ZM62.8103 114H61.0983V106.736H58.6663C58.5596 108.059 58.4263 109.195 58.2663 110.144C58.117 111.083 57.9196 111.845 57.6743 112.432C57.4396 113.019 57.1463 113.451 56.7943 113.728C56.453 113.995 56.0423 114.128 55.5623 114.128C55.3916 114.128 55.2263 114.112 55.0663 114.08C54.9063 114.059 54.7676 114.021 54.6503 113.968V112.672C54.725 112.693 54.805 112.715 54.8903 112.736C54.9863 112.747 55.0823 112.752 55.1783 112.752C55.3916 112.752 55.5836 112.667 55.7543 112.496C55.9356 112.325 56.0956 112.059 56.2343 111.696C56.3836 111.333 56.517 110.864 56.6343 110.288C56.7623 109.701 56.869 109.003 56.9543 108.192C57.0503 107.381 57.1356 106.443 57.2103 105.376H62.8103V114ZM68.8528 105.216C69.6101 105.216 70.2608 105.376 70.8048 105.696C71.3488 106.005 71.7648 106.453 72.0528 107.04C72.3515 107.627 72.5008 108.32 72.5008 109.12V110.048H66.7088C66.7301 110.933 66.9595 111.611 67.3968 112.08C67.8448 112.549 68.4688 112.784 69.2688 112.784C69.8235 112.784 70.3141 112.736 70.7408 112.64C71.1781 112.533 71.6261 112.379 72.0848 112.176V113.584C71.6581 113.776 71.2208 113.92 70.7728 114.016C70.3355 114.112 69.8128 114.16 69.2048 114.16C68.3728 114.16 67.6368 113.995 66.9968 113.664C66.3568 113.333 65.8555 112.843 65.4928 112.192C65.1408 111.531 64.9648 110.72 64.9648 109.76C64.9648 108.789 65.1248 107.968 65.4448 107.296C65.7755 106.624 66.2288 106.112 66.8048 105.76C67.3915 105.397 68.0741 105.216 68.8528 105.216ZM68.8528 106.528C68.2448 106.528 67.7541 106.725 67.3808 107.12C67.0181 107.515 66.8048 108.075 66.7408 108.8H70.8048C70.8048 108.352 70.7355 107.957 70.5968 107.616C70.4581 107.275 70.2448 107.008 69.9568 106.816C69.6688 106.624 69.3008 106.528 68.8528 106.528ZM76.3131 105.376V108.88H80.5691V105.376H82.2651V114H80.5691V110.24H76.3131V114H74.6171V105.376H76.3131ZM88.2579 105.216C89.3459 105.216 90.1566 105.456 90.6899 105.936C91.2233 106.405 91.4899 107.147 91.4899 108.16V114H90.2899L89.9539 112.8H89.8899C89.6446 113.109 89.3886 113.365 89.1219 113.568C88.8659 113.771 88.5673 113.92 88.2259 114.016C87.8953 114.112 87.4899 114.16 87.0099 114.16C86.4979 114.16 86.0339 114.069 85.6179 113.888C85.2126 113.696 84.8926 113.408 84.6579 113.024C84.4233 112.629 84.3059 112.139 84.3059 111.552C84.3059 110.677 84.6366 110.011 85.2979 109.552C85.9699 109.093 86.9886 108.843 88.3539 108.8L89.8259 108.752V108.272C89.8259 107.632 89.6819 107.184 89.3939 106.928C89.1059 106.672 88.7006 106.544 88.1779 106.544C87.7299 106.544 87.3033 106.608 86.8979 106.736C86.4926 106.864 86.1086 107.019 85.7459 107.2L85.2019 105.968C85.6073 105.755 86.0713 105.579 86.5939 105.44C87.1273 105.291 87.6819 105.216 88.2579 105.216ZM88.6579 109.888C87.6766 109.931 86.9939 110.096 86.6099 110.384C86.2366 110.661 86.0499 111.056 86.0499 111.568C86.0499 112.016 86.1833 112.341 86.4499 112.544C86.7273 112.747 87.0739 112.848 87.4899 112.848C88.1619 112.848 88.7166 112.661 89.1539 112.288C89.5913 111.915 89.8099 111.355 89.8099 110.608V109.856L88.6579 109.888Z" fill="#203B54"/>
<path d="M98.2992 79.342C98.2992 80.0233 98.0845 80.5647 97.6552 80.966C97.2259 81.358 96.6519 81.61 95.9332 81.722V81.778C96.7732 81.89 97.4125 82.156 97.8512 82.576C98.2899 82.9867 98.5092 83.5187 98.5092 84.172C98.5092 85.0493 98.1732 85.7633 97.5012 86.314C96.8292 86.8647 95.8212 87.14 94.4772 87.14C93.9359 87.14 93.4179 87.098 92.9232 87.014C92.4379 86.9393 91.9852 86.7993 91.5652 86.594V85.446C91.9945 85.6607 92.4705 85.824 92.9932 85.936C93.5159 86.048 94.0059 86.104 94.4632 86.104C95.3592 86.104 96.0359 85.936 96.4932 85.6C96.9599 85.264 97.1932 84.788 97.1932 84.172C97.1932 83.5373 96.9225 83.0753 96.3812 82.786C95.8399 82.4967 95.0839 82.352 94.1132 82.352H92.6852V81.302H94.0432C95.0325 81.302 95.7699 81.1387 96.2552 80.812C96.7499 80.476 96.9972 80.028 96.9972 79.468C96.9972 78.964 96.8105 78.5767 96.4372 78.306C96.0639 78.0353 95.5785 77.9 94.9812 77.9C94.3465 77.9 93.8239 77.9793 93.4132 78.138C93.0025 78.2967 92.6012 78.502 92.2092 78.754L91.6072 77.9C91.9992 77.6107 92.4799 77.368 93.0492 77.172C93.6279 76.9667 94.2765 76.864 94.9952 76.864C96.0685 76.864 96.8852 77.0973 97.4452 77.564C98.0145 78.0307 98.2992 78.6233 98.2992 79.342ZM103.296 79.37C104.21 79.37 104.887 79.5707 105.326 79.972C105.764 80.3733 105.984 81.0127 105.984 81.89V87H105.088L104.85 85.936H104.794C104.467 86.3467 104.122 86.65 103.758 86.846C103.394 87.042 102.899 87.14 102.274 87.14C101.592 87.14 101.028 86.9627 100.58 86.608C100.132 86.244 99.9077 85.6793 99.9077 84.914C99.9077 84.1673 100.202 83.5933 100.79 83.192C101.378 82.7813 102.283 82.5573 103.506 82.52L104.78 82.478V82.03C104.78 81.4047 104.644 80.9707 104.374 80.728C104.103 80.4853 103.72 80.364 103.226 80.364C102.834 80.364 102.46 80.4247 102.106 80.546C101.751 80.658 101.42 80.7887 101.112 80.938L100.734 80.014C101.06 79.8367 101.448 79.6873 101.896 79.566C102.344 79.4353 102.81 79.37 103.296 79.37ZM104.766 83.332L103.66 83.374C102.726 83.4113 102.078 83.5607 101.714 83.822C101.359 84.0833 101.182 84.452 101.182 84.928C101.182 85.348 101.308 85.656 101.56 85.852C101.821 86.048 102.152 86.146 102.554 86.146C103.179 86.146 103.702 85.9733 104.122 85.628C104.551 85.2733 104.766 84.732 104.766 84.004V83.332ZM113.873 79.496V85.964H114.965V89.604H113.775V87H108.553V89.604H107.377V85.964H107.979C108.623 85.0773 109.104 84.0693 109.421 82.94C109.748 81.8013 109.916 80.6533 109.925 79.496H113.873ZM112.683 80.462H111.017C110.971 81.0967 110.868 81.7547 110.709 82.436C110.56 83.108 110.359 83.752 110.107 84.368C109.865 84.984 109.58 85.516 109.253 85.964H112.683V80.462ZM119.278 79.37C120.193 79.37 120.869 79.5707 121.308 79.972C121.747 80.3733 121.966 81.0127 121.966 81.89V87H121.07L120.832 85.936H120.776C120.449 86.3467 120.104 86.65 119.74 86.846C119.376 87.042 118.881 87.14 118.256 87.14C117.575 87.14 117.01 86.9627 116.562 86.608C116.114 86.244 115.89 85.6793 115.89 84.914C115.89 84.1673 116.184 83.5933 116.772 83.192C117.36 82.7813 118.265 82.5573 119.488 82.52L120.762 82.478V82.03C120.762 81.4047 120.627 80.9707 120.356 80.728C120.085 80.4853 119.703 80.364 119.208 80.364C118.816 80.364 118.443 80.4247 118.088 80.546C117.733 80.658 117.402 80.7887 117.094 80.938L116.716 80.014C117.043 79.8367 117.43 79.6873 117.878 79.566C118.326 79.4353 118.793 79.37 119.278 79.37ZM120.748 83.332L119.642 83.374C118.709 83.4113 118.06 83.5607 117.696 83.822C117.341 84.0833 117.164 84.452 117.164 84.928C117.164 85.348 117.29 85.656 117.542 85.852C117.803 86.048 118.135 86.146 118.536 86.146C119.161 86.146 119.684 85.9733 120.104 85.628C120.533 85.2733 120.748 84.732 120.748 84.004V83.332ZM125.362 79.496V82.226C125.362 83.0847 125.842 83.514 126.804 83.514C127.27 83.514 127.695 83.444 128.078 83.304C128.46 83.1547 128.852 82.9587 129.254 82.716V79.496H130.486V87H129.254V83.654C128.834 83.9247 128.418 84.1393 128.008 84.298C127.606 84.4473 127.121 84.522 126.552 84.522C125.777 84.522 125.18 84.3213 124.76 83.92C124.34 83.5187 124.13 82.982 124.13 82.31V79.496H125.362ZM135.712 79.37C136.626 79.37 137.303 79.5707 137.742 79.972C138.18 80.3733 138.4 81.0127 138.4 81.89V87H137.504L137.266 85.936H137.21C136.883 86.3467 136.538 86.65 136.174 86.846C135.81 87.042 135.315 87.14 134.69 87.14C134.008 87.14 133.444 86.9627 132.996 86.608C132.548 86.244 132.324 85.6793 132.324 84.914C132.324 84.1673 132.618 83.5933 133.206 83.192C133.794 82.7813 134.699 82.5573 135.922 82.52L137.196 82.478V82.03C137.196 81.4047 137.06 80.9707 136.79 80.728C136.519 80.4853 136.136 80.364 135.642 80.364C135.25 80.364 134.876 80.4247 134.522 80.546C134.167 80.658 133.836 80.7887 133.528 80.938L133.15 80.014C133.476 79.8367 133.864 79.6873 134.312 79.566C134.76 79.4353 135.226 79.37 135.712 79.37ZM137.182 83.332L136.076 83.374C135.142 83.4113 134.494 83.5607 134.13 83.822C133.775 84.0833 133.598 84.452 133.598 84.928C133.598 85.348 133.724 85.656 133.976 85.852C134.237 86.048 134.568 86.146 134.97 86.146C135.595 86.146 136.118 85.9733 136.538 85.628C136.967 85.2733 137.182 84.732 137.182 84.004V83.332ZM150.878 83.234C150.878 84.4753 150.561 85.4367 149.926 86.118C149.301 86.7993 148.451 87.14 147.378 87.14C146.715 87.14 146.123 86.9907 145.6 86.692C145.087 86.384 144.681 85.9407 144.382 85.362C144.083 84.774 143.934 84.0647 143.934 83.234C143.934 81.9927 144.242 81.036 144.858 80.364C145.483 79.692 146.337 79.356 147.42 79.356C148.092 79.356 148.689 79.51 149.212 79.818C149.735 80.1167 150.141 80.5553 150.43 81.134C150.729 81.7033 150.878 82.4033 150.878 83.234ZM145.208 83.234C145.208 84.1207 145.381 84.8253 145.726 85.348C146.081 85.8613 146.641 86.118 147.406 86.118C148.162 86.118 148.717 85.8613 149.072 85.348C149.427 84.8253 149.604 84.1207 149.604 83.234C149.604 82.3473 149.427 81.652 149.072 81.148C148.717 80.644 148.157 80.392 147.392 80.392C146.627 80.392 146.071 80.644 145.726 81.148C145.381 81.652 145.208 82.3473 145.208 83.234ZM160.237 89.604H159.033V87H152.831V79.496H154.063V85.964H157.941V79.496H159.173V85.978H160.237V89.604ZM164.574 79.356C165.209 79.356 165.76 79.496 166.226 79.776C166.693 80.056 167.048 80.4527 167.29 80.966C167.542 81.47 167.668 82.0627 167.668 82.744V83.486H162.53C162.549 84.3353 162.764 84.984 163.174 85.432C163.594 85.8707 164.178 86.09 164.924 86.09C165.4 86.09 165.82 86.048 166.184 85.964C166.558 85.8707 166.94 85.74 167.332 85.572V86.65C166.95 86.818 166.572 86.9393 166.198 87.014C165.825 87.098 165.382 87.14 164.868 87.14C164.15 87.14 163.52 86.9953 162.978 86.706C162.437 86.4167 162.012 85.9873 161.704 85.418C161.406 84.8487 161.256 84.144 161.256 83.304C161.256 82.4827 161.392 81.778 161.662 81.19C161.942 80.602 162.33 80.1493 162.824 79.832C163.328 79.5147 163.912 79.356 164.574 79.356ZM164.56 80.364C163.972 80.364 163.506 80.5553 163.16 80.938C162.824 81.3113 162.624 81.834 162.558 82.506H166.38C166.371 81.8713 166.222 81.358 165.932 80.966C165.643 80.5647 165.186 80.364 164.56 80.364ZM170.811 79.496V82.618H174.885V79.496H176.117V87H174.885V83.654H170.811V87H169.579V79.496H170.811ZM181.391 79.356C182.025 79.356 182.576 79.496 183.043 79.776C183.509 80.056 183.864 80.4527 184.107 80.966C184.359 81.47 184.485 82.0627 184.485 82.744V83.486H179.347C179.365 84.3353 179.58 84.984 179.991 85.432C180.411 85.8707 180.994 86.09 181.741 86.09C182.217 86.09 182.637 86.048 183.001 85.964C183.374 85.8707 183.757 85.74 184.149 85.572V86.65C183.766 86.818 183.388 86.9393 183.015 87.014C182.641 87.098 182.198 87.14 181.685 87.14C180.966 87.14 180.336 86.9953 179.795 86.706C179.253 86.4167 178.829 85.9873 178.521 85.418C178.222 84.8487 178.073 84.144 178.073 83.304C178.073 82.4827 178.208 81.778 178.479 81.19C178.759 80.602 179.146 80.1493 179.641 79.832C180.145 79.5147 180.728 79.356 181.391 79.356ZM181.377 80.364C180.789 80.364 180.322 80.5553 179.977 80.938C179.641 81.3113 179.44 81.834 179.375 82.506H183.197C183.187 81.8713 183.038 81.358 182.749 80.966C182.459 80.5647 182.002 80.364 181.377 80.364ZM187.627 79.496V82.618H191.701V79.496H192.933V87H191.701V83.654H187.627V87H186.395V79.496H187.627ZM198.151 79.37C199.066 79.37 199.742 79.5707 200.181 79.972C200.62 80.3733 200.839 81.0127 200.839 81.89V87H199.943L199.705 85.936H199.649C199.322 86.3467 198.977 86.65 198.613 86.846C198.249 87.042 197.754 87.14 197.129 87.14C196.448 87.14 195.883 86.9627 195.435 86.608C194.987 86.244 194.763 85.6793 194.763 84.914C194.763 84.1673 195.057 83.5933 195.645 83.192C196.233 82.7813 197.138 82.5573 198.361 82.52L199.635 82.478V82.03C199.635 81.4047 199.5 80.9707 199.229 80.728C198.958 80.4853 198.576 80.364 198.081 80.364C197.689 80.364 197.316 80.4247 196.961 80.546C196.606 80.658 196.275 80.7887 195.967 80.938L195.589 80.014C195.916 79.8367 196.303 79.6873 196.751 79.566C197.199 79.4353 197.666 79.37 198.151 79.37ZM199.621 83.332L198.515 83.374C197.582 83.4113 196.933 83.5607 196.569 83.822C196.214 84.0833 196.037 84.452 196.037 84.928C196.037 85.348 196.163 85.656 196.415 85.852C196.676 86.048 197.008 86.146 197.409 86.146C198.034 86.146 198.557 85.9733 198.977 85.628C199.406 85.2733 199.621 84.732 199.621 84.004V83.332Z" fill="#941919"/>
<path d="M205.372 36.342C205.372 37.0233 205.158 37.5647 204.728 37.966C204.299 38.358 203.725 38.61 203.006 38.722V38.778C203.846 38.89 204.486 39.156 204.924 39.576C205.363 39.9867 205.582 40.5187 205.582 41.172C205.582 42.0493 205.246 42.7633 204.574 43.314C203.902 43.8647 202.894 44.14 201.55 44.14C201.009 44.14 200.491 44.098 199.996 44.014C199.511 43.9393 199.058 43.7993 198.638 43.594V42.446C199.068 42.6607 199.544 42.824 200.066 42.936C200.589 43.048 201.079 43.104 201.536 43.104C202.432 43.104 203.109 42.936 203.566 42.6C204.033 42.264 204.266 41.788 204.266 41.172C204.266 40.5373 203.996 40.0753 203.454 39.786C202.913 39.4967 202.157 39.352 201.186 39.352H199.758V38.302H201.116C202.106 38.302 202.843 38.1387 203.328 37.812C203.823 37.476 204.07 37.028 204.07 36.468C204.07 35.964 203.884 35.5767 203.51 35.306C203.137 35.0353 202.652 34.9 202.054 34.9C201.42 34.9 200.897 34.9793 200.486 35.138C200.076 35.2967 199.674 35.502 199.282 35.754L198.68 34.9C199.072 34.6107 199.553 34.368 200.122 34.172C200.701 33.9667 201.35 33.864 202.068 33.864C203.142 33.864 203.958 34.0973 204.518 34.564C205.088 35.0307 205.372 35.6233 205.372 36.342ZM210.369 36.37C211.284 36.37 211.96 36.5707 212.399 36.972C212.838 37.3733 213.057 38.0127 213.057 38.89V44H212.161L211.923 42.936H211.867C211.54 43.3467 211.195 43.65 210.831 43.846C210.467 44.042 209.972 44.14 209.347 44.14C208.666 44.14 208.101 43.9627 207.653 43.608C207.205 43.244 206.981 42.6793 206.981 41.914C206.981 41.1673 207.275 40.5933 207.863 40.192C208.451 39.7813 209.356 39.5573 210.579 39.52L211.853 39.478V39.03C211.853 38.4047 211.718 37.9707 211.447 37.728C211.176 37.4853 210.794 37.364 210.299 37.364C209.907 37.364 209.534 37.4247 209.179 37.546C208.824 37.658 208.493 37.7887 208.185 37.938L207.807 37.014C208.134 36.8367 208.521 36.6873 208.969 36.566C209.417 36.4353 209.884 36.37 210.369 36.37ZM211.839 40.332L210.733 40.374C209.8 40.4113 209.151 40.5607 208.787 40.822C208.432 41.0833 208.255 41.452 208.255 41.928C208.255 42.348 208.381 42.656 208.633 42.852C208.894 43.048 209.226 43.146 209.627 43.146C210.252 43.146 210.775 42.9733 211.195 42.628C211.624 42.2733 211.839 41.732 211.839 41.004V40.332ZM220.947 36.496V42.964H222.039V46.604H220.849V44H215.627V46.604H214.451V42.964H215.053C215.697 42.0773 216.177 41.0693 216.495 39.94C216.821 38.8013 216.989 37.6533 216.999 36.496H220.947ZM219.757 37.462H218.091C218.044 38.0967 217.941 38.7547 217.783 39.436C217.633 40.108 217.433 40.752 217.181 41.368C216.938 41.984 216.653 42.516 216.327 42.964H219.757V37.462ZM226.351 36.37C227.266 36.37 227.943 36.5707 228.381 36.972C228.82 37.3733 229.039 38.0127 229.039 38.89V44H228.143L227.905 42.936H227.849C227.523 43.3467 227.177 43.65 226.813 43.846C226.449 44.042 225.955 44.14 225.329 44.14C224.648 44.14 224.083 43.9627 223.635 43.608C223.187 43.244 222.963 42.6793 222.963 41.914C222.963 41.1673 223.257 40.5933 223.845 40.192C224.433 39.7813 225.339 39.5573 226.561 39.52L227.835 39.478V39.03C227.835 38.4047 227.7 37.9707 227.429 37.728C227.159 37.4853 226.776 37.364 226.281 37.364C225.889 37.364 225.516 37.4247 225.161 37.546C224.807 37.658 224.475 37.7887 224.167 37.938L223.789 37.014C224.116 36.8367 224.503 36.6873 224.951 36.566C225.399 36.4353 225.866 36.37 226.351 36.37ZM227.821 40.332L226.715 40.374C225.782 40.4113 225.133 40.5607 224.769 40.822C224.415 41.0833 224.237 41.452 224.237 41.928C224.237 42.348 224.363 42.656 224.615 42.852C224.877 43.048 225.208 43.146 225.609 43.146C226.235 43.146 226.757 42.9733 227.177 42.628C227.607 42.2733 227.821 41.732 227.821 41.004V40.332ZM232.435 36.496V39.226C232.435 40.0847 232.916 40.514 233.877 40.514C234.344 40.514 234.768 40.444 235.151 40.304C235.534 40.1547 235.926 39.9587 236.327 39.716V36.496H237.559V44H236.327V40.654C235.907 40.9247 235.492 41.1393 235.081 41.298C234.68 41.4473 234.194 41.522 233.625 41.522C232.85 41.522 232.253 41.3213 231.833 40.92C231.413 40.5187 231.203 39.982 231.203 39.31V36.496H232.435ZM242.785 36.37C243.7 36.37 244.376 36.5707 244.815 36.972C245.254 37.3733 245.473 38.0127 245.473 38.89V44H244.577L244.339 42.936H244.283C243.956 43.3467 243.611 43.65 243.247 43.846C242.883 44.042 242.388 44.14 241.763 44.14C241.082 44.14 240.517 43.9627 240.069 43.608C239.621 43.244 239.397 42.6793 239.397 41.914C239.397 41.1673 239.691 40.5933 240.279 40.192C240.867 39.7813 241.772 39.5573 242.995 39.52L244.269 39.478V39.03C244.269 38.4047 244.134 37.9707 243.863 37.728C243.592 37.4853 243.21 37.364 242.715 37.364C242.323 37.364 241.95 37.4247 241.595 37.546C241.24 37.658 240.909 37.7887 240.601 37.938L240.223 37.014C240.55 36.8367 240.937 36.6873 241.385 36.566C241.833 36.4353 242.3 36.37 242.785 36.37ZM244.255 40.332L243.149 40.374C242.216 40.4113 241.567 40.5607 241.203 40.822C240.848 41.0833 240.671 41.452 240.671 41.928C240.671 42.348 240.797 42.656 241.049 42.852C241.31 43.048 241.642 43.146 242.043 43.146C242.668 43.146 243.191 42.9733 243.611 42.628C244.04 42.2733 244.255 41.732 244.255 41.004V40.332ZM254.437 44.14C253.765 44.14 253.173 44.0047 252.659 43.734C252.146 43.4633 251.74 43.0433 251.441 42.474C251.152 41.9047 251.007 41.1767 251.007 40.29C251.007 39.366 251.157 38.6147 251.455 38.036C251.763 37.4573 252.183 37.0327 252.715 36.762C253.247 36.4913 253.849 36.356 254.521 36.356C254.895 36.356 255.259 36.398 255.613 36.482C255.977 36.5567 256.271 36.65 256.495 36.762L256.117 37.784C255.893 37.7 255.632 37.6207 255.333 37.546C255.035 37.4713 254.755 37.434 254.493 37.434C253.019 37.434 252.281 38.3813 252.281 40.276C252.281 41.1813 252.459 41.8767 252.813 42.362C253.177 42.838 253.714 43.076 254.423 43.076C254.825 43.076 255.184 43.034 255.501 42.95C255.819 42.866 256.108 42.7633 256.369 42.642V43.734C256.117 43.8647 255.837 43.9627 255.529 44.028C255.231 44.1027 254.867 44.14 254.437 44.14ZM264.678 40.234C264.678 41.4753 264.361 42.4367 263.726 43.118C263.101 43.7993 262.251 44.14 261.178 44.14C260.515 44.14 259.923 43.9907 259.4 43.692C258.887 43.384 258.481 42.9407 258.182 42.362C257.883 41.774 257.734 41.0647 257.734 40.234C257.734 38.9927 258.042 38.036 258.658 37.364C259.283 36.692 260.137 36.356 261.22 36.356C261.892 36.356 262.489 36.51 263.012 36.818C263.535 37.1167 263.941 37.5553 264.23 38.134C264.529 38.7033 264.678 39.4033 264.678 40.234ZM259.008 40.234C259.008 41.1207 259.181 41.8253 259.526 42.348C259.881 42.8613 260.441 43.118 261.206 43.118C261.962 43.118 262.517 42.8613 262.872 42.348C263.227 41.8253 263.404 41.1207 263.404 40.234C263.404 39.3473 263.227 38.652 262.872 38.148C262.517 37.644 261.957 37.392 261.192 37.392C260.427 37.392 259.871 37.644 259.526 38.148C259.181 38.652 259.008 39.3473 259.008 40.234ZM271.208 36.496V37.532H267.862V44H266.63V36.496H271.208ZM277.975 44H276.729V37.518H274.517C274.396 39.0953 274.228 40.3693 274.013 41.34C273.799 42.3013 273.509 43.0013 273.145 43.44C272.791 43.8787 272.347 44.098 271.815 44.098C271.694 44.098 271.573 44.0887 271.451 44.07C271.339 44.0607 271.246 44.0373 271.171 44V43.076C271.227 43.0947 271.288 43.1087 271.353 43.118C271.419 43.1273 271.484 43.132 271.549 43.132C272.053 43.132 272.455 42.5953 272.753 41.522C273.061 40.4487 273.295 38.7733 273.453 36.496H277.975V44ZM283.199 36.37C284.114 36.37 284.79 36.5707 285.229 36.972C285.668 37.3733 285.887 38.0127 285.887 38.89V44H284.991L284.753 42.936H284.697C284.37 43.3467 284.025 43.65 283.661 43.846C283.297 44.042 282.802 44.14 282.177 44.14C281.496 44.14 280.931 43.9627 280.483 43.608C280.035 43.244 279.811 42.6793 279.811 41.914C279.811 41.1673 280.105 40.5933 280.693 40.192C281.281 39.7813 282.186 39.5573 283.409 39.52L284.683 39.478V39.03C284.683 38.4047 284.548 37.9707 284.277 37.728C284.006 37.4853 283.624 37.364 283.129 37.364C282.737 37.364 282.364 37.4247 282.009 37.546C281.654 37.658 281.323 37.7887 281.015 37.938L280.637 37.014C280.964 36.8367 281.351 36.6873 281.799 36.566C282.247 36.4353 282.714 36.37 283.199 36.37ZM284.669 40.332L283.563 40.374C282.63 40.4113 281.981 40.5607 281.617 40.822C281.262 41.0833 281.085 41.452 281.085 41.928C281.085 42.348 281.211 42.656 281.463 42.852C281.724 43.048 282.056 43.146 282.457 43.146C283.082 43.146 283.605 42.9733 284.025 42.628C284.454 42.2733 284.669 41.732 284.669 41.004V40.332ZM291.215 44.14C290.543 44.14 289.95 44.0047 289.437 43.734C288.923 43.4633 288.517 43.0433 288.219 42.474C287.929 41.9047 287.785 41.1767 287.785 40.29C287.785 39.366 287.934 38.6147 288.233 38.036C288.541 37.4573 288.961 37.0327 289.493 36.762C290.025 36.4913 290.627 36.356 291.299 36.356C291.672 36.356 292.036 36.398 292.391 36.482C292.755 36.5567 293.049 36.65 293.273 36.762L292.895 37.784C292.671 37.7 292.409 37.6207 292.111 37.546C291.812 37.4713 291.532 37.434 291.271 37.434C289.796 37.434 289.059 38.3813 289.059 40.276C289.059 41.1813 289.236 41.8767 289.591 42.362C289.955 42.838 290.491 43.076 291.201 43.076C291.602 43.076 291.961 43.034 292.279 42.95C292.596 42.866 292.885 42.7633 293.147 42.642V43.734C292.895 43.8647 292.615 43.9627 292.307 44.028C292.008 44.1027 291.644 44.14 291.215 44.14ZM301.455 40.234C301.455 41.4753 301.138 42.4367 300.503 43.118C299.878 43.7993 299.029 44.14 297.955 44.14C297.293 44.14 296.7 43.9907 296.177 43.692C295.664 43.384 295.258 42.9407 294.959 42.362C294.661 41.774 294.511 41.0647 294.511 40.234C294.511 38.9927 294.819 38.036 295.435 37.364C296.061 36.692 296.915 36.356 297.997 36.356C298.669 36.356 299.267 36.51 299.789 36.818C300.312 37.1167 300.718 37.5553 301.007 38.134C301.306 38.7033 301.455 39.4033 301.455 40.234ZM295.785 40.234C295.785 41.1207 295.958 41.8253 296.303 42.348C296.658 42.8613 297.218 43.118 297.983 43.118C298.739 43.118 299.295 42.8613 299.649 42.348C300.004 41.8253 300.181 41.1207 300.181 40.234C300.181 39.3473 300.004 38.652 299.649 38.148C299.295 37.644 298.735 37.392 297.969 37.392C297.204 37.392 296.649 37.644 296.303 38.148C295.958 38.652 295.785 39.3473 295.785 40.234ZM309.442 38.386C309.442 38.8527 309.302 39.2167 309.022 39.478C308.742 39.7393 308.382 39.9167 307.944 40.01V40.066C308.401 40.1313 308.802 40.2993 309.148 40.57C309.502 40.8313 309.68 41.242 309.68 41.802C309.68 42.4367 309.442 42.964 308.966 43.384C308.499 43.7947 307.724 44 306.642 44H303.408V36.496H306.628C307.16 36.496 307.636 36.5567 308.056 36.678C308.485 36.79 308.821 36.986 309.064 37.266C309.316 37.5367 309.442 37.91 309.442 38.386ZM308.196 38.54C308.196 38.1853 308.065 37.9287 307.804 37.77C307.552 37.602 307.136 37.518 306.558 37.518H304.64V39.576H306.334C307.575 39.576 308.196 39.2307 308.196 38.54ZM308.406 41.802C308.406 41.3727 308.242 41.0647 307.916 40.878C307.589 40.6913 307.108 40.598 306.474 40.598H304.64V43.006H306.502C307.118 43.006 307.589 42.9173 307.916 42.74C308.242 42.5533 308.406 42.2407 308.406 41.802ZM314.316 36.37C315.231 36.37 315.908 36.5707 316.346 36.972C316.785 37.3733 317.004 38.0127 317.004 38.89V44H316.108L315.87 42.936H315.814C315.488 43.3467 315.142 43.65 314.778 43.846C314.414 44.042 313.92 44.14 313.294 44.14C312.613 44.14 312.048 43.9627 311.6 43.608C311.152 43.244 310.928 42.6793 310.928 41.914C310.928 41.1673 311.222 40.5933 311.81 40.192C312.398 39.7813 313.304 39.5573 314.526 39.52L315.8 39.478V39.03C315.8 38.4047 315.665 37.9707 315.394 37.728C315.124 37.4853 314.741 37.364 314.246 37.364C313.854 37.364 313.481 37.4247 313.126 37.546C312.772 37.658 312.44 37.7887 312.132 37.938L311.754 37.014C312.081 36.8367 312.468 36.6873 312.916 36.566C313.364 36.4353 313.831 36.37 314.316 36.37ZM315.786 40.332L314.68 40.374C313.747 40.4113 313.098 40.5607 312.734 40.822C312.38 41.0833 312.202 41.452 312.202 41.928C312.202 42.348 312.328 42.656 312.58 42.852C312.842 43.048 313.173 43.146 313.574 43.146C314.2 43.146 314.722 42.9733 315.142 42.628C315.572 42.2733 315.786 41.732 315.786 41.004V40.332ZM320.554 36.496V39.618H324.628V36.496H325.86V44H324.628V40.654H320.554V44H319.322V36.496H320.554ZM331.078 36.37C331.993 36.37 332.669 36.5707 333.108 36.972C333.547 37.3733 333.766 38.0127 333.766 38.89V44H332.87L332.632 42.936H332.576C332.249 43.3467 331.904 43.65 331.54 43.846C331.176 44.042 330.681 44.14 330.056 44.14C329.375 44.14 328.81 43.9627 328.362 43.608C327.914 43.244 327.69 42.6793 327.69 41.914C327.69 41.1673 327.984 40.5933 328.572 40.192C329.16 39.7813 330.065 39.5573 331.288 39.52L332.562 39.478V39.03C332.562 38.4047 332.427 37.9707 332.156 37.728C331.885 37.4853 331.503 37.364 331.008 37.364C330.616 37.364 330.243 37.4247 329.888 37.546C329.533 37.658 329.202 37.7887 328.894 37.938L328.516 37.014C328.843 36.8367 329.23 36.6873 329.678 36.566C330.126 36.4353 330.593 36.37 331.078 36.37ZM332.548 40.332L331.442 40.374C330.509 40.4113 329.86 40.5607 329.496 40.822C329.141 41.0833 328.964 41.452 328.964 41.928C328.964 42.348 329.09 42.656 329.342 42.852C329.603 43.048 329.935 43.146 330.336 43.146C330.961 43.146 331.484 42.9733 331.904 42.628C332.333 42.2733 332.548 41.732 332.548 41.004V40.332Z" fill="#7B96AE"/>
<circle cx="461.5" cy="35" r="33.5" stroke="#4370D6" stroke-width="3"/>
<path d="M472.628 20.9787H469.19V19.4407C469.19 18.9432 468.647 18.717 468.149 18.717H465.481C464.847 16.9076 463.264 16.0029 461.455 16.0029C459.665 15.9357 458.038 17.0329 457.429 18.717H454.805C454.308 18.717 453.81 18.9432 453.81 19.4407V20.9787H450.372C448.335 21.0004 446.668 22.6076 446.573 24.6427V50.5621C446.573 52.5524 448.382 53.9999 450.372 53.9999H472.628C474.618 53.9999 476.427 52.5524 476.427 50.5621V24.6428C476.332 22.6076 474.665 21.0004 472.628 20.9787ZM455.619 20.5264H458.107C458.542 20.4734 458.891 20.143 458.967 19.7122C459.235 18.5456 460.258 17.7082 461.455 17.6766C462.64 17.7126 463.648 18.5526 463.897 19.7122C463.979 20.1579 464.35 20.4925 464.802 20.5264H467.381V24.1452H455.619V20.5264ZM474.618 50.5622C474.618 51.5573 473.623 52.1906 472.628 52.1906H450.372C449.377 52.1906 448.382 51.5573 448.382 50.5622V24.6428C448.474 23.6069 449.332 22.8071 450.372 22.7882H453.81V25.0951C453.858 25.602 454.297 25.9811 454.805 25.9546H468.149C468.667 25.983 469.12 25.609 469.19 25.0951V22.7881H472.628C473.667 22.8071 474.526 23.6068 474.618 24.6427V50.5622H474.618Z" fill="#4370D6"/>
<path d="M470.444 38H452.556C451.696 38 451 38.4477 451 39C451 39.5523 451.696 40 452.556 40H470.444C471.304 40 472 39.5523 472 39C472 38.4477 471.304 38 470.444 38Z" fill="#4370D6"/>
<path d="M470.444 31H452.556C451.696 31 451 31.4477 451 32C451 32.5523 451.696 33 452.556 33H470.444C471.304 33 472 32.5523 472 32C472 31.4477 471.304 31 470.444 31Z" fill="#4370D6"/>
<path d="M470.444 45H452.556C451.696 45 451 45.4477 451 46C451 46.5523 451.696 47 452.556 47H470.444C471.304 47 472 46.5523 472 46C472 45.4477 471.304 45 470.444 45Z" fill="#4370D6"/>
<circle cx="476.5" cy="41.5" r="8.75" fill="#FAFBFC" stroke="#4370D6" stroke-width="1.5"/>
<path d="M479.912 39.282C479.573 38.9243 479.01 38.9043 478.646 39.2368L475.751 41.9961L474.529 40.7295C474.19 40.3718 473.627 40.3517 473.263 40.6843C472.912 41.0514 472.912 41.629 473.263 41.9961L475.117 43.896C475.278 44.0757 475.51 44.1751 475.751 44.1674C475.989 44.164 476.217 44.0664 476.384 43.896L479.912 40.5486C480.262 40.2277 480.285 39.684 479.964 39.3343C479.948 39.3161 479.931 39.2987 479.912 39.282Z" fill="#4370D6"/>
<path d="M441.624 83.248C441.624 84.0267 441.368 84.6453 440.856 85.104C440.354 85.5627 439.688 85.8507 438.856 85.968V86.032C439.848 86.1493 440.6 86.448 441.112 86.928C441.634 87.3973 441.896 88.0107 441.896 88.768C441.896 89.4293 441.72 90.016 441.368 90.528C441.026 91.04 440.509 91.44 439.816 91.728C439.122 92.016 438.258 92.16 437.224 92.16C436.53 92.16 435.885 92.112 435.288 92.016C434.701 91.92 434.168 91.76 433.688 91.536V90.016C434.018 90.176 434.376 90.3147 434.76 90.432C435.154 90.5387 435.549 90.624 435.944 90.688C436.349 90.7413 436.728 90.768 437.08 90.768C438.104 90.768 438.866 90.592 439.368 90.24C439.869 89.8773 440.12 89.3653 440.12 88.704C440.12 88.032 439.805 87.5467 439.176 87.248C438.546 86.9387 437.677 86.784 436.568 86.784H435.096V85.376H436.472C437.272 85.376 437.922 85.3013 438.424 85.152C438.925 84.992 439.293 84.768 439.528 84.48C439.762 84.192 439.88 83.8507 439.88 83.456C439.88 82.9333 439.677 82.5333 439.272 82.256C438.866 81.968 438.322 81.824 437.64 81.824C436.968 81.824 436.386 81.9147 435.896 82.096C435.405 82.2667 434.936 82.496 434.488 82.784L433.688 81.616C434.018 81.3813 434.386 81.1787 434.792 81.008C435.197 80.8267 435.645 80.6827 436.136 80.576C436.637 80.4693 437.176 80.416 437.752 80.416C438.584 80.416 439.288 80.5387 439.864 80.784C440.44 81.0293 440.877 81.3653 441.176 81.792C441.474 82.208 441.624 82.6933 441.624 83.248ZM447.391 83.216C448.479 83.216 449.289 83.456 449.823 83.936C450.356 84.4053 450.623 85.1467 450.623 86.16V92H449.423L449.087 90.8H449.023C448.777 91.1093 448.521 91.3653 448.255 91.568C447.999 91.7707 447.7 91.92 447.359 92.016C447.028 92.112 446.623 92.16 446.143 92.16C445.631 92.16 445.167 92.0693 444.751 91.888C444.345 91.696 444.025 91.408 443.791 91.024C443.556 90.6293 443.439 90.1387 443.439 89.552C443.439 88.6773 443.769 88.0107 444.431 87.552C445.103 87.0933 446.121 86.8427 447.487 86.8L448.959 86.752V86.272C448.959 85.632 448.815 85.184 448.527 84.928C448.239 84.672 447.833 84.544 447.311 84.544C446.863 84.544 446.436 84.608 446.031 84.736C445.625 84.864 445.241 85.0187 444.879 85.2L444.335 83.968C444.74 83.7547 445.204 83.5787 445.727 83.44C446.26 83.2907 446.815 83.216 447.391 83.216ZM447.791 87.888C446.809 87.9307 446.127 88.096 445.743 88.384C445.369 88.6613 445.183 89.056 445.183 89.568C445.183 90.016 445.316 90.3413 445.583 90.544C445.86 90.7467 446.207 90.848 446.623 90.848C447.295 90.848 447.849 90.6613 448.287 90.288C448.724 89.9147 448.943 89.3547 448.943 88.608V87.856L447.791 87.888ZM460.034 83.376V90.656H461.298V95.024H459.714V92H453.762V95.024H452.194V90.656H452.882C453.341 89.9947 453.725 89.2693 454.034 88.48C454.344 87.6907 454.578 86.864 454.738 86C454.909 85.1253 455.01 84.2507 455.042 83.376H460.034ZM456.514 84.688C456.45 85.3813 456.333 86.0907 456.162 86.816C456.002 87.5413 455.794 88.2347 455.538 88.896C455.293 89.5573 455 90.144 454.658 90.656H458.37V84.688H456.514ZM466.266 83.216C467.354 83.216 468.164 83.456 468.698 83.936C469.231 84.4053 469.498 85.1467 469.498 86.16V92H468.298L467.962 90.8H467.898C467.652 91.1093 467.396 91.3653 467.13 91.568C466.874 91.7707 466.575 91.92 466.234 92.016C465.903 92.112 465.498 92.16 465.018 92.16C464.506 92.16 464.042 92.0693 463.626 91.888C463.22 91.696 462.9 91.408 462.666 91.024C462.431 90.6293 462.314 90.1387 462.314 89.552C462.314 88.6773 462.644 88.0107 463.306 87.552C463.978 87.0933 464.996 86.8427 466.362 86.8L467.834 86.752V86.272C467.834 85.632 467.69 85.184 467.402 84.928C467.114 84.672 466.708 84.544 466.186 84.544C465.738 84.544 465.311 84.608 464.906 84.736C464.5 84.864 464.116 85.0187 463.754 85.2L463.21 83.968C463.615 83.7547 464.079 83.5787 464.602 83.44C465.135 83.2907 465.69 83.216 466.266 83.216ZM466.666 87.888C465.684 87.9307 465.002 88.096 464.618 88.384C464.244 88.6613 464.058 89.056 464.058 89.568C464.058 90.016 464.191 90.3413 464.458 90.544C464.735 90.7467 465.082 90.848 465.498 90.848C466.17 90.848 466.724 90.6613 467.162 90.288C467.599 89.9147 467.818 89.3547 467.818 88.608V87.856L466.666 87.888ZM473.597 86.528C473.597 86.9867 473.725 87.328 473.981 87.552C474.237 87.776 474.6 87.888 475.069 87.888C475.581 87.888 476.051 87.8187 476.477 87.68C476.904 87.5307 477.336 87.3333 477.773 87.088V83.376H479.469V92H477.773V88.272C477.325 88.56 476.867 88.7893 476.397 88.96C475.928 89.1307 475.373 89.216 474.733 89.216C473.848 89.216 473.155 88.9867 472.653 88.528C472.152 88.0587 471.901 87.4187 471.901 86.608V83.376H473.597V86.528ZM485.469 83.216C486.557 83.216 487.368 83.456 487.901 83.936C488.434 84.4053 488.701 85.1467 488.701 86.16V92H487.501L487.165 90.8H487.101C486.856 91.1093 486.6 91.3653 486.333 91.568C486.077 91.7707 485.778 91.92 485.437 92.016C485.106 92.112 484.701 92.16 484.221 92.16C483.709 92.16 483.245 92.0693 482.829 91.888C482.424 91.696 482.104 91.408 481.869 91.024C481.634 90.6293 481.517 90.1387 481.517 89.552C481.517 88.6773 481.848 88.0107 482.509 87.552C483.181 87.0933 484.2 86.8427 485.565 86.8L487.037 86.752V86.272C487.037 85.632 486.893 85.184 486.605 84.928C486.317 84.672 485.912 84.544 485.389 84.544C484.941 84.544 484.514 84.608 484.109 84.736C483.704 84.864 483.32 85.0187 482.957 85.2L482.413 83.968C482.818 83.7547 483.282 83.5787 483.805 83.44C484.338 83.2907 484.893 83.216 485.469 83.216ZM485.869 87.888C484.888 87.9307 484.205 88.096 483.821 88.384C483.448 88.6613 483.261 89.056 483.261 89.568C483.261 90.016 483.394 90.3413 483.661 90.544C483.938 90.7467 484.285 90.848 484.701 90.848C485.373 90.848 485.928 90.6613 486.365 90.288C486.802 89.9147 487.021 89.3547 487.021 88.608V87.856L485.869 87.888ZM424.675 107.568C424.675 108.091 424.515 108.507 424.195 108.816C423.886 109.115 423.47 109.317 422.947 109.424V109.488C423.502 109.563 423.971 109.76 424.355 110.08C424.75 110.389 424.947 110.848 424.947 111.456C424.947 111.829 424.878 112.171 424.739 112.48C424.601 112.789 424.387 113.061 424.099 113.296C423.811 113.52 423.438 113.696 422.979 113.824C422.531 113.941 421.987 114 421.347 114H417.523V105.376H421.347C421.977 105.376 422.542 105.445 423.043 105.584C423.545 105.723 423.939 105.952 424.227 106.272C424.526 106.592 424.675 107.024 424.675 107.568ZM423.187 111.424C423.187 110.976 423.017 110.656 422.675 110.464C422.334 110.261 421.827 110.16 421.155 110.16H419.219V112.72H421.187C421.817 112.72 422.307 112.624 422.659 112.432C423.011 112.229 423.187 111.893 423.187 111.424ZM422.947 107.76C422.947 107.387 422.814 107.115 422.547 106.944C422.281 106.773 421.849 106.688 421.251 106.688H419.219V108.864H420.995C421.635 108.864 422.121 108.779 422.451 108.608C422.782 108.427 422.947 108.144 422.947 107.76ZM426.992 114V105.376H428.688V108.848H430.592C431.381 108.848 432.032 108.944 432.544 109.136C433.056 109.317 433.435 109.589 433.68 109.952C433.925 110.315 434.048 110.773 434.048 111.328C434.048 111.872 433.925 112.347 433.68 112.752C433.445 113.147 433.072 113.456 432.56 113.68C432.059 113.893 431.397 114 430.576 114H426.992ZM430.448 112.72C431.013 112.72 431.472 112.624 431.824 112.432C432.187 112.229 432.368 111.883 432.368 111.392C432.368 110.923 432.203 110.603 431.872 110.432C431.541 110.251 431.067 110.16 430.448 110.16H428.688V112.72H430.448ZM435.424 114V105.376H437.12V114H435.424ZM447.229 105.376V114H445.533V106.752H441.469V114H439.773V105.376H447.229ZM457.483 109.68C457.483 110.395 457.387 111.029 457.195 111.584C457.003 112.139 456.731 112.608 456.379 112.992C456.027 113.376 455.6 113.669 455.099 113.872C454.597 114.064 454.032 114.16 453.403 114.16C452.827 114.16 452.293 114.064 451.803 113.872C451.312 113.669 450.885 113.376 450.523 112.992C450.171 112.608 449.893 112.139 449.691 111.584C449.488 111.029 449.387 110.389 449.387 109.664C449.387 108.715 449.547 107.909 449.867 107.248C450.197 106.587 450.667 106.085 451.275 105.744C451.893 105.392 452.619 105.216 453.451 105.216C454.24 105.216 454.933 105.392 455.531 105.744C456.139 106.085 456.613 106.587 456.955 107.248C457.307 107.909 457.483 108.72 457.483 109.68ZM451.131 109.68C451.131 110.32 451.211 110.875 451.371 111.344C451.531 111.803 451.781 112.155 452.123 112.4C452.464 112.645 452.901 112.768 453.435 112.768C453.968 112.768 454.405 112.645 454.747 112.4C455.088 112.155 455.339 111.803 455.499 111.344C455.659 110.875 455.739 110.32 455.739 109.68C455.739 109.019 455.653 108.464 455.483 108.016C455.323 107.568 455.072 107.227 454.731 106.992C454.4 106.747 453.963 106.624 453.419 106.624C452.619 106.624 452.037 106.891 451.675 107.424C451.312 107.957 451.131 108.709 451.131 109.68ZM466.545 114H464.833V106.736H462.401C462.294 108.059 462.161 109.195 462.001 110.144C461.851 111.083 461.654 111.845 461.409 112.432C461.174 113.019 460.881 113.451 460.529 113.728C460.187 113.995 459.777 114.128 459.297 114.128C459.126 114.128 458.961 114.112 458.801 114.08C458.641 114.059 458.502 114.021 458.385 113.968V112.672C458.459 112.693 458.539 112.715 458.625 112.736C458.721 112.747 458.817 112.752 458.913 112.752C459.126 112.752 459.318 112.667 459.489 112.496C459.67 112.325 459.83 112.059 459.969 111.696C460.118 111.333 460.251 110.864 460.369 110.288C460.497 109.701 460.603 109.003 460.689 108.192C460.785 107.381 460.87 106.443 460.945 105.376H466.545V114ZM470.891 105.376V108.88H475.147V105.376H476.843V114H475.147V110.24H470.891V114H469.195V105.376H470.891ZM482.884 105.216C483.641 105.216 484.292 105.376 484.836 105.696C485.38 106.005 485.796 106.453 486.084 107.04C486.383 107.627 486.532 108.32 486.532 109.12V110.048H480.74C480.761 110.933 480.991 111.611 481.428 112.08C481.876 112.549 482.5 112.784 483.3 112.784C483.855 112.784 484.345 112.736 484.772 112.64C485.209 112.533 485.657 112.379 486.116 112.176V113.584C485.689 113.776 485.252 113.92 484.804 114.016C484.367 114.112 483.844 114.16 483.236 114.16C482.404 114.16 481.668 113.995 481.028 113.664C480.388 113.333 479.887 112.843 479.524 112.192C479.172 111.531 478.996 110.72 478.996 109.76C478.996 108.789 479.156 107.968 479.476 107.296C479.807 106.624 480.26 106.112 480.836 105.76C481.423 105.397 482.105 105.216 482.884 105.216ZM482.884 106.528C482.276 106.528 481.785 106.725 481.412 107.12C481.049 107.515 480.836 108.075 480.772 108.8H484.836C484.836 108.352 484.767 107.957 484.628 107.616C484.489 107.275 484.276 107.008 483.988 106.816C483.7 106.624 483.332 106.528 482.884 106.528ZM490.344 105.376V108.88H494.6V105.376H496.296V114H494.6V110.24H490.344V114H488.648V105.376H490.344ZM502.289 105.216C503.377 105.216 504.188 105.456 504.721 105.936C505.255 106.405 505.521 107.147 505.521 108.16V114H504.321L503.985 112.8H503.921C503.676 113.109 503.42 113.365 503.153 113.568C502.897 113.771 502.599 113.92 502.257 114.016C501.927 114.112 501.521 114.16 501.041 114.16C500.529 114.16 500.065 114.069 499.649 113.888C499.244 113.696 498.924 113.408 498.689 113.024C498.455 112.629 498.337 112.139 498.337 111.552C498.337 110.677 498.668 110.011 499.329 109.552C500.001 109.093 501.02 108.843 502.385 108.8L503.857 108.752V108.272C503.857 107.632 503.713 107.184 503.425 106.928C503.137 106.672 502.732 106.544 502.209 106.544C501.761 106.544 501.335 106.608 500.929 106.736C500.524 106.864 500.14 107.019 499.777 107.2L499.233 105.968C499.639 105.755 500.103 105.579 500.625 105.44C501.159 105.291 501.713 105.216 502.289 105.216ZM502.689 109.888C501.708 109.931 501.025 110.096 500.641 110.384C500.268 110.661 500.081 111.056 500.081 111.568C500.081 112.016 500.215 112.341 500.481 112.544C500.759 112.747 501.105 112.848 501.521 112.848C502.193 112.848 502.748 112.661 503.185 112.288C503.623 111.915 503.841 111.355 503.841 110.608V109.856L502.689 109.888Z" fill="#4370D6"/>
<defs>
<clipPath id="clip0_454_788">
<rect width="9" height="9" fill="white" transform="translate(57 37)"/>
</clipPath>
</defs>
</svg>
