<svg width="60" height="60" viewBox="0 0 60 60" fill="none" xmlns="http://www.w3.org/2000/svg">
<path d="M4.68567 1.87019C3.14375 1.87019 1.875 3.14624 1.875 4.68814V55.3113C1.875 56.8532 3.14375 58.1202 4.68567 58.1202H40.3125C41.8544 58.1202 43.1213 56.8532 43.1213 55.3113V50.6257C43.2436 49.2638 41.1314 49.2638 41.2537 50.6257V55.3113C41.2537 55.8469 40.8481 56.2452 40.3125 56.2452H4.68567C4.15007 56.2452 3.75183 55.8469 3.75183 55.3113V4.68814C3.75183 4.15254 4.15007 3.74706 4.68567 3.74706H33.7518V8.4382C33.7518 9.98014 35.0188 11.2489 36.5607 11.2489H41.2537V29.9952C41.1314 31.3571 43.2436 31.3571 43.1213 29.9952V10.3151C43.1232 10.0667 43.0264 9.8275 42.8522 9.65037L35.3503 2.14853C35.1744 1.97172 34.9352 1.87214 34.6856 1.87214L4.68567 1.87019ZM35.6268 5.07645L39.9261 9.37388H36.5607C36.0251 9.37388 35.6268 8.97384 35.6268 8.4382V5.07645ZM22.5 9.3702C21.9747 9.37374 21.5622 9.79714 21.568 10.3151V12.234C18.4077 12.4413 17.3745 14.0307 15.0073 14.065C14.1358 14.065 13.1978 13.7195 12.8522 13.4003C11.8924 12.5143 10.6954 13.9227 11.532 14.7297C12.1504 15.3263 13.1077 15.662 13.6322 15.7808L10.3967 23.0628C10.3451 23.1829 10.3201 23.313 10.3217 23.4437C10.3217 23.4437 10.3085 24.5732 10.8893 25.7343C11.4698 26.8954 12.6833 28.1275 15.0055 28.1275C17.3276 28.1275 18.543 26.8954 19.1235 25.7343C19.7041 24.5732 19.6893 23.4437 19.6893 23.4437C19.6912 23.313 19.666 23.1829 19.6143 23.0628L16.3806 15.7862C18.2976 15.4818 19.4236 14.07 22.4927 14.0687C25.5736 14.0722 26.6991 15.4886 28.6194 15.7935L25.3857 23.0701C25.3341 23.1902 25.3088 23.3203 25.3107 23.451C25.3107 23.451 25.296 24.5806 25.8765 25.7417C26.457 26.9028 27.6724 28.1349 29.9945 28.1349C32.3167 28.1349 33.5302 26.9028 34.1107 25.7417C34.6915 24.5806 34.6783 23.451 34.6783 23.451C34.6802 23.3202 34.6549 23.1902 34.6033 23.0701L31.3678 15.788C31.8923 15.6693 32.8496 15.3336 33.468 14.7371C34.3046 13.9301 33.1076 12.5216 32.1478 13.4077C31.8022 13.7266 30.8642 14.0724 29.9927 14.0724C27.6255 14.0369 26.5923 12.4484 23.432 12.2412V10.3223C23.4379 9.80425 23.0253 9.37934 22.5 9.3702ZM22.5036 15.9272C22.0348 15.9272 21.568 16.2411 21.568 16.8665V30.0062H17.7704C16.5047 30.0923 16.5908 31.9122 17.8143 31.8813H22.4927V31.8883H27.1857C28.4092 31.9202 28.4953 30.0994 27.2296 30.0134H23.432V16.8737C23.432 16.2535 22.9724 15.9429 22.5073 15.938V15.9274L22.5036 15.9272ZM15.0055 17.3133L17.3089 22.5025H12.7039L15.0055 17.3133ZM29.9945 17.3204L32.2961 22.5096H27.691L29.9945 17.3204ZM53.2471 25.1188L51.4307 26.9351C50.6266 26.6396 49.6643 26.8246 49.0247 27.4643L32.1533 44.3374C32.0384 44.4505 31.9545 44.5912 31.9098 44.7458L30.0348 51.3065C29.835 52.0144 30.4909 52.6662 31.1975 52.4619L37.7582 50.5869C37.9096 50.5429 38.0475 50.4618 38.1592 50.3505L54.375 34.142L54.5343 34.3012C55.2803 35.0472 55.2803 36.2065 54.5343 36.9525L49.9585 41.5265C49.0198 42.412 50.4072 43.7918 51.2878 42.8485L55.8618 38.2745C57.3193 36.8169 57.3193 34.4312 55.8618 32.9736L55.5505 32.6622C55.7347 32.156 55.7346 31.5974 55.5505 31.0911L57.3852 29.2564C58.5201 28.1216 58.5201 26.2531 57.3852 25.1183C55.8899 23.623 53.9951 24.3708 53.2471 25.1188ZM12.3614 24.3777H17.6514C17.6514 24.3777 17.3209 26.2527 15.0073 26.2527C12.6937 26.2527 12.3614 24.3777 12.3614 24.3777ZM27.3486 24.3848H32.6385C32.6385 24.3848 32.3063 26.2597 29.9927 26.2597C27.6791 26.2597 27.3486 24.3848 27.3486 24.3848ZM55.3125 26.1276C55.5787 26.1276 55.8443 26.2346 56.0559 26.4462C56.4792 26.8694 56.4792 27.5024 56.0559 27.9256L54.3732 29.6084L52.8845 28.1234L54.5691 26.4462C54.7807 26.2346 55.0463 26.1276 55.3125 26.1276ZM50.8997 28.7845L53.7103 31.6006C53.8739 31.7643 53.8739 31.9846 53.7103 32.1481L44.0643 41.7978L40.7007 38.4378L50.354 28.7845C50.5555 28.5829 50.8073 28.6921 50.8997 28.7845ZM8.43567 35.6217C7.18445 35.6217 7.18445 37.4984 8.43567 37.4984H34.6857C35.9369 37.4984 35.9369 35.6217 34.6857 35.6217H8.43567ZM39.3768 39.7617L42.7368 43.1272L37.5018 48.3621L34.1382 44.9984L39.3768 39.7617ZM8.20129 43.1234H21.5643C22.8427 43.1518 22.8427 41.2198 21.5643 41.2485H8.15643C6.89096 41.335 6.97802 43.1541 8.20129 43.1234ZM25.08 43.1234H29.0588C30.3372 43.1518 30.3372 41.2198 29.0588 41.2485H25.0314C23.7618 41.3389 23.856 43.1595 25.08 43.1234ZM33.2776 46.7874L35.7129 49.2245L32.3053 50.1968L33.2776 46.7874ZM21.7163 48.6679C20.7061 48.719 19.5446 49.0587 18.2703 49.8233C16.1314 51.1067 14.9535 50.828 14.1669 50.3909C13.3802 49.9539 13.0243 49.2685 13.0243 49.2685C12.4898 48.0802 10.7179 48.9669 11.3489 50.1071C11.3489 50.1071 11.9305 51.2967 13.2532 52.0315C14.5759 52.7664 16.6829 52.9583 19.2316 51.4291C21.3704 50.1458 22.5501 50.4172 23.3368 50.8542C24.1235 51.2912 24.4702 51.9821 24.4702 51.9821C25.0281 53.1039 26.7108 52.2671 26.153 51.1454C26.153 51.1454 25.5659 49.9558 24.2432 49.2209C23.5818 48.8535 22.7266 48.6169 21.7163 48.6679Z" fill="#203B54"/>
</svg>
