<svg width="60" height="60" viewBox="0 0 60 60" fill="none" xmlns="http://www.w3.org/2000/svg">
<path d="M44.6133 25.6289C44.6133 17.5664 38.0508 11.0156 30 11.0156C21.9492 11.0156 15.3867 17.5664 15.3867 25.6289C15.3867 33.6797 21.9375 40.2422 30 40.2422C38.0625 40.2422 44.6133 33.6797 44.6133 25.6289ZM30 38.3555C22.9805 38.3555 17.2617 32.6484 17.2617 25.6172C17.2617 18.5859 22.9805 12.8906 30 12.8906C37.0195 12.8906 42.7383 18.5977 42.7383 25.6289C42.7383 32.6602 37.0195 38.3555 30 38.3555Z" fill="#203B54"/>
<path d="M47.9062 40.7461C48.4336 40.4766 48.9023 40.125 49.2656 39.6328C50.2148 38.332 49.9922 36.6328 49.7812 34.9805C49.6406 33.9141 49.5 32.8008 49.7461 32.0508C49.9688 31.3477 50.7187 30.5625 51.4336 29.8125C52.5469 28.6406 53.8008 27.3164 53.8008 25.6406C53.8008 23.9648 52.5586 22.6172 51.4453 21.4453C50.7305 20.6836 49.9805 19.9102 49.7578 19.207C49.5117 18.457 49.6523 17.3437 49.793 16.2773C50.0039 14.625 50.2148 12.9258 49.2773 11.625C48.3281 10.3125 46.6289 9.99609 44.9883 9.67969C43.9336 9.48047 42.8437 9.28125 42.2227 8.82422C41.6016 8.37891 41.0859 7.41797 40.582 6.48047C39.8203 5.07422 38.9414 3.48047 37.3828 2.96484C35.8828 2.47266 34.3477 3.19922 32.8594 3.90234C31.8633 4.37109 30.8438 4.85156 30.0234 4.85156C29.2031 4.85156 28.1836 4.37109 27.1875 3.90234C25.6992 3.19922 24.1641 2.47266 22.6641 2.96484C21.0938 3.46875 20.2734 5.00391 19.4648 6.48047C18.9609 7.40625 18.4336 8.37891 17.8242 8.82422C17.1914 9.28125 16.1133 9.49219 15.0586 9.67969C13.418 9.98437 11.7188 10.3125 10.7695 11.625C9.82031 12.9258 10.043 14.625 10.2539 16.2773C10.3945 17.3437 10.5352 18.457 10.2891 19.207C10.0664 19.9102 9.31641 20.6953 8.60156 21.4453C7.48828 22.6172 6.23438 23.9414 6.23438 25.6172C6.23438 27.293 7.5 28.6172 8.60156 29.7891C9.31641 30.5508 10.0664 31.3242 10.2891 32.0273C10.5352 32.7773 10.3945 33.8906 10.2539 34.957C10.043 36.6094 9.83203 38.3086 10.7695 39.6094C11.1328 40.1016 11.6016 40.4648 12.1289 40.7227L7.01953 49.5703C6.83203 49.8984 6.85547 50.3086 7.08984 50.6133C7.32422 50.918 7.71094 51.0469 8.07422 50.9531L15.6211 48.9258L17.6484 56.4727C17.7422 56.8359 18.0586 57.1055 18.4336 57.1641C18.4805 57.1641 18.5156 57.1758 18.5508 57.1758C18.8789 57.1758 19.1953 57 19.3594 56.707L24.1523 48.3984C25.1719 48.2812 26.2031 47.8008 27.1992 47.332C28.1953 46.8633 29.2148 46.3828 30.0352 46.3828C30.8555 46.3828 31.875 46.8633 32.8711 47.332C33.8672 47.8008 34.8984 48.293 35.918 48.3984L40.7109 56.707C40.875 57 41.1914 57.1758 41.5195 57.1758C41.5547 57.1758 41.6016 57.1758 41.6367 57.1641C42.0117 57.1172 42.3164 56.8477 42.4219 56.4727L44.4492 48.9258L51.9961 50.9531C52.3594 51.0469 52.7461 50.918 52.9805 50.6133C53.2148 50.3086 53.2383 49.8984 53.0508 49.5703L47.9062 40.7461ZM18.832 53.8242L17.1562 47.5547C17.0273 47.0508 16.5117 46.7578 16.0078 46.8867L9.73828 48.5625L13.9102 41.332C14.2734 41.4141 14.6484 41.4844 15.0234 41.5547C16.0781 41.7539 17.168 41.9531 17.7891 42.4102C18.4102 42.8555 18.9258 43.8164 19.4297 44.7539C20.1094 46.0078 20.8711 47.4023 22.1367 48.0586L18.832 53.8242ZM30 44.5195C28.7578 44.5195 27.5391 45.0937 26.3672 45.6445C25.207 46.1953 24.0117 46.7578 23.2266 46.5C22.3711 46.2187 21.7266 45.0234 21.0938 43.875C20.4844 42.7617 19.8633 41.6133 18.9023 40.9102C17.9297 40.207 16.6289 39.9609 15.375 39.7266C14.0977 39.4805 12.7734 39.2344 12.2461 38.5312C11.7422 37.8398 11.9062 36.5039 12.0703 35.2266C12.2344 33.9492 12.3984 32.6367 12.0234 31.4766C11.6602 30.375 10.7695 29.4258 9.91406 28.5234C9 27.5625 8.05078 26.5664 8.05078 25.6406C8.05078 24.7148 9 23.7187 9.91406 22.7578C10.7812 21.8437 11.6719 20.9062 12.0234 19.8047C12.3984 18.6445 12.2344 17.332 12.0703 16.0547C11.9062 14.7656 11.7422 13.4414 12.2461 12.75C12.7617 12.0352 14.0859 11.7891 15.375 11.5547C16.6289 11.3203 17.9297 11.0742 18.9023 10.3711C19.8633 9.67969 20.4844 8.51953 21.0938 7.40625C21.7266 6.24609 22.3711 5.0625 23.2266 4.78125C24.0234 4.52344 25.2188 5.08594 26.3672 5.63672C27.5391 6.1875 28.7578 6.76172 30 6.76172C31.2422 6.76172 32.4609 6.1875 33.6328 5.63672C34.793 5.08594 35.9883 4.52344 36.7734 4.78125C37.6289 5.0625 38.2734 6.25781 38.9062 7.40625C39.5156 8.51953 40.1367 9.66797 41.0977 10.3711C42.0703 11.0742 43.3711 11.3203 44.625 11.5547C45.9023 11.8008 47.2266 12.0469 47.7539 12.75C48.2578 13.4414 48.0938 14.7773 47.9297 16.0547C47.7656 17.332 47.6016 18.6445 47.9766 19.8047C48.3398 20.9062 49.2305 21.8555 50.0859 22.7578C51 23.7187 51.9492 24.7148 51.9492 25.6406C51.9492 26.5664 51 27.5625 50.0859 28.5234C49.2187 29.4375 48.3281 30.375 47.9766 31.4766C47.6016 32.6367 47.7656 33.9492 47.9297 35.2266C48.0938 36.5156 48.2578 37.8398 47.7539 38.5312C47.2383 39.2461 45.9141 39.4922 44.625 39.7266C43.3711 39.9609 42.0703 40.207 41.0977 40.9102C40.1367 41.6016 39.5156 42.7617 38.9062 43.875C38.2734 45.0352 37.6289 46.2187 36.7734 46.5C35.9766 46.7578 34.7812 46.1953 33.6328 45.6445C32.4609 45.0937 31.2422 44.5195 30 44.5195ZM43.9922 46.8867C43.4883 46.7578 42.9727 47.0508 42.8438 47.5547L41.168 53.8242L37.8516 48.082C39.1055 47.4375 39.8438 46.0898 40.5586 44.7773C41.0625 43.8516 41.5898 42.8789 42.1992 42.4336C42.832 41.9766 43.9102 41.7656 44.9648 41.5781C45.3398 41.5078 45.7148 41.4375 46.0781 41.3555L50.25 48.5859L43.9922 46.8867Z" fill="#203B54"/>
<path d="M38.7891 19.8867C38.4258 19.5234 37.8281 19.5234 37.4648 19.8867L27.9727 29.3789L22.5469 23.9531C22.1836 23.5898 21.5859 23.5898 21.2227 23.9531C20.8594 24.3164 20.8594 24.9141 21.2227 25.2773L27.3164 31.3711C27.4922 31.5469 27.7266 31.6406 27.9844 31.6406C28.2422 31.6406 28.4766 31.5469 28.6523 31.3711L38.7891 21.2109C39.1523 20.8477 39.1523 20.25 38.7891 19.8867Z" fill="#203B54"/>
</svg>
