<svg width="60" height="60" viewBox="0 0 60 60" fill="none" xmlns="http://www.w3.org/2000/svg">
<g clip-path="url(#clip0_112_1493)">
<path d="M50.3168 25.1031C49.8431 24.6297 49.0753 24.6297 48.6015 25.1031C46.3802 27.3243 43.2024 28.3333 40.1023 27.8015C39.4417 27.6889 38.8151 28.1317 38.7018 28.7918C38.5884 29.452 39.0319 30.0792 39.6921 30.1922C40.3738 30.3092 41.0578 30.3664 41.7386 30.3664C44.9274 30.3664 48.0279 29.1071 50.3168 26.8184C50.7905 26.3448 50.7905 25.5769 50.3168 25.1031Z" fill="#203B54"/>
<path d="M54.6604 5.33881C47.5418 -1.77964 35.9577 -1.77976 28.8376 5.33892C23.5951 10.5825 22.0624 18.5002 24.8973 25.2897L0.355735 49.8315C0.113625 50.0736 -0.0148129 50.4066 0.00194499 50.7483L0.380344 58.4693C0.410813 59.0926 0.909212 59.5909 1.53253 59.6213L9.25216 59.9986C9.27208 59.9995 9.29165 60 9.31146 60C9.6322 60 9.94075 59.8727 10.1688 59.6449L12.8164 56.9984C13.044 56.771 13.1719 56.4625 13.1719 56.1407V50.4623H18.8503C19.172 50.4623 19.4805 50.3344 19.7079 50.1071L22.6755 47.1393C22.903 46.9117 23.0307 46.6034 23.0307 46.2817V40.6032H28.7092C29.0309 40.6032 29.3394 40.4753 29.5668 40.248L34.7117 35.1031C41.5021 37.9371 49.419 36.4042 54.6612 31.163L54.6615 31.1628C61.7802 24.0428 61.7796 12.4582 54.6604 5.33881ZM52.9465 29.4475C48.2233 34.17 40.9964 35.4209 34.9633 32.5603C34.4997 32.3409 33.9487 32.4361 33.5861 32.7987L28.207 38.1777H21.8181C21.1482 38.1777 20.6053 38.7208 20.6053 39.3905V45.7795L18.348 48.0367H11.959C11.2891 48.0367 10.7462 48.5798 10.7462 49.2495V55.6384L8.83391 57.5498L2.74929 57.2524L2.45105 51.1668L27.202 26.4156C27.5646 26.053 27.66 25.5015 27.4403 25.0383C24.5789 19.0057 25.8299 11.7784 30.553 7.0542C36.7271 0.881337 46.7722 0.880986 52.9454 7.05408C59.1188 13.2277 59.1193 23.2735 52.9465 29.4475Z" fill="#203B54"/>
<path d="M48.3512 11.6491C47.2815 10.5795 45.8594 9.99036 44.3469 9.99036C42.8342 9.99036 41.4122 10.5795 40.3422 11.6494C38.1358 13.8572 38.1358 17.4495 40.3428 19.6579C41.4467 20.7612 42.8968 21.3128 44.3468 21.3128C45.7969 21.3128 47.2469 20.7612 48.3508 19.658L48.3512 19.6578C49.4208 18.5882 50.01 17.166 50.01 15.6533C50.01 14.1407 49.4209 12.7188 48.3512 11.6491ZM46.6359 17.9426C45.3736 19.2039 43.3196 19.2035 42.0581 17.943C40.7965 16.6805 40.7965 14.6264 42.0579 13.3645C42.6693 12.7531 43.4822 12.4163 44.347 12.4163C45.2116 12.4163 46.0244 12.7531 46.636 13.3645C47.2475 13.9759 47.5843 14.7888 47.5843 15.6536C47.5843 16.5183 47.2474 17.3311 46.6359 17.9426Z" fill="#203B54"/>
<path d="M51.7009 22.045C50.1401 22.045 50.1375 24.4707 51.7009 24.4707C53.2617 24.4707 53.2643 22.045 51.7009 22.045Z" fill="#203B54"/>
</g>
<defs>
<clipPath id="clip0_112_1493">
<rect width="60" height="60" fill="white"/>
</clipPath>
</defs>
</svg>
