<svg width="60" height="60" viewBox="0 0 60 60" fill="none" xmlns="http://www.w3.org/2000/svg">
<path d="M46.875 57.1875H53.4375C53.6861 57.1875 53.9246 57.0887 54.1004 56.9129C54.2762 56.7371 54.375 56.4986 54.375 56.25V51.5625C54.3719 50.767 54.1159 49.9932 53.644 49.3528C53.1721 48.7124 52.5088 48.2386 51.75 48C52.2777 47.5735 52.6603 46.9939 52.8449 46.3409C53.0296 45.688 53.0073 44.9939 52.7811 44.3542C52.5549 43.7145 52.1359 43.1606 51.5819 42.7689C51.0279 42.3771 50.366 42.1668 49.6875 42.1668C49.009 42.1668 48.3471 42.3771 47.7931 42.7689C47.2391 43.1606 46.8201 43.7145 46.5939 44.3542C46.3677 44.9939 46.3454 45.688 46.5301 46.3409C46.7147 46.9939 47.0973 47.5735 47.625 48C47.0372 48.1802 46.5028 48.5022 46.0687 48.9375C45.4478 48.0252 44.5249 47.3612 43.4625 47.0625C44.1012 46.5958 44.5759 45.939 44.8188 45.1862C45.0617 44.4334 45.0603 43.623 44.8149 42.871C44.5694 42.119 44.0924 41.4639 43.4521 40.9994C42.8118 40.5349 42.041 40.2847 41.25 40.2847C40.459 40.2847 39.6882 40.5349 39.0479 40.9994C38.4076 41.4639 37.9306 42.119 37.6851 42.871C37.4397 43.623 37.4383 44.4334 37.6812 45.1862C37.9241 45.939 38.3988 46.5958 39.0375 47.0625C38.3838 47.2448 37.7766 47.5644 37.2563 48C36.9435 46.9846 36.3496 46.0785 35.5433 45.3866C34.7369 44.6948 33.7511 44.2454 32.7 44.0906C33.5139 43.5171 34.1241 42.6993 34.4421 41.7557C34.76 40.8121 34.7693 39.7918 34.4685 38.8427C34.1676 37.8935 33.5724 37.0647 32.769 36.4766C31.9655 35.8884 30.9957 35.5713 30 35.5713C29.0043 35.5713 28.0345 35.8884 27.231 36.4766C26.4276 37.0647 25.8324 37.8935 25.5315 38.8427C25.2307 39.7918 25.24 40.8121 25.5579 41.7557C25.8759 42.6993 26.4861 43.5171 27.3 44.0906C26.2489 44.2454 25.2631 44.6948 24.4567 45.3866C23.6504 46.0785 23.0565 46.9846 22.7437 48C22.2234 47.5644 21.6162 47.2448 20.9625 47.0625C21.6012 46.5958 22.0759 45.939 22.3188 45.1862C22.5617 44.4334 22.5603 43.623 22.3149 42.871C22.0694 42.119 21.5924 41.4639 20.9521 40.9994C20.3118 40.5349 19.541 40.2847 18.75 40.2847C17.959 40.2847 17.1882 40.5349 16.5479 40.9994C15.9076 41.4639 15.4306 42.119 15.1851 42.871C14.9397 43.623 14.9383 44.4334 15.1812 45.1862C15.4241 45.939 15.8988 46.5958 16.5375 47.0625C15.4751 47.3612 14.5522 48.0252 13.9312 48.9375C13.4972 48.5022 12.9628 48.1802 12.375 48C12.9027 47.5735 13.2853 46.9939 13.4699 46.3409C13.6546 45.688 13.6323 44.9939 13.4061 44.3542C13.1799 43.7145 12.7609 43.1606 12.2069 42.7689C11.6529 42.3771 10.991 42.1668 10.3125 42.1668C9.63397 42.1668 8.97212 42.3771 8.4181 42.7689C7.86407 43.1606 7.44512 43.7145 7.21893 44.3542C6.99274 44.9939 6.97043 45.688 7.15509 46.3409C7.33974 46.9939 7.72227 47.5735 8.25 48C7.49117 48.2386 6.82788 48.7124 6.35601 49.3528C5.88414 49.9932 5.62814 50.767 5.625 51.5625V56.25C5.625 56.4986 5.72377 56.7371 5.89959 56.9129C6.0754 57.0887 6.31386 57.1875 6.5625 57.1875H13.125C13.125 57.4361 13.2238 57.6746 13.3996 57.8504C13.5754 58.0262 13.8139 58.125 14.0625 58.125H22.5C22.5 58.3736 22.5988 58.6121 22.7746 58.7879C22.9504 58.9637 23.1889 59.0625 23.4375 59.0625H36.5625C36.8111 59.0625 37.0496 58.9637 37.2254 58.7879C37.4012 58.6121 37.5 58.3736 37.5 58.125H45.9375C46.1861 58.125 46.4246 58.0262 46.6004 57.8504C46.7762 57.6746 46.875 57.4361 46.875 57.1875ZM49.6875 44.0625C49.9656 44.0625 50.2375 44.145 50.4688 44.2995C50.7 44.454 50.8803 44.6736 50.9867 44.9306C51.0931 45.1876 51.121 45.4703 51.0667 45.7431C51.0125 46.0159 50.8785 46.2665 50.6819 46.4631C50.4852 46.6598 50.2346 46.7937 49.9618 46.848C49.6891 46.9022 49.4063 46.8744 49.1494 46.768C48.8924 46.6615 48.6728 46.4813 48.5182 46.25C48.3637 46.0188 48.2812 45.7469 48.2812 45.4688C48.2812 45.0958 48.4294 44.7381 48.6931 44.4744C48.9569 44.2107 49.3145 44.0625 49.6875 44.0625ZM46.875 51.5625C46.875 51.0652 47.0725 50.5883 47.4242 50.2367C47.7758 49.885 48.2527 49.6875 48.75 49.6875H50.625C51.1223 49.6875 51.5992 49.885 51.9508 50.2367C52.3025 50.5883 52.5 51.0652 52.5 51.5625V55.3125H46.875V51.5625ZM10.3125 44.0625C10.5906 44.0625 10.8625 44.145 11.0938 44.2995C11.325 44.454 11.5053 44.6736 11.6117 44.9306C11.7181 45.1876 11.746 45.4703 11.6917 45.7431C11.6375 46.0159 11.5035 46.2665 11.3069 46.4631C11.1102 46.6598 10.8596 46.7937 10.5868 46.848C10.3141 46.9022 10.0313 46.8744 9.77435 46.768C9.51739 46.6615 9.29777 46.4813 9.14325 46.25C8.98872 46.0188 8.90625 45.7469 8.90625 45.4688C8.90625 45.0958 9.05441 44.7381 9.31813 44.4744C9.58185 44.2107 9.93954 44.0625 10.3125 44.0625ZM13.125 55.3125H7.5V51.5625C7.5 51.0652 7.69754 50.5883 8.04918 50.2367C8.40081 49.885 8.87772 49.6875 9.375 49.6875H11.25C11.7473 49.6875 12.2242 49.885 12.5758 50.2367C12.9275 50.5883 13.125 51.0652 13.125 51.5625V55.3125ZM18.75 42.1875C19.1208 42.1875 19.4834 42.2975 19.7917 42.5035C20.1 42.7095 20.3404 43.0024 20.4823 43.345C20.6242 43.6876 20.6613 44.0646 20.589 44.4283C20.5166 44.792 20.338 45.1261 20.0758 45.3883C19.8136 45.6505 19.4795 45.8291 19.1158 45.9015C18.7521 45.9738 18.3751 45.9367 18.0325 45.7948C17.6899 45.6529 17.397 45.4125 17.191 45.1042C16.985 44.7959 16.875 44.4333 16.875 44.0625C16.875 43.5652 17.0725 43.0883 17.4242 42.7367C17.7758 42.385 18.2527 42.1875 18.75 42.1875ZM22.5 56.25H15V51.5625C15 50.8166 15.2963 50.1012 15.8238 49.5738C16.3512 49.0463 17.0666 48.75 17.8125 48.75H19.6875C20.4334 48.75 21.1488 49.0463 21.6762 49.5738C22.2037 50.1012 22.5 50.8166 22.5 51.5625V56.25ZM27.1875 40.3125C27.1875 39.7562 27.3524 39.2125 27.6615 38.75C27.9705 38.2874 28.4098 37.927 28.9237 37.7141C29.4376 37.5012 30.0031 37.4455 30.5487 37.554C31.0943 37.6626 31.5954 37.9304 31.9887 38.3238C32.3821 38.7171 32.6499 39.2182 32.7585 39.7638C32.867 40.3094 32.8113 40.8749 32.5984 41.3888C32.3855 41.9027 32.0251 42.342 31.5625 42.651C31.1 42.96 30.5563 43.125 30 43.125C29.2541 43.125 28.5387 42.8287 28.0113 42.3012C27.4838 41.7738 27.1875 41.0584 27.1875 40.3125ZM35.625 57.1875H24.375V49.6875C24.375 48.6929 24.7701 47.7391 25.4734 47.0359C26.1766 46.3326 27.1304 45.9375 28.125 45.9375H31.875C32.8696 45.9375 33.8234 46.3326 34.5266 47.0359C35.2299 47.7391 35.625 48.6929 35.625 49.6875V57.1875ZM41.25 42.1875C41.6208 42.1875 41.9834 42.2975 42.2917 42.5035C42.6 42.7095 42.8404 43.0024 42.9823 43.345C43.1242 43.6876 43.1613 44.0646 43.089 44.4283C43.0166 44.792 42.8381 45.1261 42.5758 45.3883C42.3136 45.6505 41.9795 45.8291 41.6158 45.9015C41.2521 45.9738 40.8751 45.9367 40.5325 45.7948C40.1899 45.6529 39.897 45.4125 39.691 45.1042C39.485 44.7959 39.375 44.4333 39.375 44.0625C39.375 43.5652 39.5725 43.0883 39.9242 42.7367C40.2758 42.385 40.7527 42.1875 41.25 42.1875ZM45 56.25H37.5V51.5625C37.5 50.8166 37.7963 50.1012 38.3238 49.5738C38.8512 49.0463 39.5666 48.75 40.3125 48.75H42.1875C42.9334 48.75 43.6488 49.0463 44.1762 49.5738C44.7037 50.1012 45 50.8166 45 51.5625V56.25Z" fill="#203B54"/>
<path d="M2.69053 26.0531L4.89366 26.7844C4.75376 27.8505 4.68486 28.9247 4.68741 30C4.68516 31.0784 4.75406 32.1557 4.89366 33.225L2.69053 33.9469C2.21833 34.1013 1.82672 34.4369 1.60173 34.8798C1.37673 35.3228 1.33674 35.837 1.49053 36.3094L3.19678 41.5406L4.97803 40.9594L3.27178 35.7281L5.47491 35.0062C5.89185 34.8699 6.24776 34.5916 6.48072 34.2199C6.71368 33.8482 6.80894 33.4066 6.74991 32.9719C6.62559 31.9861 6.56297 30.9936 6.56241 30C6.56326 29.0033 6.62588 28.0077 6.74991 27.0187C6.80661 26.5855 6.71024 26.1461 6.47745 25.7764C6.24466 25.4067 5.89007 25.1299 5.47491 24.9937L3.27178 24.2719L5.01553 18.9188L7.21866 19.6875C7.64139 19.82 8.09738 19.7986 8.5058 19.627C8.91422 19.4553 9.24869 19.1447 9.44991 18.75C10.4002 16.998 11.5758 15.378 12.9468 13.9312C13.2533 13.6157 13.4391 13.2023 13.4717 12.7636C13.5043 12.3249 13.3815 11.8886 13.1249 11.5312L11.7655 9.65625L16.3124 6.35625L17.6812 8.23125C17.9412 8.58268 18.3159 8.83219 18.7405 8.93661C19.165 9.04104 19.6127 8.99382 20.0062 8.80313C21.7927 7.93879 23.6833 7.30859 25.6312 6.92812C26.0697 6.85024 26.4661 6.61879 26.7496 6.27524C27.033 5.93168 27.1849 5.49845 27.178 5.05312V2.8125H32.803V5.12812C32.7962 5.57345 32.9481 6.00668 33.2315 6.35024C33.5149 6.69379 33.9114 6.92524 34.3499 7.00312C36.3137 7.38 38.2203 8.01027 40.0218 8.87813C40.4162 9.06439 40.8632 9.10732 41.2859 8.99952C41.7085 8.89172 42.0804 8.63993 42.3374 8.2875L43.6968 6.4125L48.2437 9.7125L46.8937 11.5875C46.6309 11.9425 46.5019 12.3788 46.5293 12.8195C46.5568 13.2603 46.7389 13.6772 47.0437 13.9969C48.4165 15.4222 49.5983 17.02 50.5593 18.75C50.7602 19.1426 51.0931 19.4519 51.4995 19.6233C51.9059 19.7948 52.3597 19.8175 52.7812 19.6875L54.9843 18.975L56.728 24.3188L54.5249 25.0406C54.108 25.177 53.7521 25.4553 53.5191 25.827C53.2861 26.1987 53.1909 26.6403 53.2499 27.075C53.3723 28.0452 53.4349 29.0221 53.4374 30C53.4366 30.9967 53.3739 31.9923 53.2499 32.9813C53.1932 33.4145 53.2896 33.8539 53.5224 34.2236C53.7552 34.5933 54.1097 34.8701 54.5249 35.0062L56.728 35.7281L55.0218 40.9594L56.803 41.5406L58.5093 36.3094C58.6631 35.837 58.6231 35.3228 58.3981 34.8798C58.1731 34.4369 57.7815 34.1013 57.3093 33.9469L55.1062 33.2156C55.2461 32.1495 55.315 31.0753 55.3124 30C55.3147 28.9216 55.2458 27.8443 55.1062 26.775L57.3093 26.0531C57.7815 25.8987 58.1731 25.5631 58.3981 25.1202C58.6231 24.6772 58.6631 24.163 58.5093 23.6906L56.7655 18.3469C56.6902 18.109 56.5682 17.8885 56.4066 17.6984C56.245 17.5083 56.047 17.3524 55.8244 17.2398C55.6017 17.1271 55.3589 17.0601 55.11 17.0425C54.8611 17.025 54.6112 17.0572 54.3749 17.1375L52.1999 17.8125C51.1782 15.9217 49.9179 14.1698 48.4499 12.6L49.8093 10.725C50.0776 10.3297 50.185 9.84679 50.1093 9.375C50.0713 9.13099 49.9855 8.89688 49.8568 8.68612C49.7281 8.47536 49.559 8.29211 49.3593 8.14687L44.8124 4.8375C44.6132 4.69172 44.3871 4.58673 44.1471 4.52855C43.9072 4.47037 43.6581 4.46015 43.4142 4.49848C43.1703 4.53681 42.9364 4.62292 42.7259 4.75189C42.5153 4.88086 42.3324 5.05013 42.1874 5.25L40.8187 7.125C38.8731 6.18882 36.8111 5.51723 34.6874 5.12812V2.8125C34.6874 2.31522 34.4899 1.83831 34.1382 1.48667C33.7866 1.13504 33.3097 0.9375 32.8124 0.9375H27.1874C26.6901 0.9375 26.2132 1.13504 25.8616 1.48667C25.51 1.83831 25.3124 2.31522 25.3124 2.8125V5.12812C23.1862 5.51924 21.1213 6.19072 19.1718 7.125L17.8124 5.25938C17.6691 5.05893 17.4877 4.88869 17.2786 4.75839C17.0695 4.62809 16.8367 4.54029 16.5937 4.5C16.3486 4.46036 16.0981 4.46978 15.8567 4.52772C15.6153 4.58565 15.3878 4.69095 15.1874 4.8375L10.6405 8.1375C10.4408 8.28273 10.2717 8.46599 10.143 8.67675C10.0143 8.88751 9.92851 9.12161 9.89053 9.36562C9.85217 9.60922 9.86223 9.85798 9.92015 10.0977C9.97806 10.3374 10.0827 10.5633 10.228 10.7625L11.578 12.6375C10.1104 14.211 8.85014 15.9659 7.82803 17.8594L5.62491 17.1375C5.15248 16.987 4.63966 17.0297 4.19867 17.2564C3.75768 17.483 3.42441 17.8751 3.27178 18.3469L1.52803 23.6906C1.37251 24.1582 1.40729 24.6681 1.62483 25.1103C1.84238 25.5524 2.22521 25.8911 2.69053 26.0531Z" fill="#203B54"/>
<path d="M48.6376 38.8406C49.957 36.0809 50.6363 33.0589 50.6251 30C50.6251 24.5299 48.4522 19.2839 44.5842 15.4159C40.7163 11.548 35.4702 9.375 30.0001 9.375C24.53 9.375 19.284 11.548 15.4161 15.4159C11.5481 19.2839 9.37514 24.5299 9.37514 30C9.36394 33.0589 10.0433 36.0809 11.3626 38.8406L13.0501 38.0344C11.6986 35.1765 11.0915 32.0234 11.2854 28.868C11.4794 25.7127 12.4679 22.6576 14.1593 19.9867C15.8506 17.3159 18.1898 15.1161 20.9593 13.5918C23.7288 12.0675 26.8388 11.2681 30.0001 11.2681C33.1614 11.2681 36.2714 12.0675 39.041 13.5918C41.8105 15.1161 44.1497 17.3159 45.841 19.9867C47.5323 22.6576 48.5209 25.7127 48.7148 28.868C48.9087 32.0234 48.3017 35.1765 46.9501 38.0344L48.6376 38.8406Z" fill="#203B54"/>
<path d="M25.3125 28.125V24.375C25.3125 24.1264 25.2137 23.8879 25.0379 23.7121C24.8621 23.5363 24.6236 23.4375 24.375 23.4375H20.625C20.3764 23.4375 20.1379 23.5363 19.9621 23.7121C19.7863 23.8879 19.6875 24.1264 19.6875 24.375V28.125H21.5625V25.3125H23.4375V28.125H25.3125Z" fill="#203B54"/>
<path d="M32.8125 28.125V21.5625C32.8125 21.3139 32.7137 21.0754 32.5379 20.8996C32.3621 20.7238 32.1236 20.625 31.875 20.625H28.125C27.8764 20.625 27.6379 20.7238 27.4621 20.8996C27.2863 21.0754 27.1875 21.3139 27.1875 21.5625V28.125H29.0625V22.5H30.9375V28.125H32.8125Z" fill="#203B54"/>
<path d="M40.3125 28.125V18.75C40.3125 18.5014 40.2137 18.2629 40.0379 18.0871C39.8621 17.9113 39.6236 17.8125 39.375 17.8125H35.625C35.3764 17.8125 35.1379 17.9113 34.9621 18.0871C34.7863 18.2629 34.6875 18.5014 34.6875 18.75V28.125H36.5625V19.6875H38.4375V28.125H40.3125Z" fill="#203B54"/>
<path d="M42.1875 30H17.8125V31.875H42.1875V30Z" fill="#203B54"/>
</svg>
