<svg width="32" height="30" viewBox="0 0 32 30" fill="none" xmlns="http://www.w3.org/2000/svg">
<g clip-path="url(#clip0_42_28)">
<path d="M31.6237 10.1585C31.6237 7.74772 30.6759 5.48186 28.9551 3.77962C27.2386 2.07439 24.9495 1.13582 22.5103 1.13582C20.1449 1.13582 17.923 2.02647 16.2192 3.63587L16.0685 3.48493C14.2599 1.69585 11.8746 0.709961 9.35186 0.709961C6.93383 0.709961 4.67378 1.62936 2.98631 3.29986C-0.565377 6.82053 -0.481245 12.6274 3.17394 16.2445L3.57402 16.6405C3.36823 17.013 3.3077 17.4766 3.40939 17.9666C3.52983 18.5445 3.86273 19.1225 4.35239 19.5993C4.94675 20.1779 5.67791 20.5109 6.37215 20.5337C6.3776 20.6499 6.38304 20.7661 6.40786 20.8865C6.52831 21.4645 6.8612 22.0425 7.34541 22.5138C7.93918 23.0924 8.67094 23.4249 9.36518 23.4476C9.37062 23.5638 9.37607 23.68 9.40089 23.801C9.52133 24.379 9.85423 24.957 10.3384 25.4284C10.9328 26.007 11.664 26.3394 12.3576 26.3622C12.363 26.4783 12.3685 26.5951 12.3933 26.7155C12.5138 27.2929 12.8466 27.8709 13.3363 28.3483C13.9519 28.9473 14.7151 29.2905 15.4305 29.2905C15.9293 29.2905 16.3602 29.1227 16.6755 28.8053L19.6704 25.7931C19.8035 25.659 19.8974 25.502 19.9736 25.3361C20.548 25.2499 21.0764 24.9953 21.4862 24.5838C22.0951 23.9819 22.3432 23.1613 22.2536 22.3713C22.3565 22.3827 22.4594 22.4006 22.5629 22.4006C23.2626 22.4006 23.9623 22.1371 24.4943 21.6106C25.105 21.0063 25.3538 20.1851 25.2636 19.3951C25.3653 19.4064 25.4658 19.4244 25.5699 19.4244C26.3004 19.4244 26.9874 19.1423 27.5043 18.6314C27.8959 18.2439 28.1525 17.7593 28.2548 17.2328L28.9551 16.5404C30.6759 14.8358 31.6237 12.5693 31.6237 10.1585ZM22.5103 2.33374C24.6257 2.33374 26.6097 3.14712 28.0987 4.62595C29.5913 6.10298 30.4138 8.06816 30.4138 10.1585C30.4138 12.2483 29.5925 14.2117 28.1017 15.6887C27.9661 15.3611 27.7652 15.0592 27.5043 14.8017L21.2047 8.56889C21.1993 8.5635 21.1926 8.5623 21.1872 8.55751L20.6449 8.02085L21.0807 7.76749C21.3688 7.59918 21.4644 7.23202 21.2943 6.94751C21.1242 6.66181 20.7532 6.56777 20.4651 6.73548L15.6333 9.54819C14.7466 10.0567 13.6383 9.98064 12.8515 9.39067C12.7044 9.28046 12.6741 9.13491 12.6681 9.05764C12.6626 8.97918 12.6735 8.82884 12.8055 8.69827L16.9152 4.62535C18.4096 3.14772 20.3961 2.33374 22.5103 2.33374ZM4.59449 17.7258C4.56907 17.6048 4.52791 17.3041 4.69254 17.1388L7.68799 14.1266C7.7921 14.0218 7.9531 13.9996 8.06991 13.9996C8.45849 13.9996 8.93604 14.2291 9.32039 14.604C9.63089 14.9065 9.84999 15.276 9.92081 15.618C9.94623 15.7396 9.98739 16.0403 9.82275 16.2056L6.82791 19.2178C6.72381 19.3226 6.56281 19.3448 6.44599 19.3448C6.05741 19.3448 5.58047 19.1154 5.19552 18.7404C4.88502 18.4379 4.66591 18.0684 4.59449 17.7258ZM7.59297 20.6451C7.56754 20.5241 7.52639 20.2234 7.69102 20.0581L10.6859 17.046C10.79 16.9411 10.951 16.919 11.0678 16.919C11.4564 16.919 11.9339 17.1484 12.3128 17.5173C12.9223 18.1109 13.0809 18.8524 12.8158 19.1201L9.82094 22.1317C9.71623 22.2371 9.55523 22.2587 9.43902 22.2587C9.05044 22.2587 8.57349 22.0293 8.19399 21.6603C7.88349 21.3573 7.66439 20.9877 7.59297 20.6451ZM10.6834 22.9714L13.6783 19.9599C13.783 19.8545 13.944 19.8329 14.0608 19.8329C14.4494 19.8329 14.9263 20.0623 15.3052 20.4313C15.9147 21.0242 16.0733 21.7663 15.8082 22.0335L12.8134 25.0456C12.7093 25.1505 12.5483 25.1726 12.4314 25.1726C12.0429 25.1726 11.5653 24.9432 11.1864 24.5743C10.5769 23.9801 10.4183 23.2386 10.6834 22.9714ZM18.8067 24.9522L15.8118 27.9644C15.7077 28.0692 15.5467 28.0913 15.4299 28.0913C15.0407 28.0913 14.5638 27.8619 14.1788 27.487C13.8683 27.1845 13.6492 26.815 13.5784 26.473C13.553 26.3514 13.5118 26.0507 13.6765 25.8854L16.6713 22.8732C16.7754 22.7684 16.9364 22.7462 17.0532 22.7462C17.4418 22.7462 17.9194 22.9756 18.3037 23.3506C18.9132 23.9436 19.0718 24.6857 18.8067 24.9522ZM24.4907 17.7827L18.1917 11.5499C17.9551 11.3157 17.5725 11.3157 17.3359 11.5499C17.0992 11.7841 17.0992 12.1626 17.3359 12.3968L23.6379 18.6326C23.9254 18.9171 24.0834 19.295 24.0834 19.6969C24.0834 20.0988 23.9248 20.4774 23.6379 20.7613C23.0465 21.3465 22.0836 21.3471 21.4904 20.7643C21.4886 20.7625 21.4874 20.7601 21.4856 20.7583L15.1848 14.5231C14.9481 14.2889 14.5656 14.2889 14.3289 14.5231C14.2103 14.6405 14.1516 14.7945 14.1522 14.9484C14.1522 15.1017 14.2115 15.2551 14.3295 15.3719L20.6315 21.6082L20.6334 21.61C21.2205 22.2006 21.2199 23.1517 20.6267 23.7381C20.4711 23.8944 20.2835 24.007 20.0729 24.0813C19.95 23.5357 19.6431 22.9732 19.148 22.4905C18.5543 21.9125 17.8231 21.5795 17.1295 21.5561C17.0962 20.8955 16.7688 20.1737 16.1556 19.576C15.5619 18.998 14.8307 18.6649 14.1371 18.6422C14.1038 17.9815 13.7763 17.2592 13.1632 16.6614C12.5688 16.0828 11.8377 15.7504 11.1434 15.7276C11.138 15.6114 11.1325 15.4952 11.1077 15.3743C10.9873 14.7969 10.6544 14.2189 10.1647 13.7415C9.54917 13.1425 8.78654 12.7993 8.07112 12.7993C7.57178 12.7993 7.14144 12.967 6.8261 13.2845L4.38083 15.7438L4.03039 15.397C0.846702 12.2465 0.763176 7.19848 3.84275 4.14559C5.30144 2.7021 7.25825 1.90728 9.35246 1.90728C11.552 1.90728 13.6335 2.76858 15.2108 4.32887L15.3567 4.47501L11.9503 7.85074C11.6065 8.19095 11.4279 8.66113 11.4612 9.1391C11.4945 9.61647 11.7354 10.0555 12.1215 10.3448C13.2897 11.2205 14.936 11.3319 16.244 10.582L19.5675 8.64736L20.3453 9.41702C20.3507 9.42241 20.3574 9.42361 20.3628 9.4284L26.6479 15.648C26.936 15.9337 27.0945 16.3122 27.0945 16.7153C27.0945 17.1184 26.936 17.4976 26.6479 17.7821C26.0716 18.3547 25.0669 18.3541 24.4907 17.7827Z" fill="#203B54"/>
</g>
<defs>
<clipPath id="clip0_42_28">
<rect width="32" height="30" fill="white"/>
</clipPath>
</defs>
</svg>
