<svg width="60" height="60" viewBox="0 0 60 60" fill="none" xmlns="http://www.w3.org/2000/svg">
<path d="M13.0626 21.0873C13.0341 21.7005 12.5141 22.1746 11.9008 22.1461C11.2876 22.1177 10.8136 21.5975 10.8419 20.9843C10.8704 20.3712 11.3905 19.897 12.0037 19.9255C12.617 19.954 13.091 20.4741 13.0626 21.0873ZM58.8424 38.2203C58.5647 38.8498 58.0599 39.3328 57.4213 39.5804L54.086 40.8735C53.7815 40.9915 53.4681 41.0474 53.1596 41.0474C52.1286 41.0474 51.1538 40.423 50.7594 39.4056L50.4684 38.655L47.7539 39.7876C47.8848 40.5567 47.7589 41.356 47.3771 42.0503C46.9241 42.874 46.1737 43.4708 45.2647 43.731C45.2273 43.7416 45.1897 43.7517 45.1522 43.7612C45.449 44.6559 45.3896 45.6635 44.9049 46.5449C44.1894 47.8459 42.7611 48.5126 41.3718 48.3285C41.4133 48.9688 41.2804 49.626 40.9509 50.2248C40.4994 51.0458 39.7522 51.6416 38.8468 51.9022C38.2808 52.0651 37.698 52.0836 37.1414 51.9629C37.1594 52.5663 37.0224 53.181 36.7126 53.7445C36.2608 54.566 35.4814 55.1828 34.5746 55.4371C34.2614 55.5249 33.9437 55.5683 33.6291 55.5683C33.04 55.5683 32.4615 55.416 31.9408 55.117L31.0214 54.5889C30.5654 55.2307 29.9128 55.7024 29.1436 55.9355C28.7986 56.04 28.4462 56.0918 28.0961 56.0918C27.5162 56.0918 26.9427 55.9496 26.4186 55.6693C25.6409 55.2534 25.067 54.5822 24.7663 53.799C23.7955 54.212 22.6564 54.1932 21.6724 53.6669C20.9757 53.2943 20.4397 52.7096 20.1197 52.0223C19.096 52.5764 17.8243 52.624 16.7266 52.037C15.8861 51.5876 15.2703 50.8351 14.9925 49.9182C14.8344 49.3966 14.7969 48.8585 14.8767 48.3367C14.2713 48.3505 13.6664 48.2132 13.113 47.9173C12.2725 47.4678 11.6567 46.7154 11.3789 45.7984C11.101 44.8815 11.1956 43.9138 11.645 43.0734L12.5429 41.3948C12.3423 40.9179 12.2434 40.3965 12.1486 39.887C11.9765 38.9625 11.8427 38.3898 11.434 38.2311C11.1929 38.1376 10.5679 37.8657 9.49251 37.3863L9.13192 38.2023C8.85501 38.8288 8.34911 39.3107 7.7075 39.559C7.40504 39.676 7.08981 39.7344 6.77563 39.7344C6.42325 39.7344 6.07204 39.661 5.74086 39.5147L2.46899 38.0686C1.84251 37.7917 1.36075 37.2858 1.11243 36.6442C0.864107 36.0024 0.879927 35.304 1.15672 34.6775L8.66844 17.6811C8.94536 17.0546 9.45126 16.5728 10.0929 16.3244C10.7345 16.076 11.4329 16.0917 12.0595 16.3687L15.3314 17.8147C15.9579 18.0916 16.4396 18.5975 16.6879 19.2392C16.9363 19.881 16.9204 20.5794 16.6436 21.2059L16.0802 22.4807L18.2097 23.4632C18.2325 23.4737 18.2549 23.4851 18.2766 23.4974C19.447 24.1558 20.6691 23.8694 22.2165 23.5069C24.236 23.0334 26.7219 22.4522 29.6213 24.1564C33.6274 21.6798 36.7051 22.9351 38.9771 23.8638C40.6702 24.556 41.6778 24.9219 42.6965 24.392L44.5535 23.398L44.0423 22.0795C43.53 20.7576 44.1886 19.2653 45.5102 18.7529L48.8456 17.4599C50.1675 16.9474 51.6599 17.606 52.1723 18.9278L58.889 36.2537C59.1369 36.8925 59.1201 37.5908 58.8424 38.2203ZM14.9287 20.448C15.0032 20.2795 15.007 20.0907 14.9394 19.916C14.8719 19.7414 14.7418 19.6042 14.5734 19.5298L11.3015 18.0837C11.2131 18.0446 11.1188 18.0249 11.0241 18.0249C10.9386 18.0249 10.8525 18.041 10.7696 18.073C10.5951 18.1406 10.4579 18.2706 10.3835 18.439L2.87129 35.4353C2.71614 35.7864 2.87551 36.1983 3.22661 36.3534L6.49848 37.7995C6.667 37.8739 6.8559 37.8777 7.0304 37.8102C7.20489 37.7426 7.34211 37.6126 7.41653 37.4442L14.9287 20.448ZM15.8477 46.1038L17.9901 42.3959C18.3432 41.5849 18.0154 40.6315 17.2334 40.2142C16.4042 39.7717 15.3695 40.0848 14.9267 40.9126L13.2981 43.9577C13.0848 44.3564 13.0404 44.8171 13.173 45.2545C13.3057 45.6921 13.5983 46.0505 13.997 46.2637C14.5907 46.5813 15.3184 46.5139 15.8477 46.1038ZM19.922 49.6745L22.289 45.0903C22.4319 44.3635 22.0795 43.6021 21.4252 43.2528C20.8256 42.9329 20.0935 43.0032 19.5636 43.4205L16.9115 48.0776C16.6984 48.4762 16.654 48.9368 16.7866 49.3742C16.9193 49.8118 17.2118 50.1702 17.6106 50.3835C18.4384 50.8261 19.4749 50.5079 19.922 49.6745ZM24.7135 51.5431L26.8127 47.5084C26.9548 46.7819 26.6025 46.0212 25.9486 45.6722C25.2966 45.3242 24.4731 45.4496 23.9486 45.963L21.6617 50.3918C21.617 51.0576 21.9644 51.697 22.5563 52.0135C23.2924 52.4072 24.2097 52.2031 24.7135 51.5431ZM29.6087 53.3171L31.1702 50.3972C31.4776 49.8224 31.4243 49.1081 31.0344 48.5776C30.8853 48.3748 30.6959 48.2112 30.4716 48.0914C29.8195 47.7431 28.9954 47.8691 28.4708 48.3838L26.4126 52.3396C26.3432 53.0262 26.6897 53.6883 27.3025 54.016C27.7013 54.2293 28.162 54.2737 28.5993 54.1412C29.037 54.0084 29.3955 53.7158 29.6087 53.3171ZM34.4249 50.6218C34.3743 50.5936 33.2256 49.9254 33.2256 49.9254C33.1834 50.3934 33.0515 50.8555 32.8237 51.2814L31.9316 52.9495L32.8743 53.491C33.2329 53.6971 33.657 53.7471 34.0682 53.6316C34.4938 53.5123 34.8587 53.2241 35.0695 52.8409C35.5002 52.0581 35.2109 51.0624 34.4249 50.6218ZM45.7644 39.6593C45.6154 39.3521 45.3787 39.0998 45.08 38.9294L36.2094 33.8734C34.7027 33.0146 32.821 33.7766 30.6422 34.6587C29.0132 35.3181 27.1822 36.0592 25.327 36.0593C23.5142 36.0594 21.6784 35.3523 19.983 33.1708C19.7631 32.8888 19.6753 32.5244 19.743 32.1724C19.8107 31.8203 20.0275 31.5143 20.3379 31.3331C22.8397 29.873 24.9526 28.2792 26.6179 26.5963C27.0513 26.1583 27.4884 25.7557 27.9259 25.3892C26.0065 24.5455 24.3651 24.9292 22.6443 25.3324C20.9442 25.731 19.1864 26.1429 17.3918 25.1507L15.3221 24.1958L10.2501 35.6712C11.2774 36.129 11.9032 36.4019 12.1121 36.483C13.362 36.9682 13.7171 38.1619 13.919 39.1651C15.0055 38.0981 16.7034 37.8058 18.1162 38.5599C19.1631 39.1187 19.8238 40.1341 19.9742 41.2379C20.7538 41.0944 21.5777 41.2087 22.3079 41.5986C23.1855 42.067 23.8 42.8576 24.0603 43.763C24.9567 43.4776 25.9542 43.5498 26.8313 44.018C27.7088 44.4862 28.3234 45.2768 28.5836 46.1821C29.48 45.8968 30.4781 45.9688 31.3551 46.4375C31.7737 46.6612 32.1351 46.9584 32.4318 47.3217L37.1015 49.965C37.4749 50.1725 37.9102 50.2208 38.3278 50.1005C38.7501 49.9788 39.0983 49.7021 39.3077 49.3213C39.736 48.5427 39.4447 47.5492 38.6582 47.1066C38.6073 47.0778 32.1049 43.4004 32.1049 43.4004C31.6536 43.1464 31.4936 42.5748 31.7476 42.1236C32.0014 41.6724 32.5729 41.5124 33.0243 41.7663L41.0519 46.2833C41.8381 46.7153 42.8293 46.4275 43.2616 45.6415C43.6898 44.863 43.3985 43.8696 42.6123 43.4269C40.3409 42.1548 38.4486 41.093 36.5007 39.9778C36.0514 39.7206 35.8957 39.1478 36.1529 38.6985C36.41 38.2492 36.9826 38.0934 37.4322 38.3507C39.3734 39.4619 41.2624 40.5218 43.53 41.792C43.8996 41.9991 44.3322 42.0476 44.7484 41.9286C45.1734 41.807 45.5233 41.5294 45.7337 41.147C45.9881 40.685 45.9991 40.1429 45.7644 39.6593ZM49.7904 36.9063L45.2363 25.1593L43.5716 26.0503C41.7231 27.0118 39.9664 26.2938 38.2677 25.5995C35.9684 24.6596 33.5908 23.6876 30.1634 26.0388C29.4337 26.5373 28.6898 27.1684 27.9507 27.9152C26.3165 29.5666 24.2928 31.1298 21.9279 32.5683C24.356 35.1806 26.9563 34.128 29.9384 32.9208C32.349 31.945 34.8413 30.9358 37.1377 32.2445L46.0085 37.3005C46.3726 37.5081 46.6932 37.7741 46.9597 38.0872L49.7904 36.9063ZM57.1411 36.9316L50.4243 19.6056C50.3176 19.3301 50.0536 19.161 49.7744 19.161C49.6909 19.161 49.6059 19.1761 49.5235 19.2081L46.1881 20.5011C45.8302 20.6399 45.652 21.0439 45.7906 21.4019L52.5075 38.7279C52.6462 39.0857 53.0507 39.264 53.4083 39.1253L56.7436 37.8322C57.1015 37.6935 57.2797 37.2895 57.1411 36.9316ZM48.7367 21.0155C48.1245 21.0155 47.6252 21.5148 47.6252 22.127C47.6252 22.7392 48.1244 23.2385 48.7367 23.2385C49.3489 23.2385 49.8482 22.7393 49.8482 22.127C49.8481 21.5148 49.3489 21.0155 48.7367 21.0155ZM30.0001 13.053C30.5178 13.053 30.9376 12.6333 30.9376 12.1155V4.84686C30.9376 4.32913 30.5178 3.90936 30.0001 3.90936C29.4823 3.90936 29.0626 4.32913 29.0626 4.84686V12.1155C29.0626 12.6334 29.4823 13.053 30.0001 13.053ZM19.1832 15.2652C19.3568 15.5659 19.6719 15.7341 19.996 15.7341C20.1549 15.7341 20.3162 15.6935 20.4638 15.6083C20.9122 15.3494 21.0659 14.776 20.807 14.3277L17.1726 8.03284C16.9139 7.58448 16.3406 7.43085 15.892 7.68971C15.4436 7.94858 15.2899 8.52198 15.5489 8.97034L19.1832 15.2652ZM39.5363 15.6083C39.684 15.6936 39.8451 15.7341 40.0041 15.7341C40.3282 15.7341 40.6433 15.5659 40.817 15.2652L44.4514 8.97034C44.7104 8.52198 44.5566 7.94858 44.1083 7.68971C43.6598 7.43073 43.0865 7.58436 42.8277 8.03284L39.1932 14.3277C38.9342 14.776 39.088 15.3493 39.5363 15.6083Z" fill="#203B54"/>
</svg>
