<svg width="32" height="32" viewBox="0 0 32 32" fill="none" xmlns="http://www.w3.org/2000/svg">
<g id="administration 1" clip-path="url(#clip0_144_2097)">
<path id="Vector" d="M31.1796 8.39392C31.3726 8.31967 31.5 8.13417 31.5 7.92729V6.30892C31.5 6.10204 31.3726 5.9166 31.1796 5.84229L30.4276 5.55279C30.3119 5.15267 30.1523 4.76735 29.9506 4.40217L30.2779 3.66529C30.3618 3.47629 30.3207 3.2551 30.1745 3.10879L29.0301 1.96435C28.8837 1.8181 28.6626 1.77717 28.4736 1.86098L27.7363 2.18842C27.3712 1.98679 26.9861 1.82717 26.5861 1.71154L26.2966 0.959291C26.2223 0.766291 26.0368 0.638916 25.8299 0.638916H24.2116C24.0047 0.638916 23.8193 0.766291 23.7449 0.959291L23.4554 1.71154C23.0554 1.82717 22.6702 1.98679 22.3052 2.18842L21.5679 1.86098C21.3791 1.77704 21.1578 1.81804 21.0114 1.96442L19.8671 3.10885C19.7208 3.2551 19.6798 3.47629 19.7637 3.66529L20.091 4.40242C20.0171 4.53642 19.9488 4.67317 19.8862 4.81229H3.1595C1.69306 4.81229 0.5 6.00535 0.5 7.47179V22.328C0.5 23.7945 1.69306 24.9875 3.1595 24.9875H10.1311V27.4185H7.344C6.05287 27.4185 5.00238 28.3028 5.00238 29.3899V30.8613C5.00238 31.1374 5.22625 31.3613 5.50238 31.3613H24.5881C24.8642 31.3613 25.0881 31.1374 25.0881 30.8613V29.8899H30.9659C31.1077 29.8899 31.2429 29.8296 31.3377 29.7242C31.4326 29.6187 31.4781 29.4778 31.463 29.3367C31.2684 27.5181 30.4109 25.838 29.0487 24.6062C28.9352 24.5035 28.8187 24.405 28.6998 24.3101C29.2562 23.8122 29.5904 23.094 29.5904 22.3281V11.7114L30.1745 11.1274C30.3207 10.9811 30.3618 10.7599 30.2779 10.5709L29.9504 9.83367C30.1521 9.46854 30.3117 9.08342 30.4273 8.68354L31.1796 8.39392ZM19.8671 11.1275L21.0115 12.2719C21.1578 12.418 21.3789 12.459 21.568 12.3752L22.3053 12.0478C22.6703 12.2494 23.0555 12.409 23.4554 12.5247L23.745 13.2769C23.8193 13.4699 24.0047 13.5973 24.2116 13.5973H25.8301C26.0369 13.5973 26.2224 13.4699 26.2967 13.2769L26.5861 12.5249C26.6528 12.5057 26.7189 12.4847 26.7847 12.463V16.7255C26.0669 16.0568 25.1052 15.6465 24.0491 15.6465C21.8338 15.6465 20.0316 17.4488 20.0316 19.664C20.0316 19.8979 20.0528 20.1269 20.0914 20.3499H3.30588V7.61817H18.5416V7.92735C18.5416 8.13423 18.669 8.31967 18.862 8.39398L19.614 8.68348C19.7297 9.0836 19.8894 9.46885 20.091 9.83404L19.7638 10.571C19.6798 10.76 19.7209 10.9812 19.8671 11.1275ZM24.0507 22.6815C24.0501 22.6815 24.0496 22.6815 24.0491 22.6815C24.0486 22.6815 24.0479 22.6815 24.0474 22.6815C22.3843 22.6806 21.0316 21.3274 21.0316 19.664C21.0316 18.0002 22.3852 16.6465 24.0491 16.6465C25.7129 16.6465 27.0666 18.0002 27.0666 19.664C27.0665 21.3273 25.7138 22.6805 24.0507 22.6815ZM1.5 22.328V7.47179C1.5 6.55673 2.24444 5.81229 3.1595 5.81229H18.94L18.862 5.84229C18.669 5.91654 18.5416 6.10204 18.5416 6.30892V6.6181H3.10531C2.6645 6.6181 2.30588 6.97673 2.30588 7.41754V20.8499C2.30588 21.126 2.52975 21.3499 2.80588 21.3499H20.4037C20.7191 22.029 21.2184 22.6059 21.8377 23.0159C21.1266 23.2364 20.4509 23.5632 19.8329 23.9875H3.1595C2.24444 23.9875 1.5 23.2431 1.5 22.328ZM11.1311 24.9875H18.6574C17.9823 25.6939 17.4566 26.5201 17.1047 27.4185H11.1311V24.9875ZM24.0881 30.3612H6.00238V29.3898C6.00238 28.8632 6.61675 28.4184 7.344 28.4184H16.7924C16.7213 28.7195 16.6683 29.026 16.635 29.3366C16.6199 29.4777 16.6654 29.6185 16.7603 29.724C16.8551 29.8295 16.9903 29.8898 17.1321 29.8898H24.0881V30.3612ZM30.3856 28.8898L17.7124 28.8899C18.2968 25.8845 20.9283 23.682 24.0477 23.6815H24.049C24.049 23.6815 24.0499 23.6815 24.0503 23.6815C27.1696 23.6821 29.8011 25.8845 30.3856 28.8898ZM26.2603 23.0159C27.3476 22.2962 28.0666 21.0627 28.0666 19.664C28.0666 19.1432 27.9659 18.6457 27.7847 18.1887V12.0692L28.4736 12.3752C28.5115 12.3921 28.5508 12.4025 28.5904 12.4095V22.328C28.5904 22.8895 28.3016 23.4102 27.8377 23.7152C27.34 23.4212 26.8108 23.1866 26.2603 23.0159ZM29.8295 7.8421C29.6757 7.90129 29.5609 8.03254 29.5228 8.19292C29.4094 8.6691 29.2214 9.1226 28.9639 9.54073C28.8775 9.68117 28.8659 9.8551 28.9328 10.0058L29.2246 10.663L28.5658 11.3219L27.9089 11.0301C27.7583 10.9632 27.5842 10.9749 27.4438 11.0614C27.0258 11.3188 26.5722 11.5069 26.0956 11.6202C25.9352 11.6584 25.8039 11.7731 25.7447 11.927L25.4867 12.5972H24.555L24.2969 11.9268C24.2378 11.773 24.1065 11.6582 23.9461 11.62C23.4699 11.5067 23.0164 11.3187 22.5982 11.0612C22.4579 10.9747 22.2838 10.9632 22.1332 11.03L21.4759 11.3219L20.8171 10.6631L21.1089 10.0061C21.1758 9.85542 21.1641 9.68142 21.0776 9.54098C20.8202 9.12298 20.6322 8.66942 20.5187 8.19285C20.4806 8.03254 20.3658 7.90123 20.212 7.84204L19.5417 7.58404V6.65229L20.2121 6.39423C20.3659 6.33504 20.4808 6.20379 20.5189 6.04342C20.6322 5.56704 20.8203 5.11354 21.0777 4.69548C21.1642 4.5551 21.1758 4.3811 21.1089 4.23042L20.8171 3.57323L21.4759 2.91435L22.1332 3.20629C22.2838 3.27317 22.4579 3.2616 22.5982 3.1751C23.0164 2.9176 23.4698 2.7296 23.946 2.61629C24.1064 2.57817 24.2377 2.46342 24.2969 2.30954L24.555 1.63904H25.4867L25.7448 2.30954C25.804 2.46342 25.9353 2.57817 26.0957 2.61629C26.5719 2.7296 27.0253 2.9176 27.4434 3.1751C27.5838 3.2616 27.7579 3.27304 27.9085 3.20629L28.5658 2.91435L29.2246 3.57323L28.9329 4.23017C28.866 4.38085 28.8776 4.55485 28.9641 4.69529C29.2216 5.11329 29.4096 5.56692 29.523 6.04348C29.5611 6.20379 29.6759 6.3351 29.8298 6.39429L30.5 6.65229V7.58398L29.8295 7.8421ZM25.0208 3.79567C23.1888 3.79567 21.6984 5.2861 21.6984 7.1181C21.6984 8.9501 23.1889 10.4405 25.0208 10.4405C26.8528 10.4405 28.3432 8.95004 28.3432 7.1181C28.3432 5.2861 26.8528 3.79567 25.0208 3.79567ZM25.0208 9.44054C23.7402 9.44054 22.6984 8.39873 22.6984 7.11817C22.6984 5.8376 23.7402 4.79573 25.0208 4.79573C26.3014 4.79573 27.3432 5.8376 27.3432 7.11817C27.3432 8.39873 26.3014 9.44054 25.0208 9.44054ZM16.2537 8.85829H13.9242C13.6481 8.85829 13.4242 9.08217 13.4242 9.35829V18.1137H12.4282V11.8034C12.4282 11.5272 12.2043 11.3034 11.9282 11.3034H9.59875C9.32263 11.3034 9.09875 11.5272 9.09875 11.8034V18.1138H8.10275V14.1448C8.10275 13.8687 7.87887 13.6448 7.60275 13.6448H5.27319C4.99706 13.6448 4.77319 13.8687 4.77319 14.1448V18.6138C4.77319 18.8899 4.99706 19.1138 5.27319 19.1138H16.2476C16.5238 19.1138 16.7476 18.8899 16.7476 18.6138H16.7537V9.35829C16.7537 9.08217 16.5298 8.85829 16.2537 8.85829ZM14.4242 9.85829H15.7536V18.1137H14.4242V9.85829ZM10.0987 12.3034H11.4281V18.1138H10.0987V12.3034ZM7.10275 14.6447V18.1137H5.77319V14.6447H7.10275Z" fill="#203B54"/>
</g>
<defs>
<clipPath id="clip0_144_2097">
<rect width="32" height="32" fill="white"/>
</clipPath>
</defs>
</svg>
