<svg xmlns="http://www.w3.org/2000/svg" width="37" height="34" viewBox="0 0 37 34" fill="none"><mask id="mask0_4014_1188" style="mask-type:luminance" maskUnits="userSpaceOnUse" x="0" y="0" width="37" height="34">
<path d="M31.7808 0H4.96575C2.22324 0 0 2.17462 0 4.85714V29.1429C0 31.8254 2.22324 34 4.96575 34H31.7808C34.5233 34 36.7466 31.8254 36.7466 29.1429V4.85714C36.7466 2.17462 34.5233 0 31.7808 0Z" fill="white"></path>
</mask><g mask="url(#mask0_4014_1188)">
<path d="M31.7808 0H4.96575C2.22324 0 0 2.17462 0 4.85714V29.1429C0 31.8254 2.22324 34 4.96575 34H31.7808C34.5233 34 36.7466 31.8254 36.7466 29.1429V4.85714C36.7466 2.17462 34.5233 0 31.7808 0Z" fill="#203B54"></path>
<path d="M10.5732 17.9678L22.1553 -10.8259L77.1792 18.917L22.1587 45.8257L10.5732 17.9678Z" fill="#CE1515" stroke="white" stroke-width="2"></path>
<path d="M26.2262 11.2686H40.1233V23.7028H26.2116C26.1659 23.5999 26.1113 23.4763 26.0495 23.3353C25.8547 22.8902 25.5885 22.2719 25.3028 21.5785C24.7533 20.2447 24.1447 18.6635 23.8264 17.5028C24.1515 16.5308 24.7604 14.9491 25.306 13.5671C25.5929 12.8402 25.8603 12.1738 26.056 11.689C26.1214 11.5271 26.1788 11.3854 26.2262 11.2686Z" stroke="white" stroke-width="2"></path>
</g></svg>