<svg width="70" height="141" viewBox="0 0 70 141" fill="none" xmlns="http://www.w3.org/2000/svg">
<g clip-path="url(#clip0_1_516)">
<path d="M31.1677 121.23L29.7214 120.006C30.735 118.887 31.782 117.948 32.7956 116.829L34.2086 117.872C33.195 118.991 32.1814 120.11 31.1677 121.23ZM37.2162 114.335L35.6065 113.328C36.4235 112.245 37.4039 110.946 38.1875 109.683L39.7972 110.69C39.0136 111.953 37.9999 113.072 37.2162 114.335ZM42.1483 106.901L40.3752 106.111C41.1589 104.848 41.7459 103.621 42.5295 102.358L44.3026 103.149C43.7156 104.375 42.9319 105.638 42.1483 106.901ZM46.1937 99.0722L44.2573 98.4979C44.8443 97.2713 45.398 95.8645 45.9517 94.4576L47.8882 95.0318C47.3012 96.2585 46.9441 97.629 46.1937 99.0722ZM49.3194 90.6674L47.4162 90.2734C47.7732 88.9029 48.1303 87.5324 48.4873 86.1618L50.3905 86.5558C50.0335 87.9264 49.6764 89.2969 49.3194 90.6674ZM51.2317 82.3004L49.1651 82.1229C49.3255 80.7887 49.6493 79.2379 49.613 77.9401L51.6796 78.1175C51.6826 79.2352 51.5555 80.7496 51.2317 82.3004ZM52.0608 73.5743L50.0275 73.577C49.9912 72.2791 50.1183 70.7647 50.0487 69.2866L52.0487 69.1036C52.1516 70.7619 52.1879 72.0598 52.0608 73.5743ZM51.6766 64.8858L49.6766 65.0688C49.607 63.5907 49.374 62.3291 49.1077 60.8874L51.0745 60.5242C51.374 62.1462 51.6403 63.588 51.6766 64.8858ZM48.1789 56.9588C47.9126 55.517 47.4829 54.2917 47.02 52.8863L48.9535 52.3428C49.4164 53.7483 49.8793 55.1538 50.1123 56.4153L48.1789 56.9588ZM45.6645 48.8501C45.2348 47.6249 44.5752 46.2557 43.9489 45.0668L45.8491 44.3431C46.5087 45.7123 47.135 46.9012 47.598 48.3067L45.6645 48.8501ZM42.0367 41.3198C41.4103 40.1309 40.554 38.7981 39.9277 37.6091L41.5647 36.5614C42.3877 37.714 43.0473 39.0831 43.8703 40.2357L42.0367 41.3198ZM37.4587 34.1513C36.6357 32.9987 35.8127 31.8461 34.793 30.7298L36.3967 29.5018C37.4164 30.6181 38.2394 31.7707 39.0624 32.9233L37.4587 34.1513ZM31.964 27.5249C30.9776 26.5889 29.9579 25.4726 28.9715 24.5365L30.3452 23.1646C31.3316 24.1007 32.548 25.1806 33.5676 26.2969L31.964 27.5249ZM25.5857 21.6208C24.4026 20.721 23.4163 19.785 22.2665 19.0654L23.4102 17.5496C24.5933 18.4494 25.7764 19.3491 26.9594 20.2489L25.5857 21.6208Z" fill="black"/>
<path d="M37.063 125.848L36.8908 123.814L26.9095 124.831L26.4784 114.788L24.4379 114.752L24.8814 127.065L37.063 125.848Z" fill="black"/>
<path d="M19.5543 12.1551L17.2742 25.8628L19.5118 26.2157L21.2764 15.0274L32.4806 17.7401L33.0557 15.4429L19.5543 12.1551Z" fill="black"/>
</g>
<defs>
<clipPath id="clip0_1_516">
<rect width="46.0965" height="134.037" fill="white" transform="translate(0 8.99268) rotate(-10.4631)"/>
</clipPath>
</defs>
</svg>
