<svg width="150" height="76" viewBox="0 0 150 76" fill="none" xmlns="http://www.w3.org/2000/svg">
<g clip-path="url(#clip0_356_1327)">
<path d="M144.511 38.9934L142.546 37.8508C141.763 39.0786 140.717 40.4412 139.934 41.6689L141.898 42.8115C142.681 41.5837 143.516 40.1643 144.511 38.9934ZM138.862 46.516L137.16 45.2386C136.165 46.4096 135.17 47.5806 134.175 48.7516L135.877 50.029C136.821 49.0496 137.867 47.687 138.862 46.516ZM132.629 53.6768L130.978 52.2078C129.772 53.322 128.565 54.4362 127.621 55.4155L129.059 56.8278C130.215 55.9052 131.422 54.791 132.629 53.6768ZM125.066 59.8653L123.679 58.2614C122.575 58.9924 121.208 59.8582 119.943 60.3408L119.68 60.4757L120.804 62.2144L121.067 62.0795C122.595 61.4621 123.962 60.5962 125.066 59.8653ZM116.22 64.0667L115.359 62.1932C113.883 62.619 112.194 62.9881 110.769 63.2223L111.154 65.1739C112.791 64.9964 114.48 64.6274 116.22 64.0667ZM105.819 65.5927L105.697 63.5062C104.111 63.4921 102.314 63.4211 100.779 63.2154L100.478 65.1883C102.436 65.5076 104.182 65.7701 105.819 65.5927ZM96.0667 62.158C94.4231 61.5122 92.9914 60.9232 91.611 60.1426L90.4619 61.8884C92.0542 62.7258 93.6465 63.5632 95.2901 64.209L96.0667 62.158ZM88.0989 57.1478C87.7265 56.8427 87.5659 56.5943 87.1935 56.2892C86.5001 55.4872 85.858 54.4937 85.2159 53.5002L83.3734 54.4441C84.0155 55.4376 84.8695 56.4879 85.5116 57.4814C85.884 57.7866 86.205 58.2834 86.3656 58.5317L88.0989 57.1478ZM83.3857 49.3131C82.795 48.128 82.5187 46.6163 81.8188 44.9912L79.6553 45.4383C80.3039 47.2551 80.6314 48.5751 81.1708 49.9518L83.3857 49.3131ZM80.5151 40.5345C80.1875 39.2145 79.6994 37.6461 78.9995 36.0209L76.8359 36.4681C77.324 38.0365 77.8121 39.6048 78.1397 40.9248L80.5151 40.5345ZM77.0602 31.3939C76.1483 29.712 75.3457 28.4701 74.1193 27.1146L72.4374 28.3069C73.5032 29.414 74.3058 30.6559 75.0571 32.0894L77.0602 31.3939ZM70.2862 23.6231C68.9571 22.6508 67.3648 21.8134 65.5093 21.1109L64.784 22.9703C66.2158 23.5593 67.8081 24.3966 68.9766 25.1205L70.2862 23.6231ZM60.1229 21.7213L60.4245 19.7484C58.6782 19.4858 56.9319 19.2233 55.1342 19.1524L55.0445 21.182C56.8422 21.253 58.5885 21.5155 60.1229 21.7213ZM50.2359 21.3312L50.1137 19.2447C48.4765 19.4222 46.8908 19.408 44.9904 19.7203L45.3758 21.6719C47.013 21.4944 48.6501 21.317 50.2359 21.3312ZM40.4131 22.3958L40.0277 20.4442L38.6025 20.6785C37.4405 20.7778 36.2271 21.0688 35.0651 21.1682L35.4504 23.1198C36.6125 23.0204 37.8259 22.7294 38.9879 22.6301L40.4131 22.3958ZM30.2759 23.787L29.8905 21.8354C28.0415 21.9561 26.4044 22.1335 25.0305 22.1761L25.1527 24.2626C26.7898 24.0851 28.6388 23.9644 30.2759 23.787ZM20.0229 23.9149L20.1126 21.8852C18.315 21.8143 16.8319 21.4169 15.2975 21.2111L14.784 23.1272C16.479 23.5814 18.2253 23.844 20.0229 23.9149ZM10.739 19.5789C9.30725 18.9899 7.92685 18.2093 6.59778 17.2371L5.28822 18.7345C6.56594 19.8984 8.15821 20.7358 9.75049 21.5731L10.739 19.5789Z" fill="black"/>
<path d="M144.703 36.5805L147.176 48.5385L145.064 48.794L143.137 39.036L132.582 41.1368L131.985 39.1284L144.703 36.5805Z" fill="black"/>
</g>
<defs>
<clipPath id="clip0_356_1327">
<rect width="39.2778" height="144.767" fill="white" transform="matrix(-0.258819 0.965926 0.965926 0.258819 10.1658 0.53125)"/>
</clipPath>
</defs>
</svg>
