<svg width="28" height="91" viewBox="0 0 28 91" fill="none" xmlns="http://www.w3.org/2000/svg">
<g clip-path="url(#clip0_422_374)">
<path d="M1.69695 87.8288L1.27271 86.45C2.2626 86.1742 3.39392 85.7606 4.38382 85.4848L4.80806 86.8636C3.81816 87.1394 2.68685 87.4152 1.69695 87.8288ZM7.91917 85.6227L7.35351 84.3818C8.34341 83.9682 9.33331 83.5545 10.3232 83.1409L10.8889 84.3818C10.0404 84.7955 8.90907 85.2091 7.91917 85.6227ZM14 83.003L13.2929 81.7621C14.2828 81.2106 15.2727 80.6591 16.1212 80.2455L16.8283 81.3485C15.9798 81.9 14.9899 82.4515 14 83.003ZM19.6565 79.4182L18.8081 78.3151C19.5151 77.7636 20.3636 77.0742 20.9293 76.3848L21.0707 76.247L22.0606 77.2121L21.9192 77.35C21.2121 78.1773 20.3636 78.8667 19.6565 79.4182ZM24.1818 74.7303L23.0505 73.903C23.6161 73.0758 24.1818 72.1106 24.606 71.2833L25.8788 71.8348C25.4545 72.8 24.8889 73.7652 24.1818 74.7303ZM27.1515 68.6636L25.7374 68.25C26.0202 67.2849 26.303 66.1818 26.4444 65.2167L27.8586 65.3545C27.7172 66.5955 27.5757 67.6985 27.1515 68.6636ZM26.5858 62.1833C26.4444 61.0803 26.303 60.1152 26.0202 59.15L27.4343 58.7364C27.7172 59.8394 28 60.9424 28.1414 62.0455L26.5858 62.1833ZM24.606 56.5303C24.4646 56.2545 24.3232 56.1167 24.1818 55.8409C23.7576 55.2894 23.1919 54.7379 22.6262 54.1864L23.6161 53.2212C24.1818 53.7727 24.7475 54.4621 25.3131 55.0136C25.4545 55.2894 25.7374 55.5652 25.8788 55.703L24.606 56.5303ZM20.0808 52.3939C19.3737 51.8424 18.3838 51.4288 17.3939 50.7394L18.101 49.4985C19.2323 50.1879 20.0808 50.6015 20.9293 51.153L20.0808 52.3939ZM14.5656 49.2227C13.7172 48.8091 12.7273 48.2576 11.7374 47.5682L12.4444 46.3273C13.4343 46.8788 14.4242 47.4303 15.2727 47.8439L14.5656 49.2227ZM8.90907 45.6379C7.91917 44.8106 7.2121 44.1212 6.50503 43.1561L7.63634 42.3288C8.202 43.1561 8.90907 43.8455 9.75755 44.5348L8.90907 45.6379ZM4.80806 40.2606C4.38382 39.2955 4.10099 38.1924 3.95957 36.9515L5.37372 36.8136C5.51513 37.7788 5.79796 38.8818 6.08079 39.7091L4.80806 40.2606ZM5.37372 33.7803L3.95957 33.6424C4.10099 32.5394 4.2424 31.4364 4.52523 30.3333L5.93937 30.6091C5.65654 31.7121 5.51513 32.8152 5.37372 33.7803ZM6.92927 27.7136L5.51513 27.3C5.93937 26.3348 6.2222 25.3697 6.78786 24.2667L8.06058 24.8182C7.63634 25.7833 7.2121 26.7485 6.92927 27.7136ZM9.47473 21.9227L8.202 21.3712L8.62624 20.5439C8.90907 19.8545 9.33331 19.1652 9.61614 18.4758L10.8889 19.0273C10.606 19.7167 10.1818 20.4061 9.89897 21.0955L9.47473 21.9227ZM12.303 15.9939L11.0303 15.4424C11.4545 14.3394 11.8788 13.3742 12.1616 12.547L13.5757 12.9606C13.1515 13.9258 12.7273 15.0288 12.303 15.9939ZM14.2828 9.78939L12.8687 9.51364C13.1515 8.41061 13.1515 7.44545 13.2929 6.4803H14.707C14.707 7.58333 14.5656 8.68636 14.2828 9.78939ZM13.0101 3.44697C12.8687 2.48182 12.5858 1.51667 12.1616 0.551515L13.4343 0C14 0.965151 14.2828 2.06818 14.5656 3.17121L13.0101 3.44697Z" fill="black"/>
<path d="M0 87.5527L7.77778 90.9997L8.34344 89.7587L1.9798 87.0012L5.37374 80.9345L4.10101 80.2451L0 87.5527Z" fill="black"/>
</g>
<defs>
<clipPath id="clip0_422_374">
<rect width="28" height="91" fill="white"/>
</clipPath>
</defs>
</svg>
