<svg width="147" height="193" viewBox="0 0 147 193" fill="none" xmlns="http://www.w3.org/2000/svg">
<g clip-path="url(#clip0_1_530)">
<path d="M29.6086 146.559L30.0837 144.205C31.7206 144.558 33.6687 144.816 35.3056 145.169L34.8306 147.523C33.1937 147.17 31.3539 146.709 29.6086 146.559ZM40.2692 148.081L40.433 145.822C42.1783 145.972 43.9235 146.122 45.6688 146.272L45.505 148.531C43.9626 148.49 42.0145 148.231 40.2692 148.081ZM51.052 148.886L51.013 146.519C52.8666 146.466 54.7202 146.413 56.2626 146.454L56.41 148.619C54.7593 148.781 52.9057 148.833 51.052 148.886ZM61.9848 147.946L61.6345 145.673C63.0823 145.403 64.8414 145.039 66.1948 144.458L66.506 144.364L67.1676 146.542L66.8564 146.637C65.1918 147.312 63.4327 147.677 61.9848 147.946ZM72.1614 144.516L71.1886 142.432C72.6503 141.648 74.2204 140.661 75.4793 139.769L76.8717 141.556C75.5045 142.651 73.9344 143.638 72.1614 144.516ZM81.1901 137.865L79.4864 136.173C80.6508 134.97 81.9235 133.563 82.8849 132.251L84.8053 133.538C83.6271 135.256 82.5573 136.77 81.1901 137.865ZM85.4719 127.896C86.136 126.165 86.6917 124.637 87.0445 123L89.3984 123.475C88.9372 125.314 88.476 127.154 87.8119 128.886L85.4719 127.896ZM87.0747 118.061C87.0886 117.547 86.994 117.236 87.0079 116.722C86.8327 115.585 86.4547 114.34 86.0767 113.095L88.2554 112.434C88.6334 113.679 88.9031 115.126 89.2811 116.371C89.2673 116.886 89.4563 117.508 89.5508 117.819L87.0747 118.061ZM83.8336 108.507C83.2527 107.154 82.1576 105.787 81.2793 104.014L83.269 102.729C84.3502 104.611 85.2424 105.87 86.0262 107.331L83.8336 108.507ZM78.4138 99.6145C77.5216 98.3556 76.535 96.7855 75.6566 95.0126L77.6464 93.7285C78.633 95.2986 79.6197 96.8687 80.5119 98.1275L78.4138 99.6145ZM73.1162 90.0049C72.3463 88.029 71.8737 86.4728 71.6179 84.5108L73.8911 84.1605C74.0524 85.8112 74.525 87.3675 75.2004 89.0321L73.1162 90.0049ZM71.4591 78.9499C71.609 77.2047 72.0702 75.3649 72.8427 73.4306L74.9798 74.3114C74.4241 75.8399 73.9629 77.6797 73.7185 79.1137L71.4591 78.9499ZM77.3639 69.8481L75.4435 68.5615C76.5133 67.0468 77.5831 65.5322 78.8558 64.1259L80.6679 65.6153C79.3952 67.0216 78.3254 68.5363 77.3639 69.8481ZM84.3638 62.1135L82.6601 60.4211C84.0273 59.3261 85.1917 58.1227 86.8701 56.9331L88.2626 58.7199C86.8953 59.815 85.5281 60.91 84.3638 62.1135ZM92.5671 55.5432L91.1747 53.7563L92.4335 52.8642C93.3811 52.0665 94.5316 51.3772 95.4792 50.5795L96.8716 52.3664C95.924 53.164 94.7735 53.8533 93.8259 54.651L92.5671 55.5432ZM101.285 48.9867L99.8921 47.1999C101.368 45.902 102.735 44.8069 103.791 43.8064L105.495 45.4987C104.127 46.5937 102.652 47.8917 101.285 48.9867ZM109.001 41.3743L107.189 39.8849C108.462 38.4786 109.221 37.0584 110.182 35.7466L112.211 36.8303C111.344 38.4533 110.274 39.968 109.001 41.3743ZM112.16 31.0666C112.716 29.538 113.069 27.9011 113.219 26.1559L115.478 26.3197C115.531 28.1733 115.07 30.0131 114.609 31.8528L112.16 31.0666Z" fill="black"/>
<path fill-rule="evenodd" clip-rule="evenodd" d="M114.041 20.392C114.061 20.5983 114.082 20.8047 114.075 21.0617L116.551 20.8198C116.456 20.5085 116.267 19.886 116.281 19.3719C116.092 18.7494 115.93 18.0762 115.768 17.403C115.606 16.7298 115.444 16.0565 115.255 15.434L113.077 16.0956C113.455 17.3406 113.833 18.5856 114.008 19.7222C114.001 19.9793 114.021 20.1856 114.041 20.392ZM109.617 9.33676C110.093 10.1005 110.532 10.8059 110.834 11.5076L113.026 10.3319C112.602 9.54052 112.146 8.80864 111.645 8.00526C111.221 7.32468 110.765 6.59278 110.269 5.72995L108.279 7.01402C108.702 7.86776 109.175 8.62743 109.617 9.33676ZM102.657 -1.98694C103.535 -0.213963 104.522 1.35614 105.414 2.61499L107.512 1.12804C106.62 -0.130812 105.633 -1.70092 104.646 -3.27101L102.657 -1.98694ZM98.6179 -12.4887C98.8737 -10.5267 99.3463 -8.97047 100.116 -6.99462L102.2 -7.96743C101.525 -9.63204 101.052 -11.1883 100.891 -12.839L98.6179 -12.4887ZM99.8426 -23.5689C99.0702 -21.6346 98.609 -19.7948 98.4591 -18.0496L100.718 -17.8858C100.963 -19.3198 101.424 -21.1596 101.98 -22.6881L99.8426 -23.5689ZM102.443 -28.438L104.364 -27.1514C104.482 -27.3129 104.602 -27.4775 104.724 -27.6446C105.592 -28.8345 106.552 -30.151 107.668 -31.3842L105.856 -32.8736C104.583 -31.4673 103.513 -29.9527 102.443 -28.438ZM109.66 -36.5784L111.364 -34.8861C112.528 -36.0895 113.895 -37.1845 115.263 -38.2796L113.87 -40.0664C112.831 -39.3299 111.989 -38.588 111.173 -37.8699C110.672 -37.4282 110.181 -36.9954 109.66 -36.5784ZM118.175 -43.2432L119.567 -41.4564L120.826 -42.3485C121.3 -42.7474 121.824 -43.1191 122.349 -43.4908C122.873 -43.8626 123.398 -44.2343 123.872 -44.6331L122.479 -46.42C122.005 -46.0211 121.481 -45.6494 120.956 -45.2777C120.432 -44.9059 119.907 -44.5342 119.433 -44.1354L118.175 -43.2432ZM126.892 -49.7996L128.284 -48.0128C128.968 -48.5603 129.679 -49.1586 130.39 -49.7568C131.1 -50.3551 131.811 -50.9533 132.495 -51.5008L130.791 -53.1931C130.151 -52.5873 129.398 -51.9467 128.575 -51.2475C128.039 -50.792 127.474 -50.3116 126.892 -49.7996ZM134.189 -57.1146L136.001 -55.6252C137.274 -57.0315 138.344 -58.5462 139.211 -60.1692L137.182 -61.2529C136.851 -60.8015 136.544 -60.3373 136.232 -59.8653C135.638 -58.9654 135.024 -58.0371 134.189 -57.1146ZM140.219 -70.8436C140.069 -69.0984 139.716 -67.4615 139.16 -65.933L141.609 -65.1467C142.07 -66.9864 142.531 -68.8262 142.478 -70.6798L140.219 -70.8436Z" fill="black"/>
<path d="M20.102 144.347L29.7749 154.323L31.388 152.733L23.4355 144.667L32.2732 137.265L30.7667 135.438L20.102 144.347Z" fill="black"/>
</g>
<defs>
<clipPath id="clip0_1_530">
<rect width="68.7906" height="181.014" fill="white" transform="translate(86.0163 0.29126) rotate(28.109)"/>
</clipPath>
</defs>
</svg>
