<svg width="460" height="237" viewBox="0 0 460 237" fill="none" xmlns="http://www.w3.org/2000/svg">
<path d="M422.966 125.166C422.576 82.5811 387.881 48.2802 345.13 48.2802H313.034C296.661 20.1922 266.254 1.29437 231.429 1.29437H168.797V25.1109C154.373 37.9252 143.847 55.1404 139.559 74.6854C97.3277 77.4036 63.8023 112.352 63.8023 155.196C63.8023 199.722 100.056 235.835 144.757 235.835H402.435C434.141 235.835 459.87 210.206 459.87 178.624C460 154.16 444.537 133.321 422.966 125.166Z" fill="#BBCCF2"/>
<path opacity="0.7" d="M422.966 125.166C422.576 82.5811 387.881 48.2802 345.13 48.2802H313.034C296.661 20.1922 266.254 1.29437 231.429 1.29437H168.797V25.1109C154.373 37.9252 143.847 55.1404 139.559 74.6854C97.3277 77.4036 63.8023 112.352 63.8023 155.196C63.8023 199.722 100.056 235.835 144.757 235.835H402.435C434.141 235.835 459.87 210.206 459.87 178.624C460 154.16 444.537 133.321 422.966 125.166Z" fill="white"/>
<path d="M360.333 125.166C359.943 82.5811 325.249 48.2802 282.497 48.2802C272.232 48.2802 262.356 50.3512 253.39 53.9754C238.057 22.781 205.96 1.29437 168.797 1.29437C123.836 1.29437 86.2825 32.6182 76.9266 74.6854C34.6949 77.2742 1.29944 112.352 1.29944 155.066C1.29944 199.593 37.5537 235.706 82.2542 235.706H339.932C371.638 235.706 397.367 210.077 397.367 178.494C397.367 154.16 382.034 133.321 360.333 125.166Z" fill="#203B54"/>
<mask id="mask0_356_1248" style="mask-type:luminance" maskUnits="userSpaceOnUse" x="1" y="1" width="397" height="235">
<path d="M360.034 125.166C359.644 82.5811 324.949 48.2802 282.198 48.2802C271.932 48.2802 262.057 50.3512 253.091 53.9754C237.757 22.781 205.661 1.29437 168.497 1.29437C123.537 1.29437 85.9832 32.6182 76.6272 74.6854C34.3956 77.2742 1.00012 112.352 1.00012 155.066C1.00012 199.593 37.2544 235.706 81.9549 235.706H339.633C371.339 235.706 397.068 210.077 397.068 178.494C397.068 154.16 381.735 133.321 360.034 125.166Z" fill="white"/>
</mask>
<g mask="url(#mask0_356_1248)">
<path opacity="0.1" d="M422.966 125.166C422.576 82.5811 387.881 48.2802 345.13 48.2802C334.864 48.2802 324.989 50.3512 316.023 53.9754C300.689 22.781 268.593 1.29437 231.429 1.29437C186.469 1.29437 148.915 32.7477 139.559 74.6854C97.3277 77.4036 63.8023 112.352 63.8023 155.196C63.8023 199.722 100.056 235.835 144.757 235.835H402.435C434.141 235.835 459.87 210.206 459.87 178.624C460 154.16 444.537 133.321 422.966 125.166Z" fill="black"/>
</g>
<path d="M339.932 237H82.2542C36.9039 237 0 200.24 0 155.066C0 112.352 33.2655 76.627 76.0169 73.391C80.6949 53.0694 92.3898 34.5598 108.763 21.2277C125.655 7.50737 146.966 0 168.797 0C205.181 0 237.667 20.0628 254.04 52.2927C263.136 48.7979 272.751 46.9858 282.627 46.9858C325.638 46.9858 360.853 81.5456 361.763 124.26C383.853 133.062 398.797 154.807 398.797 178.624C398.667 210.854 372.288 237 339.932 237ZM168.797 2.45931C125.655 2.45931 87.5819 32.8771 78.226 74.8148C78.096 75.3326 77.5763 75.7209 77.0565 75.8503C35.2147 78.5685 2.46893 113.387 2.46893 155.066C2.46893 198.816 38.2034 234.541 82.2542 234.541H339.932C370.859 234.541 396.068 209.43 396.068 178.624C396.068 155.584 381.514 134.615 359.944 126.331C359.424 126.202 359.164 125.684 359.164 125.166C358.774 83.4872 324.469 49.4451 282.627 49.4451C272.751 49.4451 263.136 51.2572 253.91 55.0109C253.26 55.2698 252.61 55.0109 252.35 54.3637C236.497 22.3927 204.531 2.45931 168.797 2.45931Z" fill="#407BFF"/>
<path opacity="0.7" d="M339.932 237H82.2542C36.9039 237 0 200.24 0 155.066C0 112.352 33.2655 76.627 76.0169 73.391C80.6949 53.0694 92.3898 34.5598 108.763 21.2277C125.655 7.50737 146.966 0 168.797 0C205.181 0 237.667 20.0628 254.04 52.2927C263.136 48.7979 272.751 46.9858 282.627 46.9858C325.638 46.9858 360.853 81.5456 361.763 124.26C383.853 133.062 398.797 154.807 398.797 178.624C398.667 210.854 372.288 237 339.932 237ZM168.797 2.45931C125.655 2.45931 87.5819 32.8771 78.226 74.8148C78.096 75.3326 77.5763 75.7209 77.0565 75.8503C35.2147 78.5685 2.46893 113.387 2.46893 155.066C2.46893 198.816 38.2034 234.541 82.2542 234.541H339.932C370.859 234.541 396.068 209.43 396.068 178.624C396.068 155.584 381.514 134.615 359.944 126.331C359.424 126.202 359.164 125.684 359.164 125.166C358.774 83.4872 324.469 49.4451 282.627 49.4451C272.751 49.4451 263.136 51.2572 253.91 55.0109C253.26 55.2698 252.61 55.0109 252.35 54.3637C236.497 22.3927 204.531 2.45931 168.797 2.45931Z" fill="#1D354C"/>
</svg>
