<svg width="48" height="48" viewBox="0 0 48 48" fill="none" xmlns="http://www.w3.org/2000/svg">
<g clip-path="url(#clip0_356_852)">
<path d="M35.5193 17.5154V15.5554C35.5193 14.9858 35.0575 14.5241 34.488 14.5241H34.3716C33.9037 14.5241 33.5004 14.2074 33.3747 13.7567C33.186 13.0801 32.9261 12.4332 32.6034 11.8247C32.3889 11.4202 32.4552 10.9245 32.779 10.6007L32.8384 10.5413C33.241 10.1387 33.241 9.48572 32.8384 9.08297L31.4524 7.69706C31.0496 7.29431 30.3967 7.29431 29.9939 7.69706L29.981 7.71C29.6512 8.03981 29.1443 8.10169 28.737 7.87444C28.1124 7.52569 27.4454 7.24388 26.7457 7.03856C26.309 6.91031 26.0113 6.50653 26.0113 6.05147V6.04735C26.0113 5.47781 25.5496 5.0161 24.9801 5.0161H23.0199C22.4504 5.0161 21.9887 5.47781 21.9887 6.04735V6.05147C21.9887 6.50653 21.691 6.91031 21.2544 7.03856C20.5546 7.24388 19.8877 7.52569 19.263 7.87444C18.8558 8.10169 18.3489 8.03981 18.019 7.71L18.006 7.69706C17.6033 7.29431 16.9504 7.29431 16.5476 7.69706L15.1616 9.08297C14.7589 9.48572 14.7589 10.1387 15.1616 10.5413L15.221 10.6008C15.5447 10.9245 15.6111 11.4202 15.3966 11.8247C15.0739 12.4332 14.814 13.0801 14.6253 13.7567C14.4997 14.2074 14.0964 14.5241 13.6284 14.5241H13.5119C12.9424 14.5241 12.4807 14.9858 12.4807 15.5554V17.5154C12.4807 18.0849 12.9424 18.5467 13.5119 18.5467H13.7208C14.1767 18.5467 14.5729 18.8476 14.7088 19.2828C14.9117 19.9322 15.1808 20.5523 15.5081 21.1354C15.7322 21.5345 15.6559 22.0351 15.3323 22.3587L15.1616 22.5293C14.7589 22.9321 14.7589 23.5851 15.1616 23.9878L16.5476 25.3737C16.9504 25.7765 17.6033 25.7765 18.006 25.3737L18.2229 25.1568C18.5407 24.8392 19.0299 24.759 19.4264 24.9704C20.0039 25.2784 20.6161 25.5298 21.2556 25.7174C21.6931 25.8458 21.9887 26.2539 21.9887 26.7098V27.0234C21.9887 27.593 22.4504 28.0547 23.0199 28.0547H24.9801C25.5496 28.0547 26.0113 27.593 26.0113 27.0234V26.7098C26.0113 26.2539 26.3069 25.8458 26.7444 25.7174C27.3839 25.5298 27.9961 25.2784 28.5736 24.9704C28.9701 24.759 29.4594 24.8392 29.7771 25.1568L29.9939 25.3737C30.3967 25.7765 31.0496 25.7765 31.4524 25.3737L32.8384 23.9878C33.241 23.5851 33.241 22.9321 32.8384 22.5293L32.6677 22.3587C32.3441 22.0351 32.2678 21.5345 32.4919 21.1354C32.8193 20.5523 33.0883 19.9322 33.2911 19.2828C33.4271 18.8477 33.8233 18.5467 34.2791 18.5467H34.488C35.0575 18.5467 35.5193 18.0849 35.5193 17.5154Z" stroke="#203B54" stroke-width="1.5" stroke-miterlimit="10" stroke-linecap="round" stroke-linejoin="round"/>
<path d="M30.6504 16.3779C30.6504 20.0508 27.6729 23.0283 24 23.0283C20.3271 23.0283 17.3496 20.0508 17.3496 16.3779C17.3496 12.7049 20.3271 9.72745 24 9.72745C27.6729 9.72745 30.6504 12.7049 30.6504 16.3779Z" stroke="#203B54" stroke-width="1.5" stroke-miterlimit="10" stroke-linecap="round" stroke-linejoin="round"/>
<path d="M26.4575 15.6333C26.4575 16.9906 25.3573 18.0908 24 18.0908C22.6428 18.0908 21.5424 16.9906 21.5424 15.6333C21.5424 14.2759 22.6428 13.1757 24 13.1757C25.3573 13.1757 26.4575 14.2759 26.4575 15.6333Z" stroke="#203B54" stroke-width="1.5" stroke-miterlimit="10" stroke-linecap="round" stroke-linejoin="round"/>
<path d="M29.1153 20.6272C28.3601 19.1684 26.9999 18.0741 25.3667 17.676" stroke="#203B54" stroke-width="1.5" stroke-miterlimit="10" stroke-linecap="round" stroke-linejoin="round"/>
<path d="M22.6333 17.6758C21.0001 18.0738 19.64 19.1682 18.8847 20.627" stroke="#203B54" stroke-width="1.5" stroke-miterlimit="10" stroke-linecap="round" stroke-linejoin="round"/>
<path d="M11.6994 6.51917C9.39773 9.30205 8.01764 12.87 8.0348 16.741C8.05317 20.869 9.6383 24.6267 12.2261 27.4506C13.9201 29.2992 15.2509 31.421 16.1761 33.7051" stroke="#203B54" stroke-width="1.5" stroke-miterlimit="10" stroke-linecap="round" stroke-linejoin="round"/>
<path d="M36.4686 26.6396C38.6567 23.9076 39.9653 20.4408 39.9653 16.6681C39.9653 7.81137 32.7535 0.639023 23.8819 0.703148C20.1656 0.730054 16.7443 2.04227 14.0392 4.21315" stroke="#203B54" stroke-width="1.5" stroke-miterlimit="10" stroke-linecap="round" stroke-linejoin="round"/>
<path d="M31.831 33.7061C32.481 32.1059 33.3294 30.5849 34.3601 29.1796" stroke="#203B54" stroke-width="1.5" stroke-miterlimit="10" stroke-linecap="round" stroke-linejoin="round"/>
<path d="M16.456 37.1316C15.503 37.1316 14.7304 36.359 14.7304 35.4059C14.7304 34.4529 15.503 33.6803 16.456 33.6803H31.5439C32.497 33.6803 33.2696 34.4529 33.2696 35.4059C33.2696 36.359 32.497 37.1316 31.5439 37.1316" stroke="#203B54" stroke-width="1.5" stroke-miterlimit="10" stroke-linecap="round" stroke-linejoin="round"/>
<path d="M17.6359 40.5828H16.4561C15.503 40.5828 14.7304 39.8102 14.7304 38.8571C14.7304 37.904 15.503 37.1315 16.4561 37.1315H31.5439C32.497 37.1315 33.2696 37.904 33.2696 38.8571C33.2696 39.8102 32.497 40.5828 31.5439 40.5828H20.9228" stroke="#203B54" stroke-width="1.5" stroke-miterlimit="10" stroke-linecap="round" stroke-linejoin="round"/>
<path d="M31.5439 40.583C32.497 40.583 33.2696 41.3556 33.2696 42.3086C33.2696 43.2616 32.497 44.0342 31.5439 44.0342H16.4561C15.5029 44.0342 14.7304 43.2616 14.7304 42.3086C14.7304 41.3556 15.5029 40.583 16.4561 40.583" stroke="#203B54" stroke-width="1.5" stroke-miterlimit="10" stroke-linecap="round" stroke-linejoin="round"/>
<path d="M17.2038 44.0341V44.9339C17.2038 46.2389 18.2617 47.2969 19.5667 47.2969H28.4332C29.7382 47.2969 30.7962 46.2389 30.7962 44.9339V44.0341" stroke="#203B54" stroke-width="1.5" stroke-miterlimit="10" stroke-linecap="round" stroke-linejoin="round"/>
</g>
<defs>
<clipPath id="clip0_356_852">
<rect width="48" height="48" fill="white"/>
</clipPath>
</defs>
</svg>
