<svg width="148" height="58" viewBox="0 0 148 58" fill="none" xmlns="http://www.w3.org/2000/svg">
<g clip-path="url(#clip0_1_522)">
<path d="M5.24113 16.9036L7.17078 16.0476C7.72744 17.5192 8.50627 19.1862 9.06292 20.6577L7.13327 21.5137C6.57662 20.0422 5.99749 18.3544 5.24113 16.9036ZM9.42483 26.0823L11.1323 25.0309C11.8887 26.4817 12.645 27.9325 13.4014 29.3833L11.6939 30.4348C10.96 29.2001 10.1812 27.5331 9.42483 26.0823ZM14.1852 34.9826L15.8702 33.715C16.8263 35.1451 17.7823 36.5751 18.5162 37.8098L17.0309 39.0566C16.0973 37.8427 15.1412 36.4126 14.1852 34.9826ZM20.276 43.0891L21.7389 41.6262C22.65 42.6239 23.7833 43.8171 24.8717 44.5779L25.0939 44.7733L23.8532 46.4317L23.631 46.2362C22.3205 45.28 21.1872 44.0869 20.276 43.0891ZM27.7848 49.3004L28.8034 47.4466C30.0914 48.1867 31.5792 48.906 32.8448 49.43L32.2482 51.4584C30.7829 50.9552 29.2951 50.2359 27.7848 49.3004ZM37.0436 52.9264L37.418 50.7026C38.8609 50.9896 40.5035 51.2559 41.9239 51.3268L41.9488 53.509C40.129 53.4797 38.5089 53.4296 37.0436 52.9264ZM46.3398 51.0863C47.915 50.7041 49.2904 50.3427 50.6434 49.7651L51.4672 51.8644C49.9145 52.4627 48.3618 53.061 46.7866 53.4432L46.3398 51.0863ZM54.2132 47.2092C54.5901 46.9515 54.7674 46.7146 55.1443 46.457C55.8757 45.7255 56.5847 44.7779 57.2937 43.8302L58.8488 45.198C58.1399 46.1457 57.2312 47.114 56.5222 48.0617C56.1453 48.3193 55.7908 48.7932 55.6136 49.0301L54.2132 47.2092ZM59.4855 39.6697C60.1719 38.5059 60.6138 36.9305 61.4551 35.3137L63.3647 36.2077C62.5459 38.0407 62.0816 39.3998 61.4176 40.7798L59.4855 39.6697ZM63.2025 30.7623C63.6669 29.4031 64.3084 27.807 65.1497 26.1902L67.0594 27.0841C66.4178 28.6802 65.7762 30.2763 65.3119 31.6355L63.2025 30.7623ZM67.4963 21.5765C68.5373 19.9389 69.4235 18.7544 70.7091 17.5283L72.087 19.133C70.9786 20.1222 70.0924 21.3067 69.2287 22.7074L67.4963 21.5765ZM74.6333 14.4986C75.9638 13.7049 77.5165 13.1066 79.2914 12.7036L79.7157 14.8444C78.3403 15.2058 76.7876 15.8042 75.6343 16.361L74.6333 14.4986ZM84.1092 14.3878L84.0843 12.2055C85.7044 12.2556 87.3245 12.3057 88.9671 12.572L88.7923 14.775C87.1497 14.5088 85.5296 14.4587 84.1092 14.3878ZM93.1433 15.8523L93.5178 13.6285C94.9831 14.1316 96.426 14.4187 98.1135 15.1172L97.5168 17.1456C96.0515 16.6425 94.5862 16.1393 93.1433 15.8523ZM101.935 18.8713L102.532 16.8429L103.798 17.3669C104.841 17.6954 105.907 18.2401 106.95 18.5686L106.354 20.597C105.31 20.2685 104.244 19.7238 103.201 19.3953L101.935 18.8713ZM110.972 22.302L111.568 20.2736C113.233 20.756 114.699 21.2592 115.942 21.5669L115.567 23.7907C114.102 23.2876 112.437 22.8051 110.972 22.302ZM120.273 24.3941L120.448 22.1911C122.09 22.4574 123.488 22.3121 124.909 22.383L125.133 24.5445C123.536 24.7105 121.916 24.6604 120.273 24.3941ZM129.257 21.494C130.633 21.1326 131.986 20.555 133.316 19.7613L134.317 21.6236C133.009 22.6335 131.456 23.2319 129.904 23.8302L129.257 21.494Z" fill="black"/>
<path d="M5.40387 14.2648L1.23556 26.7149L3.27081 27.3773L6.58299 17.2011L16.6329 21.4004L17.5115 19.3427L5.40387 14.2648Z" fill="black"/>
<path d="M141.169 19.4284L128.825 13.0466L127.802 15.0675L137.906 20.1846L131.882 30.0132L133.891 31.2664L141.169 19.4284Z" fill="black"/>
</g>
<defs>
<clipPath id="clip0_1_522">
<rect width="43.0289" height="143.43" fill="white" transform="translate(142.661) rotate(84.0667)"/>
</clipPath>
</defs>
</svg>
