<svg width="28" height="91" viewBox="0 0 28 91" fill="none" xmlns="http://www.w3.org/2000/svg">
<g clip-path="url(#clip0_422_382)">
<path d="M26.3031 87.8288L26.7273 86.45C25.7374 86.1742 24.6061 85.7606 23.6162 85.4848L23.1919 86.8636C24.1818 87.1394 25.3132 87.4152 26.3031 87.8288ZM20.0808 85.6227L20.6465 84.3818C19.6566 83.9682 18.6667 83.5545 17.6768 83.1409L17.1111 84.3818C17.9596 84.7955 19.0909 85.2091 20.0808 85.6227ZM14 83.003L14.7071 81.7621C13.7172 81.2106 12.7273 80.6591 11.8788 80.2455L11.1717 81.3485C12.0202 81.9 13.0101 82.4515 14 83.003ZM8.34345 79.4182L9.19194 78.3151C8.48487 77.7636 7.63638 77.0742 7.07073 76.3848L6.92931 76.247L5.93941 77.2121L6.08083 77.35C6.7879 78.1773 7.63638 78.8667 8.34345 79.4182ZM3.8182 74.7303L4.94952 73.903C4.38386 73.0758 3.8182 72.1106 3.39396 71.2833L2.12123 71.8348C2.54548 72.8 3.11113 73.7652 3.8182 74.7303ZM0.848503 68.6636L2.26264 68.25C1.97982 67.2849 1.69699 66.1818 1.55557 65.2167L0.141432 65.3545C0.282846 66.5955 0.424261 67.6985 0.848503 68.6636ZM1.41416 62.1833C1.55558 61.0803 1.69699 60.1152 1.97982 59.15L0.565676 58.7364C0.282848 59.8394 1.90735e-05 60.9424 -0.141394 62.0455L1.41416 62.1833ZM3.39396 56.5303C3.53537 56.2545 3.67679 56.1167 3.8182 55.8409C4.24244 55.2894 4.8081 54.7379 5.37376 54.1864L4.38386 53.2212C3.8182 53.7727 3.25255 54.4621 2.68689 55.0136C2.54548 55.2894 2.26265 55.5652 2.12123 55.703L3.39396 56.5303ZM7.91921 52.3939C8.62628 51.8424 9.61618 51.4288 10.6061 50.7394L9.89901 49.4985C8.7677 50.1879 7.91921 50.6015 7.07073 51.153L7.91921 52.3939ZM13.4344 49.2227C14.2828 48.8091 15.2727 48.2576 16.2626 47.5682L15.5556 46.3273C14.5657 46.8788 13.5758 47.4303 12.7273 47.8439L13.4344 49.2227ZM19.0909 45.6379C20.0808 44.8106 20.7879 44.1212 21.495 43.1561L20.3637 42.3288C19.798 43.1561 19.0909 43.8455 18.2424 44.5348L19.0909 45.6379ZM23.1919 40.2606C23.6162 39.2955 23.899 38.1924 24.0404 36.9515L22.6263 36.8136C22.4849 37.7788 22.202 38.8818 21.9192 39.7091L23.1919 40.2606ZM22.6263 33.7803L24.0404 33.6424C23.899 32.5394 23.7576 31.4364 23.4748 30.3333L22.0606 30.6091C22.3435 31.7121 22.4849 32.8152 22.6263 33.7803ZM21.0707 27.7136L22.4849 27.3C22.0606 26.3348 21.7778 25.3697 21.2121 24.2667L19.9394 24.8182C20.3637 25.7833 20.7879 26.7485 21.0707 27.7136ZM18.5253 21.9227L19.798 21.3712L19.3738 20.5439C19.0909 19.8545 18.6667 19.1652 18.3839 18.4758L17.1111 19.0273C17.394 19.7167 17.8182 20.4061 18.101 21.0955L18.5253 21.9227ZM15.697 15.9939L16.9697 15.4424C16.5455 14.3394 16.1212 13.3742 15.8384 12.547L14.4243 12.9606C14.8485 13.9258 15.2727 15.0288 15.697 15.9939ZM13.7172 9.78939L15.1313 9.51364C14.8485 8.41061 14.8485 7.44545 14.7071 6.4803H13.293C13.293 7.58333 13.4344 8.68636 13.7172 9.78939ZM14.9899 3.44697C15.1313 2.48182 15.4142 1.51667 15.8384 0.551515L14.5657 0C14 0.965151 13.7172 2.06818 13.4344 3.17121L14.9899 3.44697Z" fill="black"/>
<path d="M28 87.5532L20.2222 91.0001L19.6566 89.7592L26.0202 87.0017L22.6263 80.935L23.899 80.2456L28 87.5532Z" fill="black"/>
</g>
<defs>
<clipPath id="clip0_422_382">
<rect width="28" height="91" fill="white" transform="matrix(-1 0 0 1 28 0)"/>
</clipPath>
</defs>
</svg>
