<svg width="82" height="113" viewBox="0 0 82 113" fill="none" xmlns="http://www.w3.org/2000/svg">
<g clip-path="url(#clip0_356_1318)">
<path d="M77.9975 94.4147L77.6541 92.7133C76.4709 92.9683 75.0628 93.155 73.8796 93.41L74.223 95.1115C75.4062 94.8565 76.736 94.5231 77.9975 94.4147ZM70.2918 95.515L70.1734 93.8818C68.9119 93.9902 67.6504 94.0986 66.3889 94.207L66.5073 95.8401C67.6222 95.81 69.0303 95.6233 70.2918 95.515ZM62.4978 96.0969L62.5261 94.3855C61.1862 94.3472 59.8464 94.3089 58.7315 94.339L58.625 95.9038C59.8181 96.0204 61.158 96.0587 62.4978 96.0969ZM54.5954 95.4174L54.8486 93.7742C53.8021 93.5793 52.5306 93.3161 51.5523 92.8962L51.3274 92.8279L50.8492 94.4027L51.0741 94.471C52.2774 94.9592 53.5489 95.2225 54.5954 95.4174ZM47.2395 92.938L47.9427 91.4315C46.8862 90.865 45.7513 90.1518 44.8413 89.5069L43.8349 90.7985C44.8231 91.59 45.958 92.3032 47.2395 92.938ZM40.7135 88.1306L41.9449 86.9074C41.1033 86.0375 40.1834 85.021 39.4884 84.0728L38.1003 85.0028C38.9519 86.2443 39.7252 87.3391 40.7135 88.1306ZM37.6185 80.925C37.1385 79.6735 36.7368 78.5687 36.4818 77.3855L34.7804 77.7288C35.1137 79.0587 35.4471 80.3885 35.9271 81.64L37.6185 80.925ZM36.46 73.8159C36.4499 73.4443 36.5183 73.2193 36.5082 72.8477C36.6349 72.0261 36.9081 71.1262 37.1814 70.2263L35.6065 69.7481C35.3333 70.648 35.1384 71.6946 34.8651 72.5945C34.8751 72.9661 34.7385 73.4161 34.6702 73.641L36.46 73.8159ZM38.8027 66.91C39.2226 65.9318 40.0141 64.9435 40.649 63.662L39.2108 62.7338C38.4293 64.0937 37.7844 65.0036 37.2178 66.0602L38.8027 66.91ZM42.7202 60.4823C43.3651 59.5723 44.0783 58.4375 44.7132 57.1559L43.2749 56.2278C42.5618 57.3627 41.8486 58.4976 41.2037 59.4075L42.7202 60.4823ZM46.5494 53.5363C47.1059 52.1081 47.4475 50.9832 47.6324 49.565L45.9893 49.3118C45.8727 50.505 45.5311 51.6299 45.0429 52.8331L46.5494 53.5363ZM47.7472 45.5455C47.6388 44.284 47.3055 42.9542 46.7472 41.5561L45.2024 42.1927C45.604 43.2976 45.9374 44.6274 46.1141 45.6639L47.7472 45.5455ZM43.4791 38.9666L44.8672 38.0366C44.0939 36.9418 43.3206 35.8469 42.4007 34.8304L41.0909 35.907C42.0109 36.9235 42.7841 38.0184 43.4791 38.9666ZM38.4195 33.3758L39.6509 32.1526C38.6627 31.3611 37.8211 30.4912 36.6078 29.6314L35.6014 30.9229C36.5896 31.7144 37.5779 32.506 38.4195 33.3758ZM32.49 28.6267L33.4964 27.3351L32.5865 26.6903C31.9016 26.1137 31.07 25.6155 30.3851 25.0389L29.3786 26.3305C30.0635 26.907 30.8951 27.4052 31.58 27.9818L32.49 28.6267ZM26.1888 23.8876L27.1953 22.596C26.1287 21.6579 25.1405 20.8663 24.3772 20.1431L23.1458 21.3664C24.134 22.1579 25.2006 23.0961 26.1888 23.8876ZM20.6109 18.3852L21.9207 17.3086C21.0008 16.2921 20.4525 15.2656 19.7575 14.3174L18.2911 15.1007C18.9177 16.2739 19.691 17.3687 20.6109 18.3852ZM18.3275 10.9345C17.9259 9.8297 17.6708 8.64653 17.5625 7.38502L15.9293 7.50342C15.8911 8.84326 16.2244 10.1731 16.5578 11.5029L18.3275 10.9345Z" fill="black"/>
<path d="M79.6006 93.1815L73.4934 101.156L72.2018 100.149L77.2342 93.6915L70.2682 89.1191L71.1963 87.6809L79.6006 93.1815Z" fill="black"/>
<path d="M16.1475 6.60623L24.7975 11.7117L23.9534 13.1148L16.938 8.89421L13.2352 16.3589L11.6959 15.6102L16.1475 6.60623Z" fill="black"/>
</g>
<defs>
<clipPath id="clip0_356_1318">
<rect width="32.9183" height="109.728" fill="white" transform="matrix(-0.882053 0.471151 0.471151 0.882053 29.8606 0.0620117)"/>
</clipPath>
</defs>
</svg>
